<svg width="40" height="39" viewBox="0 0 40 39" fill="none" xmlns="http://www.w3.org/2000/svg">
<g filter="url(#filter0_d_974_8477)">
<path d="M11.8347 14.188L12.1909 15.5364L10.8664 15.8964L3.3335 29.1854L17.6202 20.9042C17.5391 20.6543 17.4953 20.3873 17.4953 20.1099C17.4953 19.8022 17.5493 19.5073 17.648 19.2343L16.0284 18.9574L15.8786 17.6961L17.0303 17.197L18.0765 18.4825C18.434 18.0481 18.9318 17.7367 19.4992 17.6199L19.4992 0.666748L11.8347 14.188Z" fill="#D592A1"/>
<path d="M29.134 15.8964L27.8095 15.5364L28.1656 14.188L20.5011 0.666775L20.5011 17.6199C21.0686 17.7367 21.5664 18.0481 21.9239 18.4825L22.97 17.197L24.1217 17.6961L23.9719 18.9574L22.3523 19.2343C22.4511 19.5073 22.505 19.8022 22.505 20.1099C22.505 20.3873 22.4612 20.6543 22.3802 20.9042L36.6668 29.1854L29.134 15.8964Z" fill="#D592A1"/>
<path d="M3.47606 30.2734L18.9982 30.2734L20.0002 29.257L21.0021 30.2734L36.5243 30.2734L21.8825 21.7863C21.5128 22.2132 21.0041 22.5132 20.4283 22.6138L21.0021 24.1753L20.0002 24.9376L18.9982 24.1753L19.5721 22.6138C18.9962 22.5132 18.4876 22.2132 18.1178 21.7863L3.47606 30.2734Z" fill="#D592A1"/>
<path d="M20.0002 21.85C20.9712 21.85 21.7584 21.0628 21.7584 20.0917C21.7584 19.1206 20.9712 18.3334 20.0002 18.3334C19.0291 18.3334 18.2419 19.1206 18.2419 20.0917C18.2419 21.0628 19.0291 21.85 20.0002 21.85Z" fill="#D592A1"/>
</g>
<defs>
<filter id="filter0_d_974_8477" x="-4.6665" y="-7.33325" width="49.3335" height="45.6067" filterUnits="userSpaceOnUse" color-interpolation-filters="sRGB">
<feFlood flood-opacity="0" result="BackgroundImageFix"/>
<feColorMatrix in="SourceAlpha" type="matrix" values="0 0 0 0 0 0 0 0 0 0 0 0 0 0 0 0 0 0 127 0" result="hardAlpha"/>
<feOffset/>
<feGaussianBlur stdDeviation="4"/>
<feComposite in2="hardAlpha" operator="out"/>
<feColorMatrix type="matrix" values="0 0 0 0 0.835294 0 0 0 0 0.572549 0 0 0 0 0.631373 0 0 0 0.5 0"/>
<feBlend mode="normal" in2="BackgroundImageFix" result="effect1_dropShadow_974_8477"/>
<feBlend mode="normal" in="SourceGraphic" in2="effect1_dropShadow_974_8477" result="shape"/>
</filter>
</defs>
</svg>
