<svg width="1052" height="472" viewBox="0 0 1052 472" fill="none" xmlns="http://www.w3.org/2000/svg">
<path d="M1014.99 209.094C1014.99 209.094 1014.79 208.052 1015.58 207.835C1015.58 207.835 1015.05 206.815 1015.27 206.242C1015.5 205.668 1009.18 203.9 1008.65 203.681C1008.12 203.459 1003.82 202.232 1002.09 202.121C1000.35 202.015 995.69 198.549 995 197.424C995 197.424 1001.14 198.221 1003.25 199.394C1005.37 200.565 1008.76 200.659 1010.29 200.967C1011.83 201.275 1017.79 204.677 1018.58 204.606C1019.37 204.537 1021.48 204.321 1022.1 203.933C1022.72 203.543 1025.13 199.598 1026.93 198.229C1028.73 196.861 1032.98 193.578 1034.36 192.834C1035.73 192.095 1037.86 191 1037.86 191C1037.86 191 1036.33 195.212 1033.92 196.823C1031.5 198.434 1028.56 202.161 1027.46 203.411C1026.35 204.663 1025.29 207.652 1025.29 207.652C1025.29 207.652 1026.7 209.381 1027.51 209.674C1028.32 209.962 1030.2 210.32 1030.48 210.392C1030.75 210.461 1030.08 211.45 1029.03 211.957C1027.98 212.463 1027 212.95 1025.89 213.255C1024.78 213.56 1021.39 214.562 1019.27 212.881C1017.15 211.201 1016.09 208.973 1016.09 208.973C1016.09 208.973 1015.21 208.962 1014.99 209.094Z" fill="#001223"/>
<path d="M996.728 457.781C996.728 457.781 996.41 456.769 995.609 456.956C995.609 456.956 995.593 455.805 995.12 455.41C994.651 455.012 999.366 450.446 999.728 450C1000.09 449.554 1003.29 446.43 1004.76 445.506C1006.23 444.585 1008.68 439.319 1008.75 438C1008.75 438 1003.73 441.626 1002.43 443.663C1001.13 445.7 998.192 447.395 996.991 448.396C995.79 449.4 992.168 455.231 991.439 455.542C990.709 455.857 988.746 456.676 988.02 456.629C987.29 456.581 983.292 454.258 981.056 453.91C978.824 453.565 973.517 452.702 971.956 452.705C970.396 452.707 968 452.761 968 452.761C968 452.761 971.354 455.736 974.242 456.003C977.134 456.269 981.494 458.146 983.063 458.721C984.628 459.295 986.982 461.42 986.982 461.42C986.982 461.42 986.562 463.615 985.993 464.253C985.425 464.891 983.934 466.105 983.726 466.295C983.519 466.49 984.579 467.039 985.743 466.984C986.913 466.929 987.999 466.891 989.122 466.631C990.244 466.37 993.701 465.639 994.769 463.15C995.834 460.662 995.707 458.196 995.707 458.196C995.707 458.196 996.473 457.767 996.728 457.781Z" fill="#001223"/>
<path d="M110.728 462.781C110.728 462.781 110.41 461.769 109.609 461.956C109.609 461.956 109.593 460.805 109.12 460.41C108.651 460.012 113.366 455.446 113.728 455C114.09 454.554 117.286 451.43 118.759 450.506C120.232 449.585 122.679 444.319 122.753 443C122.753 443 117.73 446.626 116.432 448.663C115.132 450.7 112.192 452.395 110.991 453.396C109.79 454.4 106.168 460.231 105.439 460.542C104.709 460.857 102.746 461.676 102.02 461.629C101.29 461.581 97.292 459.258 95.056 458.91C92.824 458.565 87.517 457.702 85.956 457.705C84.396 457.707 82 457.761 82 457.761C82 457.761 85.354 460.736 88.242 461.003C91.134 461.269 95.494 463.146 97.063 463.721C98.628 464.295 100.982 466.42 100.982 466.42C100.982 466.42 100.562 468.615 99.993 469.253C99.425 469.891 97.934 471.105 97.726 471.295C97.519 471.49 98.579 472.039 99.743 471.984C100.913 471.929 101.999 471.891 103.122 471.631C104.244 471.37 107.701 470.639 108.769 468.15C109.834 465.662 109.707 463.196 109.707 463.196C109.707 463.196 110.473 462.767 110.728 462.781Z" fill="#001223"/>
<path d="M1028.99 340.094C1028.99 340.094 1028.79 339.052 1029.58 338.835C1029.58 338.835 1029.05 337.815 1029.27 337.242C1029.5 336.668 1023.18 334.9 1022.65 334.681C1022.12 334.459 1017.82 333.232 1016.09 333.121C1014.35 333.015 1009.69 329.549 1009 328.424C1009 328.424 1015.14 329.221 1017.25 330.394C1019.37 331.565 1022.76 331.659 1024.29 331.967C1025.83 332.275 1031.79 335.677 1032.58 335.606C1033.37 335.537 1035.48 335.321 1036.1 334.933C1036.72 334.543 1039.13 330.598 1040.93 329.229C1042.73 327.861 1046.98 324.578 1048.36 323.834C1049.73 323.095 1051.86 322 1051.86 322C1051.86 322 1050.33 326.212 1047.92 327.823C1045.5 329.434 1042.56 333.161 1041.46 334.411C1040.35 335.663 1039.29 338.652 1039.29 338.652C1039.29 338.652 1040.7 340.381 1041.51 340.674C1042.32 340.962 1044.2 341.32 1044.48 341.392C1044.75 341.461 1044.08 342.45 1043.03 342.957C1041.98 343.463 1041 343.95 1039.89 344.255C1038.78 344.56 1035.39 345.562 1033.27 343.881C1031.15 342.201 1030.09 339.973 1030.09 339.973C1030.09 339.973 1029.21 339.962 1028.99 340.094Z" fill="#001223"/>
<path d="M142.991 345.094C142.991 345.094 142.791 344.052 143.583 343.835C143.583 343.835 143.049 342.815 143.274 342.242C143.501 341.668 137.177 339.9 136.647 339.681C136.118 339.459 131.818 338.232 130.086 338.121C128.351 338.015 123.69 334.549 123 333.424C123 333.424 129.142 334.221 131.252 335.394C133.366 336.565 136.761 336.659 138.291 336.967C139.828 337.275 145.788 340.677 146.576 340.606C147.369 340.537 149.481 340.321 150.099 339.933C150.718 339.543 153.129 335.598 154.929 334.229C156.727 332.861 160.985 329.578 162.356 328.834C163.728 328.095 165.86 327 165.86 327C165.86 327 164.333 331.212 161.917 332.823C159.504 334.434 156.562 338.161 155.456 339.411C154.349 340.663 153.293 343.652 153.293 343.652C153.293 343.652 154.705 345.381 155.511 345.674C156.317 345.962 158.202 346.32 158.478 346.392C158.753 346.461 158.083 347.45 157.031 347.957C155.977 348.463 155.003 348.95 153.893 349.255C152.782 349.56 149.394 350.562 147.271 348.881C145.147 347.201 144.086 344.973 144.086 344.973C144.086 344.973 143.209 344.962 142.991 345.094Z" fill="#001223"/>
<path d="M818.461 39.2198C818.461 39.2198 818.543 37.5018 820.342 36.426C820.342 36.426 820.394 33.3553 822.589 32.4763C824.784 31.599 826.126 32.3694 826.434 32.456C826.744 32.5405 828.505 32.3231 828.505 32.3231C828.505 32.3231 825.378 24.6797 823.26 22.8524C821.142 21.0287 820.166 18.6756 819.638 15.9855C819.11 13.2954 820.305 10.968 820.654 11.181C821.009 11.3905 821.277 12.3324 821.277 12.3324C821.277 12.3324 822.289 10.7259 822.74 11.5137C823.197 12.3016 823.352 12.9077 823.352 12.9077C823.352 12.9077 824.093 11.4831 824.701 12.4529C825.309 13.4246 825.552 14.1403 825.552 14.1403C825.552 14.1403 826.087 13.0692 826.494 13.731C826.905 14.3942 827.076 15.0388 827.076 15.0388C827.076 15.0388 828.255 14.2182 828.415 16.2346C828.415 16.2346 829.781 15.3995 831.393 18.3846C833.005 21.3674 832.605 23.8439 834.17 25.1484C835.737 26.4573 838.421 31.4248 838.421 31.4248C838.421 31.4248 846.3 31.612 852.948 32.762C856.163 33.3178 856.642 33.5023 857.939 33.766C858.807 33.9449 851.152 34.8234 849.882 34.9666C848.616 35.1108 843.457 34.445 842.613 34.3035C841.766 34.1672 837.967 35.1621 837.967 35.1621C837.967 35.1621 844.622 38.1907 845.987 38.4844C847.353 38.7753 850.623 38.8539 851.565 39.5689C852.513 40.2879 852.432 41.4409 851.21 42.2752C849.982 43.1106 847.994 41.0979 846.822 40.9752C845.655 40.8504 841.585 42.3126 839.274 42.2886C836.963 42.2641 829.892 41.9139 827.805 40.0306C825.714 38.1454 823.781 36.5881 822.765 36.7866C821.752 36.9892 819.501 37.6982 818.461 39.2198Z" fill="#001223"/>
<path d="M87.8311 279.99C87.8311 279.99 87.3521 278.564 84.5621 277.996C84.5621 277.996 83.3261 274.879 81.3501 274.743C79.3731 274.604 76.5831 274.216 76.5831 274.216C76.5831 274.216 78.5331 268.881 80.7431 267.311C82.9541 265.737 86.1791 261.363 86.6661 258.751C87.1501 256.136 86.4231 251.485 85.2681 252.046C84.1121 252.612 84.1551 254.585 84.1551 254.585C84.1551 254.585 83.3031 252.538 82.4231 253.363C81.5431 254.19 81.4011 255.986 81.4011 255.986C81.4011 255.986 81.0041 254.024 80.1211 254.757C79.2421 255.495 78.92 257.295 78.92 257.295C78.92 257.295 78.1751 255.965 77.2021 256.702C76.2281 257.441 76.861 257.608 75.722 258.886C74.586 260.17 72.133 263.09 70.558 265.008C68.982 266.925 64.7551 270.696 64.7551 270.696C64.7551 270.696 58.2001 266.344 57.2831 265.289C56.3611 264.231 45.2221 259.44 42.6691 257.432C40.1151 255.421 38.2071 254.296 37.6921 255.56C37.1831 256.829 38.8221 257.873 38.8221 257.873C38.8221 257.873 36.6661 257.739 37.0511 259.078C37.4381 260.414 38.7001 260.568 38.7001 260.568C38.7001 260.568 36.8151 260.516 37.0151 261.499C37.2121 262.485 39.1131 263.159 39.1131 263.159C39.1131 263.159 37.1311 262.843 37.7851 264.085C38.4421 265.328 40.2441 265.739 40.2441 265.739C40.2441 265.739 38.6301 265.77 39.0011 266.393C39.3711 267.009 41.5441 267.774 41.8111 267.769C42.0821 267.765 42.9201 269.27 45.1131 271.108C47.3031 272.948 53.6331 275.326 54.6431 276.204C55.6481 277.08 57.0541 279.923 57.0541 279.923C57.0541 279.923 53.0691 282.696 50.4791 283.023C47.8841 283.346 45.1811 282.954 44.5831 284.313C43.9831 285.669 42.97 288.652 45.084 290.942C45.084 290.942 51.1061 287.314 54.6051 287.152C58.0991 286.988 66.6291 287.256 71.9641 284.993C77.3001 282.727 80.215 280.512 82.269 280.018C84.321 279.525 85.6611 279.228 87.8311 279.99Z" fill="#001223"/>
<path d="M22.8694 37.094C22.8694 37.094 23.0693 36.052 22.2773 35.835C22.2773 35.835 22.8114 34.815 22.5864 34.242C22.3594 33.668 28.6833 31.9 29.2133 31.681C29.7423 31.459 34.0424 30.232 35.7744 30.121C37.5094 30.015 42.1704 26.549 42.8604 25.424C42.8604 25.424 36.7184 26.221 34.6084 27.394C32.4944 28.565 29.0994 28.659 27.5694 28.967C26.0324 29.275 20.0724 32.677 19.2844 32.606C18.4914 32.537 16.3794 32.321 15.7614 31.933C15.1424 31.543 12.7314 27.598 10.9314 26.229C9.13337 24.861 4.87536 21.578 3.50436 20.834C2.13236 20.095 0.000366211 19 0.000366211 19C0.000366211 19 1.52736 23.212 3.94336 24.823C6.35636 26.434 9.29836 30.161 10.4044 31.411C11.5114 32.663 12.5674 35.652 12.5674 35.652C12.5674 35.652 11.1554 37.381 10.3494 37.674C9.54337 37.962 7.65836 38.32 7.38235 38.392C7.10735 38.461 7.77734 39.45 8.82935 39.957C9.88335 40.463 10.8573 40.95 11.9673 41.255C13.0783 41.56 16.4664 42.562 18.5894 40.881C20.7134 39.201 21.7744 36.973 21.7744 36.973C21.7744 36.973 22.6514 36.962 22.8694 37.094Z" fill="#001223"/>
</svg>
