<svg width="1855" height="324" viewBox="0 0 1855 324" fill="none" xmlns="http://www.w3.org/2000/svg">
<path fill-rule="evenodd" clip-rule="evenodd" d="M1741.81 292.302C1741.88 288.937 1733.91 288.25 1734.71 296.88C1735.52 305.505 1753.43 311.036 1763.86 298.713C1774.29 286.39 1773.18 268.869 1755.81 261.067C1738.45 253.265 1722.01 261.151 1716.03 272.744C1710.05 284.333 1691.86 287.046 1679.05 287.822C1666.24 288.604 1655.09 286.786 1649.41 285.338C1643.72 283.895 1640.98 290.474 1647.39 292.718C1653.81 294.968 1667.14 297.093 1672.89 297.39C1678.64 297.687 1680.03 304.281 1669.31 305.364C1658.59 306.442 1631.19 305.224 1596.82 286.375C1562.45 267.526 1540.02 266.755 1517.14 274.791C1494.25 282.828 1465.48 285.76 1447.64 277.932C1429.79 270.104 1436.21 261.031 1453.49 264.994C1470.77 268.953 1486.87 262.104 1516.7 242.145C1546.54 222.182 1581.67 230.135 1589.91 234.203C1598.15 238.276 1599.44 229.895 1593.95 226.64C1588.45 223.38 1585.03 216.968 1583.9 201.75C1582.76 186.526 1588.21 173.854 1591.26 168.828C1594.3 163.802 1588.81 160.354 1582.87 167.724C1576.92 175.099 1573.11 196.781 1575.01 208.489C1576.9 220.197 1568.56 217.942 1565.58 208.671C1562.61 199.406 1562.07 178.072 1575.4 158.031C1588.72 137.994 1614.57 132.031 1630.62 133.812C1646.66 135.599 1652.4 139.635 1653.71 138.458C1655.02 137.276 1664.85 114.276 1695.07 109.302C1703.43 107.927 1703.41 102.057 1694.12 101.578C1673.37 100.51 1659.32 113.411 1652.81 122.484C1646.57 131.156 1639.09 125.901 1646.67 114.875C1654.25 103.843 1672.18 83.8485 1710.45 90.2287C1748.73 96.6141 1764.32 118.338 1772.62 136.229C1780.92 154.119 1777.14 180.89 1773.03 187.968C1768.92 195.052 1764 192.192 1766.3 182.442C1773.54 151.817 1752.2 128.072 1745.47 124.562C1738.74 121.046 1735.51 127.697 1742.01 133.885C1748.51 140.072 1760.71 158.093 1756.61 178.682C1752.1 201.255 1733.54 214.343 1721.16 218.02C1714.28 220.067 1718.93 227.697 1730.25 224.25C1741.57 220.802 1750.78 211.63 1756.08 203.697C1759.78 198.171 1767.44 201.453 1761.6 212.187C1755.77 222.921 1728.75 247.947 1691.72 235.796C1653.5 223.25 1649.08 190.994 1664.9 171.083C1680.71 151.171 1707.76 159.468 1712.35 167.192C1716.95 174.911 1718.7 187.38 1708.23 189.432C1697.75 191.484 1696.36 183.067 1698.22 178.651C1700.08 174.239 1686.41 171.229 1687.79 187.229C1689.17 203.229 1717.8 206.817 1725.68 188.031C1733.56 169.244 1723.42 149.911 1699.66 145.046C1675.91 140.177 1636.42 157.333 1645.39 206.927C1654.36 256.52 1726.12 257.911 1754.05 237.661C1781.98 217.411 1786.22 187.307 1789.11 183.421C1792 179.541 1808.22 183.447 1819.89 191.724C1831.56 200 1835.04 209.01 1836.29 212.625C1837.55 216.239 1843.95 215.031 1841.24 204.239C1838.53 193.453 1826.76 181.427 1817.55 177.593C1808.33 173.76 1814.76 166.51 1824.95 171.833C1835.14 177.156 1861.81 198.197 1853.17 231.724C1844.53 265.25 1811.58 265.474 1798 258.822C1784.42 252.177 1782.49 233.75 1791.2 226.614C1799.93 219.484 1808.49 222.901 1810.03 230.369C1811.56 237.833 1807.32 241.838 1809.51 244.062C1811.7 246.286 1819.11 246.093 1821.37 235.843C1823.62 225.599 1817.04 213.458 1799.76 213.526C1782.46 213.599 1772.21 228.135 1774.38 243.885C1776.54 259.64 1789.04 266.807 1791.29 267.786C1793.55 268.765 1791.05 283.703 1786.43 291.239C1781.82 298.776 1789.42 296.765 1792.92 292.151C1796.42 287.531 1798.72 280.26 1799.25 275.489C1799.79 270.718 1808.34 270.583 1805.19 281.458C1802.03 292.328 1788.48 322.432 1759.61 323.635C1730.74 324.838 1715.65 304.484 1724.15 284.963C1732.64 265.442 1750.37 270 1755.5 274.677C1760.02 278.786 1761.4 286.88 1756.1 292.942C1750.79 299 1741.71 297.765 1741.81 292.302ZM1543.64 243.244C1537.87 245.489 1537.34 251.744 1548.18 250.286C1580.18 245.984 1593.64 256.125 1600.75 260.671C1608.09 265.364 1611.23 256.697 1603.06 251.192C1594.9 245.687 1568.52 233.552 1543.64 243.244ZM1799.45 190.724C1793.8 190.187 1794.22 196.161 1798.8 196.687C1803.39 197.208 1810.86 200.375 1813.35 202.375C1815.84 204.375 1818.42 200.911 1815.32 197.682C1812.22 194.447 1804.79 191.229 1799.45 190.724ZM1529.51 256.755C1534.52 254.192 1532.75 245.442 1525.99 250.01C1519.23 254.583 1522.15 260.505 1529.51 256.755ZM1619.63 264.182C1614.82 261.265 1608.3 267.364 1615.74 270.713C1623.18 274.057 1626.69 268.468 1619.63 264.182ZM1701.29 218.01C1708.83 219.953 1706.89 227.661 1697.26 225.479C1687.67 223.307 1680.07 217.974 1676.61 212.515C1673.69 207.927 1678.62 205.135 1682.46 208.692C1686.31 212.25 1691.58 215.515 1701.29 218.01ZM1837.56 228.854C1838.81 223.234 1847.95 222.744 1845.15 230.609C1842.35 238.474 1835.72 237.104 1837.56 228.854ZM1723.66 118.677C1729.24 122.432 1737.37 115.51 1728.67 111.104C1719.98 106.692 1715.47 113.171 1723.66 118.677ZM1778.5 302.958C1781.26 299.921 1787.08 302.838 1782.57 306.713C1778.06 310.588 1774.45 307.411 1778.5 302.958ZM1682.69 261.119C1677.3 259.505 1672.52 267.057 1680.57 268.416C1688.62 269.781 1690.61 263.484 1682.69 261.119ZM1629.81 199.791C1630.34 193.588 1622.21 191.88 1621.41 202.625C1618.95 235.411 1649.55 258.572 1659.75 260.062C1668.13 261.281 1666.75 254.875 1661.45 253.046C1650.98 249.437 1627.46 227.531 1629.81 199.791ZM1608.48 215.01C1606.59 209.708 1597.68 210.328 1601.33 217.614C1604.99 224.906 1611.25 222.786 1608.48 215.01ZM1622.96 153.765C1627.83 149.385 1620.93 143.005 1610.98 153.531C1601.02 164.052 1596.38 187.526 1597.03 194.937C1597.76 203.229 1604.08 201.541 1604.37 194.067C1604.66 186.599 1609.36 166.026 1622.96 153.765ZM1798.38 171.192C1804.43 173.067 1809.89 164.625 1800.85 162.994C1791.8 161.369 1789.49 168.432 1798.38 171.192ZM1695.58 295.203C1687.12 295.599 1689.97 305.427 1700.83 303.145C1712.58 300.682 1707.65 294.635 1695.58 295.203Z" fill="#D593A6"/>
<path fill-rule="evenodd" clip-rule="evenodd" d="M1401.04 194.571C1394.37 197.696 1397.71 204.789 1404.91 202.013C1412.1 199.232 1420.94 197.565 1428.58 198.758C1436.22 199.946 1435.81 207.722 1426.16 207.586C1416.51 207.456 1392.62 214.899 1381.51 225.383C1370.41 235.873 1359.49 258.909 1343.9 265.956C1328.31 273.008 1337.56 279.696 1348.17 274.268C1358.79 268.836 1362.65 277.643 1348.14 284.873C1333.63 292.102 1306.69 297.998 1284.13 288.857C1261.57 279.716 1256.35 273.784 1252.9 270.081C1249.45 266.378 1253.39 259.576 1259.96 264.742C1266.54 269.919 1277.61 276.711 1286.29 278.388C1294.97 280.071 1296.69 273.06 1289.05 270.581C1281.42 268.102 1262.26 259.571 1252.47 233.091C1242.67 206.612 1257.22 179.529 1276.26 172.097C1295.3 164.664 1324.05 173.565 1328.04 200.998C1332.03 228.425 1305.69 236.982 1295.46 231.003C1285.23 225.029 1281.55 213.169 1282.74 207.508C1283.92 201.841 1291.76 200.737 1292.45 208.237C1293.14 215.732 1300.72 223.826 1310.96 218.435C1321.2 213.05 1321.18 189.19 1300.05 182.008C1278.92 174.831 1260.49 191.742 1260.7 212.472C1260.89 233.206 1275.53 263.539 1314.09 262.55C1352.66 261.565 1371.73 227.461 1368.01 191.524C1364.28 155.581 1331.7 132.862 1321.66 131.258C1311.62 129.659 1312.14 137.024 1319.16 140.024C1326.16 143.029 1337.72 154.159 1340.68 161.55C1343.63 168.946 1337.64 170.982 1331.12 162.925C1324.61 154.867 1309.35 139.154 1281.12 144.43C1252.89 149.711 1241.74 165.201 1238.17 171.211C1234.59 177.216 1227.35 174.847 1231.09 164.883C1234.83 154.914 1245.22 144.815 1257.01 137.742C1268.81 130.664 1261.93 126.128 1250.43 130.446C1238.93 134.768 1214.08 151.185 1209.42 181.248C1204.75 211.31 1212.97 220.998 1210.6 224.289C1208.24 227.586 1199.07 221.492 1181.81 224.482C1164.55 227.477 1143.33 238.487 1134.78 247.321C1126.21 256.159 1133.6 262.602 1143.23 259.258C1152.87 255.904 1183.75 259.414 1212.78 285.56C1241.8 311.701 1278.24 339.133 1337.78 312.774C1397.31 286.414 1397.14 249.768 1434.05 238.065C1470.96 226.357 1488.79 241.93 1516.92 235.758C1545.04 229.576 1551.99 217.133 1555.06 212.097C1558.13 207.055 1552.6 201.008 1542.47 208.05C1532.34 215.091 1505.6 216.206 1488.72 207.55C1469.92 197.909 1432.92 179.597 1401.04 194.571ZM1239.41 251.143C1244.62 256.133 1240.92 260.862 1235.69 257.31C1219.36 246.185 1204.32 240.597 1191.72 239.133C1185.29 238.383 1188.67 232.628 1196 233.388C1215.31 235.388 1232.95 244.966 1239.41 251.143ZM1333.12 244.393C1327.32 247.821 1324.49 241.654 1330.76 237.732C1336.42 234.196 1339.77 240.461 1333.12 244.393ZM1345.71 191.268C1343.34 182.326 1350.96 180.289 1353.29 188.565C1356.35 199.373 1355.83 215.044 1348.82 226.586C1344.95 232.94 1339.65 230.164 1342.66 223.664C1346.42 215.524 1348.47 201.69 1345.71 191.268ZM1452.07 201.617C1444.04 200.565 1442.19 208.175 1450.19 209.175C1458.05 210.154 1465.6 212.774 1472.2 215.383C1477.28 217.393 1479.09 212.347 1474.39 209.607C1468.51 206.18 1459.48 202.581 1452.07 201.617ZM1370.37 266.409C1365.44 271.711 1360.65 266.216 1365.91 260.263C1370.66 254.899 1376.02 260.331 1370.37 266.409ZM1388.51 245.685C1382.28 252.44 1375.76 247.399 1381.79 241.263C1387.82 235.128 1398.49 225.998 1409.71 222.513C1416.81 220.305 1417.69 226.43 1411.08 229.185C1404.46 231.935 1393.14 240.68 1388.51 245.685ZM1281.3 302.091C1272.45 299.571 1269.51 307.274 1277.86 309.367C1286.21 311.466 1300.08 313.701 1311.47 310.836C1318.69 309.018 1316.24 303.331 1309.16 304.425C1302.08 305.524 1287.85 303.956 1281.3 302.091ZM1263.06 296.112C1269.67 299.06 1264.99 307.091 1258.68 302.31C1252.96 297.992 1255.48 292.737 1263.06 296.112ZM1222.32 191.503C1223.28 182.841 1234.21 185.248 1231.05 194.237C1228.19 202.373 1221.23 201.425 1222.32 191.503ZM1314.83 281.097C1306.49 281.138 1307.34 272.805 1316.47 272.524C1324.72 272.274 1324.37 281.044 1314.83 281.097ZM1387.18 209.784C1380.95 213.466 1377.92 206.841 1384.66 202.628C1390.73 198.826 1394.33 205.56 1387.18 209.784ZM1288.84 132.076C1280.94 129.81 1284.05 122.149 1292.78 124.414C1300.65 126.456 1297.89 134.675 1288.84 132.076Z" fill="#D593A6"/>
<path fill-rule="evenodd" clip-rule="evenodd" d="M53.4087 211.435C60.5441 210.841 61.7628 215.278 54.6222 217.06C47.492 218.836 46.6482 224.648 54.9087 223.617C63.1691 222.586 74.0545 220.804 92.742 230.554C111.419 240.304 129.841 241.929 144.56 227.367C160.065 212.023 152.065 183.685 131.601 181.06C111.138 178.435 100.815 192.497 104.289 203.935C107.758 215.367 123.153 219.304 128.508 211.06C133.857 202.81 127.518 196.481 123.669 196.856C119.82 197.231 120.388 201.544 123.528 201.966C126.674 202.388 127.096 211.341 118.836 210.685C110.575 210.028 106.398 196.528 115.127 190.763C123.857 184.997 138.127 186.58 142.914 201.356C148.169 217.57 132.211 230.086 118.133 229.804C104.049 229.523 89.1691 223.106 80.7732 198.497C72.3201 173.747 88.7472 149.659 117.383 141.69C125.377 139.461 127.237 144.971 120.195 146.752C113.159 148.534 97.1014 155.981 92.0337 168.122C89.9503 173.117 94.1639 174.528 96.8201 169.341C101.752 159.731 117.383 152.19 123.669 151.534C129.961 150.877 130.804 154.065 134.185 157.81C137.565 161.56 154.528 175.263 175.346 166.81C187.883 161.726 192.107 150.971 207.872 146.659C214.549 144.83 213.872 140.377 213.601 138.034C211.445 119.19 197.117 105.023 185.956 102.179C179.508 100.534 177.992 104.56 183.143 106.909C193.372 111.586 201.351 121.112 203.929 132.502C205.726 140.403 199.81 141.872 197.877 135.455C194.685 124.862 182.544 108.284 163.284 112.44C149.383 115.445 146.393 131.07 152.242 139.586C156.414 145.659 165.409 147.356 170.825 143.065C176.289 138.731 170.674 132.575 166.617 138.409C165.028 140.695 160.638 139.523 158.476 136.112C155.898 132.028 156.107 125.106 162.627 122.002C174.456 116.377 189.758 126.784 184.784 146.565C179.81 166.341 140.008 169.247 134.372 136.346C128.737 103.445 151.518 80.3408 184.659 77.2471C218.554 74.0856 239.846 101.924 244.112 112.909C247.716 122.2 241.039 120.679 237.164 114.221C229.679 101.758 215.95 88.445 200.737 85.9138C192.31 84.5075 191.883 90.4867 199.518 92.4763C210.315 95.2888 225.377 105.638 234.164 126.69C236.409 132.08 235.403 137.429 234.56 141.367C233.711 145.304 231.987 149.273 226.997 148.815C212.502 147.487 197.362 158.565 193.325 164.846C189.289 171.122 192.763 174.685 199.242 168.122C205.716 161.565 219.044 156.784 225.804 156.69C232.565 156.596 234.346 162.127 226.086 162.784C217.825 163.44 213.976 166.247 212.101 167.841C210.221 169.435 210.789 175.06 216.226 172.81C221.674 170.56 244.768 168.028 250.304 170.653C255.846 173.278 256.971 165.784 249.929 163.627C242.893 161.471 240.544 157.909 241.857 149.096C243.174 140.284 261.101 104.57 300.903 112.258C340.706 119.94 340.143 173.372 315.549 182.372C290.95 191.372 276.497 171.31 281.752 158.19C287.008 145.065 299.403 151.815 299.122 158.096C298.841 164.372 293.206 163.815 291.987 163.159C290.768 162.502 288.138 168.966 296.304 168.591C304.471 168.216 311.232 155.752 299.591 146.377C287.95 137.002 272.554 148.44 272.929 163.534C273.304 178.622 282.596 193.716 307.383 192.778C332.164 191.841 344.179 195.028 358.825 212.653C373.471 230.273 398.44 234.023 412.898 227.461C427.351 220.898 426.789 230.929 416.185 237.586C405.575 244.242 387.549 250.242 369.336 243.492C351.127 236.742 346.341 229.429 331.226 229.804C316.112 230.179 311.232 232.898 308.695 234.304C306.159 235.711 301.56 232.054 308.601 227.179C315.643 222.304 331.32 219.685 341.549 223.148C351.784 226.617 349.065 219.403 342.211 216.872C335.357 214.341 317.331 213.403 306.627 218.56C295.929 223.711 292.268 221.133 289.263 214.95C286.258 208.763 276.825 184.341 246.409 183.591C215.997 182.841 198.862 205.997 200.367 223.992C201.867 241.992 211.44 253.992 228.81 255.211C246.174 256.429 255.94 243.679 252.747 229.336C249.554 214.997 233.502 213.216 227.304 220.341C221.112 227.461 223.362 236.086 227.216 235.242C231.06 234.398 231.107 231.258 230.497 229.336C229.888 227.414 233.784 221.883 239.888 224.508C245.987 227.133 248.195 243.586 235.987 246.867C223.784 250.148 208.95 243.492 211.206 220.804C213.461 198.122 236.799 186.591 261.711 196.435C285.601 205.872 294.013 257.356 257.206 275.737C220.482 294.075 191.773 274.612 181.45 256.523C178.159 250.752 182.95 249.867 185.956 254.554C188.961 259.242 197.69 267.586 201.445 268.898C205.2 270.211 207.456 267.961 202.195 263.179C196.94 258.398 185.393 247.054 181.825 233.367C178.258 219.685 180.419 209.466 181.45 205.903C182.482 202.341 176.19 201.216 174.315 208.341C172.799 214.091 173.06 220.758 173.013 223.903C172.961 228.226 167.544 231.966 164.461 234.304C157.232 239.789 150.752 241.336 147.372 242.554C143.992 243.773 144.924 247.388 151.127 246.304C159.716 244.804 169.148 239.648 172.622 236.086C176.096 232.523 178.95 238.383 173.002 243.117C165.586 249.023 137.513 261.586 111.419 256.898C85.3201 252.211 73.117 237.211 51.3409 237.961C29.5597 238.711 17.1691 243.398 8.53365 247.523C-0.101764 251.648 -4.04447 244.148 5.71595 235.336C15.4764 226.528 33.5076 213.091 53.4087 211.435ZM72.0284 210.31C64.5389 210.487 66.2889 215.961 74.3982 214.924C82.5128 213.888 79.1482 210.143 72.0284 210.31ZM105.127 169.44C103.112 172.018 105.367 174.101 107.617 172.039C109.674 170.159 115.216 164.695 124.815 163.987C131.143 163.518 129.56 157.747 124.091 158.612C119.435 159.351 111.57 161.2 105.127 169.44ZM39.0857 222.403C42.3409 221.903 42.9659 226.32 38.6014 226.508C34.2368 226.7 35.6118 222.935 39.0857 222.403ZM135.836 245.383C139.127 245.398 139.054 249.862 134.716 249.367C130.377 248.867 132.325 245.367 135.836 245.383ZM71.6118 229.898C67.7837 229.549 65.1326 234.06 70.4503 234.377C78.1534 234.841 94.9555 249.028 109.82 247.773C113.794 247.44 115.575 244.091 108.752 243.81C92.9243 243.159 83.7784 230.997 71.6118 229.898ZM250.627 148.065C252.258 144.57 256.976 146.836 254.325 151.205C251.674 155.575 248.893 151.789 250.627 148.065ZM314.117 138.07C312.45 134.596 317.195 132.393 318.888 137.216C320.581 142.039 315.893 141.773 314.117 138.07ZM256.331 136.377C252.716 140.992 256.987 144.45 260.778 139.94C271.653 127.008 290.518 119.101 306.023 129.086C310.549 131.997 311.122 127.508 307.424 124.669C296.45 116.231 272.846 115.32 256.331 136.377ZM297.758 205.695C294.242 207.247 295.601 212.304 300.622 210.523C305.643 208.742 311.091 206.773 321.601 206.773C325.591 206.773 325.263 202.789 320.898 202.32C316.534 201.851 306.773 201.716 297.758 205.695ZM357.612 230.924C354.169 227.716 358.586 223.106 362.659 227.836C366.732 232.565 361.278 234.346 357.612 230.924ZM270.679 214.466C272.914 218.044 268.018 221.008 265.591 215.971C263.169 210.929 268.304 210.648 270.679 214.466ZM226.284 270.263C230.409 271.174 229.101 276.742 223.799 274.945C218.497 273.148 221.888 269.294 226.284 270.263ZM273.633 230.591C273.497 224.731 268.612 225.867 268.695 230.476C269.002 247.362 262.674 260.815 241.716 268.336C236.653 270.153 239.054 273.752 243.57 272.586C258.601 268.711 274.263 257.846 273.633 230.591ZM182.049 183.304C184.351 177.971 191.554 181.179 187.747 187.872C183.94 194.565 179.596 188.987 182.049 183.304ZM157.518 216.461C159.143 213.601 163.002 215.856 160.445 219.388C157.883 222.924 155.784 219.513 157.518 216.461ZM148.414 174.528C144.096 172.435 143.393 176.091 146.57 178.122C152.445 181.872 160.518 190.997 158.841 206.648C158.372 211.018 161.883 210.534 162.633 206.799C165.127 194.372 159.518 179.914 148.414 174.528ZM87.2889 182.773C87.4295 179.487 91.893 179.726 91.2316 184.039C90.5805 188.351 87.1482 186.278 87.2889 182.773ZM88.2784 198.054C87.8409 194.627 91.7837 194.138 92.3149 197.867C93.2993 204.758 97.6274 212.544 104.331 216.383C108.148 218.565 103.94 220.549 100.7 218.539C96.992 216.242 89.8826 210.58 88.2784 198.054Z" fill="#D593A6"/>
<path fill-rule="evenodd" clip-rule="evenodd" d="M1306.28 134.119C1313.4 133.527 1314.62 137.954 1307.49 139.731C1300.38 141.503 1299.54 147.301 1307.78 146.273C1316.02 145.244 1326.88 143.467 1345.52 153.194C1364.16 162.921 1382.53 164.542 1397.22 150.014C1412.69 134.706 1404.71 106.434 1384.29 103.816C1363.88 101.197 1353.58 115.226 1357.04 126.637C1360.5 138.042 1375.86 141.97 1381.2 133.745C1386.54 125.514 1380.22 119.201 1376.38 119.575C1372.54 119.949 1373.1 124.252 1376.24 124.673C1379.38 125.093 1379.8 134.025 1371.56 133.371C1363.31 132.716 1359.15 119.248 1367.86 113.496C1376.56 107.744 1390.8 109.323 1395.58 124.065C1400.82 140.24 1384.9 152.726 1370.85 152.445C1356.8 152.165 1341.96 145.763 1333.58 121.212C1325.15 96.5204 1341.54 72.4886 1370.11 64.5387C1378.08 62.3148 1379.94 67.8122 1372.91 69.5892C1365.89 71.3663 1349.87 78.7967 1344.82 90.9086C1342.74 95.8917 1346.94 97.2998 1349.59 92.1245C1354.51 82.5378 1370.11 75.0139 1376.38 74.3592C1382.65 73.7045 1383.5 76.8845 1386.87 80.6205C1390.24 84.3616 1407.16 98.0324 1427.93 89.5992C1440.44 84.5279 1444.65 73.798 1460.38 69.4957C1467.04 67.6719 1466.37 63.2293 1466.1 60.8911C1463.95 42.0918 1449.65 27.9585 1438.52 25.1215C1432.08 23.4795 1430.57 27.4961 1435.71 29.8395C1445.92 34.5055 1453.88 44.0091 1456.45 55.3729C1458.24 63.2553 1452.34 64.7205 1450.41 58.319C1447.23 47.7503 1435.11 31.2112 1415.9 35.3577C1402.03 38.3558 1399.05 53.9439 1404.88 62.4395C1409.04 68.4981 1418.02 70.192 1423.42 65.9104C1428.87 61.5873 1423.27 55.4456 1419.22 61.2652C1417.64 63.5462 1413.26 62.3771 1411.1 58.9737C1408.53 54.9 1408.74 47.9945 1415.24 44.8976C1427.04 39.2859 1442.31 49.6676 1437.35 69.4022C1432.39 89.1316 1392.68 92.031 1387.06 59.2075C1381.43 26.3841 1404.16 3.33443 1437.22 0.247976C1471.04 -2.90603 1492.28 24.8669 1496.54 35.8253C1500.13 45.0951 1493.47 43.5778 1489.6 37.1347C1482.14 24.7006 1468.44 11.4195 1453.26 8.8942C1444.86 7.49127 1444.43 13.4563 1452.05 15.4412C1462.82 18.2471 1477.85 28.5716 1486.61 49.5741C1488.85 54.952 1487.85 60.2883 1487.01 64.2165C1486.16 68.1447 1484.44 72.1041 1479.46 71.6469C1465 70.3219 1449.9 81.3739 1445.87 87.6403C1441.84 93.9016 1445.31 97.4557 1451.77 90.9086C1458.23 84.3668 1471.53 79.5968 1478.27 79.5033C1485.02 79.4098 1486.79 84.928 1478.55 85.5827C1470.31 86.2374 1466.47 89.0381 1464.6 90.6281C1462.73 92.218 1463.29 97.8298 1468.72 95.5851C1474.15 93.3404 1497.19 90.8151 1502.71 93.4339C1508.24 96.0527 1509.37 88.5756 1502.34 86.4245C1495.32 84.2733 1492.98 80.7192 1494.29 71.9275C1495.6 63.1358 1513.49 27.5064 1553.19 35.1758C1592.9 42.84 1592.34 96.1463 1567.8 105.125C1543.26 114.104 1528.85 94.0886 1534.09 80.9998C1539.33 67.9057 1551.7 74.6398 1551.42 80.9062C1551.14 87.1675 1545.51 86.6115 1544.3 85.9568C1543.08 85.3021 1540.46 91.7504 1548.61 91.3763C1556.75 91.0022 1563.5 78.568 1551.88 69.2151C1540.27 59.8622 1524.91 71.2728 1525.29 86.3309C1525.66 101.384 1534.93 116.442 1559.66 115.507C1584.38 114.571 1596.37 117.751 1610.98 135.335C1625.59 152.913 1650.5 156.654 1664.92 150.107C1679.34 143.56 1678.78 153.568 1668.2 160.208C1657.62 166.849 1639.64 172.835 1621.46 166.101C1603.3 159.367 1598.52 152.071 1583.45 152.445C1568.37 152.82 1563.5 155.532 1560.97 156.935C1558.44 158.338 1553.85 154.69 1560.87 149.827C1567.9 144.963 1583.54 142.35 1593.74 145.805C1603.95 149.265 1601.24 142.069 1594.4 139.544C1587.57 137.018 1569.58 136.083 1558.9 141.227C1548.23 146.366 1544.58 143.794 1541.58 137.626C1538.58 131.453 1529.17 107.089 1498.83 106.341C1468.49 105.593 1451.39 128.694 1452.89 146.647C1454.39 164.604 1463.94 176.576 1481.27 177.792C1498.59 179.008 1508.34 166.288 1505.15 151.978C1501.97 137.673 1485.95 135.896 1479.77 143.004C1473.59 150.107 1475.83 158.712 1479.68 157.87C1483.51 157.028 1483.56 153.895 1482.95 151.978C1482.35 150.06 1486.23 144.542 1492.32 147.161C1498.41 149.78 1500.61 166.194 1488.43 169.468C1476.26 172.741 1461.46 166.101 1463.71 143.467C1465.96 120.838 1489.24 109.334 1514.09 119.154C1537.93 128.57 1546.32 179.933 1509.6 198.269C1472.96 216.565 1444.32 197.147 1434.02 179.101C1430.74 173.344 1435.52 172.461 1438.52 177.137C1441.52 181.814 1450.22 190.138 1453.97 191.447C1457.72 192.756 1459.97 190.512 1454.72 185.742C1449.48 180.972 1437.96 169.655 1434.4 156C1430.84 142.35 1432.99 132.155 1434.02 128.601C1435.05 125.047 1428.77 123.924 1426.9 131.033C1425.39 136.769 1425.65 143.42 1425.6 146.558C1425.55 150.871 1420.15 154.602 1417.07 156.935C1409.86 162.406 1403.4 163.949 1400.02 165.165C1396.65 166.381 1397.58 169.987 1403.77 168.907C1412.34 167.41 1421.75 162.266 1425.22 158.712C1428.68 155.158 1431.53 161.003 1425.59 165.727C1418.2 171.619 1390.19 184.152 1364.16 179.475C1338.12 174.799 1325.94 159.834 1304.22 160.582C1282.49 161.331 1270.13 166.007 1261.51 170.122C1252.9 174.238 1248.97 166.755 1258.7 157.964C1268.44 149.177 1286.43 135.771 1306.28 134.119ZM1324.86 132.997C1317.39 133.173 1319.13 138.634 1327.22 137.6C1335.32 136.566 1331.96 132.83 1324.86 132.997ZM1357.88 92.2232C1355.87 94.7953 1358.12 96.8737 1360.36 94.8161C1362.42 92.9403 1367.94 87.4896 1377.52 86.783C1383.83 86.3153 1382.25 80.5581 1376.8 81.4206C1372.15 82.1585 1364.31 84.0031 1357.88 92.2232ZM1291.99 145.062C1295.24 144.563 1295.86 148.969 1291.51 149.156C1287.16 149.349 1288.53 145.592 1291.99 145.062ZM1388.52 167.987C1391.8 168.002 1391.73 172.455 1387.4 171.962C1383.07 171.463 1385.01 167.971 1388.52 167.987ZM1324.44 152.539C1320.62 152.191 1317.98 156.691 1323.28 157.008C1330.97 157.47 1347.73 171.624 1362.56 170.372C1366.53 170.039 1368.3 166.698 1361.5 166.418C1345.71 165.768 1336.58 153.635 1324.44 152.539ZM1503.04 70.8987C1504.66 67.4121 1509.37 69.6724 1506.73 74.0319C1504.08 78.3914 1501.31 74.6138 1503.04 70.8987ZM1566.38 60.9274C1564.71 57.4617 1569.45 55.2637 1571.14 60.0753C1572.82 64.8868 1568.15 64.6218 1566.38 60.9274ZM1508.73 59.2387C1505.12 63.8424 1509.38 67.2926 1513.16 62.7928C1524.01 49.891 1542.83 42.0034 1558.3 51.9642C1562.82 54.8688 1563.39 50.3898 1559.7 47.558C1548.75 39.1404 1525.2 38.2311 1508.73 59.2387ZM1550.06 128.393C1546.55 129.941 1547.9 134.987 1552.91 133.21C1557.92 131.433 1563.36 129.469 1573.84 129.469C1577.82 129.469 1577.5 125.494 1573.14 125.026C1568.79 124.558 1559.05 124.423 1550.06 128.393ZM1609.77 153.563C1606.33 150.362 1610.74 145.763 1614.8 150.481C1618.87 155.199 1613.43 156.976 1609.77 153.563ZM1523.04 137.143C1525.27 140.713 1520.39 143.669 1517.96 138.645C1515.55 133.615 1520.67 133.334 1523.04 137.143ZM1478.75 192.808C1482.87 193.718 1481.56 199.272 1476.27 197.48C1470.98 195.687 1474.36 191.842 1478.75 192.808ZM1525.99 153.23C1525.85 147.384 1520.98 148.517 1521.06 153.116C1521.37 169.961 1515.05 183.383 1494.15 190.886C1489.1 192.699 1491.49 196.29 1496 195.126C1510.99 191.26 1526.62 180.421 1525.99 153.23ZM1434.62 106.055C1436.92 100.734 1444.1 103.935 1440.3 110.612C1436.51 117.289 1432.17 111.724 1434.62 106.055ZM1410.15 139.133C1411.77 136.281 1415.62 138.53 1413.07 142.053C1410.51 145.581 1408.42 142.178 1410.15 139.133ZM1401.06 97.2998C1396.76 95.211 1396.05 98.8586 1399.22 100.885C1405.09 104.626 1413.14 113.73 1411.47 129.344C1411 133.703 1414.5 133.22 1415.25 129.494C1417.74 117.097 1412.14 102.672 1401.06 97.2998ZM1340.08 105.525C1340.22 102.246 1344.68 102.485 1344.02 106.788C1343.37 111.09 1339.94 109.022 1340.08 105.525ZM1341.07 120.77C1340.63 117.351 1344.57 116.863 1345.1 120.583C1346.08 127.458 1350.4 135.226 1357.08 139.055C1360.89 141.232 1356.69 143.212 1353.46 141.206C1349.76 138.915 1342.67 133.267 1341.07 120.77Z" fill="#D593A6"/>
<path fill-rule="evenodd" clip-rule="evenodd" d="M670.409 197.435C677.544 196.841 678.763 201.278 671.622 203.06C664.492 204.836 663.648 210.648 671.909 209.617C680.169 208.586 691.054 206.804 709.742 216.554C728.419 226.304 746.841 227.929 761.56 213.367C777.065 198.023 769.065 169.685 748.601 167.06C728.138 164.435 717.815 178.497 721.289 189.935C724.758 201.367 740.153 205.304 745.508 197.06C750.857 188.81 744.518 182.481 740.669 182.856C736.82 183.231 737.388 187.544 740.528 187.966C743.674 188.388 744.096 197.341 735.836 196.685C727.575 196.028 723.398 182.528 732.127 176.763C740.857 170.997 755.127 172.58 759.914 187.356C765.169 203.57 749.211 216.086 735.133 215.804C721.049 215.523 706.169 209.106 697.773 184.497C689.32 159.747 705.747 135.659 734.383 127.69C742.377 125.461 744.237 130.971 737.195 132.752C730.159 134.534 714.101 141.981 709.034 154.122C706.95 159.117 711.164 160.528 713.82 155.341C718.752 145.731 734.383 138.19 740.669 137.534C746.961 136.877 747.804 140.065 751.185 143.81C754.565 147.56 771.528 161.263 792.346 152.81C804.883 147.726 809.107 136.971 824.872 132.659C831.549 130.83 830.872 126.377 830.601 124.034C828.445 105.19 814.117 91.0231 802.956 88.1794C796.508 86.5336 794.992 90.5596 800.143 92.9086C810.372 97.5856 818.351 107.112 820.929 118.502C822.726 126.403 816.81 127.872 814.877 121.455C811.685 110.862 799.544 94.2836 780.284 98.4398C766.383 101.445 763.393 117.07 769.242 125.586C773.414 131.659 782.409 133.356 787.825 129.065C793.289 124.731 787.674 118.575 783.617 124.409C782.028 126.695 777.638 125.523 775.476 122.112C772.898 118.028 773.107 111.106 779.627 108.002C791.456 102.377 806.758 112.784 801.784 132.565C796.81 152.341 757.008 155.247 751.372 122.346C745.737 89.445 768.518 66.3408 801.659 63.2471C835.554 60.0856 856.846 87.9242 861.112 98.9086C864.716 108.2 858.039 106.679 854.164 100.221C846.679 87.7575 832.95 74.445 817.737 71.9138C809.31 70.5075 808.883 76.4867 816.518 78.4763C827.315 81.2888 842.377 91.6377 851.164 112.69C853.409 118.08 852.403 123.429 851.56 127.367C850.711 131.304 848.987 135.273 843.997 134.815C829.502 133.487 814.362 144.565 810.325 150.846C806.289 157.122 809.763 160.685 816.242 154.122C822.716 147.565 836.044 142.784 842.804 142.69C849.565 142.596 851.346 148.127 843.086 148.784C834.825 149.44 830.976 152.247 829.101 153.841C827.221 155.435 827.789 161.06 833.226 158.81C838.674 156.56 861.768 154.028 867.304 156.653C872.846 159.278 873.971 151.784 866.929 149.627C859.893 147.471 857.544 143.909 858.857 135.096C860.174 126.284 878.101 90.57 917.903 98.2575C957.706 105.94 957.143 159.372 932.549 168.372C907.95 177.372 893.497 157.31 898.752 144.19C904.008 131.065 916.403 137.815 916.122 144.096C915.841 150.372 910.206 149.815 908.987 149.159C907.768 148.502 905.138 154.966 913.304 154.591C921.471 154.216 928.232 141.752 916.591 132.377C904.95 123.002 889.554 134.44 889.929 149.534C890.304 164.622 899.596 179.716 924.383 178.778C949.164 177.841 961.179 181.028 975.825 198.653C990.471 216.273 1015.44 220.023 1029.9 213.461C1044.35 206.898 1043.79 216.929 1033.18 223.586C1022.58 230.242 1004.55 236.242 986.336 229.492C968.127 222.742 963.341 215.429 948.226 215.804C933.112 216.179 928.232 218.898 925.695 220.304C923.159 221.711 918.56 218.054 925.601 213.179C932.643 208.304 948.32 205.685 958.549 209.148C968.784 212.617 966.065 205.403 959.211 202.872C952.357 200.341 934.331 199.403 923.627 204.56C912.929 209.711 909.268 207.133 906.263 200.95C903.258 194.763 893.825 170.341 863.409 169.591C832.997 168.841 815.862 191.997 817.367 209.992C818.867 227.992 828.44 239.992 845.81 241.211C863.174 242.429 872.94 229.679 869.747 215.336C866.554 200.997 850.502 199.216 844.304 206.341C838.112 213.461 840.362 222.086 844.216 221.242C848.06 220.398 848.107 217.258 847.497 215.336C846.888 213.414 850.784 207.883 856.888 210.508C862.987 213.133 865.195 229.586 852.987 232.867C840.784 236.148 825.95 229.492 828.206 206.804C830.461 184.122 853.799 172.591 878.711 182.435C902.601 191.872 911.013 243.356 874.206 261.737C837.482 280.075 808.773 260.612 798.45 242.523C795.159 236.752 799.95 235.867 802.956 240.554C805.961 245.242 814.69 253.586 818.445 254.898C822.2 256.211 824.456 253.961 819.195 249.179C813.94 244.398 802.393 233.054 798.825 219.367C795.258 205.685 797.419 195.466 798.45 191.903C799.482 188.341 793.19 187.216 791.315 194.341C789.799 200.091 790.06 206.758 790.013 209.903C789.961 214.226 784.544 217.966 781.461 220.304C774.232 225.789 767.752 227.336 764.372 228.554C760.992 229.773 761.924 233.388 768.127 232.304C776.716 230.804 786.148 225.648 789.622 222.086C793.096 218.523 795.95 224.383 790.002 229.117C782.586 235.023 754.513 247.586 728.419 242.898C702.32 238.211 690.117 223.211 668.341 223.961C646.56 224.711 634.169 229.398 625.534 233.523C616.898 237.648 612.956 230.148 622.716 221.336C632.476 212.528 650.508 199.091 670.409 197.435ZM689.028 196.31C681.539 196.487 683.289 201.961 691.398 200.924C699.513 199.888 696.148 196.143 689.028 196.31ZM722.127 155.44C720.112 158.018 722.367 160.101 724.617 158.039C726.674 156.159 732.216 150.695 741.815 149.987C748.143 149.518 746.56 143.747 741.091 144.612C736.435 145.351 728.57 147.2 722.127 155.44ZM656.086 208.403C659.341 207.903 659.966 212.32 655.601 212.508C651.237 212.7 652.612 208.935 656.086 208.403ZM752.836 231.383C756.127 231.398 756.054 235.862 751.716 235.367C747.377 234.867 749.325 231.367 752.836 231.383ZM688.612 215.898C684.784 215.549 682.133 220.06 687.45 220.377C695.153 220.841 711.956 235.028 726.82 233.773C730.794 233.44 732.575 230.091 725.752 229.81C709.924 229.159 700.778 216.997 688.612 215.898ZM867.627 134.065C869.258 130.57 873.976 132.836 871.325 137.205C868.674 141.575 865.893 137.789 867.627 134.065ZM931.117 124.07C929.45 120.596 934.195 118.393 935.888 123.216C937.581 128.039 932.893 127.773 931.117 124.07ZM873.331 122.377C869.716 126.992 873.987 130.45 877.778 125.94C888.653 113.008 907.518 105.101 923.023 115.086C927.549 117.997 928.122 113.508 924.424 110.669C913.45 102.231 889.846 101.32 873.331 122.377ZM914.758 191.695C911.242 193.247 912.601 198.304 917.622 196.523C922.643 194.742 928.091 192.773 938.601 192.773C942.591 192.773 942.263 188.789 937.898 188.32C933.534 187.851 923.773 187.716 914.758 191.695ZM974.612 216.924C971.169 213.716 975.586 209.106 979.659 213.836C983.732 218.565 978.278 220.346 974.612 216.924ZM887.679 200.466C889.914 204.044 885.018 207.008 882.591 201.971C880.169 196.929 885.304 196.648 887.679 200.466ZM843.284 256.263C847.409 257.174 846.101 262.742 840.799 260.945C835.497 259.148 838.888 255.294 843.284 256.263ZM890.633 216.591C890.497 210.731 885.612 211.867 885.695 216.476C886.002 233.362 879.674 246.815 858.716 254.336C853.653 256.153 856.054 259.752 860.57 258.586C875.601 254.711 891.263 243.846 890.633 216.591ZM799.049 169.304C801.351 163.971 808.554 167.179 804.747 173.872C800.94 180.565 796.596 174.987 799.049 169.304ZM774.518 202.461C776.143 199.601 780.002 201.856 777.445 205.388C774.883 208.924 772.784 205.513 774.518 202.461ZM765.414 160.528C761.096 158.435 760.393 162.091 763.57 164.122C769.445 167.872 777.518 176.997 775.841 192.648C775.372 197.018 778.883 196.534 779.633 192.799C782.127 180.372 776.518 165.914 765.414 160.528ZM704.289 168.773C704.429 165.487 708.893 165.726 708.232 170.039C707.581 174.351 704.148 172.278 704.289 168.773ZM705.278 184.054C704.841 180.627 708.784 180.138 709.315 183.867C710.299 190.758 714.627 198.544 721.331 202.383C725.148 204.565 720.94 206.549 717.7 204.539C713.992 202.242 706.883 196.58 705.278 184.054Z" fill="#D593A6"/>
<path fill-rule="evenodd" clip-rule="evenodd" d="M1139.81 38.3829C1139.88 41.7475 1131.91 42.435 1132.71 33.8048C1133.52 25.1798 1151.43 19.6486 1161.86 31.9715C1172.29 44.2944 1171.18 61.8152 1153.81 69.6173C1136.45 77.4194 1120.01 69.534 1114.03 57.9402C1108.05 46.3517 1089.86 43.6381 1077.05 42.8621C1064.24 42.0808 1053.09 43.8986 1047.41 45.3465C1041.72 46.7892 1038.98 40.2111 1045.39 37.9663C1051.81 35.7163 1065.14 33.5913 1070.89 33.2944C1076.64 32.9975 1078.03 26.4038 1067.31 25.3204C1056.59 24.2423 1029.19 25.4611 994.824 44.31C960.454 63.159 938.022 63.9298 915.137 55.8933C892.251 47.8569 863.48 44.9246 845.637 52.7527C827.793 60.5808 834.215 69.6538 851.491 65.6902C868.767 61.7319 884.866 68.5808 914.704 88.5392C944.543 108.503 979.668 100.55 987.907 96.4819C996.147 92.409 997.444 100.789 991.949 104.044C986.449 107.305 983.032 113.716 981.897 128.935C980.762 144.159 986.215 156.831 989.262 161.857C992.303 166.883 986.814 170.331 980.866 162.961C974.918 155.586 971.111 133.904 973.006 122.195C974.897 110.487 966.564 112.742 963.585 122.013C960.605 131.279 960.069 152.612 973.397 172.654C986.72 192.69 1012.57 198.654 1028.62 196.873C1044.66 195.086 1050.4 191.05 1051.71 192.227C1053.02 193.409 1062.85 216.409 1093.07 221.383C1101.43 222.758 1101.41 228.628 1092.12 229.107C1071.37 230.175 1057.32 217.274 1050.81 208.201C1044.57 199.529 1037.09 204.784 1044.67 215.81C1052.25 226.841 1070.18 246.836 1108.45 240.456C1146.73 234.07 1162.32 212.346 1170.62 194.456C1178.92 176.565 1175.14 149.794 1171.03 142.716C1166.92 135.633 1162 138.492 1164.3 148.242C1171.54 178.867 1150.2 202.612 1143.47 206.123C1136.74 209.638 1133.51 202.987 1140.01 196.8C1146.51 190.612 1158.71 172.591 1154.61 152.003C1150.1 129.43 1131.54 116.341 1119.16 112.664C1112.28 110.617 1116.93 102.987 1128.25 106.435C1139.57 109.883 1148.78 119.055 1154.08 126.987C1157.78 132.513 1165.44 129.232 1159.6 118.498C1153.77 107.763 1126.75 82.7371 1089.72 94.8881C1051.5 107.435 1047.08 139.69 1062.9 159.602C1078.71 179.513 1105.76 171.216 1110.35 163.492C1114.95 155.774 1116.7 143.305 1106.23 141.253C1095.75 139.201 1094.36 147.617 1096.22 152.034C1098.08 156.445 1084.41 159.456 1085.79 143.456C1087.17 127.456 1115.8 123.867 1123.68 142.654C1131.56 161.44 1121.42 180.774 1097.66 185.638C1073.91 190.508 1034.42 173.352 1043.39 123.758C1052.36 74.1642 1124.12 72.7736 1152.05 93.0236C1179.98 113.274 1184.22 143.378 1187.11 147.263C1190 151.143 1206.22 147.237 1217.89 138.961C1229.56 130.685 1233.04 121.675 1234.29 118.06C1235.55 114.445 1241.95 115.654 1239.24 126.445C1236.53 137.232 1224.76 149.258 1215.55 153.091C1206.33 156.925 1212.76 164.175 1222.95 158.852C1233.14 153.529 1259.81 132.487 1251.17 98.9611C1242.53 65.435 1209.58 65.2111 1196 71.8621C1182.42 78.5079 1180.49 96.935 1189.2 104.07C1197.93 111.201 1206.49 107.784 1208.03 100.315C1209.56 92.8517 1205.32 88.8465 1207.51 86.6225C1209.7 84.3986 1217.11 84.5913 1219.37 94.8413C1221.62 105.086 1215.04 117.227 1197.76 117.159C1180.46 117.086 1170.21 102.55 1172.38 86.7996C1174.54 71.0444 1187.04 63.8777 1189.29 62.8986C1191.55 61.9194 1189.05 46.9819 1184.43 39.4454C1179.82 31.909 1187.42 33.9194 1190.92 38.534C1194.42 43.1538 1196.72 50.4246 1197.25 55.1954C1197.79 59.9663 1206.34 60.1017 1203.19 49.2267C1200.03 38.3569 1186.48 8.25272 1157.61 7.04959C1128.74 5.84647 1113.65 26.2006 1122.15 45.7215C1130.64 65.2423 1148.37 60.685 1153.5 56.0079C1158.02 51.8986 1159.4 43.8048 1154.1 37.7423C1148.79 31.685 1139.71 32.9194 1139.81 38.3829ZM941.642 87.4402C935.866 85.1954 935.34 78.9402 946.178 80.3986C978.183 84.7006 991.642 74.56 998.746 70.0131C1006.09 65.3204 1009.23 73.9871 1001.06 79.4923C992.897 84.9975 966.522 97.1329 941.642 87.4402ZM1197.45 139.961C1191.8 140.498 1192.22 134.524 1196.8 133.998C1201.39 133.477 1208.86 130.31 1211.35 128.31C1213.84 126.31 1216.42 129.774 1213.32 133.003C1210.22 136.237 1202.79 139.456 1197.45 139.961ZM927.506 73.9298C932.517 76.4923 930.746 85.2423 923.991 80.6746C917.23 76.1017 920.147 70.1798 927.506 73.9298ZM1017.63 66.5027C1012.82 69.4194 1006.3 63.3204 1013.74 59.9715C1021.18 56.6277 1024.69 62.2163 1017.63 66.5027ZM1099.29 112.675C1106.83 110.732 1104.89 103.024 1095.26 105.206C1085.67 107.378 1078.07 112.711 1074.61 118.169C1071.69 122.758 1076.62 125.55 1080.46 121.992C1084.31 118.435 1089.58 115.169 1099.29 112.675ZM1235.56 101.831C1236.81 107.451 1245.95 107.94 1243.15 100.076C1240.35 92.2111 1233.72 93.5808 1235.56 101.831ZM1121.66 212.008C1127.24 208.253 1135.37 215.175 1126.67 219.581C1117.98 223.992 1113.47 217.513 1121.66 212.008ZM1176.5 27.7267C1179.26 30.7631 1185.08 27.8465 1180.57 23.9715C1176.06 20.0965 1172.45 23.2736 1176.5 27.7267ZM1080.69 69.5652C1075.3 71.1798 1070.52 63.6277 1078.57 62.2683C1086.62 60.9038 1088.61 67.2006 1080.69 69.5652ZM1027.81 130.893C1028.34 137.096 1020.21 138.805 1019.41 128.06C1016.95 95.2736 1047.55 72.1121 1057.75 70.6225C1066.13 69.4038 1064.75 75.81 1059.45 77.6381C1048.98 81.2475 1025.46 103.154 1027.81 130.893ZM1006.48 115.675C1004.59 120.977 995.678 120.357 999.335 113.07C1002.99 105.779 1009.25 107.899 1006.48 115.675ZM1020.96 176.919C1025.83 181.3 1018.93 187.68 1008.98 177.154C999.022 166.633 994.381 143.159 995.027 135.748C995.756 127.456 1002.08 129.143 1002.37 136.617C1002.66 144.086 1007.36 164.659 1020.96 176.919ZM1196.38 159.492C1202.43 157.617 1207.89 166.06 1198.85 167.69C1189.8 169.315 1187.49 162.253 1196.38 159.492ZM1093.58 35.4819C1085.12 35.0861 1087.97 25.2579 1098.83 27.5392C1110.58 30.0027 1105.65 36.0496 1093.58 35.4819Z" fill="#D593A6"/>
<path fill-rule="evenodd" clip-rule="evenodd" d="M501.907 87.6838C501.245 83.7931 508.584 83.4806 508.396 89.1629C508.214 94.8504 500.188 105.554 489.073 101.288C477.959 97.0223 475.474 85.215 478.553 76.6369C481.636 68.0588 494.042 54.1734 515.313 63.4963C536.584 72.814 543.167 98.8817 521.902 122.778C500.641 146.679 461.115 131.835 450.87 119.554C440.62 107.272 443.073 102.663 438.688 98.9025C434.308 95.1369 402.49 82.1942 369.928 98.2515C337.36 114.309 332.761 148.897 335.782 158.819C338.152 166.59 342.771 163.507 342.568 158.241C342.297 151.251 343.365 146.778 345.079 143.231C347.084 139.095 351.428 139.725 350.375 147.225C346.61 174.137 369.787 192.663 392.709 198.361C398.297 199.746 396.214 205.543 390.907 204.715C384.089 203.647 377.339 200.778 369.193 195.59C363.136 191.731 359.443 197.897 367.011 203.304C374.042 208.335 389.959 220.132 412.667 214.324C433.292 209.048 450.36 190.861 446.459 168.126C442.558 145.387 419.266 139.798 410.339 143.267C401.407 146.731 397.428 157.668 400.652 164.163C403.87 170.647 413.652 168.142 414.339 163.095C415.027 158.043 422.167 160.861 419.485 167.944C416.803 175.033 407.433 180.6 396.079 173.84C384.724 167.08 386.594 138.684 409.521 133.184C432.454 127.684 450.667 145.043 456.667 160.522C462.662 176.007 479.027 195.356 482.771 198.871C486.516 202.387 483.089 206.345 477.157 202.106C471.219 197.861 466.579 190.918 463.959 188.012C461.334 185.1 456.563 187.392 460.745 195.001C464.928 202.611 493.37 242.798 534.594 250.314C575.823 257.83 610.146 242.626 618.615 205.449C627.084 168.283 594.797 153.35 572.188 153.189C549.573 153.028 532.219 177.199 538.87 195.934C545.521 214.663 566.928 216.246 572.521 210.83C578.115 205.413 579.625 196.835 576.521 193.564C573.417 190.293 584.146 185.918 588.011 198.033C591.875 210.147 579.485 227.028 558.365 223.043C537.245 219.064 522.183 200.08 526.047 180.475C529.917 160.871 548.568 140.194 576.214 142.736C603.86 145.283 615.25 160.35 626.068 165.517C636.886 170.684 658.49 170.397 667.881 165.106C677.266 159.809 677.063 167.944 670.688 171.585C664.318 175.231 648.214 180.705 635.271 178.298C622.334 175.887 626.506 185.465 637.115 187.194C647.719 188.923 667.506 188.861 691.23 168.798C714.959 148.736 737.167 154.272 747.438 160.981C757.714 167.684 764.761 160.21 752.678 148.288C740.599 136.361 717.141 127.069 684.948 136.387C652.75 145.699 622.063 140.309 598.646 116.866C575.23 93.4181 562.808 41.689 517.922 33.2567C473.032 24.8244 445.719 60.59 449.063 86.4963C452.402 112.403 470.381 126.455 491.11 124.923C511.839 123.392 524.344 105.85 523.948 93.3973C523.558 80.939 513.219 71.4963 503.011 69.84C492.803 68.1838 485.855 78.1942 487.855 87.3244C489.86 96.4546 503 94.1265 501.907 87.6838ZM424.844 102.798C432.464 105.694 431.693 112.413 423.131 109.778C405.605 104.382 387.162 108.429 376.568 114.731C370.62 118.278 367.547 113.705 372.141 109.668C381.506 101.444 403.683 94.7463 424.844 102.798ZM556.099 184.699C555.256 189.475 550.652 188.147 550.454 183.434C549.667 164.715 571.933 157.939 586.683 165.163C593.412 168.455 590.183 172.455 584.563 170.231C573.506 165.866 558.849 169.095 556.099 184.699ZM557.698 195.611C554.292 192.408 550.219 197.46 554.042 200.194C557.495 202.663 561.891 199.559 557.698 195.611ZM577.573 232.423C571.344 234.455 573.589 240.069 579.485 237.965C585.386 235.856 585.672 229.793 577.573 232.423ZM527.75 212.241C523.631 207.845 519.818 211.908 523.875 215.996C527.933 220.08 533.115 217.955 527.75 212.241ZM521.209 164.996C524.839 159.58 519.87 156.991 514.027 164.418C507.959 172.147 504.672 191.095 513.282 201.725C517.589 207.054 521.23 202.517 518.381 198.054C514.146 191.413 513.964 175.809 521.209 164.996ZM687.162 156.444C693.256 153.09 695.99 158.903 690.079 161.944C684.162 164.975 679.24 160.804 687.162 156.444ZM594.823 126.017C599.568 130.439 595.193 134.543 590.782 130.189C586.37 125.835 588.657 120.262 594.823 126.017ZM538.323 114.335C541.771 107.887 547.521 111.449 544.053 117.517C540.579 123.585 533.834 122.715 538.323 114.335ZM543.61 58.9025C539.308 56.0848 534.709 59.4598 541.172 64.6004C553.37 74.2984 559.391 86.1056 561.813 90.6161C564.636 95.8817 568.282 93.3869 565.818 87.6473C563.349 81.9025 556.808 67.5431 543.61 58.9025ZM519.652 50.1265C512.542 48.3713 514.594 41.9338 521.334 43.8036C528.079 45.6681 528.891 52.4129 519.652 50.1265ZM654.063 150.251C662.844 150.298 662.407 156.689 651.261 157.658C641.198 158.528 617.37 149.522 608.183 142.054C599 134.585 605.032 133.095 611.448 137.455C625.089 146.725 641.865 150.189 654.063 150.251ZM460.745 93.9234C462.849 98.4442 466.724 94.6629 465.766 90.59C460.23 67.0848 484.386 48.2254 497.698 47.7723C504.834 47.5275 502.042 42.0015 494.959 42.6265C474.865 44.4077 449.573 69.9546 460.745 93.9234ZM498.011 212.434C495.224 209.528 489.834 212.908 495.084 218.189C518.261 241.455 550.438 243.84 560.172 242.012C565.959 240.918 564.355 236.074 556.844 236.116C549.339 236.158 518.25 233.595 498.011 212.434ZM458.459 142.028C454.027 139.491 457.084 135.059 461.24 137.616C465.391 140.179 464.219 145.324 458.459 142.028ZM477.068 143.903C470.974 141.564 470.141 149.21 479.193 151.97C489.709 155.184 513.797 155.788 531.563 134.736C537.058 128.22 530.459 126.257 526.438 131.09C514.803 145.074 491.761 149.543 477.068 143.903ZM432.089 165.528C429.688 161.028 434.636 158.903 436.792 163.272C438.943 167.642 435.209 171.382 432.089 165.528ZM415.443 195.137C410.506 195.757 410.834 202.465 418.693 200.679C433.183 197.382 437.391 184.361 437.25 179.371C437.131 175.215 433.037 175.569 432.344 179.731C431.235 186.408 426.318 193.778 415.443 195.137ZM378.912 175.533C375.448 171.788 379.698 168.481 382.891 172.163C386.079 175.845 383.417 180.408 378.912 175.533ZM396.209 129.824C402.318 127.533 398.011 121.632 389.25 125.194C380.136 128.903 367.12 144.725 371.084 157.809C373.558 165.96 377.912 163.392 377.339 157.137C376.599 148.975 381.469 135.345 396.209 129.824ZM355.818 124.496C359.875 119.475 364.813 124.168 360.782 128.84C356.756 133.507 350.542 131.028 355.818 124.496ZM347.141 170.856C345.954 166.981 339.881 168.647 341.323 173.923C342.766 179.199 349 187.996 354.589 190.835C359.042 193.09 361.256 189.408 357.459 186.028C353.313 182.34 348.667 175.84 347.141 170.856Z" fill="#D593A6"/>
</svg>
