<svg width="1835" height="276" viewBox="0 0 1835 276" fill="none" xmlns="http://www.w3.org/2000/svg">
<path fill-rule="evenodd" clip-rule="evenodd" d="M1087.87 128.908C1094.54 125.783 1091.2 118.689 1084 121.465C1076.81 124.247 1067.96 125.913 1060.33 124.721C1052.68 123.533 1053.1 115.757 1062.75 115.892C1072.4 116.023 1096.28 108.58 1107.4 98.0955C1118.5 87.6059 1129.41 64.5695 1145.01 57.5226C1160.59 50.4705 1151.35 43.783 1140.74 49.2101C1130.12 54.6424 1126.26 45.8351 1140.76 38.6059C1155.27 31.3768 1182.21 25.4809 1204.78 34.6215C1227.34 43.7622 1232.55 49.6945 1236.01 53.3976C1239.45 57.1007 1235.52 63.9028 1228.94 58.7361C1222.37 53.559 1211.29 46.7674 1202.62 45.0903C1193.93 43.408 1192.21 50.4184 1199.86 52.8976C1207.49 55.3768 1226.64 63.908 1236.44 90.3872C1246.24 116.866 1231.68 143.95 1212.65 151.382C1193.61 158.814 1164.86 149.913 1160.87 122.481C1156.88 95.0538 1183.22 86.4965 1193.44 92.4757C1203.67 98.4497 1207.36 110.309 1206.17 115.971C1204.99 121.637 1197.14 122.741 1196.46 115.241C1195.77 107.747 1188.19 99.6528 1177.94 105.043C1167.7 110.429 1167.73 134.288 1188.86 141.471C1209.99 148.648 1228.41 131.736 1228.21 111.007C1228.01 90.2726 1213.38 59.9393 1174.82 60.9288C1136.25 61.9132 1117.17 96.0174 1120.9 131.955C1124.63 167.898 1157.21 190.616 1167.25 192.221C1177.28 193.819 1176.76 186.455 1169.75 183.455C1162.75 180.45 1151.18 169.319 1148.22 161.929C1145.27 154.533 1151.26 152.497 1157.78 160.554C1164.29 168.611 1179.56 184.325 1207.78 179.049C1236.01 173.767 1247.17 158.278 1250.74 152.267C1254.31 146.262 1261.55 148.632 1257.82 158.596C1254.08 168.564 1243.69 178.663 1231.9 185.736C1220.1 192.814 1226.98 197.351 1238.47 193.033C1249.97 188.71 1274.82 172.293 1279.49 142.231C1284.16 112.168 1275.94 102.481 1278.3 99.1893C1280.66 95.8924 1289.84 101.986 1307.1 98.9965C1324.36 96.0018 1345.57 84.9913 1354.13 76.158C1362.7 67.3195 1355.3 60.8768 1345.67 64.2205C1336.03 67.5747 1305.15 64.0643 1276.13 37.9184C1247.11 11.7778 1210.66 -15.6545 1151.13 10.7049C1091.59 37.0643 1091.76 73.7101 1054.86 85.4132C1017.94 97.1215 1000.12 81.5486 971.99 87.7205C943.865 93.9028 936.918 106.346 933.85 111.382C930.772 116.424 936.303 122.471 946.433 115.429C956.563 108.387 983.308 107.273 1000.18 115.929C1018.99 125.569 1055.99 143.882 1087.87 128.908ZM1249.5 72.3351C1244.28 67.3455 1247.99 62.6163 1253.21 66.1684C1269.55 77.2934 1284.58 82.882 1297.19 84.3455C1303.62 85.0955 1300.24 90.8507 1292.91 90.0903C1273.59 88.0903 1255.96 78.5122 1249.5 72.3351ZM1155.79 79.0851C1161.59 75.658 1164.41 81.8247 1158.14 85.7465C1152.49 89.283 1149.14 83.0174 1155.79 79.0851ZM1143.2 132.21C1145.57 141.153 1137.95 143.189 1135.62 134.913C1132.56 124.106 1133.08 108.434 1140.09 96.8924C1143.95 90.5382 1149.26 93.3143 1146.25 99.8143C1142.49 107.955 1140.43 121.788 1143.2 132.21ZM1036.83 121.861C1044.87 122.913 1046.71 115.304 1038.71 114.304C1030.86 113.325 1023.31 110.705 1016.7 108.096C1011.63 106.085 1009.82 111.132 1014.51 113.872C1020.4 117.299 1029.42 120.898 1036.83 121.861ZM1118.53 57.0695C1123.46 51.7674 1128.26 57.2622 1123 63.2153C1118.25 68.5799 1112.89 63.1476 1118.53 57.0695ZM1100.39 77.7934C1106.63 71.0382 1113.15 76.0799 1107.12 82.2153C1101.08 88.3507 1090.42 97.4809 1079.2 100.965C1072.09 103.174 1071.21 97.0486 1077.83 94.2934C1084.45 91.5434 1095.77 82.7986 1100.39 77.7934ZM1207.61 21.3872C1216.46 23.908 1219.4 16.2049 1211.04 14.1111C1202.69 12.0122 1188.83 9.77781 1177.43 12.6424C1170.21 14.4601 1172.66 20.1476 1179.75 19.0538C1186.83 17.9549 1201.06 19.5226 1207.61 21.3872ZM1225.85 27.3663C1219.24 24.4184 1223.91 16.3872 1230.23 21.1684C1235.94 25.4861 1233.43 30.7413 1225.85 27.3663ZM1266.58 131.976C1265.63 140.637 1254.69 138.231 1257.86 129.241C1260.72 121.106 1267.68 122.054 1266.58 131.976ZM1174.08 42.382C1182.41 42.3403 1181.57 50.6736 1172.43 50.9549C1164.19 51.2049 1164.53 42.434 1174.08 42.382ZM1101.72 113.694C1107.96 110.012 1110.99 116.637 1104.25 120.851C1098.18 124.653 1094.58 117.918 1101.72 113.694ZM1200.07 191.403C1207.97 193.668 1204.86 201.33 1196.13 199.064C1188.26 197.023 1191.01 188.804 1200.07 191.403Z" fill="#D593A6"/>
<path fill-rule="evenodd" clip-rule="evenodd" d="M53.4087 72.0424C60.5441 72.6362 61.7628 68.1987 54.6222 66.4174C47.492 64.6414 46.6482 58.8289 54.9087 59.8602C63.1691 60.8914 74.0545 62.6727 92.742 52.9227C111.419 43.1727 129.841 41.5477 144.56 56.1102C160.065 71.4539 152.065 99.7924 131.601 102.417C111.138 105.042 100.815 90.9799 104.289 79.5424C107.758 68.1102 123.153 64.1727 128.508 72.4174C133.857 80.6674 127.518 86.9956 123.669 86.6206C119.82 86.2456 120.388 81.9331 123.528 81.5112C126.674 81.0893 127.096 72.1362 118.836 72.7924C110.575 73.4487 106.398 86.9487 115.127 92.7143C123.857 98.4799 138.127 96.8966 142.914 82.1206C148.169 65.907 132.211 53.3914 118.133 53.6727C104.049 53.9539 89.1691 60.3706 80.7732 84.9799C72.3201 109.73 88.7472 133.818 117.383 141.787C125.377 144.016 127.237 138.506 120.195 136.725C113.159 134.943 97.1014 127.496 92.0337 115.355C89.9503 110.36 94.1639 108.949 96.8201 114.136C101.752 123.746 117.383 131.287 123.669 131.943C129.961 132.6 130.804 129.412 134.185 125.667C137.565 121.917 154.528 108.214 175.346 116.667C187.883 121.751 192.107 132.506 207.872 136.818C214.549 138.647 213.872 143.1 213.601 145.443C211.445 164.287 197.117 178.454 185.956 181.298C179.508 182.943 177.992 178.917 183.143 176.568C193.372 171.891 201.351 162.365 203.929 150.975C205.726 143.074 199.81 141.605 197.877 148.022C194.685 158.615 182.544 175.193 163.284 171.037C149.383 168.032 146.393 152.407 152.242 143.891C156.414 137.818 165.409 136.121 170.825 140.412C176.289 144.746 170.674 150.902 166.617 145.068C165.028 142.782 160.638 143.954 158.476 147.365C155.898 151.449 156.107 158.371 162.627 161.475C174.456 167.1 189.758 156.693 184.784 136.912C179.81 117.136 140.008 114.23 134.372 147.131C128.737 180.032 151.518 203.136 184.659 206.23C218.554 209.391 239.846 181.553 244.112 170.568C247.716 161.277 241.039 162.798 237.164 169.256C229.679 181.72 215.95 195.032 200.737 197.563C192.31 198.97 191.883 192.99 199.518 191.001C210.315 188.188 225.377 177.839 234.164 156.787C236.409 151.397 235.403 146.048 234.56 142.11C233.711 138.173 231.987 134.204 226.997 134.662C212.502 135.99 197.362 124.912 193.325 118.631C189.289 112.355 192.763 108.792 199.242 115.355C205.716 121.912 219.044 126.693 225.804 126.787C232.565 126.881 234.346 121.35 226.086 120.693C217.825 120.037 213.976 117.23 212.101 115.636C210.221 114.042 210.789 108.417 216.226 110.667C221.674 112.917 244.768 115.449 250.304 112.824C255.846 110.199 256.971 117.693 249.929 119.85C242.893 122.006 240.544 125.568 241.857 134.381C243.174 143.193 261.101 178.907 300.903 171.22C340.706 163.537 340.143 110.105 315.549 101.105C290.95 92.1049 276.497 112.167 281.752 125.287C287.008 138.412 299.403 131.662 299.122 125.381C298.841 119.105 293.206 119.662 291.987 120.318C290.768 120.975 288.138 114.511 296.304 114.886C304.471 115.261 311.232 127.725 299.591 137.1C287.95 146.475 272.554 135.037 272.929 119.943C273.304 104.855 282.596 89.7612 307.383 90.6987C332.164 91.6362 344.179 88.4487 358.825 70.8237C373.471 53.2039 398.44 49.4539 412.898 56.0164C427.351 62.5789 426.789 52.5477 416.185 45.8914C405.575 39.2352 387.549 33.2352 369.336 39.9852C351.127 46.7352 346.341 54.0477 331.226 53.6727C316.112 53.2977 311.232 50.5789 308.695 49.1727C306.159 47.7664 301.56 51.4227 308.601 56.2977C315.643 61.1727 331.32 63.7924 341.549 60.3289C351.784 56.8602 349.065 64.0737 342.211 66.6049C335.357 69.1362 317.331 70.0737 306.627 64.9174C295.929 59.7664 292.268 62.3445 289.263 68.5268C286.258 74.7143 276.825 99.1362 246.409 99.8862C215.997 100.636 198.862 77.4799 200.367 59.4852C201.867 41.4852 211.44 29.4852 228.81 28.2664C246.174 27.0477 255.94 39.7977 252.747 54.1414C249.554 68.4799 233.502 70.2612 227.304 63.1362C221.112 56.0164 223.362 47.3914 227.216 48.2352C231.06 49.0789 231.107 52.2195 230.497 54.1414C229.888 56.0633 233.784 61.5945 239.888 58.9695C245.987 56.3445 248.195 39.8914 235.987 36.6102C223.784 33.3289 208.95 39.9852 211.206 62.6727C213.461 85.3549 236.799 96.8862 261.711 87.0424C285.601 77.6049 294.013 26.1206 257.206 7.74037C220.482 -10.5982 191.773 8.86537 181.45 26.9539C178.159 32.7247 182.95 33.6102 185.956 28.9227C188.961 24.2352 197.69 15.8914 201.445 14.5789C205.2 13.2664 207.456 15.5164 202.195 20.2977C196.94 25.0789 185.393 36.4227 181.825 50.1102C178.258 63.7924 180.419 74.0112 181.45 77.5737C182.482 81.1362 176.19 82.2612 174.315 75.1362C172.799 69.3862 173.06 62.7195 173.013 59.5737C172.961 55.2508 167.544 51.5112 164.461 49.1727C157.232 43.6883 150.752 42.1414 147.372 40.9227C143.992 39.7039 144.924 36.0893 151.127 37.1727C159.716 38.6727 169.148 43.8289 172.622 47.3914C176.096 50.9539 178.95 45.0945 173.002 40.3602C165.586 34.4539 137.513 21.8914 111.419 26.5789C85.3201 31.2664 73.117 46.2664 51.3409 45.5164C29.5597 44.7664 17.1691 40.0789 8.53365 35.9539C-0.101764 31.8289 -4.04447 39.3289 5.71595 48.1414C15.4764 56.9487 33.5076 70.3862 53.4087 72.0424ZM72.0284 73.1674C64.5389 72.9904 66.2889 67.5164 74.3982 68.5529C82.5128 69.5893 79.1482 73.3341 72.0284 73.1674ZM105.127 114.037C103.112 111.459 105.367 109.376 107.617 111.438C109.674 113.318 115.216 118.782 124.815 119.49C131.143 119.959 129.56 125.73 124.091 124.865C119.435 124.126 111.57 122.277 105.127 114.037ZM39.0857 61.0737C42.3409 61.5737 42.9659 57.157 38.6014 56.9695C34.2368 56.7768 35.6118 60.5424 39.0857 61.0737ZM135.836 38.0945C139.127 38.0789 139.054 33.6154 134.716 34.1102C130.377 34.6102 132.325 38.1102 135.836 38.0945ZM71.6118 53.5789C67.7837 53.9279 65.1326 49.4174 70.4503 49.0997C78.1534 48.6362 94.9555 34.4487 109.82 35.7039C113.794 36.0372 115.575 39.3862 108.752 39.6674C92.9243 40.3185 83.7784 52.4799 71.6118 53.5789ZM250.627 135.412C252.258 138.907 256.976 136.641 254.325 132.272C251.674 127.902 248.893 131.688 250.627 135.412ZM314.117 145.407C312.45 148.881 317.195 151.084 318.888 146.261C320.581 141.438 315.893 141.704 314.117 145.407ZM256.331 147.1C252.716 142.485 256.987 139.027 260.778 143.537C271.653 156.47 290.518 164.376 306.023 154.391C310.549 151.48 311.122 155.97 307.424 158.808C296.45 167.246 272.846 168.157 256.331 147.1ZM297.758 77.782C294.242 76.2299 295.601 71.1727 300.622 72.9539C305.643 74.7352 311.091 76.7039 321.601 76.7039C325.591 76.7039 325.263 80.6883 320.898 81.157C316.534 81.6258 306.773 81.7612 297.758 77.782ZM357.612 52.5529C354.169 55.7612 358.586 60.3706 362.659 55.6414C366.732 50.9122 361.278 49.131 357.612 52.5529ZM270.679 69.0112C272.914 65.4331 268.018 62.4695 265.591 67.506C263.169 72.5477 268.304 72.8289 270.679 69.0112ZM226.284 13.2143C230.409 12.3029 229.101 6.73516 223.799 8.53204C218.497 10.3289 221.888 14.1831 226.284 13.2143ZM273.633 52.8862C273.497 58.7456 268.612 57.6102 268.695 53.0008C269.002 36.1154 262.674 22.6622 241.716 15.1414C236.653 13.3237 239.054 9.72475 243.57 10.8914C258.601 14.7664 274.263 25.631 273.633 52.8862ZM182.049 100.173C184.351 105.506 191.554 102.298 187.747 95.6049C183.94 88.9122 179.596 94.4904 182.049 100.173ZM157.518 67.0164C159.143 69.8758 163.002 67.6206 160.445 64.0893C157.883 60.5529 155.784 63.9643 157.518 67.0164ZM148.414 108.949C144.096 111.042 143.393 107.386 146.57 105.355C152.445 101.605 160.518 92.4799 158.841 76.8289C158.372 72.4591 161.883 72.9435 162.633 76.6779C165.127 89.1049 159.518 103.563 148.414 108.949ZM87.2889 100.704C87.4295 103.99 91.893 103.751 91.2316 99.4383C90.5805 95.1258 87.1482 97.1987 87.2889 100.704ZM88.2784 85.4227C87.8409 88.8497 91.7837 89.3393 92.3149 85.6102C93.2993 78.7195 97.6274 70.9331 104.331 67.0945C108.148 64.9122 103.94 62.9279 100.7 64.9383C96.992 67.2352 89.8826 72.8966 88.2784 85.4227Z" fill="#D593A6"/>
<path fill-rule="evenodd" clip-rule="evenodd" d="M1464.41 72.0424C1471.54 72.6362 1472.76 68.1987 1465.62 66.4174C1458.49 64.6414 1457.65 58.8289 1465.91 59.8602C1474.17 60.8914 1485.05 62.6727 1503.74 52.9227C1522.42 43.1727 1540.84 41.5477 1555.56 56.1102C1571.06 71.4539 1563.06 99.7924 1542.6 102.417C1522.14 105.042 1511.81 90.9799 1515.29 79.5424C1518.76 68.1102 1534.15 64.1727 1539.51 72.4174C1544.86 80.6674 1538.52 86.9956 1534.67 86.6206C1530.82 86.2456 1531.39 81.9331 1534.53 81.5112C1537.67 81.0893 1538.1 72.1362 1529.84 72.7924C1521.58 73.4487 1517.4 86.9487 1526.13 92.7143C1534.86 98.4799 1549.13 96.8966 1553.91 82.1206C1559.17 65.907 1543.21 53.3914 1529.13 53.6727C1515.05 53.9539 1500.17 60.3706 1491.77 84.9799C1483.32 109.73 1499.75 133.818 1528.38 141.787C1536.38 144.016 1538.24 138.506 1531.2 136.725C1524.16 134.943 1508.1 127.496 1503.03 115.355C1500.95 110.36 1505.16 108.949 1507.82 114.136C1512.75 123.746 1528.38 131.287 1534.67 131.943C1540.96 132.6 1541.8 129.412 1545.18 125.667C1548.56 121.917 1565.53 108.214 1586.35 116.667C1598.88 121.751 1603.11 132.506 1618.87 136.818C1625.55 138.647 1624.87 143.1 1624.6 145.443C1622.45 164.287 1608.12 178.454 1596.96 181.298C1590.51 182.943 1588.99 178.917 1594.14 176.568C1604.37 171.891 1612.35 162.365 1614.93 150.975C1616.73 143.074 1610.81 141.605 1608.88 148.022C1605.68 158.615 1593.54 175.193 1574.28 171.037C1560.38 168.032 1557.39 152.407 1563.24 143.891C1567.41 137.818 1576.41 136.121 1581.83 140.412C1587.29 144.746 1581.67 150.902 1577.62 145.068C1576.03 142.782 1571.64 143.954 1569.48 147.365C1566.9 151.449 1567.11 158.371 1573.63 161.475C1585.46 167.1 1600.76 156.693 1595.78 136.912C1590.81 117.136 1551.01 114.23 1545.37 147.131C1539.74 180.032 1562.52 203.136 1595.66 206.23C1629.55 209.391 1650.85 181.553 1655.11 170.568C1658.72 161.277 1652.04 162.798 1648.16 169.256C1640.68 181.72 1626.95 195.032 1611.74 197.563C1603.31 198.97 1602.88 192.99 1610.52 191.001C1621.31 188.188 1636.38 177.839 1645.16 156.787C1647.41 151.397 1646.4 146.048 1645.56 142.11C1644.71 138.173 1642.99 134.204 1638 134.662C1623.5 135.99 1608.36 124.912 1604.33 118.631C1600.29 112.355 1603.76 108.792 1610.24 115.355C1616.72 121.912 1630.04 126.693 1636.8 126.787C1643.56 126.881 1645.35 121.35 1637.09 120.693C1628.83 120.037 1624.98 117.23 1623.1 115.636C1621.22 114.042 1621.79 108.417 1627.23 110.667C1632.67 112.917 1655.77 115.449 1661.3 112.824C1666.85 110.199 1667.97 117.693 1660.93 119.85C1653.89 122.006 1651.54 125.568 1652.86 134.381C1654.17 143.193 1672.1 178.907 1711.9 171.22C1751.71 163.537 1751.14 110.105 1726.55 101.105C1701.95 92.1049 1687.5 112.167 1692.75 125.287C1698.01 138.412 1710.4 131.662 1710.12 125.381C1709.84 119.105 1704.21 119.662 1702.99 120.318C1701.77 120.975 1699.14 114.511 1707.3 114.886C1715.47 115.261 1722.23 127.725 1710.59 137.1C1698.95 146.475 1683.55 135.037 1683.93 119.943C1684.3 104.855 1693.6 89.7612 1718.38 90.6987C1743.16 91.6362 1755.18 88.4487 1769.83 70.8237C1784.47 53.2039 1809.44 49.4539 1823.9 56.0164C1838.35 62.5789 1837.79 52.5477 1827.18 45.8914C1816.58 39.2352 1798.55 33.2352 1780.34 39.9852C1762.13 46.7352 1757.34 54.0477 1742.23 53.6727C1727.11 53.2977 1722.23 50.5789 1719.7 49.1727C1717.16 47.7664 1712.56 51.4227 1719.6 56.2977C1726.64 61.1727 1742.32 63.7924 1752.55 60.3289C1762.78 56.8602 1760.06 64.0737 1753.21 66.6049C1746.36 69.1362 1728.33 70.0737 1717.63 64.9174C1706.93 59.7664 1703.27 62.3445 1700.26 68.5268C1697.26 74.7143 1687.83 99.1362 1657.41 99.8862C1627 100.636 1609.86 77.4799 1611.37 59.4852C1612.87 41.4852 1622.44 29.4852 1639.81 28.2664C1657.17 27.0477 1666.94 39.7977 1663.75 54.1414C1660.55 68.4799 1644.5 70.2612 1638.3 63.1362C1632.11 56.0164 1634.36 47.3914 1638.22 48.2352C1642.06 49.0789 1642.11 52.2195 1641.5 54.1414C1640.89 56.0633 1644.78 61.5945 1650.89 58.9695C1656.99 56.3445 1659.2 39.8914 1646.99 36.6102C1634.78 33.3289 1619.95 39.9852 1622.21 62.6727C1624.46 85.3549 1647.8 96.8862 1672.71 87.0424C1696.6 77.6049 1705.01 26.1206 1668.21 7.74037C1631.48 -10.5982 1602.77 8.86537 1592.45 26.9539C1589.16 32.7247 1593.95 33.6102 1596.96 28.9227C1599.96 24.2352 1608.69 15.8914 1612.45 14.5789C1616.2 13.2664 1618.46 15.5164 1613.2 20.2977C1607.94 25.0789 1596.39 36.4227 1592.83 50.1102C1589.26 63.7924 1591.42 74.0112 1592.45 77.5737C1593.48 81.1362 1587.19 82.2612 1585.31 75.1362C1583.8 69.3862 1584.06 62.7195 1584.01 59.5737C1583.96 55.2508 1578.54 51.5112 1575.46 49.1727C1568.23 43.6883 1561.75 42.1414 1558.37 40.9227C1554.99 39.7039 1555.92 36.0893 1562.13 37.1727C1570.72 38.6727 1580.15 43.8289 1583.62 47.3914C1587.1 50.9539 1589.95 45.0945 1584 40.3602C1576.59 34.4539 1548.51 21.8914 1522.42 26.5789C1496.32 31.2664 1484.12 46.2664 1462.34 45.5164C1440.56 44.7664 1428.17 40.0789 1419.53 35.9539C1410.9 31.8289 1406.96 39.3289 1416.72 48.1414C1426.48 56.9487 1444.51 70.3862 1464.41 72.0424ZM1483.03 73.1674C1475.54 72.9904 1477.29 67.5164 1485.4 68.5529C1493.51 69.5893 1490.15 73.3341 1483.03 73.1674ZM1516.13 114.037C1514.11 111.459 1516.37 109.376 1518.62 111.438C1520.67 113.318 1526.22 118.782 1535.81 119.49C1542.14 119.959 1540.56 125.73 1535.09 124.865C1530.43 124.126 1522.57 122.277 1516.13 114.037ZM1450.09 61.0737C1453.34 61.5737 1453.97 57.157 1449.6 56.9695C1445.24 56.7768 1446.61 60.5424 1450.09 61.0737ZM1546.84 38.0945C1550.13 38.0789 1550.05 33.6154 1545.72 34.1102C1541.38 34.6102 1543.33 38.1102 1546.84 38.0945ZM1482.61 53.5789C1478.78 53.9279 1476.13 49.4174 1481.45 49.0997C1489.15 48.6362 1505.96 34.4487 1520.82 35.7039C1524.79 36.0372 1526.58 39.3862 1519.75 39.6674C1503.92 40.3185 1494.78 52.4799 1482.61 53.5789ZM1661.63 135.412C1663.26 138.907 1667.98 136.641 1665.33 132.272C1662.67 127.902 1659.89 131.688 1661.63 135.412ZM1725.12 145.407C1723.45 148.881 1728.2 151.084 1729.89 146.261C1731.58 141.438 1726.89 141.704 1725.12 145.407ZM1667.33 147.1C1663.72 142.485 1667.99 139.027 1671.78 143.537C1682.65 156.47 1701.52 164.376 1717.02 154.391C1721.55 151.48 1722.12 155.97 1718.42 158.808C1707.45 167.246 1683.85 168.157 1667.33 147.1ZM1708.76 77.782C1705.24 76.2299 1706.6 71.1727 1711.62 72.9539C1716.64 74.7352 1722.09 76.7039 1732.6 76.7039C1736.59 76.7039 1736.26 80.6883 1731.9 81.157C1727.53 81.6258 1717.77 81.7612 1708.76 77.782ZM1768.61 52.5529C1765.17 55.7612 1769.59 60.3706 1773.66 55.6414C1777.73 50.9122 1772.28 49.131 1768.61 52.5529ZM1681.68 69.0112C1683.91 65.4331 1679.02 62.4695 1676.59 67.506C1674.17 72.5477 1679.3 72.8289 1681.68 69.0112ZM1637.28 13.2143C1641.41 12.3029 1640.1 6.73516 1634.8 8.53204C1629.5 10.3289 1632.89 14.1831 1637.28 13.2143ZM1684.63 52.8862C1684.5 58.7456 1679.61 57.6102 1679.7 53.0008C1680 36.1154 1673.67 22.6622 1652.72 15.1414C1647.65 13.3237 1650.05 9.72475 1654.57 10.8914C1669.6 14.7664 1685.26 25.631 1684.63 52.8862ZM1593.05 100.173C1595.35 105.506 1602.55 102.298 1598.75 95.6049C1594.94 88.9122 1590.6 94.4904 1593.05 100.173ZM1568.52 67.0164C1570.14 69.8758 1574 67.6206 1571.45 64.0893C1568.88 60.5529 1566.78 63.9643 1568.52 67.0164ZM1559.41 108.949C1555.1 111.042 1554.39 107.386 1557.57 105.355C1563.45 101.605 1571.52 92.4799 1569.84 76.8289C1569.37 72.4591 1572.88 72.9435 1573.63 76.6779C1576.13 89.1049 1570.52 103.563 1559.41 108.949ZM1498.29 100.704C1498.43 103.99 1502.89 103.751 1502.23 99.4383C1501.58 95.1258 1498.15 97.1987 1498.29 100.704ZM1499.28 85.4227C1498.84 88.8497 1502.78 89.3393 1503.31 85.6102C1504.3 78.7195 1508.63 70.9331 1515.33 67.0945C1519.15 64.9122 1514.94 62.9279 1511.7 64.9383C1507.99 67.2352 1500.88 72.8966 1499.28 85.4227Z" fill="#D593A6"/>
<path fill-rule="evenodd" clip-rule="evenodd" d="M530.409 117.042C537.544 117.636 538.763 113.199 531.622 111.417C524.492 109.641 523.648 103.829 531.909 104.86C540.169 105.891 551.054 107.673 569.742 97.9227C588.419 88.1727 606.841 86.5477 621.56 101.11C637.065 116.454 629.065 144.792 608.601 147.417C588.138 150.042 577.815 135.98 581.289 124.542C584.758 113.11 600.153 109.173 605.508 117.417C610.857 125.667 604.518 131.996 600.669 131.621C596.82 131.246 597.388 126.933 600.528 126.511C603.674 126.089 604.096 117.136 595.836 117.792C587.575 118.449 583.398 131.949 592.127 137.714C600.857 143.48 615.127 141.897 619.914 127.121C625.169 110.907 609.211 98.3914 595.133 98.6727C581.049 98.9539 566.169 105.371 557.773 129.98C549.32 154.73 565.747 178.818 594.383 186.787C602.377 189.016 604.237 183.506 597.195 181.725C590.159 179.943 574.101 172.496 569.034 160.355C566.95 155.36 571.164 153.949 573.82 159.136C578.752 168.746 594.383 176.287 600.669 176.943C606.961 177.6 607.804 174.412 611.185 170.667C614.565 166.917 631.528 153.214 652.346 161.667C664.883 166.751 669.107 177.506 684.872 181.818C691.549 183.647 690.872 188.1 690.601 190.443C688.445 209.287 674.117 223.454 662.956 226.298C656.508 227.943 654.992 223.917 660.143 221.568C670.372 216.891 678.351 207.365 680.929 195.975C682.726 188.074 676.81 186.605 674.877 193.022C671.685 203.615 659.544 220.193 640.284 216.037C626.383 213.032 623.393 197.407 629.242 188.891C633.414 182.818 642.409 181.121 647.825 185.412C653.289 189.746 647.674 195.902 643.617 190.068C642.028 187.782 637.638 188.954 635.476 192.365C632.898 196.449 633.107 203.371 639.627 206.475C651.456 212.1 666.758 201.693 661.784 181.912C656.81 162.136 617.008 159.23 611.372 192.131C605.737 225.032 628.518 248.136 661.659 251.23C695.554 254.391 716.846 226.553 721.112 215.568C724.716 206.277 718.039 207.798 714.164 214.256C706.679 226.72 692.95 240.032 677.737 242.563C669.31 243.97 668.883 237.99 676.518 236.001C687.315 233.188 702.377 222.839 711.164 201.787C713.409 196.397 712.403 191.048 711.56 187.11C710.711 183.173 708.987 179.204 703.997 179.662C689.502 180.99 674.362 169.912 670.325 163.631C666.289 157.355 669.763 153.792 676.242 160.355C682.716 166.912 696.044 171.693 702.804 171.787C709.565 171.881 711.346 166.35 703.086 165.693C694.825 165.037 690.976 162.23 689.101 160.636C687.221 159.042 687.789 153.417 693.226 155.667C698.674 157.917 721.768 160.449 727.304 157.824C732.846 155.199 733.971 162.693 726.929 164.85C719.893 167.006 717.544 170.568 718.857 179.381C720.174 188.193 738.101 223.907 777.903 216.22C817.706 208.537 817.143 155.105 792.549 146.105C767.95 137.105 753.497 157.167 758.752 170.287C764.008 183.412 776.403 176.662 776.122 170.381C775.841 164.105 770.206 164.662 768.987 165.318C767.768 165.975 765.138 159.511 773.304 159.886C781.471 160.261 788.232 172.725 776.591 182.1C764.95 191.475 749.554 180.037 749.929 164.943C750.304 149.855 759.596 134.761 784.383 135.699C809.164 136.636 821.179 133.449 835.825 115.824C850.471 98.2039 875.44 94.4539 889.898 101.016C904.351 107.579 903.789 97.5477 893.185 90.8914C882.575 84.2352 864.549 78.2352 846.336 84.9852C828.127 91.7352 823.341 99.0477 808.226 98.6727C793.112 98.2977 788.232 95.5789 785.695 94.1727C783.159 92.7664 778.56 96.4227 785.601 101.298C792.643 106.173 808.32 108.792 818.549 105.329C828.784 101.86 826.065 109.074 819.211 111.605C812.357 114.136 794.331 115.074 783.627 109.917C772.929 104.766 769.268 107.345 766.263 113.527C763.258 119.714 753.825 144.136 723.409 144.886C692.997 145.636 675.862 122.48 677.367 104.485C678.867 86.4852 688.44 74.4852 705.81 73.2664C723.174 72.0477 732.94 84.7977 729.747 99.1414C726.554 113.48 710.502 115.261 704.304 108.136C698.112 101.016 700.362 92.3914 704.216 93.2352C708.06 94.0789 708.107 97.2195 707.497 99.1414C706.888 101.063 710.784 106.595 716.888 103.97C722.987 101.345 725.195 84.8914 712.987 81.6102C700.784 78.3289 685.95 84.9852 688.206 107.673C690.461 130.355 713.799 141.886 738.711 132.042C762.601 122.605 771.013 71.1206 734.206 52.7404C697.482 34.4018 668.773 53.8654 658.45 71.9539C655.159 77.7247 659.95 78.6102 662.956 73.9227C665.961 69.2352 674.69 60.8914 678.445 59.5789C682.2 58.2664 684.456 60.5164 679.195 65.2977C673.94 70.0789 662.393 81.4227 658.825 95.1102C655.258 108.792 657.419 119.011 658.45 122.574C659.482 126.136 653.19 127.261 651.315 120.136C649.799 114.386 650.06 107.72 650.013 104.574C649.961 100.251 644.544 96.5112 641.461 94.1727C634.232 88.6883 627.752 87.1414 624.372 85.9227C620.992 84.7039 621.924 81.0893 628.127 82.1727C636.716 83.6727 646.148 88.8289 649.622 92.3914C653.096 95.9539 655.95 90.0945 650.002 85.3602C642.586 79.4539 614.513 66.8914 588.419 71.5789C562.32 76.2664 550.117 91.2664 528.341 90.5164C506.56 89.7664 494.169 85.0789 485.534 80.9539C476.898 76.8289 472.956 84.3289 482.716 93.1414C492.476 101.949 510.508 115.386 530.409 117.042ZM549.028 118.167C541.539 117.99 543.289 112.516 551.398 113.553C559.513 114.589 556.148 118.334 549.028 118.167ZM582.127 159.037C580.112 156.459 582.367 154.376 584.617 156.438C586.674 158.318 592.216 163.782 601.815 164.49C608.143 164.959 606.56 170.73 601.091 169.865C596.435 169.126 588.57 167.277 582.127 159.037ZM516.086 106.074C519.341 106.574 519.966 102.157 515.601 101.97C511.237 101.777 512.612 105.542 516.086 106.074ZM612.836 83.0945C616.127 83.0789 616.054 78.6154 611.716 79.1102C607.377 79.6102 609.325 83.1102 612.836 83.0945ZM548.612 98.5789C544.784 98.9279 542.133 94.4174 547.45 94.0997C555.153 93.6362 571.956 79.4487 586.82 80.7039C590.794 81.0372 592.575 84.3862 585.752 84.6674C569.924 85.3185 560.778 97.4799 548.612 98.5789ZM727.627 180.412C729.258 183.907 733.976 181.641 731.325 177.272C728.674 172.902 725.893 176.688 727.627 180.412ZM791.117 190.407C789.45 193.881 794.195 196.084 795.888 191.261C797.581 186.438 792.893 186.704 791.117 190.407ZM733.331 192.1C729.716 187.485 733.987 184.027 737.778 188.537C748.653 201.47 767.518 209.376 783.023 199.391C787.549 196.48 788.122 200.97 784.424 203.808C773.45 212.246 749.846 213.157 733.331 192.1ZM774.758 122.782C771.242 121.23 772.601 116.173 777.622 117.954C782.643 119.735 788.091 121.704 798.601 121.704C802.591 121.704 802.263 125.688 797.898 126.157C793.534 126.626 783.773 126.761 774.758 122.782ZM834.612 97.5529C831.169 100.761 835.586 105.371 839.659 100.641C843.732 95.9122 838.278 94.131 834.612 97.5529ZM747.679 114.011C749.914 110.433 745.018 107.47 742.591 112.506C740.169 117.548 745.304 117.829 747.679 114.011ZM703.284 58.2143C707.409 57.3029 706.101 51.7352 700.799 53.532C695.497 55.3289 698.888 59.1831 703.284 58.2143ZM750.633 97.8862C750.497 103.746 745.612 102.61 745.695 98.0008C746.002 81.1154 739.674 67.6622 718.716 60.1414C713.653 58.3237 716.054 54.7247 720.57 55.8914C735.601 59.7664 751.263 70.631 750.633 97.8862ZM659.049 145.173C661.351 150.506 668.554 147.298 664.747 140.605C660.94 133.912 656.596 139.49 659.049 145.173ZM634.518 112.016C636.143 114.876 640.002 112.621 637.445 109.089C634.883 105.553 632.784 108.964 634.518 112.016ZM625.414 153.949C621.096 156.042 620.393 152.386 623.57 150.355C629.445 146.605 637.518 137.48 635.841 121.829C635.372 117.459 638.883 117.943 639.633 121.678C642.127 134.105 636.518 148.563 625.414 153.949ZM564.289 145.704C564.429 148.99 568.893 148.751 568.232 144.438C567.581 140.126 564.148 142.199 564.289 145.704ZM565.278 130.423C564.841 133.85 568.784 134.339 569.315 130.61C570.299 123.72 574.627 115.933 581.331 112.095C585.148 109.912 580.94 107.928 577.7 109.938C573.992 112.235 566.883 117.897 565.278 130.423Z" fill="#D593A6"/>
<path fill-rule="evenodd" clip-rule="evenodd" d="M1012.81 41.1764C1012.88 44.541 1004.91 45.2285 1005.71 36.5983C1006.52 27.9733 1024.43 22.442 1034.86 34.7649C1045.29 47.0878 1044.18 64.6087 1026.81 72.4108C1009.45 80.2128 993.006 72.3274 987.032 60.7337C981.053 49.1451 962.861 46.4316 950.048 45.6556C937.236 44.8743 926.095 46.692 920.407 48.1399C914.72 49.5826 911.98 43.0045 918.392 40.7597C924.808 38.5097 938.142 36.3847 943.892 36.0878C949.637 35.791 951.027 29.1972 940.308 28.1139C929.595 27.0358 902.194 28.2545 867.824 47.1035C833.454 65.9524 811.022 66.7233 788.137 58.6868C765.251 50.6503 736.48 47.7181 718.637 55.5462C700.793 63.3743 707.215 72.4472 724.491 68.4837C741.767 64.5253 757.866 71.3743 787.704 91.3326C817.543 111.296 852.668 103.343 860.907 99.2753C869.147 95.2024 870.444 103.583 864.949 106.838C859.449 110.098 856.032 116.51 854.897 131.728C853.762 146.952 859.215 159.624 862.262 164.65C865.303 169.676 859.814 173.124 853.866 165.755C847.918 158.38 844.111 136.697 846.006 124.989C847.897 113.281 839.564 115.536 836.585 124.807C833.605 134.072 833.069 155.406 846.397 175.447C859.72 195.484 885.574 201.447 901.616 199.666C917.657 197.88 923.402 193.843 924.71 195.02C926.022 196.202 935.85 219.202 966.069 224.176C974.428 225.551 974.413 231.421 965.121 231.9C944.366 232.968 930.324 220.067 923.808 210.994C917.574 202.322 910.09 207.577 917.668 218.603C925.246 229.635 943.178 249.63 981.454 243.249C1019.73 236.864 1035.32 215.14 1043.62 197.249C1051.92 179.359 1048.14 152.588 1044.03 145.51C1039.92 138.426 1035 141.286 1037.3 151.036C1044.54 181.661 1023.2 205.406 1016.47 208.916C1009.74 212.432 1006.51 205.781 1013.01 199.593C1019.51 193.406 1031.71 175.385 1027.61 154.796C1023.1 132.223 1004.54 119.135 992.157 115.458C985.282 113.411 989.933 105.781 1001.25 109.228C1012.57 112.676 1021.78 121.848 1027.08 129.781C1030.78 135.307 1038.44 132.025 1032.6 121.291C1026.77 110.557 999.751 85.5306 962.72 97.6816C924.496 110.228 920.085 142.484 935.902 162.395C951.715 182.307 978.756 174.01 983.35 166.286C987.949 158.567 989.704 146.098 979.225 144.046C968.751 141.994 967.361 150.411 969.22 154.827C971.079 159.239 957.407 162.249 958.788 146.249C960.173 130.249 988.798 126.661 996.683 145.447C1004.56 164.234 994.418 183.567 970.663 188.432C946.907 193.301 907.418 176.145 916.387 126.551C925.355 76.9576 997.116 75.567 1025.05 95.817C1052.98 116.067 1057.22 146.171 1060.11 150.057C1063 153.937 1079.22 150.031 1090.89 141.755C1102.56 133.478 1106.04 124.468 1107.29 120.853C1108.55 117.239 1114.95 118.447 1112.24 129.239C1109.53 140.025 1097.76 152.051 1088.55 155.885C1079.33 159.718 1085.76 166.968 1095.95 161.645C1106.14 156.322 1132.81 135.281 1124.17 101.755C1115.53 68.2285 1082.58 68.0045 1069 74.6556C1055.42 81.3014 1053.49 99.7285 1062.2 106.864C1070.93 113.994 1079.49 110.577 1081.03 103.109C1082.56 95.6451 1078.32 91.6399 1080.51 89.416C1082.7 87.192 1090.11 87.3847 1092.37 97.6347C1094.62 107.88 1088.04 120.02 1070.76 119.952C1053.46 119.88 1043.21 105.343 1045.38 89.5931C1047.54 73.8378 1060.04 66.6712 1062.29 65.692C1064.55 64.7128 1062.05 49.7753 1057.43 42.2389C1052.82 34.7024 1060.42 36.7128 1063.92 41.3274C1067.42 45.9472 1069.72 53.2181 1070.25 57.9889C1070.79 62.7597 1079.34 62.8951 1076.19 52.0201C1073.03 41.1503 1059.48 11.0462 1030.61 9.84305C1001.74 8.63993 986.647 28.9941 995.147 48.5149C1003.64 68.0358 1021.37 63.4785 1026.5 58.8014C1031.02 54.692 1032.4 46.5983 1027.1 40.5358C1021.79 34.4785 1012.71 35.7128 1012.81 41.1764ZM814.642 90.2337C808.866 87.9889 808.34 81.7337 819.178 83.192C851.183 87.4941 864.642 77.3535 871.746 72.8066C879.095 68.1139 882.23 76.7806 874.064 82.2858C865.897 87.791 839.522 99.9264 814.642 90.2337ZM1070.45 142.755C1064.8 143.291 1065.22 137.317 1069.8 136.791C1074.39 136.27 1081.86 133.103 1084.35 131.103C1086.84 129.103 1089.42 132.567 1086.32 135.796C1083.22 139.031 1075.79 142.249 1070.45 142.755ZM800.506 76.7233C805.517 79.2858 803.746 88.0358 796.991 83.4681C790.23 78.8951 793.147 72.9733 800.506 76.7233ZM890.631 69.2962C885.824 72.2128 879.298 66.1139 886.736 62.7649C894.178 59.4212 897.694 65.0097 890.631 69.2962ZM972.288 115.468C979.835 113.525 977.887 105.817 968.256 107.999C958.668 110.171 951.069 115.505 947.605 120.963C944.689 125.551 949.616 128.343 953.465 124.786C957.314 121.228 962.579 117.963 972.288 115.468ZM1108.56 104.624C1109.81 110.244 1118.95 110.734 1116.15 102.869C1113.35 95.0045 1106.72 96.3743 1108.56 104.624ZM994.663 214.801C1000.24 211.046 1008.37 217.968 999.673 222.374C990.98 226.786 986.47 220.307 994.663 214.801ZM1049.5 30.5201C1052.26 33.5566 1058.08 30.6399 1053.57 26.7649C1049.06 22.8899 1045.45 26.067 1049.5 30.5201ZM953.689 72.3587C948.298 73.9733 943.522 66.4212 951.569 65.0618C959.616 63.6972 961.605 69.9941 953.689 72.3587ZM900.814 133.687C901.34 139.89 893.215 141.598 892.413 130.853C889.954 98.067 920.548 74.9056 930.746 73.416C939.131 72.1972 937.751 78.6035 932.449 80.4316C921.975 84.041 898.46 105.947 900.814 133.687ZM879.48 118.468C877.595 123.77 868.678 123.15 872.335 115.864C875.991 108.572 882.251 110.692 879.48 118.468ZM893.965 179.713C898.829 184.093 891.928 190.473 881.975 179.947C872.022 169.426 867.381 145.952 868.027 138.541C868.756 130.249 875.085 131.937 875.371 139.411C875.663 146.88 880.361 167.452 893.965 179.713ZM1069.38 162.286C1075.43 160.411 1080.89 168.853 1071.85 170.484C1062.8 172.109 1060.49 165.046 1069.38 162.286ZM966.579 38.2753C958.121 37.8795 960.97 28.0514 971.835 30.3326C983.579 32.7962 978.652 38.8431 966.579 38.2753Z" fill="#D593A6"/>
<path fill-rule="evenodd" clip-rule="evenodd" d="M1449.81 32.1764C1449.88 35.541 1441.91 36.2285 1442.71 27.5983C1443.52 18.9733 1461.43 13.442 1471.86 25.7649C1482.29 38.0878 1481.18 55.6087 1463.81 63.4108C1446.45 71.2128 1430.01 63.3274 1424.03 51.7337C1418.05 40.1451 1399.86 37.4316 1387.05 36.6556C1374.24 35.8743 1363.09 37.692 1357.41 39.1399C1351.72 40.5826 1348.98 34.0045 1355.39 31.7597C1361.81 29.5097 1375.14 27.3847 1380.89 27.0878C1386.64 26.791 1388.03 20.1972 1377.31 19.1139C1366.59 18.0358 1339.19 19.2545 1304.82 38.1035C1270.45 56.9524 1248.02 57.7233 1225.14 49.6868C1202.25 41.6503 1173.48 38.7181 1155.64 46.5462C1137.79 54.3743 1144.21 63.4472 1161.49 59.4837C1178.77 55.5253 1194.87 62.3743 1224.7 82.3326C1254.54 102.296 1289.67 94.3431 1297.91 90.2753C1306.15 86.2024 1307.44 94.5826 1301.95 97.8378C1296.45 101.098 1293.03 107.51 1291.9 122.728C1290.76 137.952 1296.21 150.624 1299.26 155.65C1302.3 160.676 1296.81 164.124 1290.87 156.755C1284.92 149.38 1281.11 127.697 1283.01 115.989C1284.9 104.281 1276.56 106.536 1273.58 115.807C1270.61 125.072 1270.07 146.406 1283.4 166.447C1296.72 186.484 1322.57 192.447 1338.62 190.666C1354.66 188.88 1360.4 184.843 1361.71 186.02C1363.02 187.202 1372.85 210.202 1403.07 215.176C1411.43 216.551 1411.41 222.421 1402.12 222.9C1381.37 223.968 1367.32 211.067 1360.81 201.994C1354.57 193.322 1347.09 198.577 1354.67 209.603C1362.25 220.635 1380.18 240.63 1418.45 234.249C1456.73 227.864 1472.32 206.14 1480.62 188.249C1488.92 170.359 1485.14 143.588 1481.03 136.51C1476.92 129.426 1472 132.286 1474.3 142.036C1481.54 172.661 1460.2 196.406 1453.47 199.916C1446.74 203.432 1443.51 196.781 1450.01 190.593C1456.51 184.406 1468.71 166.385 1464.61 145.796C1460.1 123.223 1441.54 110.135 1429.16 106.458C1422.28 104.411 1426.93 96.7806 1438.25 100.228C1449.57 103.676 1458.78 112.848 1464.08 120.781C1467.78 126.307 1475.44 123.025 1469.6 112.291C1463.77 101.557 1436.75 76.5306 1399.72 88.6816C1361.5 101.228 1357.08 133.484 1372.9 153.395C1388.71 173.307 1415.76 165.01 1420.35 157.286C1424.95 149.567 1426.7 137.098 1416.23 135.046C1405.75 132.994 1404.36 141.411 1406.22 145.827C1408.08 150.239 1394.41 153.249 1395.79 137.249C1397.17 121.249 1425.8 117.661 1433.68 136.447C1441.56 155.234 1431.42 174.567 1407.66 179.432C1383.91 184.301 1344.42 167.145 1353.39 117.551C1362.36 67.9576 1434.12 66.567 1462.05 86.817C1489.98 107.067 1494.22 137.171 1497.11 141.057C1500 144.937 1516.22 141.031 1527.89 132.755C1539.56 124.478 1543.04 115.468 1544.29 111.853C1545.55 108.239 1551.95 109.447 1549.24 120.239C1546.53 131.025 1534.76 143.051 1525.55 146.885C1516.33 150.718 1522.76 157.968 1532.95 152.645C1543.14 147.322 1569.81 126.281 1561.17 92.7545C1552.53 59.2285 1519.58 59.0045 1506 65.6556C1492.42 72.3014 1490.49 90.7285 1499.2 97.8639C1507.93 104.994 1516.49 101.577 1518.03 94.1087C1519.56 86.6451 1515.32 82.6399 1517.51 80.416C1519.7 78.192 1527.11 78.3847 1529.37 88.6347C1531.62 98.8795 1525.04 111.02 1507.76 110.952C1490.46 110.88 1480.21 96.3431 1482.38 80.5931C1484.54 64.8378 1497.04 57.6712 1499.29 56.692C1501.55 55.7128 1499.05 40.7753 1494.43 33.2389C1489.82 25.7024 1497.42 27.7128 1500.92 32.3274C1504.42 36.9472 1506.72 44.2181 1507.25 48.9889C1507.79 53.7597 1516.34 53.8951 1513.19 43.0201C1510.03 32.1503 1496.48 2.04618 1467.61 0.843051C1438.74 -0.360074 1423.65 19.9941 1432.15 39.5149C1440.64 59.0358 1458.37 54.4785 1463.5 49.8014C1468.02 45.692 1469.4 37.5983 1464.1 31.5358C1458.79 25.4785 1449.71 26.7128 1449.81 32.1764ZM1251.64 81.2337C1245.87 78.9889 1245.34 72.7337 1256.18 74.192C1288.18 78.4941 1301.64 68.3535 1308.75 63.8066C1316.09 59.1139 1319.23 67.7806 1311.06 73.2858C1302.9 78.791 1276.52 90.9264 1251.64 81.2337ZM1507.45 133.755C1501.8 134.291 1502.22 128.317 1506.8 127.791C1511.39 127.27 1518.86 124.103 1521.35 122.103C1523.84 120.103 1526.42 123.567 1523.32 126.796C1520.22 130.031 1512.79 133.249 1507.45 133.755ZM1237.51 67.7233C1242.52 70.2858 1240.75 79.0358 1233.99 74.4681C1227.23 69.8951 1230.15 63.9733 1237.51 67.7233ZM1327.63 60.2962C1322.82 63.2128 1316.3 57.1139 1323.74 53.7649C1331.18 50.4212 1334.69 56.0097 1327.63 60.2962ZM1409.29 106.468C1416.83 104.525 1414.89 96.817 1405.26 98.9993C1395.67 101.171 1388.07 106.505 1384.61 111.963C1381.69 116.551 1386.62 119.343 1390.46 115.786C1394.31 112.228 1399.58 108.963 1409.29 106.468ZM1545.56 95.6243C1546.81 101.244 1555.95 101.734 1553.15 93.8691C1550.35 86.0045 1543.72 87.3743 1545.56 95.6243ZM1431.66 205.801C1437.24 202.046 1445.37 208.968 1436.67 213.374C1427.98 217.786 1423.47 211.307 1431.66 205.801ZM1486.5 21.5201C1489.26 24.5566 1495.08 21.6399 1490.57 17.7649C1486.06 13.8899 1482.45 17.067 1486.5 21.5201ZM1390.69 63.3587C1385.3 64.9733 1380.52 57.4212 1388.57 56.0618C1396.62 54.6972 1398.61 60.9941 1390.69 63.3587ZM1337.81 124.687C1338.34 130.89 1330.21 132.598 1329.41 121.853C1326.95 89.067 1357.55 65.9056 1367.75 64.416C1376.13 63.1972 1374.75 69.6035 1369.45 71.4316C1358.98 75.041 1335.46 96.9472 1337.81 124.687ZM1316.48 109.468C1314.59 114.77 1305.68 114.15 1309.33 106.864C1312.99 99.5722 1319.25 101.692 1316.48 109.468ZM1330.96 170.713C1335.83 175.093 1328.93 181.473 1318.98 170.947C1309.02 160.426 1304.38 136.952 1305.03 129.541C1305.76 121.249 1312.08 122.937 1312.37 130.411C1312.66 137.88 1317.36 158.452 1330.96 170.713ZM1506.38 153.286C1512.43 151.411 1517.89 159.853 1508.85 161.484C1499.8 163.109 1497.49 156.046 1506.38 153.286ZM1403.58 29.2753C1395.12 28.8795 1397.97 19.0514 1408.83 21.3326C1420.58 23.7962 1415.65 29.8431 1403.58 29.2753Z" fill="#D593A6"/>
<path fill-rule="evenodd" clip-rule="evenodd" d="M393.907 219.793C393.245 223.684 400.584 223.996 400.396 218.314C400.214 212.627 392.188 201.923 381.073 206.189C369.959 210.455 367.474 222.262 370.553 230.84C373.636 239.418 386.042 253.304 407.313 243.981C428.584 234.663 435.167 208.595 413.902 184.7C392.641 160.798 353.115 175.642 342.87 187.923C332.62 200.205 335.073 204.814 330.688 208.575C326.308 212.34 294.49 225.283 261.928 209.226C229.36 193.168 224.761 158.58 227.782 148.658C230.152 140.887 234.771 143.97 234.568 149.236C234.297 156.226 235.365 160.7 237.079 164.246C239.084 168.382 243.428 167.752 242.375 160.252C238.61 133.34 261.787 114.814 284.709 109.116C290.297 107.731 288.214 101.934 282.907 102.762C276.089 103.83 269.339 106.7 261.193 111.887C255.136 115.746 251.443 109.58 259.011 104.173C266.042 99.1422 281.959 87.3454 304.667 93.1526C325.292 98.4287 342.36 116.616 338.459 139.351C334.558 162.09 311.266 167.679 302.339 164.21C293.407 160.746 289.428 149.809 292.652 143.314C295.87 136.83 305.652 139.335 306.339 144.382C307.027 149.434 314.167 146.616 311.485 139.533C308.803 132.444 299.433 126.877 288.079 133.637C276.724 140.397 278.594 168.793 301.521 174.293C324.454 179.793 342.667 162.434 348.667 146.955C354.662 131.47 371.027 112.121 374.771 108.606C378.516 105.09 375.089 101.132 369.157 105.371C363.219 109.616 358.579 116.559 355.959 119.465C353.334 122.377 348.563 120.085 352.745 112.476C356.928 104.866 385.37 64.6787 426.594 57.1631C467.823 49.6474 502.146 64.8506 510.615 102.028C519.084 139.194 486.797 154.127 464.188 154.288C441.573 154.45 424.219 130.278 430.87 111.543C437.521 92.8141 458.928 91.2308 464.521 96.6474C470.115 102.064 471.625 110.642 468.521 113.913C465.417 117.184 476.146 121.559 480.011 109.444C483.875 97.3297 471.485 80.4495 450.365 84.4339C429.245 88.4131 414.183 107.397 418.047 127.002C421.917 146.606 440.568 167.283 468.214 164.741C495.86 162.194 507.25 147.127 518.068 141.96C528.886 136.793 550.49 137.08 559.881 142.371C569.266 147.668 569.063 139.533 562.688 135.892C556.318 132.246 540.214 126.772 527.271 129.179C514.334 131.59 518.506 122.012 529.115 120.283C539.719 118.554 559.506 118.616 583.23 138.679C606.959 158.741 629.167 153.205 639.438 146.496C649.714 139.793 656.761 147.267 644.678 159.189C632.599 171.116 609.141 180.408 576.948 171.09C544.75 161.778 514.063 167.168 490.646 190.611C467.23 214.059 454.808 265.788 409.922 274.22C365.032 282.653 337.719 246.887 341.063 220.981C344.402 195.075 362.381 181.022 383.11 182.554C403.839 184.085 416.344 201.627 415.948 214.08C415.558 226.538 405.219 235.981 395.011 237.637C384.803 239.293 377.855 229.283 379.855 220.153C381.86 211.022 395 213.351 393.907 219.793ZM316.844 204.679C324.464 201.783 323.693 195.064 315.131 197.7C297.605 203.095 279.162 199.048 268.568 192.746C262.62 189.2 259.547 193.772 264.141 197.809C273.506 206.033 295.683 212.731 316.844 204.679ZM448.099 122.778C447.256 118.002 442.652 119.33 442.454 124.043C441.667 142.762 463.933 149.538 478.683 142.314C485.412 139.022 482.183 135.022 476.563 137.246C465.506 141.611 450.849 138.382 448.099 122.778ZM449.698 111.866C446.292 115.069 442.219 110.017 446.042 107.283C449.495 104.814 453.891 107.918 449.698 111.866ZM469.573 75.0537C463.344 73.0224 465.589 67.4079 471.485 69.512C477.386 71.6214 477.672 77.6839 469.573 75.0537ZM419.75 95.236C415.631 99.6318 411.818 95.5693 415.875 91.4808C419.933 87.3974 425.115 89.5224 419.75 95.236ZM413.209 142.481C416.839 147.897 411.87 150.486 406.027 143.059C399.959 135.33 396.672 116.382 405.282 105.752C409.589 100.423 413.23 104.96 410.381 109.423C406.146 116.064 405.964 131.668 413.209 142.481ZM579.162 151.033C585.256 154.387 587.99 148.575 582.079 145.533C576.162 142.502 571.24 146.673 579.162 151.033ZM486.823 181.46C491.568 177.038 487.193 172.934 482.782 177.288C478.37 181.642 480.657 187.215 486.823 181.46ZM430.323 193.142C433.771 199.59 439.521 196.028 436.053 189.96C432.579 183.892 425.834 184.762 430.323 193.142ZM435.61 248.575C431.308 251.392 426.709 248.017 433.172 242.877C445.37 233.179 451.391 221.371 453.813 216.861C456.636 211.595 460.282 214.09 457.818 219.83C455.349 225.575 448.808 239.934 435.61 248.575ZM411.652 257.351C404.542 259.106 406.594 265.543 413.334 263.673C420.079 261.809 420.891 255.064 411.652 257.351ZM546.063 157.226C554.844 157.179 554.407 150.788 543.261 149.819C533.198 148.95 509.37 157.955 500.183 165.423C491 172.892 497.032 174.382 503.448 170.022C517.089 160.752 533.865 157.288 546.063 157.226ZM352.745 213.554C354.849 209.033 358.724 212.814 357.766 216.887C352.23 240.392 376.386 259.252 389.698 259.705C396.834 259.95 394.042 265.476 386.959 264.851C366.865 263.069 341.573 237.522 352.745 213.554ZM390.011 95.0433C387.224 97.9495 381.834 94.5693 387.084 89.2881C410.261 66.0224 442.438 63.637 452.172 65.4651C457.959 66.5589 456.355 71.4026 448.844 71.361C441.339 71.3193 410.25 73.8818 390.011 95.0433ZM350.459 165.45C346.027 167.986 349.084 172.418 353.24 169.861C357.391 167.298 356.219 162.153 350.459 165.45ZM369.068 163.575C362.974 165.913 362.141 158.267 371.193 155.507C381.709 152.293 405.797 151.689 423.563 172.741C429.058 179.257 422.459 181.22 418.438 176.387C406.803 162.403 383.761 157.934 369.068 163.575ZM324.089 141.95C321.688 146.45 326.636 148.575 328.792 144.205C330.943 139.835 327.209 136.095 324.089 141.95ZM307.443 112.34C302.506 111.72 302.834 105.012 310.693 106.798C325.183 110.095 329.391 123.116 329.25 128.106C329.131 132.262 325.037 131.908 324.344 127.746C323.235 121.069 318.318 113.7 307.443 112.34ZM270.912 131.944C267.448 135.689 271.698 138.996 274.891 135.314C278.079 131.632 275.417 127.069 270.912 131.944ZM288.209 177.653C294.318 179.944 290.011 185.845 281.25 182.283C272.136 178.575 259.12 162.752 263.084 149.668C265.558 141.517 269.912 144.085 269.339 150.34C268.599 158.502 273.469 172.132 288.209 177.653ZM247.818 182.981C251.875 188.002 256.813 183.309 252.782 178.637C248.756 173.97 242.542 176.45 247.818 182.981ZM239.141 136.621C237.954 140.496 231.881 138.83 233.323 133.554C234.766 128.278 241 119.481 246.589 116.642C251.042 114.387 253.256 118.069 249.459 121.45C245.313 125.137 240.667 131.637 239.141 136.621Z" fill="#D593A6"/>
</svg>
