<svg width="274" height="215" viewBox="0 0 274 215" fill="none" xmlns="http://www.w3.org/2000/svg">
<path d="M72.4261 154.088C75.4875 146.433 76.8448 140.723 76.5014 136.955C76.4651 136.545 76.1777 136.195 75.7814 136.08C75.3851 135.964 74.9591 136.103 74.7048 136.43C66.7821 146.631 61.8317 151.912 59.8535 152.275L60.4248 152.338C59.903 152.117 59.4407 152.262 59.041 152.764V152.767C58.8297 153.031 58.5787 153.51 58.2881 154.204C57.7498 155.488 56.9935 157.662 56.0226 160.723L56.1018 160.535C55.4843 161.644 54.8105 165.313 54.0873 171.539L54.0939 171.482C54.0179 171.935 53.6415 172.919 52.971 174.438C52.9182 174.557 52.8885 174.683 52.8852 174.808C52.8191 176.549 53.5853 177.526 55.1804 177.747C55.3191 177.767 55.4644 177.757 55.5998 177.714L77.2445 171.367C77.5285 171.284 77.7596 171.083 77.8818 170.815C83.8263 157.589 91.2834 149.94 100.25 147.863L100.131 147.883C106.607 147.196 111.752 149.676 115.57 155.327C115.867 155.769 116.462 155.901 116.917 155.627L123.562 151.658L123.513 151.684C123.602 151.638 123.668 151.611 123.711 151.608C123.655 151.615 123.598 151.595 123.542 151.549L123.219 151.119L129.728 167.757C129.764 167.85 129.814 167.939 129.88 168.018C130.775 169.138 132.04 169.835 133.671 170.112C133.787 170.128 133.899 170.128 134.014 170.109C138.103 169.399 140.464 169.22 141.098 169.574C140.993 169.517 140.927 169.405 140.897 169.24C140.894 169.204 140.89 169.171 140.89 169.138C140.887 169.319 140.933 169.494 141.019 169.65L146.818 179.914L146.845 179.96C149.272 183.751 151.118 185.776 152.386 186.03C152.429 186.037 152.469 186.043 152.512 186.05L152.191 185.951C153.787 186.757 155.084 186.172 156.085 184.191C156.762 182.85 157.3 180.739 157.697 177.866L157.7 177.856C158.1 174.749 157.191 170.713 154.972 165.753C154.744 165.244 154.15 165.016 153.641 165.244C153.133 165.472 152.908 166.066 153.133 166.575C155.2 171.192 156.055 174.864 155.702 177.599L155.705 177.589C155.335 180.241 154.863 182.14 154.289 183.279C153.892 184.062 153.496 184.352 153.1 184.151C152.997 184.101 152.888 184.065 152.779 184.052C152.779 184.052 152.779 184.052 152.783 184.052H152.779C152.073 183.91 150.659 182.186 148.542 178.873L148.569 178.923L142.773 168.659L142.902 169.167C142.905 169.075 142.898 168.982 142.882 168.893C142.799 168.431 142.535 168.071 142.086 167.817C141.036 167.229 138.228 167.328 133.668 168.124H134.008C132.878 167.932 132.026 167.477 131.448 166.757L131.6 167.021L125.091 150.383C125.025 150.211 124.913 150.062 124.767 149.95C124.404 149.669 123.985 149.554 123.509 149.603C123.212 149.633 122.902 149.729 122.581 149.897L122.532 149.927L115.887 153.897L117.238 154.197C112.971 147.879 107.195 145.105 99.9161 145.878L99.7973 145.898C90.1804 148.127 82.2643 156.156 76.0456 169.986L76.6797 169.432L55.0318 175.782L55.4545 175.749C55.0615 175.696 54.8766 175.409 54.8964 174.884L54.8105 175.254C55.5503 173.583 55.973 172.44 56.0787 171.826L56.0886 171.773C56.7821 165.812 57.3733 162.394 57.8621 161.519C57.8951 161.459 57.9215 161.397 57.9413 161.334C58.8957 158.329 59.6289 156.212 60.1441 154.983C60.3621 154.461 60.5206 154.141 60.613 154.022C60.3819 154.313 60.0615 154.369 59.6454 154.197C59.827 154.273 60.0252 154.293 60.2167 154.257C62.7002 153.801 68.0569 148.272 76.2933 137.665L74.4968 137.14C74.8105 140.584 73.4994 145.984 70.5569 153.339C70.3521 153.854 70.6031 154.442 71.1183 154.65C71.6335 154.854 72.2213 154.603 72.4261 154.088Z" fill="#C66E79"/>
<path d="M140.088 149.035C146.67 156.601 151.049 162.381 153.229 166.377L153.245 166.403L174.325 202.113L174.394 202.216C177.819 206.671 181.204 209.593 184.546 210.987L184.487 210.961C192.888 215.105 201.25 215.957 209.569 213.513L209.292 213.553C212.423 213.537 219.001 208.913 229.024 199.683L228.853 199.808C231.353 198.335 233.717 197.503 235.943 197.305H235.94C237.149 197.206 238.116 197.433 238.846 197.988C238.981 198.094 239.143 198.16 239.312 198.186C239.196 198.17 239.107 198.137 239.041 198.091C239.447 198.378 240.534 199.818 242.297 202.407L242.373 202.506C242.855 203.058 243.463 203.457 244.196 203.705C244.335 203.754 244.483 203.771 244.629 203.754C252.637 202.899 258.053 203.477 260.874 205.482C261.273 205.766 261.815 205.723 262.162 205.379C262.512 205.039 262.565 204.494 262.29 204.091C255.084 193.517 247.224 187.618 238.714 186.403L238.681 186.4C235.359 186.04 231.716 186.723 227.75 188.457L227.674 188.497L206.848 199.805L207 199.735C203.922 200.795 200.375 200.402 196.356 198.56H196.359C191.802 196.469 187.449 192.988 183.301 188.12L183.314 188.134C181.164 185.511 179.47 183.229 178.238 181.288L178.248 181.304L178.242 181.291L178.245 181.297C169.289 166.314 164.375 158.378 163.503 157.486C163.073 157.05 162.624 156.971 162.155 157.255H162.152C161.832 157.447 161.666 157.734 161.653 158.117L163.473 157.556C159.147 151.608 155.59 147.579 152.803 145.469L152.912 145.561C145.91 138.474 136.828 136.717 125.666 140.29L126.924 141.575C134.11 120.469 143.381 109.111 154.735 107.5C155.286 107.42 155.669 106.912 155.59 106.36C155.514 105.809 155.002 105.426 154.454 105.502C142.284 107.229 132.472 119.035 125.019 140.924C124.896 141.284 124.986 141.684 125.253 141.955C125.521 142.226 125.917 142.325 126.277 142.209C136.657 138.887 145.058 140.479 151.482 146.981C151.515 147.014 151.551 147.047 151.591 147.074C154.216 149.065 157.634 152.955 161.845 158.745C162.099 159.091 162.545 159.24 162.954 159.115C163.364 158.986 163.651 158.613 163.664 158.183C163.655 158.533 163.496 158.801 163.189 158.986C162.75 159.247 162.377 159.217 162.063 158.897C162.826 159.676 167.644 167.486 176.518 182.331L176.528 182.351L176.538 182.367C177.816 184.379 179.556 186.727 181.759 189.412L181.769 189.428C186.108 194.521 190.692 198.177 195.52 200.393C200.022 202.46 204.067 202.876 207.654 201.644C207.707 201.624 207.76 201.601 207.809 201.575L228.631 190.267L228.555 190.307C232.195 188.715 235.497 188.081 238.463 188.404L238.43 188.401C246.356 189.531 253.754 195.142 260.626 205.227L262.039 203.837C258.803 201.539 252.928 200.842 244.414 201.75L244.847 201.796C244.45 201.664 244.13 201.456 243.886 201.175L243.962 201.271C242.059 198.48 240.808 196.872 240.203 196.446C240.005 196.304 239.804 196.221 239.602 196.192L240.068 196.387C238.929 195.515 237.495 195.151 235.771 195.297H235.768C233.238 195.521 230.593 196.446 227.832 198.071C227.773 198.107 227.713 198.15 227.66 198.2C218.02 207.08 211.894 211.525 209.282 211.538C209.186 211.538 209.094 211.552 209.001 211.578C201.184 213.873 193.308 213.064 185.378 209.151L185.319 209.124C182.307 207.869 179.196 205.155 175.989 200.984L176.055 201.086L154.979 165.379L154.995 165.409C152.746 161.288 148.281 155.389 141.607 147.714C141.24 147.292 140.606 147.249 140.187 147.615C139.768 147.982 139.721 148.616 140.088 149.035Z" fill="#C66E79"/>
<mask id="mask0_1050_1473" style="mask-type:luminance" maskUnits="userSpaceOnUse" x="82" y="0" width="192" height="140">
<path d="M273.923 0H82.6913V139.498H273.923V0Z" fill="white"/>
</mask>
<g mask="url(#mask0_1050_1473)">
<path d="M134.706 68.7121C150.241 77.401 156.486 98.9399 153.434 133.336C153.391 133.824 153.708 134.273 154.184 134.399C154.659 134.521 155.155 134.283 155.356 133.834C165.105 112.021 179.798 97.3382 199.428 89.792L199.339 89.8217C216.743 84.9538 230.554 88.6196 240.772 100.822C241.102 101.219 241.677 101.298 242.106 101.011C242.532 100.723 242.674 100.155 242.43 99.7028C234.147 84.1051 232.737 70.6441 238.203 59.3165L238.18 59.3627C244.9 47.051 256.446 41.1032 272.816 41.5127C273.315 41.5259 273.748 41.1725 273.834 40.6805C273.919 40.1917 273.635 39.7095 273.163 39.551C263.777 36.4037 256.053 30.6276 249.986 22.2294L250.032 22.3053C247.701 18.3853 246.518 14.9771 246.482 12.0808L246.479 12.1865C246.581 11.1132 247.037 10.1026 247.843 9.15807L247.83 9.17458C248.995 7.87009 250.155 7.40114 251.31 7.76771C251.548 7.84367 251.806 7.82716 252.034 7.72148C252.688 7.42095 252.866 6.94539 252.565 6.2948C252.486 6.12307 252.364 5.96785 252.192 5.82254C251.997 5.66072 251.677 5.46257 251.231 5.23139C251.172 5.20167 251.112 5.17855 251.05 5.15874C234.253 0.287543 217.503 -0.557898 200.795 2.62241L200.822 2.61911C179.95 6.0339 159.276 22.7677 138.797 52.8139L139.712 52.3779C140.003 52.4011 140.178 52.5265 140.241 52.7511C140.217 52.6752 140.217 52.5265 140.234 52.3086C140.412 50.152 142.361 44.6633 146.083 35.8489C146.188 35.5979 146.188 35.3139 146.079 35.0629C145.974 34.8119 145.769 34.6138 145.515 34.5147C145.251 34.4156 144.963 34.3958 144.653 34.4585C143.391 34.7062 140.686 37.0444 136.538 41.4665L136.515 41.4929C132.229 46.3707 128.352 51.9288 124.884 58.1606L124.844 58.2432C110.68 90.4195 96.7334 116.975 82.9983 137.909C82.6945 138.375 82.8233 138.999 83.2889 139.303C83.7546 139.61 84.3787 139.481 84.6826 139.016C98.4771 117.989 112.48 91.3343 126.687 59.0556L126.644 59.1415C130.039 53.0351 133.834 47.5959 138.028 42.8238L138.005 42.8469C141.859 38.7386 144.204 36.6019 145.042 36.4334C144.976 36.4467 144.894 36.4367 144.795 36.3971L144.227 35.0629C140.422 44.0787 138.421 49.7723 138.229 52.1435C138.193 52.5992 138.216 52.979 138.299 53.2828C138.484 53.9664 138.9 54.3363 139.547 54.3859C139.91 54.4156 140.257 54.2505 140.462 53.9499C160.614 24.3793 180.842 7.92954 201.145 4.60722L201.172 4.60391C217.562 1.48305 234.002 2.31198 250.488 7.09731L250.306 7.02465C250.62 7.18647 250.818 7.30206 250.898 7.36811C250.838 7.31527 250.782 7.23931 250.736 7.13363C250.475 6.5656 250.627 6.14949 251.192 5.89189L251.918 5.84566C249.933 5.21818 248.071 5.87868 246.33 7.83376L246.317 7.84697C245.231 9.11183 244.62 10.4956 244.474 11.9949L244.471 12.1039C244.507 15.3602 245.785 19.1052 248.305 23.339L248.355 23.4117C254.676 32.16 262.73 38.1772 272.522 41.4632L272.866 39.4982C255.68 39.0655 243.526 45.3634 236.413 58.3951L236.39 58.4413C230.63 70.3799 232.05 84.4486 240.653 100.647L242.314 99.5278C231.538 86.6612 217.034 82.7808 198.797 87.8832L198.708 87.9129C178.556 95.6572 163.494 110.69 153.517 133.012L155.439 133.511C158.566 98.2497 151.981 76.0635 135.686 66.9519C135.201 66.6811 134.587 66.8561 134.316 67.3416C134.045 67.827 134.22 68.4413 134.706 68.7121Z" fill="#C66E79"/>
</g>
<path d="M72.2972 154.253C75.4973 148.659 77.5581 145.373 78.4762 144.395L78.5323 144.329C80.4577 141.892 82.2807 140.297 83.998 139.54H84.0046C85.1307 139.038 86.455 138.824 87.9742 138.893L87.9048 138.886C96.1974 139.831 101.647 140.184 104.259 139.943L104.203 139.947C107.449 139.824 110.97 139.332 114.761 138.474L114.804 138.464C123.77 136.026 129.526 132.556 132.069 128.058C132.343 127.572 132.175 126.958 131.689 126.684C131.207 126.41 130.593 126.578 130.319 127.063C128.05 131.076 122.703 134.227 114.275 136.519L114.318 136.505C110.646 137.341 107.248 137.816 104.127 137.932L104.074 137.935C101.6 138.163 96.2866 137.813 88.1327 136.885L88.0667 136.879C86.2305 136.793 84.6056 137.067 83.1856 137.698L83.1922 137.694C81.1644 138.586 79.0872 140.379 76.9537 143.077L77.0099 143.015C75.9828 144.108 73.8296 147.523 70.5502 153.252C70.2761 153.735 70.4412 154.349 70.9234 154.626C71.4088 154.904 72.0231 154.735 72.2972 154.253Z" fill="#C66E79"/>
<mask id="mask1_1050_1473" style="mask-type:luminance" maskUnits="userSpaceOnUse" x="-1" y="28" width="87" height="112">
<path d="M85.2273 28.7441H-0.000434875V139.497H85.2273V28.7441Z" fill="white"/>
</mask>
<g mask="url(#mask1_1050_1473)">
<path d="M84.91 138.041C85.0322 136.829 84.4741 135.29 83.2456 133.424L83.1762 133.335C81.9477 131.862 78.9193 127.562 74.0943 120.435L74.0976 120.439C73.8235 120.033 72.6049 118.414 70.4451 115.591L70.4352 115.577C62.7238 105.828 56.8652 99.3721 52.8625 96.2017L52.8923 96.2281C44.2298 88.8107 33.7807 84.7849 21.5449 84.1475L22.2615 84.5042C22.5852 84.8873 22.5951 85.2242 22.288 85.5148C22.2913 85.5148 22.2946 85.5115 22.2979 85.5082L22.2946 85.5115C22.4366 85.3926 22.7437 85.2275 23.216 85.0194L23.1565 85.0425L29.5204 82.7209C29.9729 82.5557 30.2437 82.0934 30.171 81.6178C30.0951 81.1423 29.6955 80.7856 29.2166 80.7658C20.8679 80.4289 14.0515 75.7988 8.76749 66.8754L8.7774 66.8953C5.11823 60.3761 3.03436 53.4244 2.52576 46.04V46.0466C2.20212 40.8781 3.11691 35.7659 5.26685 30.7097L3.34478 30.1648C2.81638 33.6886 3.67503 38.0677 5.92735 43.2956C6.14531 43.8075 6.73976 44.0452 7.24834 43.824C7.76024 43.6027 7.99471 43.0116 7.77674 42.4997C5.67635 37.6219 4.86394 33.6093 5.3362 30.4653C5.41216 29.9634 5.10172 29.4812 4.61625 29.3458C4.12748 29.2071 3.61228 29.4515 3.41413 29.9204C1.13871 35.2705 0.174377 40.6866 0.517845 46.1721V46.1787C1.04624 53.8669 3.21599 61.0994 7.02377 67.8827L7.03368 67.9025C12.6909 77.4567 20.0555 82.4137 29.134 82.7803L28.8302 80.8252L22.4663 83.1502L22.4068 83.1733C21.7529 83.4606 21.284 83.7281 20.9967 83.9725H20.9934C20.9603 84.0022 20.9273 84.0287 20.8976 84.0584C20.2899 84.6396 20.2305 85.2242 20.7259 85.8054C20.9042 86.0201 21.1651 86.1456 21.4425 86.1621C33.2192 86.7763 43.2688 90.6403 51.5845 97.7605L51.6142 97.7836C55.4946 100.855 61.241 107.202 68.8566 116.829L68.8467 116.816C70.9834 119.607 72.1756 121.192 72.4266 121.565C77.2912 128.748 80.3592 133.104 81.634 134.626L81.5646 134.537C82.5322 136.003 82.9814 137.106 82.9087 137.843C82.8526 138.398 83.2588 138.89 83.8103 138.946C84.3651 138.999 84.8572 138.596 84.91 138.041Z" fill="#C66E79"/>
</g>
<path d="M7.94472 42.5294C10.3522 29.3921 18.4929 19.2204 32.3634 12.0176L31.0523 10.581C28.952 13.8604 30.415 18.0149 35.448 23.0447L35.4711 23.0645C40.9334 28.1999 47.2742 31.9515 54.4902 34.3161L54.5397 34.3293C59.0345 35.5611 63.9915 35.9046 69.4109 35.363L69.4142 35.3597C71.7821 35.1153 73.6084 34.861 74.8931 34.5968H74.8898L96.0952 30.2309C96.6401 30.1186 96.9901 29.5869 96.8778 29.042C96.7656 28.4938 96.2339 28.1437 95.6889 28.256L74.4869 32.6219H74.4836C73.2682 32.8729 71.5113 33.1173 69.2062 33.3551H69.2095C64.0378 33.8769 59.3251 33.5532 55.0714 32.3874L55.1177 32.4006C48.1824 30.1285 42.0926 26.5288 36.8482 21.5949L36.8714 21.618C32.6045 17.3544 31.2274 14.0387 32.7465 11.6675C32.9909 11.2844 32.9513 10.7825 32.6408 10.4456C32.3337 10.1087 31.8383 10.0196 31.4354 10.2276C16.9804 17.7342 8.48963 28.3815 5.96322 42.1628C5.86414 42.7111 6.22412 43.2362 6.77233 43.3385C7.31725 43.4376 7.84234 43.0743 7.94472 42.5294Z" fill="#C66E79"/>
<path d="M89.3082 128.448C87.2441 127.856 85.0843 126.232 82.8254 123.58L82.8452 123.603C82.3696 123.008 81.7752 122.133 81.0651 120.977L81.0684 120.981L70.5731 103.712L70.5401 103.659C68.5751 100.839 66.3095 98.2694 63.7501 95.9543L63.7732 95.9708C61.3657 93.669 58.4397 91.4101 54.9919 89.2007L54.972 89.1875L26.0058 71.5158L26.0652 71.5521C22.4127 68.9629 19.7905 66.0336 18.1921 62.7674L18.2185 62.8236C11.8546 47.5462 16.1973 31.1856 31.2469 13.7385C31.6101 13.3158 31.5639 12.6784 31.1412 12.3151C30.7218 11.9518 30.0844 11.9981 29.7211 12.4208C14.13 30.4987 9.6749 47.5561 16.3592 63.5997L16.3856 63.6558C18.1326 67.2291 20.9695 70.4094 24.8994 73.1968L24.9589 73.2364L53.9252 90.9081L53.9053 90.8949C57.2442 93.0382 60.0678 95.2145 62.3796 97.4305L62.4027 97.447C64.8465 99.6597 67.0097 102.117 68.8888 104.815L68.8525 104.762L79.3478 122.028L79.3511 122.031C80.1041 123.259 80.7448 124.204 81.2765 124.864L81.293 124.888C83.8128 127.85 86.2996 129.683 88.7534 130.386C89.2884 130.538 89.8465 130.228 89.9984 129.693C90.1503 129.158 89.8432 128.6 89.3082 128.448Z" fill="#C66E79"/>
<path d="M97.089 114.537C97.1617 114.514 97.2244 114.524 97.2806 114.563C97.1121 114.441 96.9272 114.045 96.7257 113.374C96.5144 112.668 96.3294 111.736 96.1742 110.574V110.584C95.8076 107.552 95.9794 104.283 96.696 100.782L96.6762 100.858C98.3208 95.0885 100.636 91.7233 103.625 90.7589C103.985 90.6433 104.246 90.3395 104.308 89.9663C104.371 89.5965 104.222 89.2233 103.925 88.9954C99.0573 85.3131 97.0692 80.4915 97.9576 74.5304V74.537C98.7238 69.6691 101.613 64.5767 106.627 59.2663C106.798 59.0846 106.894 58.8468 106.901 58.5992C106.911 58.1599 106.722 57.7867 106.333 57.473C106.138 57.3145 105.877 57.1692 105.553 57.0371L105.5 57.0173L98.8889 54.7253L98.9747 54.7583C97.8024 54.2299 96.5804 53.4869 95.309 52.5324L95.2891 52.5192C92.6835 50.65 90.5996 48.0906 89.0375 44.8343L89.0474 44.8607C86.2997 38.6751 87.7297 34.1903 93.344 31.403C93.8393 31.1553 94.0441 30.551 93.7964 30.0523C93.5487 29.5536 92.9444 29.3522 92.449 29.5966C85.6822 32.9585 83.9351 38.3185 87.2079 45.6798L87.2211 45.7062C88.9351 49.2729 91.2337 52.0899 94.1168 54.1573L94.1002 54.1441C95.4873 55.1877 96.838 56.0034 98.1458 56.5978L98.2317 56.6309L104.84 58.9228L104.787 58.8997C104.932 58.9591 105.028 59.0087 105.071 59.045C104.942 58.9426 104.883 58.7775 104.89 58.5496L105.164 57.8825C99.8631 63.4968 96.7984 68.9426 95.9662 74.2233V74.2332C94.9589 80.9835 97.2079 86.4393 102.71 90.6037L103.007 88.8402C99.3347 90.0258 96.5804 93.8468 94.7409 100.303L94.7244 100.379C93.9648 104.094 93.7832 107.575 94.1762 110.828L94.1795 110.841C94.3479 112.106 94.5527 113.147 94.7971 113.952C95.1306 115.069 95.5699 115.822 96.1181 116.208C96.5969 116.548 97.1121 116.634 97.6703 116.466C98.202 116.307 98.5025 115.746 98.344 115.211C98.1854 114.679 97.624 114.375 97.089 114.537Z" fill="#C66E79"/>
<path d="M48.0434 85.7524C50.0117 83.4803 52.2045 82.4599 54.622 82.6877L54.6847 82.691C55.7085 82.7241 57.5084 83.0543 60.0942 83.6818L60.0678 83.6785C69.3743 86.1884 75.4476 87.658 78.2877 88.0873C82.2937 88.7049 88.8392 89.1639 97.9277 89.4645L97.8551 89.4579C99.6318 89.6461 100.976 89.8905 101.887 90.1877C102.416 90.3594 102.984 90.0688 103.156 89.5404C103.327 89.0087 103.037 88.4407 102.508 88.269C101.465 87.9288 99.9852 87.658 98.0664 87.4532L97.9938 87.4499C88.9878 87.1494 82.5215 86.7003 78.5915 86.0959H78.5882C75.824 85.6765 69.8267 84.2234 60.5929 81.73L60.5698 81.7234C57.8518 81.0629 55.9099 80.7128 54.7508 80.6765L54.8135 80.6798C51.7059 80.3859 48.9417 81.6375 46.5242 84.4314C46.1576 84.8509 46.2039 85.4882 46.6233 85.8515C47.046 86.2181 47.6801 86.1719 48.0434 85.7524Z" fill="#C66E79"/>
<path d="M47.7797 84.0322C47.565 82.8664 49.5663 79.3294 53.7803 73.4245L53.7638 73.4477C57.2975 68.7944 60.4613 65.8123 63.2585 64.4979L63.2684 64.4946C64.4969 63.9001 66.1284 63.5434 68.1528 63.4279H68.0603C79.1468 63.8209 86.8549 63.7251 91.1812 63.1438L91.1481 63.1504C94.4639 62.807 98.8331 61.3902 104.256 58.9001C104.761 58.6656 104.982 58.0679 104.751 57.5626C104.517 57.0573 103.919 56.8361 103.414 57.0672C98.1957 59.4682 94.0378 60.8255 90.9434 61.1425L90.9137 61.1458C86.6997 61.7139 79.1039 61.7997 68.1297 61.4133L68.0372 61.4166C65.7453 61.5487 63.8629 61.9682 62.3932 62.6782L62.4031 62.6749C59.3087 64.128 55.8939 67.3116 52.1621 72.229L52.1423 72.2522C47.5947 78.6227 45.4811 82.6715 45.7982 84.3955C45.9005 84.9437 46.4256 85.3069 46.9705 85.2046C47.5188 85.1022 47.8787 84.5771 47.7797 84.0322Z" fill="#C66E79"/>
<path d="M37.3073 79.2433C37.8357 77.5855 38.2452 72.5921 38.5392 64.2632L38.5326 64.3358C38.7274 62.569 39.0345 61.0102 39.4507 59.6595L39.444 59.676C40.8972 55.2639 43.2816 51.6773 46.5973 48.9197L46.6039 48.9131C49.8502 46.1589 52.8159 44.2863 55.4942 43.2923L55.4909 43.2956C57.8258 42.4402 59.6091 41.8326 60.841 41.4693L60.8013 41.4825L60.8046 41.4792H60.8146C68.8595 39.3722 76.4024 37.1893 83.4367 34.9303C86.2537 34.0288 88.6183 33.1239 90.5371 32.219C91.0391 31.9812 91.2537 31.3801 91.016 30.8749C90.7815 30.3729 90.1804 30.1582 89.6784 30.396C87.8389 31.2613 85.5536 32.1331 82.8224 33.0116C75.8211 35.2573 68.3145 37.4303 60.306 39.5274L60.3159 39.5241L60.3126 39.5274L60.2729 39.5373C58.9982 39.9105 57.1752 40.5314 54.8007 41.3999L54.7974 41.4032C51.8945 42.4799 48.7307 44.468 45.3027 47.3742L45.3093 47.3676C41.6997 50.3728 39.1039 54.2665 37.5319 59.0452L37.5253 59.065C37.0729 60.5347 36.7393 62.2189 36.5312 64.1179L36.5279 64.1905C36.2406 72.3345 35.8608 77.1496 35.3886 78.6324C35.2201 79.1608 35.5108 79.7288 36.0425 79.8972C36.5709 80.069 37.1389 79.775 37.3073 79.2433Z" fill="#C66E79"/>
<path d="M136.663 67.7703C136.541 67.3839 136.729 66.8951 137.225 66.3007L137.212 66.3172C142.902 59.7981 145.97 56.1224 146.416 55.2835L146.359 55.376L156.511 40.4553L156.482 40.4949C158.896 37.3047 162.621 33.6125 167.661 29.415L167.657 29.4183C171.452 26.2875 176.729 22.8529 183.493 19.1178L183.47 19.131C188.258 16.6376 191.141 15.2043 192.116 14.8245L192.096 14.8312H192.102L192.119 14.8245C199.077 12.1165 205.118 9.64292 210.23 7.39721H210.227C211.683 6.76643 214.408 5.18454 218.4 2.64491C218.869 2.34768 219.008 1.72351 218.711 1.25455C218.414 0.7856 217.793 0.646894 217.32 0.944119C213.42 3.4243 210.788 4.95997 209.427 5.54781L209.424 5.55111C204.335 7.78361 198.324 10.2506 191.389 12.9454L191.409 12.9388H191.406L191.386 12.9454C190.342 13.3516 187.396 14.8179 182.542 17.3411L182.519 17.3543C175.646 21.1488 170.266 24.6528 166.376 27.8628L166.373 27.8661C161.214 32.1627 157.383 35.9672 154.877 39.2796L154.847 39.3192L144.695 54.2399L144.639 54.3357C144.266 55.0358 141.284 58.5893 135.696 64.9896L135.682 65.0061C134.712 66.1653 134.401 67.2914 134.745 68.378C134.913 68.9097 135.478 69.2036 136.009 69.0352C136.538 68.8667 136.832 68.2987 136.663 67.7703Z" fill="#C66E79"/>
<path d="M147.538 53.4276C151.547 52.4005 156.105 50.7691 161.207 48.5267L161.194 48.5366C166.376 46.3668 177.171 41.2711 193.578 33.2526L193.568 33.2559C195.243 32.46 198.413 31.1126 203.08 29.207L203.066 29.2136C208.558 27.0637 214.031 25.7493 219.477 25.2638L219.513 25.2572C225.56 24.4944 232.901 25.2969 241.541 27.6648L241.521 27.6615C248.892 29.8609 256.825 34.0716 265.315 40.2935C265.371 40.3365 265.431 40.3695 265.49 40.3992C267.155 41.1621 268.757 41.5485 270.302 41.565C270.857 41.5716 271.313 41.1225 271.319 40.5676C271.326 40.0095 270.877 39.5538 270.322 39.5505C269.064 39.5373 267.733 39.2103 266.329 38.5663L266.504 38.6687C257.825 32.3081 249.688 27.995 242.095 25.7295L242.076 25.7229C233.175 23.2823 225.573 22.46 219.262 23.2592L219.298 23.2559C213.661 23.7579 208.007 25.1185 202.333 27.3345L202.32 27.3411C197.621 29.2599 194.414 30.6238 192.706 31.4362L192.697 31.4395C176.326 39.4448 165.566 44.5207 160.418 46.674L160.401 46.6806C155.395 48.8767 150.943 50.4752 147.039 51.4758C146.501 51.6145 146.174 52.1627 146.313 52.701C146.452 53.2394 147 53.5663 147.538 53.4276Z" fill="#C66E79"/>
<path d="M136.366 67.8496C151.201 60.9804 170.19 60.5708 193.341 66.621H193.331C215.451 72.5887 230.2 82.3839 237.574 96.0034C237.842 96.4922 238.453 96.6738 238.942 96.4096C239.43 96.1421 239.609 95.5312 239.345 95.0424C231.693 80.9143 216.531 70.7921 193.856 64.6726H193.849C170.233 58.4969 150.791 58.9493 135.524 66.02C135.019 66.2545 134.797 66.8522 135.032 67.3575C135.266 67.8628 135.864 68.084 136.366 67.8496Z" fill="#C66E79"/>
<path d="M139.351 168.467C138.486 170.693 137.921 172.823 137.657 174.861L137.65 174.973C137.541 180.654 137.211 185.436 136.66 189.316L136.67 189.253C136.363 190.756 136.036 191.578 135.695 191.717C135.702 191.714 135.709 191.714 135.712 191.714C135.709 191.714 135.705 191.714 135.699 191.71C135.672 191.707 135.643 191.694 135.606 191.677L135.573 191.664C134.44 191.185 133.658 190.195 133.222 188.689C133.199 188.616 133.169 188.543 133.133 188.477C133.133 188.481 133.136 188.481 133.136 188.484V188.481C132.859 187.913 132.941 185.852 133.39 182.302C133.4 182.242 133.4 182.179 133.397 182.12C133.334 180.984 133.083 180.079 132.641 179.412L132.65 179.428C132.277 178.837 131.739 178.289 131.039 177.777C130.973 177.731 130.9 177.691 130.824 177.662C128.853 176.862 127.304 175.928 126.174 174.861L126.197 174.881H126.194L126.141 174.831C124.84 173.708 123.787 172.384 122.971 170.862L122.991 170.901C122.558 169.996 122.172 168.817 121.838 167.358L121.848 167.42L120.712 160.482C120.662 160.165 120.461 159.894 120.177 159.745C119.89 159.6 119.553 159.6 119.269 159.745C113.427 162.685 107.36 163.352 101.072 161.74L101.019 161.73C97.241 160.977 93.5786 157.946 90.0284 152.635C89.7212 152.173 89.0938 152.051 88.6347 152.358C88.1724 152.668 88.0469 153.296 88.3573 153.758C92.2146 159.528 96.3064 162.843 100.626 163.705L100.573 163.695C107.35 165.429 113.882 164.712 120.17 161.545L118.727 160.809L119.863 167.747L119.873 167.81C120.243 169.415 120.679 170.736 121.178 171.776L121.197 171.813C122.129 173.557 123.337 175.069 124.827 176.357L124.771 176.308L124.794 176.327C126.105 177.569 127.865 178.636 130.068 179.527L129.995 179.494V179.498L129.857 179.412C130.349 179.769 130.715 180.135 130.95 180.505L130.96 180.525C131.204 180.891 131.346 181.459 131.389 182.232L131.396 182.047C130.897 185.997 130.874 188.434 131.326 189.366C131.343 189.399 131.359 189.432 131.376 189.465L131.287 189.253C131.904 191.37 133.07 192.794 134.791 193.52L134.754 193.504C134.933 193.59 135.114 193.649 135.292 193.685C135.421 193.712 135.547 193.725 135.672 193.728C135.943 193.735 136.204 193.685 136.455 193.583C137.459 193.177 138.189 191.869 138.641 189.66L138.654 189.6C139.216 185.637 139.553 180.776 139.662 175.01L139.655 175.122C139.896 173.246 140.421 171.271 141.227 169.197C141.429 168.679 141.171 168.094 140.652 167.893C140.134 167.691 139.553 167.949 139.351 168.467Z" fill="#C66E79"/>
<path d="M53.9647 82.5358C54.186 82.5358 54.4106 82.5457 54.6351 82.5655V82.5688H54.6913L54.6946 82.5721C55.725 82.6051 57.5347 82.9354 60.1206 83.5661H60.1272C69.4072 86.0694 75.464 87.5391 78.3009 87.9684H78.3075C82.3068 88.5827 88.8458 89.0417 97.9178 89.3422C97.9277 89.3422 97.9409 89.3455 97.9508 89.3488H97.9673C99.1265 89.4743 100.101 89.6229 100.887 89.798C100.946 89.8112 100.989 89.8673 100.982 89.9301C100.976 89.9895 100.923 90.0358 100.86 90.0358L100.883 90.0391C98.3108 91.8323 96.3028 95.2636 94.8563 100.336V100.34L94.8398 100.409C94.0869 104.108 93.9052 107.575 94.2982 110.815V110.825C94.4666 112.087 94.6714 113.117 94.9125 113.919C95.2394 115.006 95.6621 115.739 96.1872 116.109C96.1939 116.112 96.1972 116.116 96.2005 116.119C96.2203 116.132 96.2335 116.142 96.2434 116.149C96.2863 116.178 96.3028 116.235 96.2896 116.284C96.2764 116.32 96.25 116.347 96.217 116.36H96.2302C93.8623 120.548 91.4977 124.57 89.1397 128.427C89.1199 128.464 89.0803 128.487 89.0373 128.487C89.0274 128.487 89.0142 128.484 89.0043 128.48C89.001 128.48 88.9977 128.48 88.9977 128.477L89.001 128.48C87.003 127.823 84.9191 126.221 82.7527 123.682L82.7361 123.659H82.7328C82.2573 123.061 81.6661 122.189 80.9627 121.046V121.043L70.4706 103.777L70.4409 103.728H70.4376C68.4825 100.921 66.2335 98.3647 63.6906 96.0628L63.6642 96.0265H63.6543C61.26 93.7412 58.3505 91.4988 54.9291 89.3026L54.9092 89.2894L48.4562 85.3528L48.4429 85.3561C48.4198 85.3396 48.4 85.3198 48.3901 85.2934C48.3736 85.2504 48.3835 85.1976 48.4165 85.1646C50.1041 83.4109 51.9535 82.5358 53.9647 82.5358Z" fill="#C66E79"/>
<path d="M104.196 58.8141C104.243 58.8141 104.286 58.8405 104.305 58.8834C104.325 58.9297 104.319 58.9792 104.286 59.0155C99.596 64.2401 96.8615 69.316 96.0888 74.2434L96.0854 74.2533C95.3094 79.4646 96.4851 83.8966 99.6125 87.5558C99.6455 87.5921 99.6522 87.6416 99.6323 87.6846C99.6125 87.7275 99.5696 87.7539 99.5234 87.7539L99.5399 87.7572C99.5333 87.7572 99.53 87.7572 99.5234 87.7572C99.5134 87.7572 99.5068 87.7539 99.4969 87.7539H99.5002C99.0511 87.6912 98.5722 87.6284 98.057 87.5756L97.9844 87.569V87.5723C88.9752 87.2718 82.5056 86.8193 78.5756 86.215H78.5723C75.8015 85.7955 69.8008 84.3391 60.5637 81.8491L60.5406 81.8424C57.8755 81.1952 55.9633 80.8484 54.8041 80.8022L54.7876 80.7989H54.7843C54.497 80.7724 54.2163 80.7592 53.9356 80.7592C51.7857 80.7592 49.8075 81.5452 48.0043 83.1106C47.9812 83.1304 47.9547 83.1403 47.925 83.1403C47.9085 83.1403 47.892 83.137 47.8755 83.1304C47.8326 83.1106 47.8028 83.0677 47.8028 83.0214V83.0181L47.8094 82.9818C48.361 81.2777 50.3061 78.0875 53.6483 73.4046H53.6648L53.6615 73.4607L53.6681 73.3748C57.2117 68.7051 60.392 65.7097 63.2057 64.3887L63.2156 64.3854C64.4475 63.7877 66.0756 63.431 68.0934 63.3121L68.1099 63.3088H68.1231C72.5617 63.464 76.4587 63.5433 79.8107 63.5433C84.7513 63.5433 88.5128 63.3748 91.0888 63.0347L91.1053 63.038C91.1152 63.0314 91.1251 63.0281 91.1383 63.0281C94.4243 62.6912 98.7539 61.2877 104.13 58.824L104.18 58.8141H104.196Z" fill="#C66E79"/>
<path d="M87.4126 33.4242C87.4588 33.4242 87.5018 33.4506 87.5216 33.4936C87.5414 33.5332 87.5381 33.5827 87.5117 33.6191C85.2032 36.7201 85.1405 40.7261 87.3201 45.6303L87.33 45.6567C89.0374 49.2036 91.3228 52.0041 94.1893 54.0583L94.1431 54.0451L94.1893 54.0616C95.5665 55.092 96.9007 55.9011 98.1953 56.4856V56.4889L98.2712 56.5186L101.749 57.7241C101.808 57.7439 101.841 57.8033 101.828 57.8628C101.818 57.9189 101.769 57.9585 101.712 57.9585H101.719C97.297 59.8806 93.7105 60.9803 90.9562 61.2643L90.9265 61.2676C88.4199 61.6045 84.7244 61.7696 79.84 61.7696C76.4945 61.7696 72.5943 61.6937 68.1326 61.5351H68.0401V61.5384C65.7647 61.6672 63.9021 62.0834 62.4457 62.7868L62.4424 62.7901C59.3677 64.2366 55.9728 67.407 52.2575 72.3013L52.2409 72.3244C48.3077 77.8363 46.2007 81.5946 45.9199 83.6091C45.91 83.6685 45.8605 83.7115 45.8011 83.7115C45.7978 83.7115 45.7944 83.7115 45.7911 83.7115C45.7713 83.7115 45.7515 83.7049 45.735 83.6949H45.7383L37.4391 78.6322L37.4259 78.6355C37.4127 78.6256 37.3995 78.6157 37.3896 78.6025C37.3698 78.5728 37.3599 78.5397 37.3665 78.5034C37.809 76.3634 38.1558 71.6408 38.4134 64.3324V64.3357C38.4134 64.3291 38.4134 64.3258 38.4134 64.3225C38.6049 62.5754 38.9054 61.0332 39.3116 59.6923H39.3248L39.3281 59.6395C40.7879 55.2042 43.1855 51.5979 46.5177 48.8271L46.5243 48.8205C49.7707 46.0662 52.7396 44.1904 55.4279 43.1897H55.4312C55.4345 43.1864 55.4444 43.1831 55.451 43.1798C57.7363 42.3443 59.4965 41.7432 60.7284 41.3767L60.7449 41.38C60.7548 41.3701 60.768 41.3634 60.7845 41.3601C68.8261 39.2531 76.3657 37.0735 83.4001 34.8179L83.4067 34.8146C84.84 34.3555 86.1544 33.8932 87.3532 33.4341L87.3961 33.4242H87.4126Z" fill="#C66E79"/>
<path d="M30.2434 14.8179C30.2995 14.8179 30.3524 14.8576 30.3623 14.9137C30.8081 17.2783 32.532 19.9599 35.534 22.9586L35.5538 22.9784C41.003 28.1006 47.3273 31.8423 54.53 34.2003L54.5729 34.2135C57.6806 35.0656 61.0095 35.4916 64.5564 35.4916C66.1284 35.4916 67.7433 35.4057 69.3979 35.2406H69.4045C71.7526 34.9962 73.5656 34.7452 74.8437 34.4843H74.8602L74.8668 34.4777L83.1627 32.7703L83.1891 32.767H83.2057C83.2651 32.767 83.3146 32.81 83.3245 32.8694C83.3345 32.9289 83.2981 32.985 83.242 33.0048C83.2222 33.0114 83.199 33.018 83.1792 33.0246C83.0174 33.0775 82.9117 33.1105 82.8589 33.127L82.8226 33.1336L82.8391 33.1369C75.8411 35.3793 68.3411 37.5491 60.3358 39.6462H60.3292L60.3061 39.6528L60.3028 39.6561C59.0346 40.0259 57.2116 40.6468 54.8438 41.5154H54.8405L54.8371 41.5187C51.9508 42.5887 48.7969 44.5702 45.3821 47.4665L45.3788 47.4698C41.789 50.4586 39.213 54.3291 37.6476 59.0847L37.641 59.1012C37.1886 60.5642 36.8616 62.2419 36.6536 64.1309L36.647 64.2003C36.4158 70.7723 36.1252 75.1778 35.7718 77.4202C35.7619 77.4797 35.7123 77.5226 35.6529 77.5226C35.6496 77.5226 35.6463 77.5226 35.643 77.5193C35.6232 77.5193 35.6034 77.5127 35.5868 77.5028H35.5902L26.0063 71.6573L26.0195 71.6639L25.9964 71.6507C22.3603 69.0715 19.7381 66.1587 18.1265 62.9123H18.1463L18.1496 62.9156L18.1067 62.8694C11.8683 47.8991 15.8775 31.8952 30.1344 14.8609L30.2269 14.8179H30.2434Z" fill="#C66E79"/>
<path d="M27.9316 14.4947L27.9778 14.5905C13.8563 31.8593 10.0023 48.1901 16.4158 63.5765L16.4389 63.6293C18.1826 67.1928 21.0162 70.3665 24.9362 73.1505L24.9924 73.1868L53.9586 90.8585C57.2909 92.9985 60.1112 95.1749 62.423 97.3876L62.4428 97.4041C64.8734 99.6035 67.0267 102.044 68.8959 104.722H68.8794L68.9058 104.729L79.3978 121.998L79.4011 122.001C80.1541 123.226 80.7948 124.171 81.3232 124.828L81.3397 124.851C83.5854 127.49 85.8047 129.227 87.9943 130.069L87.9744 130.175L87.981 130.168L87.9976 130.172C86.8351 132.047 85.6726 133.887 84.5101 135.693L84.4011 135.66H84.3978C84.1204 134.987 83.7208 134.253 83.1957 133.461L83.1297 133.372C81.8945 131.895 78.8694 127.596 74.0478 120.472L74.0379 120.439H74.0247C73.7109 119.983 72.5022 118.382 70.3985 115.627L70.3886 115.614C62.6971 105.895 56.8549 99.4483 52.8556 96.2746L52.849 96.2713C44.999 89.5507 35.6826 85.6207 24.8966 84.4748L24.8801 84.4715L24.8636 84.3559L29.5003 82.665C29.923 82.5098 30.1806 82.0738 30.1113 81.628C30.0419 81.1789 29.6654 80.8453 29.213 80.8255C20.8477 80.4886 14.0215 75.8552 8.72755 66.9286L8.72094 66.912V66.9087L8.71764 66.912C5.05846 60.3896 2.97459 53.4378 2.466 46.0534V46.0468V46.0501C2.25134 42.6056 2.58488 39.1875 3.46335 35.7958L3.51949 35.7496H3.53601L3.59875 35.7991C4.01487 38.0581 4.80746 40.5514 5.97986 43.2727C6.13508 43.6327 6.48515 43.8473 6.85172 43.8473C6.97722 43.8473 7.10271 43.8209 7.22491 43.7681C7.59809 43.6096 7.81606 43.2331 7.79624 42.85L7.81275 42.8533H7.81606L7.78633 42.8005C7.83257 42.7113 7.86559 42.6188 7.88541 42.5164C10.0254 30.8355 16.6932 21.4993 27.8821 14.5013L27.9151 14.4947H27.9316Z" fill="#C66E79"/>
<path d="M126.594 59.1181L126.597 59.128H126.59C126.59 59.1247 126.59 59.1214 126.594 59.1181ZM214.084 2.90289L214.113 3.01518C211.95 4.33288 210.395 5.19483 209.45 5.60434H209.447C204.361 7.83683 198.354 10.3005 191.429 12.9953H191.425L191.405 13.002C190.365 13.4082 187.419 14.8712 182.568 17.3943L182.548 17.4075C175.679 21.1988 170.302 24.6994 166.415 27.9095L166.412 27.9128C161.257 32.206 157.429 36.0072 154.923 39.3163L154.896 39.3559V39.3526L144.744 54.2733L144.691 54.3658C144.308 55.0792 141.326 58.6327 135.742 65.0296L135.728 65.0461C135.17 65.7099 134.833 66.3638 134.718 67.0012L134.655 67.0507H134.658C134.543 67.13 134.44 67.239 134.368 67.3711C134.114 67.8268 134.275 68.4048 134.731 68.659C145.583 74.729 151.911 87.0507 153.707 105.631L153.648 105.697H153.638C144.84 107.288 137.297 114.263 131.009 126.615L130.95 126.648H130.943C130.709 126.71 130.501 126.866 130.372 127.094C128.093 131.119 122.733 134.28 114.292 136.575L114.282 136.578C110.626 137.404 107.241 137.876 104.13 137.992V137.995H104.077C103.588 138.041 102.991 138.064 102.284 138.064C99.3976 138.064 94.6783 137.691 88.1295 136.945L88.0634 136.938H88.0601C87.8455 136.928 87.6341 136.925 87.4227 136.925C86.9505 136.925 86.4914 136.948 86.0456 137.001H86.0324L85.9795 136.909C99.3217 116.238 112.859 90.3136 126.587 59.1346H126.6L126.59 59.1115C129.979 53.0217 133.763 47.5924 137.944 42.8269H137.961V42.8335V42.807C140.131 40.4953 141.822 38.8044 143.037 37.741L143.073 37.7278H143.09L143.146 37.8104C140.078 45.2509 138.46 50.0329 138.288 52.1498C138.252 52.5957 138.275 52.9689 138.354 53.2661H138.351L138.357 53.2826C138.539 53.9299 138.938 54.2766 139.553 54.3262C139.579 54.3295 139.602 54.3295 139.629 54.3295C139.939 54.3295 140.233 54.1776 140.411 53.9167C160.573 24.3328 180.814 7.87646 201.135 4.54754V4.55084L201.161 4.54424C205.458 3.72522 209.761 3.1803 214.064 2.90289H214.084Z" fill="#C66E79"/>
<path d="M236.079 93.3418L236.072 93.355L236.069 93.3484L236.072 93.3418H236.079ZM236.072 93.355L236.085 93.3682L236.055 93.3781L236.072 93.355ZM236.055 93.3781L236.026 93.4276L236.049 93.3814L236.055 93.3781ZM163.552 62.3114C172.575 62.3114 182.509 63.7282 193.354 66.5651H193.361C214.034 72.1463 228.271 81.0697 236.075 93.3352H236.069L236.059 93.3385L236.069 93.3484L236.049 93.3814L235.996 93.3979L236.026 93.4276L235.989 93.4144C229.526 88.3153 222.007 85.7691 213.43 85.7691C208.859 85.7691 203.985 86.4924 198.813 87.9389L198.724 87.9686C180.104 95.1284 165.828 108.517 155.9 128.137L155.848 128.17L155.788 128.107C157.74 96.8259 151.422 76.6872 136.832 67.6945V67.6978L136.809 67.5822C144.596 64.0684 153.509 62.3114 163.552 62.3114Z" fill="#C66E79"/>
<path d="M146.313 55.3465H146.31C146.313 55.3465 146.313 55.3465 146.313 55.3465ZM224.169 24.9205C229.222 24.9205 235.022 25.8155 241.557 27.6087L241.56 27.612V27.6087C248.753 29.7587 256.475 33.8208 264.731 39.795L264.698 39.904H264.685C251.788 41.4132 242.379 47.5856 236.465 58.4244L236.442 58.4673C232.069 67.5294 231.841 77.82 235.758 89.3391L235.702 89.4184L235.652 89.3953C227.274 78.213 213.337 69.9931 193.839 64.7322L193.833 64.7289C182.832 61.8524 172.74 60.4158 163.552 60.4158C154.338 60.4158 146.036 61.8623 138.645 64.7553L138.562 64.6992L138.578 64.6595C143.159 59.3854 145.735 56.2877 146.3 55.363H146.316L146.31 55.3432L147.664 53.3551L147.69 53.4079L147.68 53.3286C147.683 53.3286 147.683 53.3286 147.687 53.3286H147.7H147.69C151.646 52.3016 156.135 50.6899 161.151 48.4905H161.168L161.171 48.4806C166.349 46.3141 177.132 41.225 193.522 33.2131L193.535 33.2164L193.542 33.2032C195.213 32.4106 198.374 31.0632 203.024 29.1642L203.04 29.1675L203.043 29.1576C208.542 27.0077 214.018 25.69 219.47 25.2045L219.506 25.1979C220.983 25.013 222.538 24.9205 224.169 24.9205Z" fill="#C66E79"/>
<path d="M255.699 31.5984H255.695L255.699 31.6017V31.5984ZM255.646 31.6281L255.636 31.6578L255.643 31.6644L255.653 31.6281H255.646ZM255.669 31.6908L255.672 31.6941H255.669V31.6908ZM220.61 2.69485C229.725 2.69485 238.853 3.91018 247.994 6.34082L247.981 6.45641H247.991C247.439 6.80647 246.901 7.27873 246.373 7.87318L246.359 7.88639C245.286 9.14134 244.675 10.5152 244.533 12.0013L244.53 12.1037V12.107C244.569 15.3534 245.844 19.0852 248.354 23.3058L248.4 23.3784H248.404V23.3817C250.623 26.4531 253.06 29.1875 255.709 31.5885L255.705 31.5918H255.715L255.705 31.5951L255.702 31.605L255.732 31.6347L255.682 31.6545L255.646 31.6677L255.669 31.6908L255.639 31.6842H255.636L255.639 31.671L255.629 31.6743L255.626 31.6776C250.933 29.0455 246.419 27.0805 242.079 25.786L242.059 25.7794C235.359 23.9432 229.391 23.0251 224.16 23.0251C222.452 23.0251 220.821 23.1208 219.269 23.319H219.249C213.638 23.8243 208.004 25.1816 202.353 27.391L202.34 27.3943L202.337 27.3976C197.641 29.3163 194.441 30.6803 192.73 31.4894L192.72 31.496C176.35 39.498 165.59 44.5772 160.441 46.7304L160.425 46.7371H160.422V46.7404C156.429 48.4907 152.786 49.8612 149.494 50.852L149.418 50.7958L149.428 50.7628L156.432 40.4623L156.439 40.492L156.432 40.459C158.846 37.2721 162.565 33.5865 167.595 29.3956L167.608 29.3989L167.618 29.3725C171.409 26.245 176.676 22.817 183.423 19.0885H183.44L183.437 19.0918L183.44 19.0786C188.179 16.6149 191.052 15.1816 192.06 14.782L192.076 14.7853L192.079 14.7754L192.096 14.7688C199.044 12.0674 205.075 9.59709 210.18 7.35469H210.197L210.203 7.34478C211.63 6.72721 214.282 5.18825 218.153 2.73448L218.166 2.79063V2.72458C218.982 2.70476 219.797 2.69485 220.61 2.69485Z" fill="#C66E79"/>
<path d="M128.265 132.298C128.291 132.298 128.318 132.311 128.334 132.334C128.347 132.358 128.351 132.387 128.341 132.414C127.215 135.066 126.131 137.909 125.098 140.951C124.985 141.281 125.068 141.647 125.312 141.898C125.487 142.077 125.728 142.176 125.973 142.176C126.065 142.176 126.161 142.159 126.254 142.13C129.771 141.003 133.063 140.442 136.128 140.442C142.135 140.442 147.271 142.602 151.537 146.922C151.571 146.955 151.604 146.981 151.64 147.011C154.272 149.005 157.697 152.899 161.911 158.695C162.003 158.817 162.119 158.913 162.251 158.979C162.281 158.996 162.3 159.029 162.294 159.065H162.31C163.489 160.597 168.248 168.338 176.587 182.288V182.291L176.59 182.295L176.597 182.308L176.61 182.324C177.885 184.332 179.622 186.677 181.821 189.359L181.831 189.372C186.164 194.461 190.738 198.107 195.553 200.316L195.557 200.32C198.364 201.608 200.992 202.252 203.443 202.252C204.903 202.252 206.296 202.024 207.627 201.565C207.677 201.548 207.723 201.528 207.769 201.502V201.505L228.469 190.264H228.483C228.492 190.247 228.506 190.237 228.522 190.231C231.557 188.903 234.361 188.239 236.934 188.239C237.455 188.239 237.967 188.269 238.469 188.322L238.473 188.325H238.476C245.583 189.352 252.264 193.962 258.519 202.163C258.522 202.163 258.522 202.166 258.522 202.169H258.509L258.496 202.172L258.509 202.186L258.512 202.176H258.529C258.542 202.202 258.539 202.235 258.522 202.258C258.506 202.281 258.479 202.295 258.453 202.295H258.469C258.466 202.295 258.459 202.295 258.456 202.295C258.446 202.295 258.436 202.295 258.43 202.291H258.433C256.422 201.73 253.945 201.446 251.006 201.446C249.09 201.446 246.973 201.568 244.665 201.806L244.572 201.727L244.622 201.799C244.361 201.687 244.133 201.538 243.942 201.353L243.955 201.357L243.892 201.32C241.996 198.536 240.751 196.935 240.157 196.515C240.091 196.469 240.025 196.429 239.962 196.396L239.919 196.38C238.975 195.693 237.832 195.35 236.491 195.35C236.26 195.35 236.022 195.359 235.778 195.379H235.774C233.258 195.6 230.623 196.522 227.875 198.143C227.819 198.176 227.766 198.216 227.716 198.259C218.06 207.153 211.917 211.608 209.282 211.621C209.196 211.621 209.11 211.634 209.027 211.657C206.128 212.509 203.222 212.935 200.309 212.935C195.342 212.935 190.352 211.7 185.345 209.227V209.23L185.286 209.2V209.204C182.29 207.952 179.199 205.27 176.016 201.159H176.032L175.986 201.129L154.926 165.452L154.923 165.449C152.677 161.33 148.215 155.439 141.544 147.767C141.362 147.556 141.105 147.45 140.847 147.45C140.633 147.45 140.415 147.526 140.24 147.678C139.857 148.011 139.814 148.596 140.15 148.982C146.574 156.367 150.903 162.054 153.136 166.04C153.152 166.066 153.149 166.096 153.136 166.122H153.129C153.123 166.261 153.149 166.406 153.209 166.542C155.279 171.172 156.138 174.861 155.785 177.612L155.712 177.675L155.765 177.628H155.781C155.411 180.274 154.939 182.173 154.361 183.318C154.031 183.969 153.694 184.296 153.344 184.296C153.248 184.296 153.156 184.273 153.06 184.223C152.971 184.177 152.872 184.147 152.769 184.134L152.71 184.075L152.763 184.131H152.753C152.02 183.969 150.609 182.255 148.519 178.992H148.526L148.499 178.962L142.822 168.913L142.839 168.923L142.796 168.887C142.716 168.457 142.466 168.127 142.043 167.889C141.61 167.645 140.857 167.523 139.784 167.523C138.36 167.523 136.386 167.741 133.859 168.177L133.767 168.097L133.829 168.173C132.852 167.982 132.086 167.585 131.531 166.981H131.547L131.478 166.928L125.015 150.412C124.952 150.257 124.85 150.118 124.718 150.016C124.421 149.788 124.087 149.673 123.711 149.673C123.648 149.673 123.582 149.676 123.516 149.682C123.228 149.712 122.931 149.808 122.617 149.97V149.973L122.571 149.996L116.732 153.49C116.719 153.497 116.703 153.5 116.689 153.5C116.676 153.5 116.66 153.497 116.647 153.49C116.637 153.484 116.627 153.477 116.62 153.467H116.623C112.908 148.378 108.116 145.835 102.241 145.835C101.488 145.835 100.715 145.875 99.926 145.961L99.8104 145.98C90.3223 148.18 82.4887 156.056 76.3097 169.603L76.2338 169.649H76.2404H76.2305L76.2272 169.653L55.3091 175.789L55.2034 175.71L55.2563 175.785C55.002 175.686 54.8567 175.468 54.8203 175.132L54.8138 175.135C54.8005 175.108 54.7972 175.082 54.8104 175.056V175.052C55.5007 173.48 55.897 172.404 55.996 171.816L56.006 171.76C56.6995 165.792 57.2939 162.364 57.7893 161.479C57.819 161.423 57.8421 161.367 57.862 161.307C58.8164 158.302 59.5495 156.185 60.068 154.953C60.068 154.95 60.068 154.947 60.068 154.947H60.0713C60.2067 154.62 60.3223 154.369 60.4115 154.2C60.4049 154.161 60.4313 154.121 60.4676 154.111C62.8322 153.391 67.459 148.692 74.3481 140.009L74.4141 139.98H74.4306L74.5132 140.072C74.1466 143.355 72.885 147.711 70.7219 153.144L70.6724 153.177L70.6889 153.18C70.6658 153.216 70.646 153.256 70.6228 153.292V153.295C70.3685 153.738 70.5238 154.303 70.9663 154.557C71.1116 154.64 71.2668 154.679 71.4253 154.679C71.5508 154.679 71.6796 154.649 71.7985 154.6H71.815C71.8216 154.583 71.8349 154.57 71.8547 154.564C72.0726 154.471 72.2543 154.293 72.35 154.055C72.3533 154.048 72.3566 154.042 72.36 154.032H72.3764C72.3633 154.005 72.3633 153.976 72.3764 153.949C75.4907 148.517 77.502 145.313 78.4134 144.339L78.4696 144.276C80.4015 141.829 82.2345 140.227 83.965 139.465V139.468L83.9682 139.465C84.9722 139.019 86.1215 138.797 87.4227 138.797C87.6043 138.797 87.7859 138.801 87.9709 138.811C87.9808 138.811 87.9874 138.814 87.9973 138.817H88.0138C94.5693 139.56 99.3381 139.933 102.32 139.933C103.037 139.933 103.648 139.914 104.156 139.871H104.173C104.18 139.867 104.189 139.864 104.199 139.864C107.442 139.742 110.956 139.253 114.741 138.391L114.784 138.381V138.385C120.619 136.796 125.091 134.775 128.195 132.315L128.248 132.298H128.265Z" fill="#C66E79"/>
<path d="M102.188 147.688C107.737 147.688 112.218 150.217 115.636 155.28C115.815 155.544 116.105 155.686 116.402 155.686C116.564 155.686 116.729 155.643 116.878 155.557L123.41 151.651L123.529 151.69L129.804 167.724C129.837 167.813 129.883 167.892 129.943 167.968C130.828 169.068 132.073 169.755 133.688 170.029C133.737 170.039 133.787 170.042 133.84 170.042C133.892 170.042 133.949 170.036 133.998 170.029C136.118 169.659 137.776 169.431 138.972 169.352H138.992L139.071 169.461C138.407 171.333 137.964 173.137 137.74 174.87V174.874L137.733 174.973V174.979C137.624 180.66 137.294 185.445 136.743 189.329C136.739 189.349 136.729 189.368 136.713 189.378L136.729 189.382C136.425 190.825 136.095 191.627 135.742 191.786L135.699 191.793H135.682C135.649 191.786 135.613 191.773 135.573 191.753L135.537 191.736L135.54 191.74C134.385 191.251 133.585 190.24 133.143 188.711V188.708H133.14C133.123 188.642 133.097 188.579 133.064 188.523L133.054 188.493V188.49L133.047 188.493C132.78 187.872 132.865 185.805 133.311 182.291C133.318 182.232 133.318 182.182 133.315 182.123C133.255 181.013 133.011 180.128 132.581 179.474L132.571 179.451V179.448L132.565 179.451C132.198 178.876 131.673 178.341 130.99 177.846C130.95 177.816 130.904 177.79 130.861 177.767L130.791 177.734V177.737C128.823 176.938 127.274 176.007 126.138 174.943V174.94L126.089 174.894C124.797 173.777 123.744 172.466 122.931 170.964H122.938L122.918 170.937C122.489 170.046 122.109 168.89 121.779 167.47H121.795L121.769 167.433L120.633 160.495L120.63 160.481C120.577 160.197 120.398 159.953 120.141 159.821C120.009 159.752 119.863 159.719 119.718 159.719C119.576 159.719 119.434 159.752 119.305 159.818C115.517 161.723 111.637 162.678 107.661 162.678C105.488 162.678 103.285 162.39 101.056 161.822L101.003 161.809C97.2974 161.069 93.7076 158.16 90.2301 153.077H90.2499C90.2169 153.074 90.1904 153.054 90.1772 153.021C90.1673 152.988 90.1772 152.952 90.2036 152.932C93.2651 150.363 96.561 148.655 100.095 147.816H100.108C100.121 147.806 100.138 147.8 100.154 147.797H100.167H100.157C100.848 147.724 101.528 147.688 102.188 147.688Z" fill="#C66E79"/>
</svg>
