<svg width="773" height="701" viewBox="0 0 773 701" fill="none" xmlns="http://www.w3.org/2000/svg">
<path d="M210.246 454C213.024 459.539 212.324 464.953 209.246 476.5C204.353 473.962 203.47 471.536 203.246 466.5C207.363 463.555 208.721 460.573 210.246 454Z" fill="#001223"/>
<path d="M221.746 692.501L222.233 692.58C226.18 692.914 225.962 684.795 224.746 668C224.751 656.273 222.867 649.126 218.246 636C218.343 626.315 217.543 623.79 214.246 624.5C213.27 610.211 212.827 602.049 209.246 591.5C208.746 589 205.897 588 205.246 591.5C204.627 598.592 204.269 602.505 203.246 606.5C201.307 610.707 201.082 614.194 200.746 620.5C196.768 620.695 194.989 620.193 193.246 617.5C195.627 609.804 196.424 604.718 197.746 595.5C199.015 591.707 199.334 588.707 199.746 583C199.34 580.234 198.98 580.43 198.246 582C189.266 598.962 188.888 598.431 178.317 583.6L178.246 583.5C173.746 575.5 167.567 569.808 176.746 566.5C179.462 567.326 180.438 566.994 181.246 565C181.971 550.297 183.381 541.524 188.746 524.5C176.307 523.436 182.555 515.935 193.645 502.621L193.746 502.5C203.33 492.845 200.159 488.549 189.746 481.5C189.762 478.106 187.938 476.482 185.246 473.5C181.998 471.076 181.036 468.773 181.246 462.5C180.757 458.94 182.155 458.721 185.746 459.5C188.746 458 187.351 448.609 185.246 442C187.884 442.126 189.456 438.67 192.246 433C196.928 426.924 197.841 424.087 193.746 421C194.841 416.757 195.004 414.346 193.746 410C199.446 410.358 201.948 410.089 206.246 409.5C208.907 409.32 210.639 408.975 212 408.434C212 408.434 198.5 392.5 196 389.5C193.5 386.5 198.616 384.116 200.5 386C202.384 387.884 218.246 405.132 218.246 405.132C218.423 404.822 218.577 404.442 218.746 404C219.142 398.819 219.772 396.262 221.246 392C222.966 391.749 223.426 390.224 224.246 387.5C222.255 387.631 220.918 386.914 218.246 384.5L219.246 376.5C219.255 372.987 221.028 374.214 224.246 376.5C228.746 378.5 229.037 377.316 228.746 375.5C228.193 371.393 225.027 369.297 220.246 365.5C217.071 359.821 216.422 357.054 216.246 352.5C220.413 360.291 222.399 362.261 225.746 364.5C227.339 367.345 227.256 365.614 227.246 363C224.998 364.318 226.087 354.502 226.246 345C226.944 353.374 228.226 357.257 231.746 362.5C233.746 368.5 237.372 366.415 238.746 362.5H245.246C245.425 365.1 246.609 365.595 249.246 366C252.82 367.658 252.716 365.699 252.746 362.5C257.094 358.778 257.415 353.322 258.246 344C260.917 353.182 259.742 357.032 257.746 364.5C259.757 367.312 264.058 360.72 268.746 353.5C269.046 361.774 266.431 366.305 254.746 374C253.009 376.336 254.03 377.243 257.746 378.5C259.759 375.901 261.105 374.863 263.746 373.5C266.766 374.843 266.821 378.219 266.746 384.5C263.503 386.876 263.317 388.741 264.246 392.5C266.32 398.57 267.549 401.508 269.746 406C269.609 410.016 271.631 410.732 275.246 412C276.342 414.845 280.55 415.703 286.746 417.5C287.299 420.309 287.12 421.541 285.746 423C283.957 423.388 283.777 424.246 283.746 426C281.716 427.504 281.289 428.418 281.746 430C286.978 437.806 287.868 442.608 287.746 451.5C279.449 467.891 277.244 474.103 290.246 464.5V470.5C288.047 473.896 287.428 477.098 286.588 482C286.588 482 315 513.5 316 515C317 516.5 313.5 520.5 312 519.5C310.5 518.5 285.246 492.501 285.246 492.501C283.746 508.501 294.012 514.749 304.246 525.501C311.246 532.001 306.935 538.851 298.246 541.5C295.012 541.173 295.087 542.079 295.746 544C297.081 551.532 296.955 554.418 294.746 556.5C292.06 568.712 295.265 571.904 301.746 577C311.246 577 307.556 585.367 301.746 590.5C295.381 597.282 292.593 599.651 290.246 599C287.763 599.299 286.94 599.823 286.746 601.5L290.246 631C292.246 638 289.522 639.84 282.746 638.5C280.354 642.759 277.445 642.237 270.746 638.5L272.246 623L276.746 623C284.139 625.928 281.043 614.245 277.746 597.501C276.746 592 275.181 593.065 274.746 598.501C276.746 602.001 276.102 604.235 273.246 603.501C270.986 628.869 268.945 640.42 264.246 657.501C261.671 664.91 262.371 672.233 262.746 684.001C265.246 685.501 266.098 686.744 268.246 688.501H265.746C264.082 689.169 262.446 688.555 263.246 691.501C267.049 694.631 266.774 696.672 264.746 700.501L243.246 696.501C245.577 695.049 245.815 693.254 246.231 690.116L246.246 690.001C248.462 688.533 248.386 686.239 248.256 682.315L248.246 682.001C250.286 676.416 250.162 670.258 250.246 660.001C248.053 655.911 248.708 652.839 250.746 647.001C253.502 643.656 251.668 630.272 249.746 611.001C249.764 604.436 246.582 603.62 237.746 605.001C233.841 605.158 232.955 606.868 232.246 611.001C234.746 619.203 235.443 623.935 235.746 632.501C237.616 641.26 238.026 646.258 237.246 655.001C234.401 657.869 235.526 667.358 236.746 682.001C237.851 691.407 238.573 694.894 240.246 695.501L222.233 692.58C222.077 692.567 221.915 692.541 221.746 692.501Z" fill="#001223"/>
<path d="M687 692.501L687.487 692.58C691.434 692.914 691.216 684.795 690 668C690.005 656.273 688.121 649.126 683.5 636C683.597 626.315 682.797 623.79 679.5 624.5C678.524 610.211 678.081 602.049 674.5 591.5C674 589 671.151 588 670.5 591.5C669.881 598.592 669.523 602.505 668.5 606.5C666.561 610.707 666.336 614.194 666 620.5C662.022 620.695 660.243 620.193 658.5 617.5C660.881 609.804 661.678 604.718 663 595.5C664.269 591.707 664.588 588.707 665 583C664.594 580.234 664.234 580.43 663.5 582C654.52 598.962 654.142 598.431 643.571 583.6L643.5 583.5C639 575.5 632.821 569.808 642 566.5C644.716 567.326 645.692 566.994 646.5 565C647.225 550.297 648.635 541.524 654 524.5C641.561 523.436 647.809 515.935 658.899 502.621L659 502.5C668.584 492.845 665.413 488.549 655 481.5C655.016 478.106 653.191 476.482 650.5 473.5C647.251 471.076 646.29 468.773 646.5 462.5C646.011 458.94 647.409 458.721 651 459.5C654 458 652.605 448.609 650.5 442C653.138 442.126 654.71 438.67 657.5 433C662.182 426.924 663.095 424.087 659 421C660.095 416.757 660.257 414.346 659 410C664.7 410.358 667.202 410.089 671.5 409.5C676.989 409.128 678.528 408.059 681 406C682.967 406.382 683.389 405.6 684 404C684.396 398.819 685.026 396.262 686.5 392C688.219 391.749 688.68 390.224 689.5 387.5C687.508 387.631 686.172 386.914 683.5 384.5L684.5 376.5C684.509 372.987 686.282 374.214 689.5 376.5C694 378.5 694.291 377.316 694 375.5C693.447 371.393 690.281 369.297 685.5 365.5C682.325 359.821 681.676 357.054 681.5 352.5C685.667 360.291 687.653 362.261 691 364.5C692.593 367.345 692.509 365.614 692.5 363C690.252 364.318 691.34 354.502 691.5 345C692.197 353.374 693.479 357.257 697 362.5C699 368.5 702.626 366.415 704 362.5H710.5C710.679 365.1 711.863 365.595 714.5 366C718.074 367.658 717.97 365.699 718 362.5C722.348 358.778 722.669 353.322 723.5 344C726.171 353.182 724.996 357.032 723 364.5C725.011 367.312 729.312 360.72 734 353.5C734.3 361.774 731.685 366.305 720 374C718.263 376.336 719.284 377.243 723 378.5C725.013 375.901 726.359 374.863 729 373.5C732.02 374.843 732.075 378.219 732 384.5C728.757 386.876 728.571 388.741 729.5 392.5C731.574 398.57 732.803 401.508 735 406C734.863 410.016 736.885 410.732 740.5 412C741.596 414.845 745.804 415.703 752 417.5C752.553 420.309 752.374 421.541 751 423C749.211 423.388 749.031 424.246 749 426C746.969 427.504 746.543 428.418 747 430C752.232 437.806 753.122 442.608 753 451.5C744.703 467.891 742.498 474.103 755.5 464.5V470.5C753.015 474.337 752.547 477.927 751.5 484.001C746.906 482.057 747.517 484.958 750.5 492.501C749 508.501 759.266 514.749 769.5 525.501C776.5 532.001 772.189 538.851 763.5 541.5C760.266 541.173 760.341 542.079 761 544C762.335 551.532 762.209 554.418 760 556.5C757.314 568.712 760.519 571.904 767 577C776.5 577 772.81 585.367 767 590.5C760.635 597.282 757.847 599.651 755.5 599C753.017 599.299 752.193 599.823 752 601.5L755.5 631C757.5 638 754.776 639.84 748 638.5C745.608 642.759 742.699 642.237 736 638.5L737.5 623L742 623C749.393 625.928 746.297 614.245 743 597.501C742 592 740.435 593.065 740 598.501C742 602.001 741.356 604.235 738.5 603.501C736.24 628.869 734.198 640.42 729.5 657.501C726.925 664.91 727.625 672.233 728 684.001C730.5 685.501 731.352 686.744 733.5 688.501H731C729.336 689.169 727.7 688.555 728.5 691.501C732.303 694.631 732.028 696.672 730 700.501L708.5 696.501C710.831 695.049 711.069 693.254 711.485 690.116L711.5 690.001C713.716 688.533 713.64 686.239 713.51 682.315L713.5 682.001C715.54 676.416 715.416 670.258 715.5 660.001C713.307 655.911 713.962 652.839 716 647.001C718.756 643.656 716.921 630.272 715 611.001C715.018 604.436 711.836 603.62 703 605.001C699.095 605.158 698.209 606.868 697.5 611.001C700 619.203 700.697 623.935 701 632.501C702.87 641.26 703.28 646.258 702.5 655.001C699.655 657.869 700.78 667.358 702 682.001C703.105 691.407 703.827 694.894 705.5 695.501L687.487 692.58C687.331 692.567 687.169 692.541 687 692.501Z" fill="#001223"/>
<path d="M130 405C133.756 407.768 134 406.5 134 404V345.5C133.924 344.286 133 344 132 345.5C131.001 349.985 130.07 352.445 126.5 356.5C124.166 361.193 122.791 363.632 120 367C119.097 367.876 119 370 120 371C121.283 373.747 122.022 375.226 123 379C123.6 380.307 123.952 381.042 125.5 382.5C126.892 384.034 127 387.5 125.5 390.5C124.081 392.258 124.5 394.5 126.5 396.5C128.675 397.586 129.136 398.094 126 398.5C124.883 399.748 124.5 403 126.5 404L130 405Z" fill="#001223"/>
<path d="M356 442C351.685 443.766 352.029 445.041 354.5 447.5C357.953 449.432 359.674 448.981 362.5 446.5C365.049 441.896 362.469 441.554 356 442Z" fill="#001223"/>
<path fill-rule="evenodd" clip-rule="evenodd" d="M112.5 357.896C107.01 352.098 103.76 351.707 97.4999 357.896L97.5 358.396C96 359.396 94.6468 358.786 94 357.396C92.943 354.969 92.3083 353.927 91 353.396C90.3851 352.764 89.8309 351.801 88.5 348.896C87.7711 347.469 87.5015 345.095 88.5 343.396C90.5 341.396 89.9088 340.054 88.5 340.896C84.5 344.396 82.975 341.686 81.5 335.896C80.84 336.517 80.6073 334.06 80.315 330.973C80.2214 329.986 80.1217 328.933 80 327.896C80 325.396 79.3188 326.179 78.5 327.896C77.3595 327.964 77.1116 328.505 77 329.896C77.6084 330.477 77.6744 331.292 77.5 333.396C77.1874 335.741 77.1127 336.31 78 335.896C78.7703 337.922 78.6777 339.112 78.5265 341.055L78.5144 341.209L78.5 341.396C79.1324 342.681 79.7521 343.943 80.3542 345.169C85.09 354.815 88.7421 362.254 89 360.896C90.225 361.422 90.7349 362.281 90.5 367.396C89.8377 369.383 89.1872 371.181 88.6094 372.779C87.4424 376.004 86.5719 378.411 86.5 379.896C85.5413 380.757 85.2596 381.474 85 382.896C85.2158 385.053 84.832 384.954 84 384.396C82.5 384.896 83.2652 390.37 84 390.396C84.943 391.096 84.8082 391.907 84.5 393.396C82.3405 394.138 82.1941 395.643 82 398.396H84C86.5 401.896 84.8821 403.607 82 403.396L74 406.896C73.5109 408.841 72.8063 408.731 71.5 408.396L61 412.396C56.5 414.396 57.7309 415.239 61 417.396C61.4199 419.006 61.0919 420.154 60 422.396C59.1815 419.996 58.0081 420.031 55.5 420.896C53 422.896 53.1882 425.654 54.5 426.896C55.7905 427.933 55.4017 429.635 54.5 432.896C53.3241 434.849 53.0214 435.809 54 436.896C54.6286 437.804 54.6893 438.633 54.5 440.396C53 441.896 52.968 443.472 54.5 443.896C56.8417 446.03 56.9537 446.848 54.5 447.396C53.6442 452.528 54.5701 453.747 58 453.896C60.5447 453.201 60.9738 453.879 61 455.896C59.5273 460.108 61.5883 462.832 67 467.896C66.8667 470.265 67.4139 471.282 69.5 472.396C74.039 476.558 72.81 479.676 67.5 485.896C66.114 484.817 64.2495 486.83 61.6827 489.602C61.1525 490.175 60.5922 490.78 60 491.396C58.529 489.466 54.8309 492.312 50.1579 495.908C48.6887 497.038 47.1231 498.243 45.5 499.396C42.5 501.396 42.8809 502.579 45.5 502.896C49 504.396 46.9329 507.245 44 508.896C37.5 511.896 37.6308 514.572 43.5 519.896C40.7523 522.329 38.7461 524.88 39.5 525.896L0 551.896L8 557.896L41.5 534.896C43 533.896 43.5604 534.665 43 535.896L15 565.896C14.5002 570.896 17.017 572.104 20.4996 570.896L38.9996 550.896C41.4996 548.396 42.3082 549.699 41.9996 551.896L41.7475 552.792C39.1018 562.188 37.5318 567.764 37.4996 571.896C37.8035 573.841 37.6828 574.931 36.9996 576.896C35.5302 578.819 35.1434 580.288 34.9996 583.396C34.8702 586.381 34.1242 587.641 31.9996 589.396C36.6743 593.163 39.5533 594.707 44.9996 596.896C50.3522 596.287 52.5954 594.601 54.4996 587.896C55.9996 575.396 59.097 577.305 62.4996 587.896C64.9293 594.675 60.5662 595.593 53.6074 597.055L53.5979 597.057C53.079 597.167 52.5456 597.279 51.9996 597.396C47.4996 601.896 47.596 607.393 54.9996 601.396C58.4996 600.396 58.3581 602.721 55.9996 605.396C50.2285 610.362 47.7766 614.139 44.9996 622.896C44.9558 625.6 44.7927 627.045 43.9996 629.396C44.0142 631.362 44.8218 631.209 46.037 630.98C46.1853 630.952 46.3398 630.923 46.4996 630.896C47.5623 629.837 47.4423 627.863 46.9996 623.896C47.4996 621.396 48.4996 623.896 48.4996 623.896L48.9996 636.896C49.9121 643.751 51.5264 641.339 54.3043 637.189L54.5002 636.896C54.3132 634.546 54.9176 633.229 56.5002 630.896C56.5481 629.167 57.0041 628.671 58.0002 627.896C58.979 629.584 59.5258 628.588 60.5002 625.896C62.5002 621.896 64.7832 624.109 64.5002 626.396C66.5299 630.506 66.803 634.081 67.0002 640.896C69.0598 641.363 69.1575 646.386 69.2779 652.574C69.3203 654.753 69.3655 657.077 69.5002 659.396C70.2079 663.006 70.4699 667.602 70.8748 674.705C70.915 675.41 70.9566 676.14 71.0002 676.896C70.4323 680.73 70.547 682.547 71.5002 685.396C66.4695 685.188 65.4654 686.399 65.5002 689.896L62.5002 691.396L84.5002 689.896C85.3328 682.22 85.7733 677.941 82.5002 675.396C83.1059 673.126 82.9929 671.812 82.0002 669.396C80.8613 669.879 80.922 662.866 80.9936 654.596C81.0239 651.097 81.0562 647.373 81.0004 643.896C83.5002 637.396 82.7258 630.587 81.0004 627.396C79.8463 623.525 79.9391 621.477 80.5004 617.896C81.1346 615.171 83.5004 615.396 84.0004 617.896C84.1913 618.851 84.5041 619.79 84.827 620.758C85.3496 622.326 85.8985 623.972 86.0004 625.896C86.8084 628.527 86.749 629.761 86.5004 631.896L87.4999 690.396C85.5103 691.835 84.9805 692.718 85.4999 694.396L104.5 690.896C104.121 688.604 103.031 687.429 100.5 685.396V684.896C101.088 678.763 100.575 672.684 99.8147 663.662C99.7135 662.461 99.6079 661.208 99.4999 659.896C103.04 659.556 103.282 656.194 103 648.896C111.5 648.896 108.023 641.376 102.5 640.896C109.825 634.941 108.885 632.319 102 628.396C99.8842 626.399 99.7528 622.461 99.5381 616.03C99.5258 615.66 99.5132 615.282 99.4999 614.896C98.6442 608.946 98.3434 605.541 99.4999 598.896C102.075 595.416 103.757 595.493 107 598.896C105.244 601.704 106.548 602.638 108.727 604.2C108.816 604.265 108.907 604.33 109 604.396C110.249 609.639 110.047 612.036 109 615.896V673.896C105.772 678.712 105.527 683.542 106 693.396L126 688.896L125.5 664.396C128.56 663.666 127.666 652.771 126.556 639.244C126.18 634.665 125.78 629.786 125.5 624.896C128.901 626 129.621 616.478 130.538 604.351C130.815 600.696 131.109 596.805 131.5 592.896V592.8C132.342 589.683 132.765 590.449 133.5 592.8V688.896H142V578.896C143 576.896 143.98 577.574 144.5 578.896C146.465 582.421 146.472 587.976 146.481 595.755C146.483 597.222 146.485 598.769 146.5 600.396C148.021 602.388 148.76 602.469 150 601.896C150.843 600.043 154.295 600.843 159.869 602.135C160.237 602.22 160.614 602.308 161 602.396C163.433 603.11 164.324 603.021 164 600.896C162.861 597.982 165.007 596.617 167.894 594.782C168.566 594.354 169.279 593.901 170 593.396C172.257 592.726 172.07 591.808 171 589.896C163.768 571.416 160.222 560.818 160.5 538.896C159.5 529.396 164.19 526.826 171.5 526.896C175.665 525.417 173.575 524.054 170.214 521.863C169.981 521.712 169.743 521.556 169.5 521.396C168.405 520.493 167.85 520.44 167 521.396C163.672 523.083 162.9 522.261 164 517.896C168.707 516.04 165.925 513.602 162.185 510.325C161.315 509.562 160.392 508.754 159.5 507.896C157.153 506.476 157.378 505.581 159 503.896C162.199 501.755 160.897 500.229 157.5 497.396C138.5 491.396 135.646 473.746 147.5 462.896C150.073 462.544 150.438 461.592 149.5 458.896C149.515 458.588 149.526 458.288 149.538 457.999C149.648 455.215 149.719 453.404 152 453.396C155.274 452.834 155.923 451.706 155 448.396C153.731 444.652 154.224 442.962 156.5 440.396C154.697 438.512 154.972 436.59 155.422 433.443L155.457 433.195L155.5 432.896C153.053 432.306 153.921 429.856 155.429 425.598L155.5 425.396C157.01 422.69 156.302 422.301 154 422.396C150 422.396 148.334 420.735 149.5 417.396C151.5 414.896 150.692 411.131 145.5 411.396C143.327 411.479 142.215 411.364 141 409.896V343.396C149.5 340.896 145.576 333.157 141 331.896V291.896C152.5 290.896 150.613 280.433 141.5 279.396V274.896C145.938 277.813 148.469 278.983 153 280.896V299.896C163.945 301.303 169.772 302.441 179 305.896C186.355 307.685 190.508 308.321 198 308.396C205.436 307.032 210.538 307.72 220.5 309.896C238.012 312.093 242.337 316.578 244.5 327.896C246.396 331.585 246.984 331.212 247.5 327.896C247.557 326.566 247.627 325.466 247.693 324.428C247.979 319.912 248.191 316.56 247 300.396C246.516 288.531 246.512 280.705 246.507 269.895V269.876C246.506 267.691 246.505 265.384 246.5 262.896L246 50.3965C245.256 44.3078 242.072 41.2663 236 35.8965C234.919 35.5871 234.872 34.8735 235 33.3965C237.053 31.5083 237.48 30.3119 236.5 27.8965C236.066 27.1148 236.218 26.9182 237 26.8965H241.5C242.749 28.361 242.159 29.721 241.218 31.8906C241.147 32.0545 241.074 32.223 241 32.3965L284 31.8965L244 19.3965C244.498 22.1073 242.468 22.0369 239.588 21.937C239.082 21.9194 238.549 21.9009 238 21.8965C226.74 19.3263 220.457 17.9125 212 17.8965C209.22 18.4628 208.281 16.8867 206.724 14.2725C206.651 14.1495 206.576 14.0241 206.5 13.8965C204.525 12.1348 204.301 13.3173 204.5 16.8965C192.185 14.849 186.384 14.1302 178.5 13.8965V10.8965C179 9.39648 174.339 8.93102 174.5 10.8965V11.8965C168.333 11.9708 163.965 11.1831 157.943 10.0973C156.708 9.87458 155.404 9.63937 154 9.39648V6.89648C151.782 5.43247 150.835 5.55044 149.5 6.8965C148.645 9.33099 146.09 8.64312 140.5 6.3965V0.896925C136.027 -0.677451 134.178 -0.562196 134 4.39692C135 8.39692 129.646 9.39828 130.5 4.39692L89.4999 2.89693L129.5 17.3969V11.8969C130.177 11.3821 130.478 11.5327 131 11.8969C131.806 12.9619 132.49 13.3544 134.5 13.3969V31.3969H128.5V37.3969C130.698 39.5126 132.051 40.1129 134.5 41.018V104.397C132.55 107.393 132.629 108.46 135.5 108.897V120.897H134.5L135 162.897C129.5 162.897 127.151 166.338 126.5 172.897C126.034 174.253 125.676 173.94 125 172.897C124.055 170.478 123.604 169.419 123 168.397C122.318 166.062 119.201 163.956 114.41 160.72C113.352 160.006 112.213 159.236 111 158.396C107.862 157.102 106.89 157.365 108 161.396C111.44 165.44 113.795 167.405 119 170.396C120.904 170.977 121.749 172.742 123.023 175.405C123.175 175.723 123.333 176.054 123.5 176.396C124.336 177.622 124.395 178.192 123.5 178.896C121.83 180.393 120.655 180.957 118.5 181.896C125.29 183.357 127.924 183.309 131.5 182.396C131.401 181.331 130.926 180.775 129.5 179.896C128.983 178.329 128.913 177.613 129.5 176.896C131.279 176.329 131.562 174.085 132 169.896C133.319 169.033 133.944 169.224 135 169.896V188.897C132.035 187.837 130.556 187.607 128.5 188.397C128.054 190.501 128.002 191.776 128.5 194.397C130.432 195.575 131.739 195.862 134.5 195.654V263.896C131.352 263.285 130.003 263.461 128.5 264.896C127.73 266.985 127.98 267.862 128.5 269.396C130.273 271.24 131.522 271.832 134 272.396L133.5 334.896C131.252 336.931 130.283 338.488 129 341.896C128.106 343.297 127.4 343.048 126 341.896C123.734 340.355 123.451 340.974 124.5 344.396C125.492 346.148 125.331 346.993 124.5 348.396C122.385 352.691 121.021 354.844 118 357.896C115.356 360.621 114.135 360.595 112.5 357.896ZM139.415 21.8965C139.33 22.293 139.415 81 139.415 81C142.894 80.9624 144.395 79.6113 146.5 75.5C146.5 75.5 147 23.293 146.5 21.8965C146 20.5 139.5 21.5 139.415 21.8965ZM139.5 222C139.5 222 139.415 163.293 139.5 162.897C139.585 162.5 146.085 161.5 146.585 162.897C147.085 164.293 146.585 216.5 146.585 216.5C144.481 220.611 142.979 221.962 139.5 222ZM139.5 87.8965C139.415 88.293 139.5 147 139.5 147C142.979 146.962 144.481 145.611 146.585 141.5C146.585 141.5 147.085 89.293 146.585 87.8965C146.085 86.5 139.585 87.5 139.5 87.8965ZM203.46 61.4562C202.668 60.8179 202 60.2793 202 59.5C202 57.5 214 60.5 214.5 62C214.715 62.6462 214.652 63.1997 214.591 63.7402C214.51 64.4544 214.431 65.1462 215 66C216 67.5 221.5 69.5 221.5 69.5C221.5 69.5 210 78 212.5 80.5C215 83 228 76 228 76C234.145 77.4021 237 84 233 84.5C229 85 221.5 85.5 221.5 85.5L222.5 88C222.5 88 230 90.5 231 91.5C232 92.5 232.384 93.9352 231 95.5H223C223 95.5 226.5 122 222 125C217.5 128 202.5 108.5 202.5 108.5C202.5 108.5 216 113.5 218 112.5C220 111.5 217.5 95 217.5 95L198.5 97C198.5 97 192.5 98.5 192 94.5C191.664 91.8094 195.173 90.25 197.507 89.213C198.643 88.7083 199.5 88.3274 199.5 88C199.5 87.692 198.025 87.5848 195.956 87.4345C191.307 87.0967 183.658 86.541 183 83C183 83 205 84 205 76.5C203.272 76.5206 191 72 193 70.5C193.715 69.9638 195.529 69.8857 197.583 69.7973C201.275 69.6385 205.743 69.4462 206 66.5C206.244 63.7013 204.7 62.4563 203.46 61.4562ZM214.69 91.8806C215.428 91.7579 216.197 91.6302 217 91.5V86.5C207.566 86.9641 202.531 87.4089 199.5 92.5C204.467 93.5798 208.548 92.9015 214.69 91.8806ZM177.5 59C181.912 59.6882 177.877 75.7063 166 90C167.093 94.1573 167.748 93.5276 173.037 88.4449L173.5 88C176.006 86.6974 175.374 93.8373 174.471 104.043L174.471 104.048C174.317 105.785 174.155 107.611 174 109.5C174 109.5 178 117.5 180 117C182 116.5 184 97.5 184 97.5C175.551 87.208 177 80.5 188 69.5C188.519 61.0346 181 55 177.5 59ZM205.5 106C202 105 199.5 100 199.5 100C203.319 98.4007 205.379 99.6902 209 104C209 104 209 107 205.5 106Z" fill="#001223"/>
<path d="M383.499 677.999L383.999 681.499L363.5 681.5C369.934 679.579 368.906 674.6 368 666.5C365.78 663.269 365.425 661.2 366 657C367.966 643.275 368.057 635.923 363 624.5C364.5 620.5 363.992 616.946 361 614.5C355.983 610.99 352.769 602.568 347 587C345.292 577.084 340.926 581.567 333.5 588.5L320 579C317.896 577.134 317.435 576.2 319.5 575C337.274 560.779 330.891 546.549 331.5 530.5C332.499 522.502 332.118 518.011 331 510C337.551 508.063 339.236 504.135 342.5 497.5C347.724 490.542 347.783 486.431 344 479C351.717 475.349 338.188 464.489 328 452C330.616 449.228 328.081 447.009 323.644 443.126L323.5 443C324.594 443.664 325.118 443.551 326 442.5C332.448 438.499 334.362 436.042 334 430.5C338.5 427.5 339.468 424.695 334 424C331.5 423 330.221 420.806 334 420C337.5 417 337.105 414.722 334.5 415C331.5 414 330.989 411.59 334.5 411C336.27 410.461 336.64 409.736 336.5 408C335.5 401 337.864 398.049 341.5 398C343.588 397.549 343.94 396.966 343.499 395.5C342.273 393.68 343.003 393.016 344.999 392C353.999 391 353.623 385.195 352.499 379.5H360.499C364.499 379.5 367.138 375.9 365.499 374.5C368.077 373.383 369.178 372.082 370.499 368.5C371.999 366 372.245 362.904 369.999 362.5C366.282 361.13 365.891 360.385 368.999 357C370.756 355.012 370.698 354.088 368.999 353C355.527 344.787 350.651 337.561 347.999 319C348.806 317.344 349.25 317.396 349.999 318.5C353.456 334.032 359.535 337.766 370.232 344.336L370.499 344.5C378.502 346.902 380.441 343.483 384.499 338.5C387.103 336.923 386.339 335.445 385.999 334C385.659 332.555 388.392 332.365 388.999 333C390.001 334.577 389.882 335.182 388.999 336C384.823 340.694 386.871 342.108 394.499 343.5C406.999 340.5 414.727 327.775 416.999 307C420.458 319.037 420.289 324.415 416.999 332.5C412.298 341.261 408.863 345.382 400.999 351C399.603 352.099 399.778 352.494 400.999 353C402.68 353.317 403.517 353.904 404.999 355C405.314 356.034 406.778 356.212 409.499 356.5C411.999 358 411.389 359.913 409.499 362.5C408.625 363.635 408.068 363.528 406.999 362.5C400.999 362 402.711 366.886 406.499 367C405.61 367.511 405.614 369.053 405.499 371.5C408.957 374.93 412.994 378.097 410.499 378C410.225 379.391 410.526 379.886 411.499 380.5C415.497 380.225 416.846 380.406 417.499 381C418.279 382.597 418.867 382.616 419.999 382C420.371 379.758 422.293 381.142 424.999 382.5C422.729 384.896 423.545 386.965 425.999 391.001C428.754 395.384 430.174 396.765 430.999 400.001C428.917 402.091 430.053 403.65 432.499 406.501C431.793 409.199 432.894 410.573 434.999 413.001C434.815 414.598 434.998 415.291 435.999 416.001C437.47 415.848 437.762 416.239 437.499 417.501C437.939 419.816 438.758 420.889 441.499 422.5C444.861 420.094 446.707 421.844 449.999 425C450.842 430.592 451.146 433.591 447.999 436C445.087 436.764 444.138 437.76 442.999 440C441.822 442.26 440.888 442.039 438.999 440.5C436.517 439.292 435.344 439.609 433.499 441.5C432.865 445.008 431.713 446.01 428.999 447C425.747 447.122 425 448.231 424.999 451.5C425.386 453.507 425.276 454.164 424.499 454.5C422.319 455.478 422.444 457.015 422.999 460C440.18 477.666 449.414 487.76 465.499 506C467.537 507.904 467.364 509.273 465.999 512C465.696 513.568 464.928 513.636 462.999 513L439.999 491C439.264 490.575 438.909 490.61 438.499 491.5C443.156 496.857 445.786 500.439 450.499 507.5C454.846 514.532 455.37 522.639 453.499 543C451.771 550.47 457.693 551.082 464.499 554C467.615 553.437 468.465 552.211 469.961 550.054L469.999 550C470.58 549.058 471.265 549.03 472.499 549C473.068 550.129 473.124 550.649 472.999 551.5C472.985 552.73 471.435 553.352 469.499 554.5C468.594 555.17 468.482 555.607 468.999 556.5L475.999 560C478.619 563.428 480.739 565.711 479.499 567C477.525 569.238 476.344 570.43 475.999 574L466.499 583C465.001 582.524 464.142 582.848 462.499 585.5C462.499 590 460.657 589.872 457.999 588.5C453.916 585.982 451.992 585.591 449.499 587.5C445.999 591 442.767 590.25 439.999 586C441.499 582.5 439.399 580.707 436.999 581.5C434.797 582.662 433.717 583.566 431.999 585.5C427.061 589.503 427.242 596.438 427.999 609.5C423.715 622.102 422.507 630.83 421.499 648C418.888 655.523 418.272 660.36 418.499 670C419.591 675.173 419.939 677.887 419.499 682L403.499 681.499V677C404.585 674.373 404.46 672.95 403.499 670.5C401.143 668.219 401.613 658.215 401.499 645C404.065 643.794 403.027 625.824 402.999 606.499C403.491 604.363 402.584 604.276 400 604.999C388.449 604.484 383.379 605.634 380.499 613.999C377 615.999 375.897 620.601 380.499 624.499C380.768 633.496 380.988 638.28 381.499 645.999V646.499C382.728 656.168 382.955 664.31 383.499 677.999Z" fill="#001223"/>
<path d="M675.5 454C678.278 459.539 677.578 464.953 674.5 476.5C669.607 473.962 668.724 471.536 668.5 466.5C672.617 463.555 673.975 460.573 675.5 454Z" fill="#001223"/>
<path d="M543.5 685H525L528 683.5L526 660C523.652 635.204 521.292 621.598 515 598C512.703 593.691 511.771 593.943 510.5 597.5C507.039 605.079 506.829 611.15 506 621.5C507.001 632.92 497.965 625.554 484 615.5C474.299 611.491 478.064 609.995 487 607.5C492.621 607.075 490.707 593.394 490.5 577.5C487.327 560.245 487.552 548.941 492 526C491.275 523.67 490.655 523.149 489 524.5L467.5 545L463 539L485 516C490.317 513.396 486.114 505.348 486.5 503.5C486.886 501.652 494.97 497.235 499.5 492C502.621 489.459 503.265 488.206 501 486.5C491.105 482.58 486.437 479.506 481 471C481.811 466.689 480.484 464.602 477.5 461C481.962 462.093 483.469 461.73 483.5 458.5C481.405 455.032 481.762 452.905 483.5 449C476.516 444.358 482.344 438.065 491 427.5C495.463 423.157 494.516 421.423 492 418.5C496.217 415.878 497.817 413.647 500.5 409.5C500.947 404.786 507.443 404.534 517.5 403.5C523.47 403.643 521.331 402.336 517.5 400C515.773 392.259 511.628 387.109 506.5 378.5C504.955 376.801 504.086 376.835 502.5 378C496.82 379.728 494.543 379.132 492.5 374.5C491.127 371.208 489.995 369.495 487.5 367C488.057 364.432 488.12 363.12 487 361.5C482.078 362.071 480.053 362.158 480.5 361C486.901 353.544 488.448 349.679 483 344C478.272 343.747 475.764 343.559 476 342C479.577 340.076 479.728 339.515 479.993 338.525L480 338.5L450 292C435.846 267.258 429.673 253.203 434 226.5C434.375 224.148 434.765 223.774 436 226C444.486 249.1 452.202 259.954 465 280L486.5 325C488.149 325.746 488.688 326.379 488 328.5C489.17 333.871 492.519 332.483 498.5 330C499.681 329.931 499.844 330.323 499 332C496.325 333.127 495.032 334.23 493 337C492.108 338.147 492.202 338.546 494 338.5C498 336 503.559 344.666 502.5 349.5C500.676 350.809 500.653 352.22 501 355C510.59 371.131 516.182 380.421 520.5 390.5C524.229 399.39 524.119 393.365 524.5 385.5C526.527 383.283 526.305 381.126 525.5 377C525.592 372.985 526.378 371.765 529.5 372C531.88 373.826 532.247 373.772 530.5 371C526.023 367.316 526.271 363.347 530 354C531.902 347.915 532.243 344.067 532.5 337L537 342.5C539.512 343.595 539.894 344.466 539 346.5C533.5 351 536.805 354.343 543 355C538.179 355.295 536.343 357.104 534.5 363C534.09 365.982 534.656 366.315 536.5 365.5C538.396 364.914 538.898 364.476 538.5 363.5C537.522 363.326 536.975 363.509 536 364L538 362C541.5 358 550.542 357.829 553.5 361C558.841 365.489 558.846 363.873 558.5 360.5C558.65 356.242 555.622 355.491 550.5 354C559 352 560.573 349.522 556 347C553.29 344.196 558.046 341.54 562.5 337.5C561.669 339.985 561.258 341.386 561.5 344C564.55 351.615 565.333 355.625 565.5 362.5C568.127 360.447 567.821 362.443 567 366.5C565.51 366.941 565.115 368.148 564.5 370.5C563.185 372.571 563.205 373.116 565 373C566.692 371.107 567.24 371.814 568 374C569.063 382.715 569.45 387.679 569 397C568.587 402.83 568.431 405.907 570 406.5C576.145 410.553 579.213 411.638 584.5 413C587.704 414.4 588.747 414.342 589.5 413C588.334 408.083 590.336 408.407 593.798 408.968L594 409C598.598 406.736 599.485 410.002 601 416C599.434 416.422 599.652 417.57 600.5 420C602.92 422.452 598.5 427 597 424C595.5 421 594.096 421.949 592.5 424.5C593.938 427.577 592.372 428.102 589.5 429C585.911 430.045 584.811 431.009 586 434C588.679 437.045 587.902 442.028 587.5 449.5C587.401 453.406 589.384 452.684 592.5 452C599.231 448.744 599.408 450.031 595 456.501C592.306 456.261 592.253 457.477 592 459.501C593.5 464.001 592.784 468.372 588 467C585.37 466.432 585.421 466.827 586.5 468C588.144 472.151 587.591 473.027 585.5 473.5C580.5 473 579.231 474.459 582 478C588.26 487.681 597.642 493.209 610.5 503C612.31 503.966 613.124 504.576 612 506.5L604 518.001C598 515 598.456 521.906 599.5 525.001L622.5 575.501C626.925 584.88 623.839 584.154 618 582.501L604 553.001C601.585 569.353 601.232 579.372 601.5 598.001C599.585 607.951 600.751 608.343 606.5 600.501C613.752 604.001 614.162 606.278 613 610.501C607.212 614.661 603.82 617.057 594.5 622.501C588 629.501 584.314 627.699 585 618.5C584.661 595.535 582.173 596.836 574 623C566.293 630.882 564.273 638.644 565.5 659.5L566.5 685.5L548 687V677.5C549.362 674.658 549.649 672.039 549.5 666C551.531 662.34 551.187 658.234 551 651.5C549.036 648.033 549.111 642.879 549.5 633C556.725 627.163 555.856 619.446 553 604.501C550.881 601.912 550.099 602.35 549 604.501C549.327 613.339 548.927 617.459 548 624.501C541.799 626.621 542.659 648.801 543.5 685Z" fill="#001223"/>
</svg>
