<svg width="54" height="51" viewBox="0 0 54 51" fill="none" xmlns="http://www.w3.org/2000/svg">
<path fill-rule="evenodd" clip-rule="evenodd" d="M36.5066 0.195V1.67698C36.5066 4.37402 36.5084 6.6216 36.5582 8.50279L49.3279 4.51155V5.97222H48.2541C49.3279 5.97222 49.3279 5.97231 49.3279 5.97231V19.8673H48.2541C48.1473 19.8673 48.0413 19.8673 47.9361 19.8673C44.9326 19.8677 42.5452 19.8679 40.7141 19.6049C38.7887 19.3283 37.253 18.7325 36.2018 17.3447C35.1997 16.022 34.7789 14.1516 34.5715 11.7111C34.5623 11.603 34.5535 11.4933 34.5451 11.3821L25.1453 14.32L25.1447 14.3202L25.1436 14.3206C25.1427 14.3209 25.1414 14.3213 25.1398 14.3219C25.1324 14.3244 25.1179 14.3293 25.0973 14.3369C25.056 14.352 24.9914 14.3771 24.9116 14.4127C24.7488 14.4852 24.5385 14.5943 24.335 14.741C23.9129 15.0454 23.6645 15.3966 23.6647 15.8293C23.6649 16.2956 23.949 16.7392 24.4104 17.1388C24.628 17.3272 24.8506 17.4745 25.0205 17.5748C25.1044 17.6242 25.1724 17.6605 25.2165 17.6831C25.2251 17.6875 25.2328 17.6914 25.2395 17.6947C25.2498 17.6998 25.2578 17.7037 25.263 17.7062C25.2661 17.7077 25.2682 17.7087 25.2694 17.7093L25.2697 17.7094L25.2704 17.7097L25.2705 17.7098L25.3246 17.7342L25.3795 17.7675L24.8235 18.6861C25.3795 17.7675 25.3796 17.7675 25.3797 17.7676L25.3801 17.7678L25.9074 18.087C26.2438 18.2907 26.7254 18.5824 27.306 18.9341C28.4672 19.6375 30.0245 20.5813 31.6087 21.5425C34.7622 23.456 38.0612 25.4623 38.5092 25.7535C38.5654 25.79 38.6544 25.844 38.7704 25.9143C39.384 26.2862 40.7526 27.1159 42.0146 28.2454C43.4939 29.5692 45.1026 31.5374 45.1026 33.9986C45.1026 36.1379 43.9033 38.045 42.5691 39.4753C41.2194 40.9221 39.5834 42.0426 38.3862 42.6134C37.2427 43.1587 32.2658 44.9461 27.6806 46.5639C25.3649 47.381 23.1169 48.1658 21.448 48.7463C20.6135 49.0366 19.9237 49.2758 19.4424 49.4425C19.2018 49.5258 19.0133 49.591 18.8849 49.6354L18.6913 49.7023L18.6889 49.7031L18.6883 49.7033C18.6882 49.7034 18.6881 49.7034 18.3377 48.6884L18.6881 49.7034L17.2639 50.195V48.6884C17.2639 48.1093 17.2645 47.5512 17.265 47.0132L17.265 47.0106C17.267 44.9664 17.2688 43.2128 17.2388 41.7014L4.44815 45.8981V30.6269H5.52196C8.81594 30.6269 11.3741 30.6434 13.3007 30.9493C15.2576 31.2601 16.7784 31.9006 17.7888 33.3172C18.7273 34.6329 19.096 36.4531 19.2653 38.7762L28.9687 35.5924C29.7727 35.2268 30.1673 34.591 30.2158 34.0188C30.2617 33.4769 30.0131 32.7798 29.0631 32.2367L14.2631 24.5803C14.2553 24.5771 14.2468 24.5735 14.2377 24.5696C14.1897 24.5492 14.1241 24.5204 14.0435 24.4825C13.8825 24.4069 13.6605 24.2949 13.3978 24.142C12.8739 23.8371 12.1785 23.3641 11.4812 22.6847C10.0729 21.3127 8.66981 19.106 8.65749 15.8338C8.64509 12.5385 10.1038 10.4044 11.5812 9.11697C12.3095 8.48227 13.0359 8.05715 13.5815 7.7896C13.8553 7.65532 14.0867 7.5592 14.2544 7.49519C14.3383 7.46315 14.4066 7.43904 14.4566 7.42212C14.4817 7.41365 14.5021 7.40698 14.5178 7.402C14.5231 7.40029 14.5279 7.39878 14.5321 7.39746L14.533 7.3972L36.5066 0.195ZM19.3703 41.002C19.4172 42.7023 19.4151 44.6964 19.4127 47.0194L19.4125 47.1799C19.7946 47.0473 20.2426 46.8918 20.7425 46.7179C22.4096 46.138 24.6544 45.3543 26.9661 44.5387C31.6357 42.8911 36.452 41.1565 37.4618 40.6749C38.4179 40.219 39.8343 39.2586 40.9987 38.0103C42.1786 36.7455 42.955 35.3433 42.955 33.9986C42.955 32.4863 41.9408 31.0613 40.5824 29.8457C39.4961 28.8735 38.3675 28.1852 37.7113 27.7851C37.5598 27.6927 37.4336 27.6157 37.3388 27.5541C36.9277 27.2869 33.6765 25.3093 30.4946 23.3786C28.911 22.4177 27.3542 21.4742 26.1933 20.771C25.6128 20.4194 25.1314 20.1278 24.795 19.9241C24.6269 19.8223 24.495 19.7425 24.4051 19.6881L24.3133 19.6325C24.2925 19.6223 24.2675 19.6099 24.2387 19.5952C24.1608 19.5554 24.0545 19.4984 23.929 19.4243C23.6805 19.2776 23.345 19.0571 23.0046 18.7623C22.3499 18.1955 21.5177 17.2109 21.517 15.8303C21.5164 14.416 22.3842 13.5001 23.0787 12.9992C23.4335 12.7432 23.7815 12.565 24.0375 12.451C24.167 12.3933 24.277 12.3502 24.3578 12.3206C24.3983 12.3057 24.4318 12.2941 24.4571 12.2857C24.4698 12.2814 24.4804 12.2779 24.4889 12.2752C24.4931 12.2738 24.4968 12.2727 24.5 12.2717L24.5032 12.2707L24.5069 12.2695L34.4297 9.16807C34.3722 7.46137 34.3614 5.47083 34.3594 3.1588L15.1803 9.44508L15.1711 9.44784L15.1698 9.44823C15.166 9.44947 15.1575 9.45219 15.1448 9.45648C15.1194 9.46507 15.0771 9.47991 15.0203 9.5016C14.9065 9.54505 14.7357 9.61554 14.5271 9.71784C14.1079 9.92343 13.5484 10.2513 12.9921 10.7361C11.9003 11.6875 10.7954 13.2581 10.8051 15.8257C10.8148 18.4165 11.9027 20.0971 12.9798 21.1465C13.5253 21.6778 14.0712 22.0491 14.478 22.2858C14.6806 22.4037 14.8462 22.4868 14.9565 22.5386C15.0116 22.5645 15.0526 22.5824 15.0772 22.5929C15.0896 22.5981 15.0977 22.6015 15.1015 22.603L15.1028 22.6035L15.1039 22.604L15.1543 22.6234L30.0863 30.348L30.1036 30.3578C31.693 31.256 32.4824 32.7046 32.3557 34.2C32.2322 35.6583 31.2532 36.9407 29.7835 37.5804L29.7375 37.6004L19.3703 41.002ZM17.1582 39.4675C17.1504 39.3333 17.1421 39.2015 17.1332 39.0721C16.9716 36.7178 16.6243 35.383 16.0404 34.5643C15.5085 33.8186 14.6561 33.3391 12.9639 33.0704C11.4313 32.827 9.38864 32.7825 6.59577 32.7756V42.9332L17.1582 39.4675ZM36.6523 10.7235C36.6698 11.0022 36.6894 11.2706 36.7114 11.5293C36.914 13.9133 37.3056 15.2453 37.9137 16.0479C38.4725 16.7856 39.3445 17.2384 41.0195 17.4791C42.5292 17.6959 44.5067 17.7174 47.1802 17.7195V7.43288L36.6523 10.7235Z" fill="#001223"/>
<path d="M2.83393 46.6461C2.83393 46.9419 2.76417 47.1849 2.62466 47.3749C2.48275 47.5649 2.2807 47.6671 2.01852 47.6816V46.9275C2.10752 46.9203 2.17246 46.8938 2.21335 46.8481C2.25424 46.8024 2.27469 46.7435 2.27469 46.6713C2.27469 46.6064 2.25905 46.5535 2.22778 46.5126C2.19411 46.4693 2.14841 46.4476 2.09068 46.4476C2.01611 46.4476 1.95838 46.4825 1.91749 46.5523C1.8766 46.622 1.8309 46.7351 1.78039 46.8914C1.72507 47.0574 1.67215 47.1921 1.62164 47.2955C1.56872 47.3965 1.49295 47.4855 1.39433 47.5625C1.29331 47.6371 1.16222 47.6743 1.00106 47.6743C0.837499 47.6743 0.69799 47.6335 0.582534 47.5517C0.464672 47.4699 0.375675 47.3568 0.315542 47.2125C0.255408 47.0682 0.225342 46.9046 0.225342 46.7218C0.225342 46.426 0.295096 46.1903 0.434606 46.0147C0.57171 45.8367 0.765339 45.7417 1.01549 45.7296V46.4981C0.938523 46.5005 0.880795 46.5246 0.84231 46.5703C0.803824 46.6136 0.784582 46.6701 0.784582 46.7399C0.784582 46.7928 0.800216 46.8361 0.831486 46.8698C0.862755 46.9034 0.907254 46.9203 0.964982 46.9203C1.01309 46.9203 1.05518 46.9022 1.09126 46.8662C1.12494 46.8277 1.155 46.7808 1.18146 46.7254C1.20552 46.6701 1.23678 46.5883 1.27527 46.4801C1.33059 46.3189 1.38592 46.1866 1.44124 46.0832C1.49416 45.9774 1.56992 45.8872 1.66854 45.8126C1.76476 45.7356 1.88743 45.6972 2.03656 45.6972C2.18809 45.6972 2.324 45.7356 2.44426 45.8126C2.56453 45.8872 2.65954 45.9966 2.72929 46.1409C2.79905 46.2829 2.83393 46.4512 2.83393 46.6461Z" fill="#001223"/>
<path d="M0.26503 43.0918H0.827878V43.7701H2.80867V44.4772H0.827878V45.1483H0.26503V43.0918Z" fill="#001223"/>
<path fill-rule="evenodd" clip-rule="evenodd" d="M2.39375 41.7622L2.80867 41.8993V42.6425L0.26503 41.7153V40.8998L2.80867 39.9762V40.7231L2.39375 40.8602V41.7622ZM1.85255 41.037L1.02993 41.3112L1.85255 41.5818V41.037Z" fill="#001223"/>
<path fill-rule="evenodd" clip-rule="evenodd" d="M2.80867 38.0969L1.87059 38.602V38.6777H2.80867V39.3849H0.26503V38.27C0.26503 38.0656 0.30111 37.8924 0.37327 37.7505C0.443025 37.6086 0.54044 37.5015 0.665518 37.4294C0.78819 37.3572 0.926497 37.3211 1.08044 37.3211C1.25362 37.3211 1.40636 37.3692 1.53865 37.4655C1.66854 37.5593 1.76115 37.6976 1.81647 37.8804L2.80867 37.3067V38.0969ZM1.38712 38.6777V38.3278C1.38712 38.2316 1.36427 38.1594 1.31857 38.1113C1.27286 38.0632 1.20672 38.0391 1.12013 38.0391C1.03834 38.0391 0.974603 38.0644 0.928902 38.1149C0.880795 38.163 0.856742 38.234 0.856742 38.3278V38.6777H1.38712Z" fill="#001223"/>
<path d="M0.26503 34.7229H0.827878V35.4012H2.80867V36.1084H0.827878V36.7795H0.26503V34.7229Z" fill="#001223"/>
<path d="M0.26503 33.4077H1.7407C1.87781 33.4077 1.98364 33.3765 2.05821 33.3139C2.13277 33.249 2.17005 33.1516 2.17005 33.0217C2.17005 32.8918 2.13277 32.7944 2.05821 32.7294C1.98124 32.6621 1.8754 32.6284 1.7407 32.6284H0.26503V31.9212H1.7407C1.97402 31.9212 2.17366 31.9705 2.33963 32.0692C2.50319 32.1678 2.62707 32.3025 2.71125 32.4732C2.79304 32.6416 2.83393 32.8292 2.83393 33.0361C2.83393 33.243 2.79304 33.4282 2.71125 33.5917C2.62707 33.7529 2.50319 33.8804 2.33963 33.9742C2.17607 34.0656 1.97643 34.1113 1.7407 34.1113H0.26503V33.4077Z" fill="#001223"/>
<path fill-rule="evenodd" clip-rule="evenodd" d="M1.11291 29.1614C1.26685 29.1614 1.40756 29.1975 1.53505 29.2697C1.66012 29.3394 1.76115 29.4464 1.83812 29.5908C1.91268 29.7327 1.94997 29.9071 1.94997 30.1139V30.4639H2.80867V31.1711H0.26503V30.1139C0.26503 29.9095 0.30111 29.7363 0.37327 29.5944C0.44543 29.4501 0.545251 29.3418 0.672734 29.2697C0.800217 29.1975 0.946942 29.1614 1.11291 29.1614ZM1.38712 30.1825C1.38712 29.9828 1.29572 29.883 1.11291 29.883C0.927699 29.883 0.835094 29.9828 0.835094 30.1825V30.4639H1.38712V30.1825Z" fill="#001223"/>
<path d="M53.2655 17.6089C53.405 17.4189 53.4748 17.1759 53.4748 16.8801C53.4748 16.6852 53.4399 16.5169 53.3702 16.3749C53.3004 16.2306 53.2054 16.1212 53.0851 16.0466C52.9649 15.9696 52.829 15.9312 52.6774 15.9312C52.5283 15.9312 52.4056 15.9696 52.3094 16.0466C52.2108 16.1212 52.135 16.2114 52.0821 16.3172C52.0268 16.4206 51.9715 16.5529 51.9161 16.7141C51.8777 16.8223 51.8464 16.9041 51.8223 16.9594C51.7959 17.0148 51.7658 17.0617 51.7321 17.1001C51.6961 17.1362 51.654 17.1543 51.6059 17.1543C51.5481 17.1543 51.5036 17.1374 51.4724 17.1038C51.4411 17.0701 51.4255 17.0268 51.4255 16.9739C51.4255 16.9041 51.4447 16.8476 51.4832 16.8043C51.5217 16.7586 51.5794 16.7345 51.6564 16.7321V15.9636C51.4062 15.9757 51.2126 16.0707 51.0755 16.2487C50.936 16.4242 50.8662 16.66 50.8662 16.9558C50.8662 17.1386 50.8963 17.3022 50.9564 17.4465C51.0165 17.5908 51.1055 17.7039 51.2234 17.7857C51.3389 17.8674 51.4784 17.9083 51.6419 17.9083C51.8031 17.9083 51.9342 17.8711 52.0352 17.7965C52.1338 17.7195 52.2096 17.6305 52.2625 17.5295C52.313 17.4261 52.3659 17.2914 52.4213 17.1254C52.4718 16.9691 52.5175 16.856 52.5584 16.7863C52.5993 16.7165 52.657 16.6816 52.7316 16.6816C52.7893 16.6816 52.835 16.7033 52.8687 16.7466C52.8999 16.7875 52.9156 16.8404 52.9156 16.9053C52.9156 16.9775 52.8951 17.0364 52.8542 17.0821C52.8133 17.1278 52.7484 17.1543 52.6594 17.1615V17.9156C52.9216 17.9011 53.1236 17.7989 53.2655 17.6089Z" fill="#001223"/>
<path fill-rule="evenodd" clip-rule="evenodd" d="M53.4495 14.6715L53.0346 14.5344V13.6324L53.4495 13.4953V12.7485L50.9059 13.6721V14.4875L53.4495 15.4148V14.6715ZM51.6708 14.0834L52.4934 13.8092V14.354L51.6708 14.0834Z" fill="#001223"/>
<path d="M51.5878 10.7032C51.6239 10.631 51.6756 10.5745 51.743 10.5336V9.7723C51.476 9.82281 51.2655 9.9527 51.1116 10.162C50.9576 10.3712 50.8806 10.6358 50.8806 10.9557C50.8806 11.2107 50.936 11.4356 51.0466 11.6304C51.1549 11.8253 51.3076 11.9768 51.5048 12.085C51.6997 12.1909 51.9222 12.2438 52.1723 12.2438C52.4249 12.2438 52.6498 12.1909 52.847 12.085C53.0418 11.9768 53.1946 11.8253 53.3052 11.6304C53.4135 11.4332 53.4676 11.2071 53.4676 10.9521C53.4676 10.7429 53.4303 10.5564 53.3557 10.3929C53.2788 10.2293 53.1814 10.0946 53.0635 9.98878C52.9456 9.88054 52.8193 9.79876 52.6847 9.74343H51.9991V11.064H52.5079V10.3532C52.7316 10.459 52.8434 10.6358 52.8434 10.8836C52.8434 11.0928 52.7869 11.2528 52.6738 11.3634C52.5584 11.4717 52.3912 11.5258 52.1723 11.5258C51.9775 11.5258 51.8223 11.4753 51.7069 11.3743C51.5914 11.2708 51.5337 11.1301 51.5337 10.9521C51.5337 10.8559 51.5517 10.7729 51.5878 10.7032Z" fill="#001223"/>
<path fill-rule="evenodd" clip-rule="evenodd" d="M53.0346 8.35855V7.45655L53.4495 7.31945V6.57259L50.9059 7.49624V8.31165L53.4495 9.23891V8.49566L53.0346 8.35855ZM51.6708 7.90756L52.4934 7.63335V8.17816L51.6708 7.90756Z" fill="#001223"/>
</svg>
