<svg width="35" height="33" viewBox="0 0 35 33" fill="none" xmlns="http://www.w3.org/2000/svg">
<path d="M16.3822 0.927051C16.6815 0.00574017 17.985 0.00574017 18.2843 0.927051L21.599 11.1287C21.7329 11.5407 22.1168 11.8197 22.5501 11.8197H33.2767C34.2454 11.8197 34.6482 13.0593 33.8645 13.6287L25.1865 19.9336C24.836 20.1883 24.6893 20.6396 24.8232 21.0517L28.1379 31.2533C28.4373 32.1746 27.3828 32.9407 26.5991 32.3713L17.921 26.0664C17.5705 25.8117 17.096 25.8117 16.7455 26.0664L8.06744 32.3713C7.28373 32.9407 6.22925 32.1746 6.5286 31.2533L9.84331 21.0517C9.97719 20.6396 9.83053 20.1883 9.48004 19.9336L0.80202 13.6287C0.0183065 13.0593 0.421082 11.8197 1.38981 11.8197H12.1164C12.5497 11.8197 12.9336 11.5407 13.0675 11.1287L16.3822 0.927051Z" fill="#FEC74A"/>
</svg>
