<svg width="23" height="24" viewBox="0 0 23 24" fill="none" xmlns="http://www.w3.org/2000/svg">
<path d="M18.4471 5.34961C18.3594 5.27643 18.2383 5.25798 18.1328 5.30174L4.01736 11.1321C3.90195 11.1802 3.82728 11.2935 3.82863 11.4186C3.82998 11.5436 3.90707 11.6553 4.0235 11.701L7.90955 13.2101C8.00502 13.2473 8.11277 13.2344 8.19677 13.1757L13.352 9.50939C13.4829 9.41472 13.6648 9.4378 13.768 9.56216C13.8711 9.68651 13.8602 9.86955 13.7429 9.98072L9.44691 14.1202C9.38691 14.1781 9.35301 14.2578 9.35301 14.3412V18.4733C9.35341 18.6116 9.44623 18.7325 9.5797 18.7686C9.71316 18.8048 9.8543 18.7472 9.92438 18.628L11.868 15.2986C11.9102 15.2268 12.0018 15.2015 12.0748 15.2415L15.6504 17.2054C15.7353 17.2522 15.8373 17.2561 15.9255 17.216C16.0138 17.1758 16.0778 17.0964 16.0984 17.0016L18.5532 5.64788C18.5747 5.53655 18.5341 5.42233 18.4471 5.34961Z" fill="white"/>
<mask id="mask0_897_10826" style="mask-type:alpha" maskUnits="userSpaceOnUse" x="3" y="5" width="16" height="14">
<path d="M18.4471 5.34961C18.3594 5.27643 18.2383 5.25798 18.1328 5.30174L4.01736 11.1321C3.90195 11.1802 3.82728 11.2935 3.82863 11.4186C3.82998 11.5436 3.90707 11.6553 4.0235 11.701L7.90955 13.2101C8.00502 13.2473 8.11277 13.2344 8.19677 13.1757L13.352 9.50939C13.4829 9.41472 13.6648 9.4378 13.768 9.56216C13.8711 9.68651 13.8602 9.86955 13.7429 9.98072L9.44691 14.1202C9.38691 14.1781 9.35301 14.2578 9.35301 14.3412V18.4733C9.35341 18.6116 9.44623 18.7325 9.5797 18.7686C9.71316 18.8048 9.8543 18.7472 9.92438 18.628L11.868 15.2986C11.9102 15.2268 12.0018 15.2015 12.0748 15.2415L15.6504 17.2054C15.7353 17.2522 15.8373 17.2561 15.9255 17.216C16.0138 17.1758 16.0778 17.0964 16.0984 17.0016L18.5532 5.64788C18.5747 5.53655 18.5341 5.42233 18.4471 5.34961Z" fill="white"/>
</mask>
<g mask="url(#mask0_897_10826)">
</g>
</svg>
