<svg width="435" height="136" viewBox="0 0 435 136" fill="none" xmlns="http://www.w3.org/2000/svg">
<path d="M8 2H412C415.314 2 418 4.68629 418 8V56.7426C418 58.7388 417.007 60.6042 415.352 61.7192L330.329 118.977C329.339 119.644 328.172 120 326.978 120H7.99999C4.68628 120 2 117.314 2 114V8C2 4.68629 4.68629 2 8 2Z" fill="#E2404C" stroke="black" stroke-width="4"/>
<path d="M23 16H427C430.314 16 433 18.6863 433 22V70.7426C433 72.7388 432.007 74.6042 430.352 75.7192L345.329 132.977C344.339 133.644 343.172 134 341.978 134H23C19.6863 134 17 131.314 17 128V22C17 18.6863 19.6863 16 23 16Z" fill="#E7E7E7" stroke="black" stroke-width="4"/>
<path d="M364.491 133.696L432.696 87.3517V133.696H364.491Z" fill="#E2404C" stroke="black" stroke-width="4.6087"/>
</svg>
