<svg width="360" height="1001" viewBox="0 0 360 1001" fill="none" xmlns="http://www.w3.org/2000/svg">
<mask id="mask0_1050_1462" style="mask-type:luminance" maskUnits="userSpaceOnUse" x="0" y="0" width="451" height="978">
<path d="M0 0H450.898V977.244H0V0Z" fill="white"/>
</mask>
<g mask="url(#mask0_1050_1462)">
<path d="M205.656 0L205.407 6.13589C205.301 9.51035 205.078 19.6956 204.909 28.7898L204.66 45.3134L197.317 35.713C188.826 24.5436 187.692 24.0993 187.732 31.7818C187.745 34.8975 191.21 42.2089 195.386 48.0636C202.08 57.4389 203.019 60.3916 203.419 72.8434C203.717 82.2469 203.134 86.4481 201.738 85.3514C200.581 84.4515 199.683 82.0781 199.683 80.0816C199.683 78.085 198.785 76.4653 197.69 76.4653C196.596 76.4653 195.698 72.0785 195.698 66.7075C195.698 55.538 190.685 47.7261 187.545 53.9632C186.544 55.9542 186.131 58.9125 186.611 60.5716C187.67 64.2385 181.941 61.8482 178.085 57.034C176.635 55.223 174.299 53.8058 172.854 53.8058C167.468 53.8058 168.348 60.909 174.909 70.4081C182.71 81.7013 183.133 83.9566 177.956 85.6663C175.416 86.5099 174.544 88.4615 175.22 91.7235C176.341 97.1451 181.683 98.1068 185.303 93.5344C188.016 90.1093 188.083 90.2893 188.541 99.7491C188.919 107.645 188.577 107.825 181.754 102.899C175.078 98.0731 173.788 98.1912 173.788 103.922C173.788 106.588 176.701 111.65 180.26 115.17C185.116 119.973 185.659 121.244 182.501 120.204C179.752 119.298 177.875 120.198 177.088 122.802C175.371 128.449 173.984 127.982 160.716 117.06C154.204 111.695 147.893 107.752 146.71 108.326C142.565 110.334 145.198 119.94 151.006 123.978L156.855 127.993L151.505 128.781C148.582 129.219 145.727 131.143 145.153 133.027C144.037 136.705 149.018 140.316 152.003 137.982C152.999 137.206 153.866 137.774 153.866 139.242C153.866 140.709 155.436 141.964 157.353 142.076C159.884 142.217 160.062 142.633 158.038 143.645C155.926 144.702 156.344 146.131 159.844 149.466L164.514 153.875L156.17 155.686C147.591 157.514 145.634 161.564 150.757 166.935C152.688 168.959 154.72 169.162 156.98 167.564C160.738 164.904 167.81 166.389 167.81 169.842C167.81 171.068 169.603 172.126 171.795 172.126C173.988 172.126 175.781 170.995 175.781 169.606C175.781 168.222 177.795 167.126 180.26 167.171L184.743 167.25L179.824 172.362C176.003 176.377 175.532 177.947 177.649 179.6C180.638 181.934 185.801 180.224 188.354 176.057C189.275 174.55 189.52 176.439 188.853 180.309C187.856 186.073 188.301 187.232 191.65 187.232C193.865 187.232 195.738 185.815 195.822 184.082C195.929 181.934 196.312 182.069 197.068 184.476C197.873 187.052 198.882 186.349 200.742 181.957L203.295 175.899L205.781 182.823C207.151 186.625 207.64 190.545 206.839 191.557C206.039 192.569 198.9 193.801 190.965 194.313C177.693 195.156 175.772 194.65 167.001 187.626C158.274 180.624 151.878 179.454 151.878 184.87C151.878 186.062 154.342 188.84 157.353 191.006L162.833 194.937L155.859 193.289C148.965 191.692 137.361 184.139 132.268 177.868C130.822 176.085 127.909 174.645 125.796 174.645C121.736 174.645 120.681 179.51 123.866 183.531C125.058 185.044 121.998 186.259 115.522 186.76C109.887 187.193 104.514 188.115 103.633 188.801C97.086 193.919 113.223 203.21 124.925 201.073L132.953 199.661L127.353 203.671C123.959 206.106 121.967 209.363 122.372 211.933C123.341 218.086 131.948 216.022 137.436 208.311C139.989 204.723 143.441 202.372 145.402 202.963C148.151 203.789 147.795 204.627 143.596 206.821C136.814 210.358 134.759 214.503 138.868 216.494C140.643 217.355 141.648 219.509 141.106 221.292C140.568 223.074 141.462 225.172 143.036 225.937C144.611 226.696 145.9 226.325 145.9 225.15C145.9 223.091 152.336 219.565 157.167 218.935C158.439 218.766 161.352 216.438 163.643 213.817C165.933 211.202 167.81 209.903 167.81 210.909C167.81 213.525 163.46 218.659 158.287 222.158C155.846 223.811 153.871 226.286 153.866 227.664C153.866 232.416 160 233.153 163.767 228.845C167.361 224.733 167.481 224.773 166.445 229.79C164.924 237.135 168.998 236.403 173.041 228.608C175.567 223.732 176.808 222.967 178.085 225.465C179.468 228.17 180.033 228.147 181.443 225.386C182.39 223.536 184.854 222.298 186.922 222.63C194.959 223.924 205.527 214.841 205.843 206.348C206.017 201.765 206.217 201.9 207.462 207.366C208.65 212.563 207.671 215.088 201.8 221.764C197.886 226.213 189.16 233.53 182.377 238.051L170.052 246.229L160.467 240.172C155.196 236.848 149.761 233.895 148.391 233.563C144.837 232.714 145.318 237.573 149.387 243.636C152.523 248.304 152.505 248.433 149.45 245.447C147.582 243.619 145.291 242.736 144.344 243.479C143.396 244.221 140.123 243.203 137.063 241.195C129.724 236.387 127.438 236.623 128.785 241.983C129.675 245.537 128.741 246.336 123.928 246.15C120.646 246.032 117.497 245.267 116.892 244.502C114.468 241.437 108.054 245.948 108.054 250.717C108.054 254.586 109.024 255.469 112.226 254.412C116.225 253.09 116.251 253.208 112.911 257.876C109.304 262.91 109.896 263.602 117.452 262.831C120.931 262.477 121.651 263.326 120.628 266.684C119.552 270.232 120.241 270.829 124.364 269.833C128.487 268.838 129.195 269.428 128.412 273.213C127.344 278.359 128.607 278.91 133.576 275.575C138.459 272.296 144.624 282.712 140.612 287.453C138.361 290.108 137.681 290.001 136.814 287.138C136.218 285.176 132.686 283.55 128.785 283.365C124.956 283.179 122.274 284.034 122.87 285.249C123.466 286.464 122.198 286.84 120.005 286.115C114.975 284.456 114.819 288.275 119.756 292.172C122.372 294.236 123.181 297.009 122.496 301.536C121.291 309.5 120.988 309.567 113.658 301.772C110.403 298.308 106.44 295.479 104.878 295.479C101.543 295.479 101.374 296.711 103.949 302.796C106.039 307.728 104.727 307.846 89.6315 304.208C84.7122 303.021 82.1592 303.353 82.1592 305.152C82.1592 308.414 92.5048 315.619 97.2239 315.619C99.9459 315.619 100.106 316.249 98.0956 319.314C96.1164 322.328 96.1875 323.369 98.5315 324.505C100.133 325.281 102.277 325.68 103.264 325.45C107.423 324.466 110.016 325.894 109.549 328.836C109.242 330.765 111.168 331.906 114.53 331.822C118.742 331.715 120.019 332.874 120.068 336.856C120.134 341.827 120.29 341.777 124.053 336.068C127.162 331.355 127.976 331.001 127.976 334.342C127.976 336.653 128.87 337.874 129.964 337.013C131.063 336.158 132.811 338.391 133.887 341.968C134.963 345.55 137.209 349.11 138.868 349.915C140.527 350.719 141.92 352.94 141.92 354.87C141.915 356.799 143.356 358.413 145.153 358.413C146.95 358.413 149.552 360.336 150.944 362.738C153.328 366.86 153.769 366.826 158.163 362.108L162.833 357.153L159.284 362.423C157.14 365.64 150.499 369.307 142.106 371.866C124.564 377.214 120.326 377.045 113.16 371.078C106.524 365.55 103.286 366.573 105.07 373.671C106.071 377.658 105.305 378.553 100.586 378.553C97.4463 378.553 93.9681 377.422 92.8695 376.033C91.5307 374.34 89.5915 374.672 87.0162 377.057C83.3201 380.476 83.409 380.791 89.5692 385.24C94.2127 388.592 95.6849 391.139 94.8576 394.441C94.1238 397.388 94.6975 398.828 96.4144 398.535C102.183 397.54 104.42 398.783 103.326 402.388C101.414 408.681 108.686 411.684 114.219 406.87C117.848 403.715 118.382 403.563 116.585 406.398C113.218 411.695 116.456 417.23 121.687 415.132C129.23 412.106 131.263 416.948 123.866 420.323C114.366 424.665 104.887 424.575 101.334 420.087C97.4062 415.121 91.3039 415.059 92.8072 420.008C93.7368 423.073 92.3491 423.478 85.0236 422.213C74.3089 420.357 72.9657 424.541 82.8486 429.057C87.6389 431.245 89.3335 433.376 88.6975 436.453C87.6344 441.593 93.9236 444.45 98.7806 441.014C101.423 439.147 102.081 439.872 102.081 444.866C102.081 449.973 102.81 450.845 106.377 449.664C109.9 448.5 110.412 449 109.3 452.656C108.214 456.238 108.77 456.941 111.977 455.878C114.188 455.153 116.025 455.569 116.025 456.823C116.025 461.238 120.237 459.022 125.547 451.868C131.943 443.247 135.733 441.346 140.425 444.394C145.883 447.943 144.517 450.805 137.934 449.585C131.076 448.314 130.066 452.15 135.008 461.075C137.903 466.294 137.89 466.66 134.203 466.66C132.023 466.66 128.874 468.358 127.229 470.434C125.587 472.509 122.91 474.213 121.255 474.213C119.596 474.213 117.719 475.27 117.083 476.569C116.447 477.869 112.44 478.847 108.179 478.774C103.922 478.701 99.2787 479.545 97.8465 480.664C96.4188 481.777 92.3446 482.458 88.822 482.154C83.5202 481.704 82.3193 482.604 81.7901 487.345C81.3275 491.473 79.7708 493.132 76.1859 493.329C73.446 493.475 70.3103 493.914 69.2162 494.268C68.1176 494.628 65.6535 494.673 63.7365 494.426C61.8195 494.184 60.2494 494.988 60.2494 496.158C60.2494 499.493 71.2755 506.934 76.2481 506.934C80.6069 506.934 80.687 507.08 77.1822 511.973C73.664 516.883 73.6995 517.007 78.8011 517.007C82.7019 517.007 83.7337 517.946 82.8442 520.859C81.879 524.042 82.7196 524.459 87.3898 523.064C90.5433 522.125 93.5633 521.399 94.1149 521.41C100.324 521.562 101.769 522.428 100.835 525.499C98.7539 532.355 103.913 532.158 106.876 525.263C109.691 518.7 109.847 518.615 109.922 523.93C109.967 527.046 110.718 529.678 111.541 529.83C123.715 532.079 125.712 531.331 128.163 523.851L130.653 516.298L132.397 522.276L134.136 528.334L137.997 522.04C141.817 515.758 141.813 515.747 141.857 521.41C141.915 529.048 145.469 528.615 147.021 520.781C147.711 517.322 149.156 514.487 150.197 514.487C151.238 514.487 151.447 515.708 150.695 517.243C149.743 519.189 151.287 519.515 155.801 518.267C160.591 516.934 162.086 517.237 161.463 519.599C160.24 524.239 147.764 532.107 141.608 532.107C138.695 532.107 135.906 533.525 135.381 535.257C134.794 537.192 130.902 538.288 125.236 538.165C120.166 538.058 116.025 538.845 116.025 539.897C116.025 544.745 122.936 549.986 128.412 549.261C131.663 548.828 134.474 549.469 134.634 550.757C135.163 554.947 123.488 557.303 95.1067 558.698C63.1272 560.273 50.2909 562.039 50.2909 564.755C50.2909 565.801 48.0492 566.128 45.3093 565.464C42.4806 564.783 40.3323 565.413 40.3323 566.96C40.3323 570.486 46.8394 574.907 52.0967 574.907C54.3606 574.907 56.2642 576.037 56.2642 577.421C56.2642 578.804 55.2902 579.94 54.1515 579.94C53.0085 579.94 50.0952 582.28 47.6756 585.21L43.3167 590.559L49.7927 589.456C54.0759 588.72 56.2642 589.372 56.2642 591.425C56.2642 593.292 57.8565 594.023 60.2494 593.236C62.4778 592.499 64.2347 593.157 64.2347 594.732C64.2347 598.792 69.3007 598.202 72.2006 593.787C73.5661 591.706 75.5543 590.008 76.684 590.008C77.8137 590.008 77.3156 592.038 75.5009 594.574C73.6862 597.105 72.2006 599.934 72.2006 600.868C72.2006 603.534 79.7975 602.875 81.1674 600.08C83.1377 596.048 85.7753 597.156 87.1407 602.594C88.7419 608.966 91.0148 608.927 98.2202 602.437L104.011 597.246L102.766 604.956C101.267 614.433 104.883 615.198 112.973 607.161C118.289 601.874 118.435 601.88 116.336 606.846C113.859 612.69 115.051 615.462 119.2 613.454C120.748 612.701 123.359 613.471 124.987 615.181C127.046 617.341 127.976 617.459 127.976 615.496C127.976 613.944 129.319 612.667 130.965 612.667C132.606 612.667 133.949 614.225 133.949 616.205C133.949 618.651 135.715 619.568 139.429 619.039C160.164 616.07 133.344 631.311 109.237 636.187C93.4788 639.376 91.8954 639.252 86.7049 634.927C83.6359 632.374 80.0465 630.299 78.6766 630.287C74.558 630.259 75.8701 635.298 80.6692 637.919C83.9606 639.713 82.7686 639.905 76.1859 638.628C71.2577 637.666 64.9819 637.036 62.2421 637.211C59.5067 637.385 52.8172 635.889 47.4265 633.904C42.0402 631.924 37.33 630.625 36.9698 631.075C34.8926 633.701 47.6444 644.083 54.7742 645.546L63.2384 647.278L55.7705 647.593C50.5666 647.812 48.2983 649.055 48.2983 651.687C48.2983 653.762 49.8683 655.641 51.7853 655.855C53.7023 656.063 56.1664 656.473 57.265 656.799C58.3591 657.12 60.5386 657.502 62.1175 657.666C64.2302 657.879 63.9678 658.892 61.1212 661.518C56.202 666.068 58.5371 669.336 64.0479 665.607C67.4771 663.29 68.2199 663.531 68.2199 666.945C68.2199 670.174 69.6432 670.832 74.6914 669.937C78.2541 669.302 82.9598 667.963 85.1526 666.945C89.0755 665.123 89.0222 665.146 85.2149 669.071C81.3319 673.064 82.1637 673.992 88.6352 673.16C90.6189 672.907 92.1223 674.459 92.1223 676.703C92.1223 682.085 93.7368 681.641 98.4737 674.971L102.517 669.307L99.2787 676.152C97.5174 679.909 96.1075 684.127 96.1075 685.589C96.1075 689.481 105.879 686.607 110.549 681.343C114.459 676.928 114.49 677.012 112.973 683.154C110.87 691.686 108.423 693.485 90.0674 700.459C74.8204 706.246 73.8997 706.32 65.6668 702.349C56.6912 698.013 44.3175 696.781 44.3175 700.223C44.3175 701.331 45.3583 703.665 46.6793 705.335C48.2983 707.383 45.634 707.062 38.5265 704.391C32.7132 702.208 26.5931 701.05 24.894 701.877C22.2921 703.136 22.5278 704.391 26.3885 709.582L30.9341 715.717L24.2091 713.282C15.5448 710.138 5.01689 710.144 3.4824 713.282C1.89899 716.516 15.2201 723.411 23.0882 723.428H29.3774L23.5241 729.328C17.7509 735.171 17.8043 742.831 23.5864 740.03C25.5123 739.097 26.3885 740.615 26.3885 744.907C26.3885 749.366 27.4293 751.121 30.1869 751.121C32.2996 751.121 35.4175 752.853 37.0943 754.974C39.6295 758.179 40.8215 758.264 44.193 755.604C46.4257 753.843 48.2983 751.543 48.2983 750.491C48.2983 749.44 49.8683 750.587 51.8476 753.011C55.6638 757.679 56.749 763.708 53.7779 763.708C52.7994 763.708 52.6526 764.928 53.4043 766.458C54.3517 768.398 52.875 768.764 48.5473 767.56C44.5755 766.458 42.3249 766.773 42.3249 768.505C42.3249 770.046 38.4464 771.261 33.3582 771.261C24.0267 771.261 22.2654 773.443 27.3848 778.814C29.3774 780.906 33.5939 781.458 39.8341 780.462L49.2946 778.972L41.889 783.927C36.7429 787.374 34.8393 790.102 35.6621 792.813C36.4049 795.254 38.0639 796.075 40.0832 795.017C41.8579 794.089 44.6644 793.071 46.3056 792.734C47.9513 792.402 48.1737 792.61 46.8038 793.206C41.76 795.4 44.3664 799.443 49.7927 797.852C53.7157 796.699 54.4406 796.958 52.3457 798.712C47.0751 803.133 51.7542 804.415 58.0745 800.287C61.4592 798.071 64.2347 797.329 64.2347 798.634C64.2347 799.938 63.1138 801.558 61.7439 802.177C60.374 802.795 59.947 804.235 60.8099 805.399C61.6727 806.569 64.933 806.282 68.0953 804.769C72.8055 802.525 73.6995 802.677 72.8233 805.557C72.0539 808.093 72.7655 808.56 75.4386 807.368C78.5476 805.979 78.7478 806.305 76.5595 809.258C74.5224 812.002 67.6639 812.666 45.1893 812.244C27.794 811.923 16.4299 812.671 16.4299 814.134C16.4299 815.467 17.8176 816.574 19.5389 816.574C21.2602 816.574 23.9155 818.172 25.4544 820.112C27.8518 823.143 27.8029 823.858 25.1431 825.146C23.4396 825.972 19.2142 826.619 15.7449 826.642C8.42389 826.687 3.40234 829.965 5.15921 833.565C7.33418 838.008 17.2216 838.818 25.3922 835.218C36.2848 830.415 36.8764 830.691 31.241 837.811C24.218 846.692 24.7295 852.04 32.2996 849.295C35.5509 848.12 39.1358 846.405 40.27 845.522C41.3997 844.639 42.4049 846.005 42.5695 848.508C42.7385 851.016 43.0098 854.352 43.1299 855.983C43.2545 857.619 43.9572 859.779 44.6867 860.707C46.2567 862.686 58.2568 854.2 58.2568 851.106C58.2568 849.937 59.0708 849.655 60.1249 850.477C61.3525 851.438 61.3525 854.267 60.1249 858.345C59.0708 861.849 58.2568 865.847 58.2568 867.236C58.2568 870.56 67.6728 861.95 77.1199 850.004C84.1652 841.096 85.1748 842.62 78.6143 852.288C77.0042 854.661 76.2837 858.525 76.9953 860.859C78.1384 864.632 78.7967 864.419 83.3423 859.053L88.5107 853.075L87.8257 859.368C87.1941 865.144 85.8375 865.903 71.2043 868.963C60.9211 871.117 54.1916 871.443 52.2212 869.908C47.2263 866.01 36.3471 863.699 36.3471 866.528C36.3471 867.923 37.9171 869.604 39.8341 870.223C41.7511 870.841 38.8378 870.83 33.3582 870.223C25.3521 869.334 23.8888 869.717 25.8903 872.27C29.6976 877.129 28.8437 878.935 23.3996 877.618C16.9592 876.061 7.92574 878.968 9.45577 882.101C10.114 883.445 12.6893 884.542 15.1845 884.542C23.6976 884.542 22.5011 888.006 12.1333 893.27C-5.54215 902.252 -1.68592 908.928 16.4877 900.823C25.6902 896.724 29.284 897.432 22.5278 902.005C20.2416 903.551 18.4181 906.594 18.4181 908.77C18.4181 911.807 19.6279 912.347 23.7109 911.054C28.4122 909.558 28.7636 909.805 26.4508 913.331C21.0823 921.509 26.7754 921.526 35.6621 913.331C39.8119 909.507 39.9765 909.547 38.8378 915.142C37.7659 920.39 37.9794 920.648 41.0172 917.505C44.0106 914.394 44.2152 914.541 43.0054 918.759C41.8178 922.926 42.2849 922.797 46.617 917.82C51.6919 911.987 54.8143 912.477 52.9062 918.759C51.3806 923.77 56.1575 923.106 63.7365 917.268C67.3437 914.484 70.208 913.528 70.208 915.064C70.208 916.768 72.294 917.212 75.6877 916.245C79.3927 915.182 80.1978 915.407 78.1785 916.953C76.5328 918.208 70.257 920.497 64.2347 922.066C51.2605 925.446 47.2308 928.202 49.2323 932.29C50.6067 935.102 53.2842 934.793 65.231 930.716C68.2821 929.675 67.6995 931.278 62.7402 937.324C59.1775 941.671 56.2642 945.754 56.2642 946.452C56.2642 948.955 67.3392 945.844 73.6951 941.576C80.6781 936.88 81.75 938.319 77.1199 946.058C73.0724 952.818 73.4638 955.799 78.1785 954.241C80.7671 953.386 82.1592 954.219 82.1592 956.519C82.1592 961.232 83.9828 960.973 88.6352 955.659C92.3091 951.452 92.4781 951.48 91.8109 956.283C90.7434 963.965 101.796 961.648 107.681 952.981L112.289 946.216L110.981 954.399C109.251 965.225 114.25 965.506 121.998 955.029C125.071 950.872 127.842 947.475 128.225 947.475C128.607 947.475 129.057 950.406 129.221 954.005C129.675 963.903 132.917 966.575 137.063 960.456C140.336 955.625 140.803 955.529 143.227 959.511C145.625 963.448 145.891 963.392 147.021 958.33C147.751 955.057 149.33 953.381 150.944 954.162C152.661 954.995 154.138 953.021 154.992 948.735C155.912 944.084 156.842 942.914 157.914 945.113C158.777 946.874 161.343 948.685 163.643 949.129C166.885 949.753 168.793 947.453 172.169 938.662C176.532 927.313 181.14 922.932 178.77 932.369C177.239 938.466 178.391 938.629 184.805 933.314C187.505 931.081 189.782 926.829 189.911 923.877C190.094 919.574 190.36 919.383 191.094 922.932C192.607 930.266 195.698 925.17 195.76 915.221C195.813 907.691 196.169 906.774 197.815 910.345C198.931 912.769 201.711 914.749 203.98 914.749C207.902 914.749 208.058 915.671 206.782 934.259C205.888 947.25 203.797 957.846 200.555 965.962C198.656 970.714 197.063 974.949 196.258 977.289H245.811C248.004 975.067 247.016 971.164 244.752 964.308C241.216 953.628 239.855 931.812 242.635 930.643C243.72 930.181 246.162 933.162 248.11 937.33C251.744 945.096 256.205 947.959 254.151 941.182C251.798 933.432 255.503 937.678 258.198 945.822C260.346 952.323 262.068 954.269 265.666 953.926C268.246 953.684 271.648 954.663 273.196 956.131C275.215 958.037 276.238 957.959 276.808 955.816C277.337 953.831 278.911 954.466 281.478 957.7C286.602 964.185 289.155 963.87 287.949 956.918C287.375 953.606 287.66 952.346 288.634 953.926C290.929 957.649 297.285 960.355 297.285 957.627C297.285 955.085 308.28 955.985 314.031 958.96C317.06 960.529 317.616 960.034 316.646 956.84C315.97 954.612 316.46 952.335 317.767 951.722C319.582 950.878 319.604 949.787 317.705 947.239C313.181 941.182 315.054 940.4 322.495 945.198C330.724 950.496 333.019 949.719 329.033 943.072C326.903 939.517 326.872 939.23 328.971 941.576C330.421 943.201 332.814 943.96 334.322 943.229C335.834 942.498 337.124 942.903 337.124 944.174C337.124 945.44 338.338 948.617 339.864 951.255C342.252 955.383 343.128 955.563 345.966 952.588C348.822 949.59 349.627 949.956 352.438 955.029L355.676 960.85L357.481 954.792C359.145 949.163 359.452 949.056 361.836 953.139C364.989 958.544 366.399 958.622 370.304 953.69C372.733 950.625 372.866 949.095 370.927 946.137C369.588 944.101 369.086 942.442 369.806 942.442C370.527 942.442 370.082 939.894 368.81 936.778C366.875 932.037 367.6 932.313 373.227 938.747C385.623 952.908 386.441 953.431 389.972 948.971C391.734 946.75 392.468 943.567 391.654 941.812C390.822 940.012 391.845 940.316 394.02 942.521C404.548 953.206 415.209 955.31 408.026 945.276C404.779 940.743 404.89 940.389 410.076 938.747L415.494 937.015L409.645 931.036C401.99 923.129 406.082 923.112 417.051 931.036C421.819 934.478 426.885 937.313 428.255 937.33C432.275 937.375 431.114 933.365 426.262 930.406C422.228 927.949 422.535 927.65 429.811 927.493C434.259 927.403 439.636 925.671 441.762 923.641C445.441 920.125 445.392 919.945 439.708 919.867C431.177 919.743 400.838 912.763 394.518 909.479C386.774 905.458 385.307 899.299 392.961 902.949C399.673 906.155 403.067 903.506 398.125 898.939C395.256 896.285 396.182 895.97 403.792 896.735C413.506 897.713 415.574 894.62 408.333 889.969C404.459 887.478 405.113 887.168 413.563 887.691C424.963 888.394 428.179 883.659 418.358 880.61L411.82 878.563L418.296 877.618C425.875 876.477 426.542 873.884 420.289 869.829C416.624 867.461 418.176 867.135 428.753 868.26C440.673 869.52 441.34 869.323 437.777 865.74C435.651 863.603 432.351 861.888 430.434 861.888C428.517 861.888 426.373 860.634 425.639 859.132C424.803 857.417 426.053 856.539 429.002 856.849C437.324 857.726 442.696 856.899 442.696 854.65C442.696 853.44 436.381 851.674 428.69 850.713C421 849.757 415.134 848.058 415.681 846.939C416.228 845.82 421.97 843.407 428.441 841.59C440.65 838.165 448.381 833.042 445.934 829.949C444.68 828.363 433.596 830.646 418.794 835.612C414.244 837.136 414.36 836.664 420.6 829.87C430.861 818.689 425.07 817.536 410.263 827.823C395.399 838.148 386.886 838.992 370.424 831.833C351.748 823.711 321.45 804.275 319.195 798.954C316.406 792.357 317.99 792.554 323.056 799.427C325.288 802.452 327.165 804.01 327.165 802.885C327.165 801.761 328.509 802.261 330.15 803.988C332.623 806.575 333.139 806.333 333.139 802.57C333.139 798.78 334.157 799.247 339.366 805.405L345.588 812.801L344.405 804.696C343.213 796.705 343.293 796.626 348.639 799.505C351.615 801.108 355.4 803.723 357.041 805.326C364.767 812.84 365.661 812.671 364.264 803.83C363.206 797.149 363.415 795.99 365.323 798.403C368.788 802.784 376.963 802.284 376.963 797.694C376.963 793.004 380.178 792.768 382.313 797.301C383.19 799.162 386.401 802.632 389.412 805.09C393.931 808.768 394.887 808.909 394.887 805.877C394.887 803.853 393.095 800.203 390.906 797.694C388.714 795.186 386.921 791.935 386.921 790.535C386.921 789.134 387.428 788.735 388.104 789.59C388.78 790.451 390.751 789.393 392.463 787.234C394.616 784.506 397.854 783.679 403.044 784.556C408.204 785.434 410.864 784.765 411.571 782.431C412.354 779.86 414.164 779.596 419.168 781.413C436.732 787.779 439.966 780.518 423.024 772.757C411.571 767.51 410.121 764.855 420.845 768.742C434.473 773.685 452.201 769.945 444.689 763.708C443.043 762.347 437.666 761.065 432.738 760.879C425.123 760.592 424.625 760.339 429.562 758.989C432.756 758.112 435.771 755.817 436.283 753.877C437.061 750.924 433.917 750.593 416.988 752.066C397.053 753.804 396.733 753.804 399.184 748.843C402.831 741.459 400.327 740.182 390.408 744.434C385.044 746.734 378.164 747.702 372.791 746.875C361.275 745.098 323.176 728.962 318.701 723.985C314.022 718.777 314.285 715.166 319.199 717.14C321.432 718.035 323.18 717.579 323.18 716.117C323.18 713.383 326.165 714.171 336.128 719.654C339.414 721.465 346.629 723.001 352.189 723.04C357.748 723.074 363.126 723.344 364.14 723.591C368.801 724.716 369.295 722.995 365.821 717.765C363.321 714.008 364.104 714.43 368.125 719.024C375.015 726.904 376.963 727.562 376.963 722.095C376.963 718.771 377.603 718.794 382.069 722.489C385.071 724.975 387.766 725.756 388.54 724.373C389.27 723.074 392.548 720.537 395.821 718.709C401.541 715.526 401.635 715.279 397.938 711.865C393.428 707.698 394.576 707.354 401.675 710.768C405.531 712.619 406.843 712.444 406.843 709.981C406.843 707.99 411.896 705.375 419.79 703.294C426.911 701.415 432.738 698.851 432.738 697.63C432.738 696.41 433.578 696.151 434.664 697C435.753 697.85 438.231 697.405 440.143 696.056C443.181 693.907 442.906 693.334 438.089 691.809C433.934 690.488 432.871 688.947 433.734 685.516C434.579 682.147 433.69 680.792 430.309 680.162C427.085 679.566 429.375 677.794 438.151 674.262C451.757 668.79 455.115 663.835 443.195 666.788C432.186 669.521 404.85 670.14 404.85 667.654C404.85 666.478 405.744 665.534 406.843 665.534C407.937 665.534 408.831 664.386 408.831 663.014C408.831 661.642 404.575 660.601 399.371 660.731C386.303 661.068 365.407 655.545 364.14 651.372C363.424 649.021 364.714 647.908 368.058 647.908C370.767 647.908 372.977 646.811 372.977 645.472C372.977 644.128 374.321 643.65 375.966 644.449C377.608 645.247 378.955 644.567 378.955 642.953C378.955 641.024 380.454 641.395 383.372 643.976C385.809 646.13 390.066 647.88 392.837 647.829L397.876 647.75L393.273 642.874L388.727 638.077L398.25 637.289L407.835 636.423L400.865 632.177L393.891 627.931L399.993 627.852C403.881 627.785 407.857 625.473 410.824 621.48C413.399 618.016 416.419 615.187 417.611 615.187C418.799 615.187 420.956 612.87 422.339 610.069C425.982 602.701 421.343 601.222 409.89 606.138C397.538 611.435 394.981 611.289 396.257 605.114C397.516 599.034 397.187 599 384.68 604.169C375.166 608.106 374.174 607.988 358.971 602.521C338.472 595.142 333.214 588.23 349.013 589.383C350.641 589.501 352.598 588.36 353.372 586.785C354.35 584.783 356 585.25 358.785 588.438C361.907 592.01 364.518 592.623 370.86 591.267C379.916 589.338 380.476 588.382 375.468 583.169C371.888 579.434 373.209 579.552 381.753 583.877C384.817 585.424 385.329 584.957 384.306 581.594C383.363 578.489 384.124 577.426 387.17 577.426C389.946 577.426 390.955 576.229 390.222 573.805C389.617 571.819 390.159 569.62 391.467 568.928C393.135 568.04 392.908 566.6 390.595 564.21C387.571 561.083 387.691 560.352 392.09 555.003C399.264 546.275 397.93 544.452 387.419 548.71C361.28 559.306 351.695 559.935 345.277 551.308C341.643 546.415 341.429 545.082 343.844 543.912C345.468 543.125 349.484 543.744 352.811 545.33C361.324 549.39 363.143 545.341 356.049 538.091C351.072 533.007 350.739 532.062 354.057 532.428C361.022 533.187 365.012 532.186 365.012 529.593C365.012 528.21 363.441 527.006 361.524 526.916C358.7 526.793 358.802 526.298 362.209 524.56C364.522 523.379 366.951 520.646 367.627 518.424C368.69 514.92 368.294 514.763 364.451 517.479C357.504 522.395 315.988 521.641 307.244 516.456C301.132 512.828 300.808 512.311 304.94 512.131C308.716 511.968 309.485 510.916 308.614 506.703C307.635 501.979 307.853 501.799 310.855 505.05C315.219 509.774 321.188 512.417 321.188 509.611C321.188 508.402 322.98 507.946 325.173 508.666C327.401 509.403 329.158 508.745 329.158 507.176C329.158 505.629 331.395 504.42 334.135 504.42C340.758 504.42 340.429 501.917 332.765 493.959L326.356 487.351L336.999 489.471C347.976 491.665 351.971 490.753 349.885 486.485C347.843 482.312 353.198 476.727 359.22 476.727C366.008 476.727 366.946 472.571 360.528 470.827C357.984 470.135 359.06 469.697 363.019 469.882C367.551 470.102 369.815 469.202 369.49 467.211C369.219 465.524 369.944 464.14 371.172 464.14C372.675 464.14 372.599 462.858 370.86 460.209C369.215 457.695 366.413 456.694 363.143 457.532C360.324 458.263 359.158 458.285 360.528 457.532C365.127 455.007 363.09 450.974 358.037 452.577C353.999 453.859 353.376 453.364 354.43 449.906C355.369 446.807 354.96 446.244 352.998 447.78C351.526 448.927 348.039 450.08 345.214 450.372C342.395 450.67 337.871 451.694 335.131 452.656L330.154 454.388L335.629 448.488C341.959 441.621 342.879 437.6 337.248 441.408C331.693 445.164 327.615 444.85 330.715 440.935C335.185 435.283 333.419 430.829 328.847 436.217C326.507 438.967 321.81 442.892 318.385 444.945C306.216 452.245 273.383 442.307 273.383 431.335C273.383 429.141 272.271 425.998 270.954 424.338C269.357 422.314 269.313 421.346 270.767 421.346C271.964 421.346 273.436 423.045 274.068 425.12C274.797 427.522 277.639 428.776 281.785 428.585C285.378 428.416 290.338 429.141 292.802 430.159C296.484 431.678 297.285 431.003 297.285 426.695V421.504L304.068 426.537C308.947 430.176 311.264 430.834 312.287 428.742C313.07 427.139 312.488 424.755 310.98 423.472C308.614 421.459 320.24 421.729 328.162 423.866C329.256 424.158 332.187 423.545 334.695 422.527C338.903 420.818 338.979 420.306 336.065 416.234C333.139 412.151 333.299 411.74 337.996 410.256C343.751 408.428 344.894 403.715 339.615 403.569C337.417 403.507 338.338 402.213 342.101 400.025C345.388 398.119 350.712 393.805 353.928 390.431L359.719 384.295L352.438 382.563C348.399 381.607 345.09 379.745 345.09 378.395C345.09 376.978 342.773 376.612 339.615 377.608C334.829 379.115 334.406 378.89 336.626 375.482C340.473 369.582 334.74 367.777 328.842 373.047C326.085 375.51 320.093 377.343 314.342 377.45C306.496 377.597 305.376 377.102 308.8 375.167C312.674 372.985 313.057 370.932 311.353 361.326C311.273 360.865 308.196 362.845 304.504 365.73C300.817 368.609 294.763 370.938 291.058 370.921C278.64 370.87 257.264 360.415 243.689 347.716C238.463 342.823 239.571 341.81 245.62 345.905C248.755 348.025 249.494 347.676 249.543 344.015C249.6 339.724 249.698 339.679 251.66 343.936C252.789 346.388 254.52 347.783 255.516 347.007C256.517 346.225 259.595 347.468 262.366 349.757C267.347 353.885 267.378 353.823 267.405 346.692C267.423 342.721 268.094 340.764 268.899 342.288C270.643 345.584 278.169 350.86 281.162 350.86C282.332 350.86 283.421 348.312 283.528 345.196C283.715 339.819 283.768 339.853 285.085 345.826C285.845 349.285 286.891 351.596 287.389 351.017C287.887 350.438 290.16 351.214 292.428 352.749C295.795 355.027 297.067 354.656 299.278 350.781C300.768 348.171 302.756 346.664 303.699 347.401C304.637 348.132 304.784 345.809 304.068 342.204C302.827 335.939 302.996 335.753 308.24 338.273C314.716 341.383 316.731 339.842 313.221 334.499C311.122 331.305 311.331 330.72 314.28 330.72C317.634 330.72 317.585 330.455 314.342 325.922C312.456 323.29 311.763 320.506 312.786 319.708C313.804 318.909 316.206 320.467 318.136 323.166C321.174 327.407 323.127 327.789 330.835 325.844C331.244 325.742 330.626 324.162 329.407 322.306C326.814 318.358 328.348 315.619 333.201 315.619C335.087 315.619 338.77 313.386 341.358 310.658L346.086 305.704L340.113 305.231C336.826 304.973 331.938 305.006 329.282 305.31C325.07 305.794 324.75 305.332 327.041 301.851C331.395 295.215 328.331 295.237 320.627 301.851C312.279 309.022 307.248 310.27 311.229 304.208C313.333 301.002 313.217 300.603 310.482 301.93C306.679 303.775 306.127 300.349 309.548 296.03C314.649 289.579 309.236 290.547 302.952 297.211C290.569 310.321 289.048 310.737 275.064 305.389C260.4 299.781 250.566 292.779 247.612 285.8C245.802 281.531 246.216 280.924 250.539 281.239C253.265 281.436 255.916 283.359 256.45 285.485C256.988 287.617 259.314 289.517 261.618 289.737C264.981 290.057 265.568 289.051 264.67 284.703C263.669 279.872 264.091 280.046 268.214 286.115C270.767 289.866 274.828 292.959 277.306 292.959C281.211 292.959 281.673 292.003 280.664 285.642C279.156 276.115 283.835 273.489 288.696 281.16C292.019 286.402 303.223 290.086 303.263 285.957C303.272 284.934 300.359 281.076 296.787 277.308C291.837 272.077 291.156 270.435 293.86 270.384C295.813 270.345 297.903 271.931 298.53 274.001C299.158 276.07 300.425 277.229 301.333 276.52C302.236 275.812 303.508 276.368 304.197 277.78C304.882 279.186 307.849 280.373 310.731 280.373C315.748 280.373 315.801 280.187 312.101 276.756C308.369 273.292 308.436 273.073 313.844 270.463C316.927 268.973 320.511 267.758 321.81 267.707C323.109 267.657 321.935 266.009 319.195 264.091C314.342 260.688 314.391 260.615 321.935 261.493C326.823 262.066 330.719 261.093 332.516 258.821C336.897 253.287 333.793 250.166 323.927 250.166C318.417 250.166 315.445 249.125 316.21 247.567C318.719 242.438 311.362 242.348 303.076 247.41C292.913 253.613 291.027 253.928 292.553 248.906C293.273 246.532 292.535 245.132 290.565 245.132C288.59 245.132 287.851 243.726 288.572 241.353C289.911 236.938 289.221 236.786 282.656 239.941C278.391 241.988 277.919 241.673 278.796 237.421C279.845 232.365 276.501 230.594 274.317 235.059C273.627 236.465 269.411 240.031 264.919 242.927C257.691 247.584 255.823 247.815 248.733 245.132C242.119 242.629 241.274 241.673 244.063 239.705C245.922 238.389 247.488 235.599 247.488 233.49C247.488 230.509 245.446 229.801 238.463 230.341C231.667 230.869 228.54 229.801 225.64 226.094C221.268 220.504 217.038 200.544 219.787 198.401C221.486 197.074 222.438 202.44 221.717 209.335C221.53 211.106 223.287 215.937 225.64 220.116C229.052 226.173 230.506 227.096 232.734 224.756C234.273 223.142 235.594 218.873 235.723 215.24C235.906 210.01 236.199 209.683 236.969 213.665C238.477 221.488 243.645 227.512 248.858 227.512C252.927 227.512 253.305 226.814 251.535 222.63C248.933 216.489 248.915 214.183 251.473 216.179C252.567 217.04 253.466 216.545 253.466 215.082C253.466 213.615 254.36 212.405 255.454 212.405C256.552 212.405 257.446 213.991 257.446 215.943C257.446 220.459 269.086 233.023 271.515 231.128C272.52 230.346 273.383 227.523 273.383 224.835C273.383 222.146 274.277 219.959 275.438 219.959C276.598 219.959 277.017 218.541 276.309 216.809C275.602 215.082 276.683 216.23 278.738 219.407C280.788 222.585 283.155 224.362 283.964 223.339C284.773 222.321 287.38 221.095 289.817 220.667C295.212 219.717 303.263 214.7 303.263 212.248C303.263 211.264 300.594 209.07 297.347 207.372C294.1 205.668 291.636 202.974 291.868 201.393C292.108 199.785 289.577 198.385 286.206 198.244C279.236 197.957 269.095 191.973 272.885 190.376C274.25 189.802 275.375 187.699 275.375 185.736C275.375 181.743 265.412 180.725 262.303 184.397C259.292 187.952 251.473 190.28 251.473 187.626C251.473 186.298 253.741 184.51 256.575 183.61C260.822 182.266 261.303 181.287 259.314 178.262C257.348 175.269 257.642 174.628 260.684 174.566C265.123 174.471 272.613 167.773 270.83 165.517C270.145 164.651 265.483 163.397 260.497 162.688C250.53 161.265 250.579 161.305 253.523 154.348C255.436 149.832 255.921 149.764 260.311 153.403C264.745 157.076 265.123 156.952 266.346 152.064C267.067 149.196 268.508 147.498 269.522 148.291C270.541 149.084 271.39 148.577 271.39 147.11C271.39 145.642 273.183 144.433 275.375 144.433C277.564 144.433 279.356 142.824 279.356 140.895C279.356 137.048 275.148 134.365 269.211 134.365C264.687 134.365 264.082 129.742 268.339 127.678C269.976 126.885 270.896 125.406 270.394 124.377C269.891 123.342 271.715 121.025 274.441 119.18C281.153 114.642 279.494 110.452 270.954 110.452H263.922L268.962 102.111C272.893 95.6041 273.418 93.1632 271.515 90.7842C269.62 88.4165 267.685 89.7044 262.552 96.7627C256.459 105.126 255.827 105.452 253.71 101.166C252.456 98.6242 250.539 96.6052 249.48 96.6052C247.11 96.6052 240.821 110.694 239.455 119.102C238.45 125.322 220.116 145.175 217.358 143.021C216.571 142.408 216.184 135.687 216.424 128.072C216.665 120.457 216.073 114.225 215.117 114.225C214.165 114.225 213.658 110.047 213.996 104.946C214.512 97.207 215.517 95.3285 220.161 93.7706C224.973 92.1565 225.587 92.5165 224.582 96.5264C222.763 103.759 227.619 105.604 231.489 99.1248C233.535 95.6941 235.456 94.4118 236.221 95.9753C237.578 98.7536 245.495 97.2857 245.495 94.2431C245.495 91.9034 235.581 80.1828 233.855 80.4753C233.121 80.6046 230.969 80.1659 229.061 79.536C223.443 77.6745 227.095 74.1369 233.046 75.6779C243.031 78.265 252.029 77.7813 252.901 74.5756C253.372 72.849 252.447 71.4317 250.85 71.4317C249.249 71.4317 246.847 69.7164 245.495 67.6579C244.143 65.5939 242.235 64.5366 241.261 65.2958C240.291 66.0551 239.517 65.7851 239.517 64.6659C239.522 63.5467 242.217 60.3522 245.495 57.5852C251.526 52.4954 253.181 48.7722 249.418 48.7722C245.789 48.7722 232.743 56.3985 230.991 59.5536C229.955 61.4208 229.754 60.4478 230.493 57.1127C231.16 54.1151 230.84 50.9993 229.808 50.1895C227.642 48.4966 219.6 64.6884 219.6 70.7231C219.6 72.9502 219.009 74.0638 218.292 73.1639C217.581 72.2584 215.744 73.4339 214.249 75.8354C211.879 79.6429 211.679 78.6137 212.568 67.8885C213.391 57.9282 215.264 53.069 222.527 42.327C227.459 35.0269 231.551 27.4231 231.551 25.4097C231.551 19.3638 221.544 23.34 219.476 30.207C216.189 41.1403 212.568 37.3497 213.315 23.7562C213.858 13.8409 213.151 10.0953 209.828 5.58473L205.656 0ZM192.148 88.3434C193.06 88.4109 195.226 90.5986 197.69 94.0856C201.787 99.884 203.664 105.114 203.664 110.84C203.664 115.44 203.286 119.259 202.859 119.259C201.787 119.259 199.22 111.458 198.313 105.491C197.904 102.797 196.258 98.7817 194.639 96.5264C193.025 94.2656 191.713 90.8461 191.713 88.9733C191.713 88.5065 191.846 88.3209 192.148 88.3434ZM187.296 125.316C191.085 125.671 200.279 133.685 201.738 138.533C204.331 147.16 202.859 148.769 198.375 142.155C196.409 139.253 193.696 136.885 192.335 136.885C190.031 136.885 184.592 127.15 186.051 125.631C186.331 125.339 186.753 125.266 187.296 125.316ZM241.697 145.85C242.177 145.855 242.76 145.962 243.378 146.165C246.665 147.25 245.895 148.746 238.214 156.159C233.233 160.956 227.41 165.084 225.329 165.281C223.243 165.478 221.593 166.473 221.593 167.564C221.593 168.656 220.583 169.606 219.413 169.606C218.244 169.606 217.568 167.058 217.919 163.943C218.47 159.044 219.609 158.358 226.072 159.066C231.823 159.702 233.544 158.976 233.544 155.923C233.544 153.735 234.887 151.986 236.533 151.986C238.174 151.986 239.517 150.394 239.517 148.448C239.517 146.75 240.26 145.839 241.697 145.85ZM218.604 181.878L223.274 184.791C225.84 186.371 230.097 186.962 232.734 186.13C235.448 185.264 237.529 185.697 237.529 187.148C237.529 188.559 236.666 189.746 235.661 189.746C234.656 189.746 232.543 190.331 230.991 191.084C229.439 191.838 226.041 190.055 223.399 187.148L218.604 181.878ZM240.451 188.092C240.905 188.177 241.572 188.767 242.506 189.746C244.735 192.08 245.495 192.119 245.495 189.903C245.495 188.267 246.474 187.738 247.737 188.722C249.325 189.965 248.911 191.568 246.367 193.913C241.234 198.654 239.517 198.143 239.517 191.951C239.517 189.161 239.7 187.952 240.451 188.092ZM270.456 197.299C272.164 197.299 273.062 198.43 272.386 199.813C270.794 203.075 267.405 203.075 267.405 199.813C267.405 198.43 268.748 197.299 270.456 197.299ZM223.585 237.579C224.68 237.579 225.574 243.242 225.574 250.166C225.574 262.927 225.276 264.023 222.9 261.02C220.779 258.337 221.388 237.579 223.585 237.579ZM208.396 271.166C209.108 271.014 209.642 271.565 209.642 272.662C209.642 274.13 208.743 275.339 207.649 275.339C205.096 275.339 205.096 273.556 207.649 271.56C207.92 271.346 208.156 271.217 208.396 271.166ZM224.457 276.52C224.568 276.503 224.755 276.723 224.893 277.144C225.436 278.849 225.458 282.251 224.955 284.698C224.448 287.15 223.999 285.783 223.959 281.632C223.928 278.517 224.11 276.56 224.457 276.52ZM199.679 277.853C200.777 277.853 201.671 278.348 201.671 278.955C201.671 279.568 200.777 280.778 199.679 281.632C198.584 282.487 197.686 281.998 197.686 280.53C197.686 279.062 198.584 277.853 199.679 277.853ZM189.72 282.892C190.814 282.892 191.713 283.382 191.713 283.989C191.713 284.602 190.814 285.811 189.72 286.666C188.626 287.521 187.727 287.032 187.727 285.564C187.727 284.096 188.626 282.892 189.72 282.892ZM148.267 282.971C149.628 283.14 151.318 284.276 152.621 286.351C156.66 292.779 163.353 293.634 167.063 288.162C170.345 283.314 175.029 283.252 172.667 288.083C172.036 289.371 172.89 290.44 174.531 290.44C176.176 290.44 178.089 289.309 178.765 287.926C180.375 284.636 183.747 284.619 183.747 287.926C183.747 289.343 181.283 291.733 178.267 293.196C175.256 294.658 167.668 296.418 161.459 297.127C151.576 298.263 149.912 297.83 148.018 293.353C146.826 290.541 145.9 287.043 145.9 285.564C145.9 283.652 146.901 282.797 148.267 282.971ZM331.022 416.313C332.182 416.313 333.139 417.443 333.139 418.827C333.139 422.055 331.729 422.055 330.15 418.827C329.474 417.443 329.861 416.313 331.022 416.313ZM164.51 446.52C165.729 446.52 163.371 448.786 159.284 451.553C152.047 456.452 147.889 457.819 147.889 455.333C147.889 453.769 161.57 446.52 164.51 446.52ZM336.501 554.058C338.694 554.041 340.878 554.334 342.225 555.003C344.948 556.347 343.609 556.921 337.622 557.05C332.965 557.146 329.153 556.792 329.153 556.263C329.153 554.924 332.841 554.086 336.501 554.058ZM381.068 567.669C381.762 567.635 382.589 567.776 383.31 568.141C384.898 568.945 384.386 569.513 382.064 569.637C379.965 569.744 378.791 569.137 379.449 568.299C379.783 567.882 380.379 567.702 381.068 567.669ZM381.566 630.366C381.655 630.332 381.802 630.366 381.94 630.366C383.038 630.366 385.276 631.463 386.921 632.807C388.562 634.146 389.012 635.242 387.918 635.242C386.819 635.242 384.582 634.146 382.936 632.807C381.499 631.632 380.943 630.597 381.566 630.366ZM34.5946 732.084C35.5376 731.904 35.8044 732.427 35.2796 733.501C34.6124 734.868 33.2603 736.015 32.2329 736.015C29.364 736.015 29.9645 734.148 33.4115 732.477C33.8563 732.264 34.2833 732.14 34.5946 732.084ZM66.7788 753.72L71.32 759.855L75.8033 765.991L79.2281 759.383C82.3416 753.371 82.773 753.253 84.5788 757.336C86.0644 760.688 86.9717 760.958 88.1282 758.596C89.2223 756.352 90.0318 756.982 90.9925 760.795C92.3535 766.216 96.0941 768.365 96.0941 763.708C96.0941 762.324 98.5626 761.183 101.574 761.188H107.049L101.076 765.204C97.2239 767.769 92.0689 768.708 86.6337 767.954C81.9991 767.313 78.6944 767.847 79.2904 769.056C80.8605 772.268 77.8894 771.683 71.7559 767.639C68.6291 765.581 66.1561 765.12 65.7825 766.542C65.4267 767.881 63.5052 768.196 61.5482 767.245C58.2435 765.643 58.3325 765.12 62.42 759.619L66.7788 753.72ZM113.089 756.47C113.507 756.464 113.912 756.475 114.272 756.627C115.762 757.257 114.85 758.41 112.155 759.304C108.841 760.395 108.063 760.069 109.54 758.202C110.412 757.105 111.83 756.481 113.089 756.47ZM92.8606 860.234C93.5722 860.083 94.106 860.628 94.106 861.73C94.106 863.193 93.2075 864.402 92.1134 864.402C89.5603 864.402 89.5603 862.619 92.1134 860.628C92.3847 860.414 92.6204 860.285 92.8606 860.234Z" fill="#001223"/>
</g>
<mask id="mask1_1050_1462" style="mask-type:luminance" maskUnits="userSpaceOnUse" x="11" y="23" width="451" height="979">
<path d="M11.1016 23.7568H462V1001H11.1016V23.7568Z" fill="white"/>
</mask>
<g mask="url(#mask1_1050_1462)">
<path d="M216.758 23.7568L216.509 29.8927C216.402 33.2672 216.18 43.4524 216.011 52.5466L215.762 69.0702L208.419 59.4699C199.928 48.3004 198.794 47.8561 198.834 55.5386C198.847 58.6544 202.312 65.9657 206.488 71.8204C213.182 81.1958 214.121 84.1484 214.521 96.6002C214.819 106.004 214.236 110.205 212.84 109.108C211.683 108.208 210.785 105.835 210.785 103.838C210.785 101.842 209.886 100.222 208.792 100.222C207.698 100.222 206.8 95.8353 206.8 90.4643C206.8 79.2948 201.787 71.483 198.647 77.7201C197.646 79.711 197.232 82.6693 197.713 84.3284C198.771 87.9953 193.043 85.6051 189.186 80.7908C187.736 78.9799 185.401 77.5626 183.956 77.5626C178.569 77.5626 179.45 84.6659 186.011 94.165C193.812 105.458 194.235 107.713 189.057 109.423C186.518 110.267 185.646 112.218 186.322 115.48C187.443 120.902 192.785 121.864 196.405 117.291C199.118 113.866 199.185 114.046 199.643 123.506C200.021 131.402 199.679 131.582 192.856 126.655C186.18 121.83 184.89 121.948 184.89 127.679C184.89 130.345 187.803 135.406 191.361 138.927C196.218 143.73 196.761 145.001 193.603 143.961C190.854 143.055 188.977 143.955 188.19 146.559C186.473 152.206 185.085 151.739 171.818 140.817C165.306 135.451 158.995 131.509 157.812 132.083C153.666 134.09 156.299 143.696 162.108 147.735L167.957 151.75L162.606 152.538C159.684 152.976 156.829 154.9 156.255 156.784C155.139 160.462 160.12 164.073 163.105 161.739C164.101 160.962 164.968 161.53 164.968 162.998C164.968 164.466 166.538 165.72 168.455 165.833C170.986 165.973 171.164 166.39 169.14 167.402C167.027 168.459 167.446 169.888 170.946 173.223L175.616 177.632L167.272 179.443C158.692 181.271 156.735 185.32 161.859 190.691C163.79 192.716 165.822 192.919 168.082 191.321C171.84 188.661 178.912 190.146 178.912 193.599C178.912 194.825 180.704 195.882 182.897 195.882C185.09 195.882 186.882 194.752 186.882 193.363C186.882 191.979 188.897 190.883 191.361 190.928L195.845 191.006L190.925 196.119C187.105 200.134 186.633 201.703 188.75 203.357C191.739 205.691 196.903 203.981 199.456 199.814C200.377 198.306 200.622 200.196 199.954 204.066C198.958 209.83 199.403 210.989 202.752 210.989C204.967 210.989 206.84 209.572 206.924 207.839C207.031 205.691 207.413 205.826 208.169 208.233C208.975 210.809 209.984 210.106 211.843 205.713L214.396 199.656L216.883 206.579C218.253 210.381 218.742 214.301 217.941 215.314C217.141 216.326 210.002 217.558 202.067 218.07C188.795 218.913 186.874 218.407 178.102 211.382C169.376 204.38 162.98 203.211 162.98 208.627C162.98 209.819 165.444 212.597 168.455 214.763L173.935 218.694L166.961 217.046C160.067 215.449 148.462 207.896 143.37 201.625C141.924 199.842 139.011 198.402 136.898 198.402C132.837 198.402 131.783 203.267 134.968 207.288C136.16 208.801 133.1 210.016 126.624 210.516C120.989 210.949 115.616 211.872 114.735 212.558C108.188 217.676 124.324 226.967 136.026 224.83L144.055 223.418L138.455 227.428C135.061 229.863 133.069 233.12 133.473 235.69C134.443 241.843 143.049 239.779 148.538 232.068C151.091 228.48 154.543 226.129 156.504 226.719C159.253 227.546 158.897 228.384 154.698 230.578C147.915 234.115 145.861 238.26 149.97 240.251C151.745 241.111 152.75 243.266 152.207 245.048C151.669 246.831 152.563 248.929 154.138 249.694C155.712 250.453 157.002 250.082 157.002 248.906C157.002 246.848 163.438 243.322 168.268 242.692C169.54 242.523 172.454 240.195 174.744 237.574C177.035 234.959 178.912 233.66 178.912 234.666C178.912 237.281 174.562 242.416 169.389 245.914C166.947 247.568 164.973 250.043 164.968 251.42C164.968 256.173 171.102 256.91 174.869 252.602C178.463 248.49 178.583 248.53 177.546 253.546C176.025 260.891 180.1 260.16 184.143 252.365C186.669 247.489 187.91 246.724 189.186 249.221C190.57 251.927 191.134 251.904 192.544 249.143C193.492 247.292 195.956 246.055 198.024 246.387C206.061 247.68 216.629 238.597 216.945 230.105C217.118 225.521 217.319 225.656 218.564 231.123C219.752 236.32 218.773 238.845 212.902 245.521C208.988 249.969 200.261 257.286 193.478 261.808L181.154 269.986L171.569 263.928C166.298 260.605 160.863 257.652 159.493 257.32C155.939 256.471 156.42 261.33 160.489 267.393C163.625 272.061 163.607 272.19 160.552 269.204C158.683 267.376 156.393 266.493 155.445 267.235C154.498 267.978 151.225 266.96 148.164 264.952C140.826 260.143 138.539 260.38 139.887 265.739C140.777 269.294 139.843 270.092 135.03 269.907C131.748 269.789 128.599 269.024 127.994 268.259C125.57 265.194 119.156 269.704 119.156 274.474C119.156 278.343 120.126 279.226 123.328 278.169C127.327 276.847 127.353 276.965 124.013 281.633C120.406 286.667 120.997 287.358 128.554 286.588C132.032 286.234 132.753 287.083 131.73 290.44C130.654 293.989 131.343 294.585 135.466 293.59C139.589 292.594 140.296 293.185 139.514 296.97C138.446 302.116 139.709 302.667 144.677 299.332C149.561 296.053 155.726 306.469 151.714 311.21C149.463 313.865 148.783 313.758 147.915 310.895C147.319 308.932 143.788 307.307 139.887 307.122C136.058 306.936 133.376 307.791 133.972 309.006C134.568 310.22 133.3 310.597 131.107 309.872C126.077 308.213 125.921 312.031 130.858 315.929C133.473 317.993 134.283 320.766 133.598 325.293C132.393 333.257 132.09 333.324 124.76 325.529C121.504 322.065 117.541 319.236 115.98 319.236C112.644 319.236 112.475 320.468 115.051 326.553C117.141 331.485 115.829 331.603 100.733 327.964C95.8141 326.778 93.261 327.11 93.261 328.909C93.261 332.171 103.607 339.376 108.326 339.376C111.048 339.376 111.208 340.006 109.197 343.071C107.218 346.085 107.289 347.126 109.633 348.262C111.235 349.038 113.378 349.437 114.366 349.207C118.524 348.222 121.117 349.651 120.65 352.592C120.344 354.521 122.269 355.663 125.632 355.579C129.844 355.472 131.121 356.63 131.169 360.612C131.236 365.584 131.392 365.533 135.155 359.825C138.264 355.112 139.078 354.758 139.078 358.098C139.078 360.41 139.972 361.63 141.066 360.77C142.164 359.915 143.912 362.148 144.989 365.725C146.065 369.307 148.311 372.867 149.97 373.672C151.629 374.476 153.021 376.697 153.021 378.626C153.017 380.555 154.458 382.17 156.255 382.17C158.052 382.17 160.654 384.093 162.046 386.494C164.43 390.617 164.87 390.583 169.265 385.865L173.935 380.91L170.386 386.18C168.242 389.397 161.601 393.063 153.208 395.622C135.666 400.971 131.427 400.802 124.262 394.835C117.626 389.307 114.388 390.33 116.172 397.428C117.172 401.415 116.407 402.309 111.688 402.309C108.548 402.309 105.07 401.179 103.971 399.79C102.633 398.097 100.693 398.429 98.118 400.813C94.4219 404.233 94.5109 404.548 100.671 408.997C105.315 412.348 106.787 414.896 105.959 418.198C105.226 421.145 105.799 422.584 107.516 422.292C113.285 421.296 115.522 422.539 114.428 426.144C112.515 432.438 119.788 435.441 125.321 430.627C128.95 427.472 129.484 427.32 127.687 430.154C124.32 435.452 127.558 440.986 132.788 438.889C140.332 435.863 142.365 440.705 134.968 444.08C125.467 448.421 115.989 448.331 112.435 443.843C108.508 438.877 102.406 438.815 103.909 443.765C104.839 446.83 103.451 447.235 96.1254 445.969C85.4107 444.113 84.0675 448.298 93.9504 452.814C98.7407 455.002 100.435 457.133 99.7993 460.21C98.7363 465.35 105.025 468.207 109.882 464.771C112.524 462.904 113.183 463.629 113.183 468.623C113.183 473.73 113.912 474.602 117.479 473.421C121.002 472.256 121.513 472.757 120.401 476.413C119.316 479.995 119.872 480.698 123.079 479.635C125.29 478.91 127.126 479.326 127.126 480.58C127.126 484.995 131.338 482.779 136.649 475.625C143.045 467.003 146.835 465.103 151.527 468.151C156.984 471.7 155.619 474.562 149.036 473.342C142.178 472.071 141.168 475.906 146.11 484.832C149.005 490.051 148.992 490.417 145.305 490.417C143.125 490.417 139.976 492.115 138.33 494.19C136.689 496.266 134.012 497.97 132.357 497.97C130.698 497.97 128.821 499.027 128.185 500.326C127.549 501.625 123.542 502.604 119.281 502.531C115.024 502.458 110.381 503.301 108.948 504.421C107.521 505.534 103.446 506.215 99.9238 505.911C94.6221 505.461 93.4212 506.361 92.8919 511.102C92.4293 515.23 90.8726 516.889 87.2877 517.086C84.5478 517.232 81.4121 517.671 80.318 518.025C79.2194 518.385 76.7553 518.43 74.8383 518.183C72.9213 517.941 71.3513 518.745 71.3513 519.915C71.3513 523.25 82.3773 530.691 87.3499 530.691C91.7088 530.691 91.7888 530.837 88.284 535.73C84.7658 540.64 84.8013 540.764 89.903 540.764C93.8037 540.764 94.8355 541.703 93.946 544.616C92.9808 547.799 93.8214 548.216 98.4916 546.821C101.645 545.882 104.665 545.156 105.217 545.167C111.426 545.319 112.871 546.185 111.937 549.256C109.856 556.112 115.015 555.915 117.977 549.02C120.793 542.456 120.948 542.372 121.024 547.687C121.069 550.803 121.82 553.435 122.643 553.587C134.817 555.836 136.814 555.088 139.264 547.608L141.755 540.055L143.499 546.033L145.238 552.091L149.098 545.797C152.919 539.515 152.915 539.504 152.959 545.167C153.017 552.805 156.571 552.372 158.123 544.537C158.812 541.078 160.258 538.244 161.299 538.244C162.34 538.244 162.549 539.464 161.797 541C160.845 542.946 162.388 543.272 166.903 542.023C171.693 540.69 173.188 540.994 172.565 543.356C171.342 547.996 158.866 555.864 152.71 555.864C149.797 555.864 147.008 557.282 146.483 559.014C145.896 560.948 142.004 562.045 136.338 561.921C131.267 561.815 127.126 562.602 127.126 563.654C127.126 568.502 134.038 573.743 139.514 573.018C142.765 572.585 145.576 573.226 145.736 574.514C146.265 578.704 134.59 581.06 106.209 582.455C74.229 584.03 61.3927 585.796 61.3927 588.512C61.3927 589.558 59.151 589.884 56.4112 589.221C53.5824 588.54 51.4341 589.17 51.4341 590.717C51.4341 594.243 57.9412 598.664 63.1985 598.664C65.4624 598.664 67.366 599.794 67.366 601.178C67.366 602.561 66.392 603.697 65.2533 603.697C64.1103 603.697 61.197 606.037 58.7774 608.967L54.4185 614.316L60.8945 613.213C65.1777 612.477 67.366 613.129 67.366 615.182C67.366 617.049 68.9583 617.78 71.3513 616.993C73.5796 616.256 75.3365 616.914 75.3365 618.489C75.3365 622.549 80.4025 621.959 83.3024 617.544C84.6679 615.463 86.6561 613.764 87.7858 613.764C88.9156 613.764 88.4174 615.795 86.6027 618.331C84.788 620.862 83.3024 623.691 83.3024 624.625C83.3024 627.29 90.8993 626.632 92.2692 623.837C94.2395 619.805 96.8771 620.913 98.2425 626.351C99.8438 632.723 102.117 632.684 109.322 626.194L115.113 621.003L113.868 628.713C112.369 638.19 115.985 638.955 124.075 630.918C129.39 625.631 129.537 625.637 127.438 630.603C124.96 636.446 126.152 639.219 130.302 637.211C131.85 636.458 134.461 637.228 136.089 638.938C138.148 641.098 139.078 641.216 139.078 639.253C139.078 637.701 140.421 636.424 142.067 636.424C143.708 636.424 145.051 637.982 145.051 639.961C145.051 642.408 146.817 643.325 150.531 642.796C171.266 639.826 144.446 655.068 120.339 659.944C104.581 663.133 102.997 663.009 97.8067 658.684C94.7377 656.131 91.1483 654.055 89.7784 654.044C85.6598 654.016 86.9719 659.055 91.771 661.676C95.0624 663.47 93.8704 663.661 87.2877 662.385C82.3595 661.423 76.0837 660.793 73.3439 660.967C70.6085 661.142 63.919 659.646 58.5283 657.661C53.142 655.681 48.4318 654.382 48.0716 654.832C45.9944 657.458 58.7462 667.84 65.876 669.302L74.3402 671.035L66.8723 671.35C61.6684 671.569 59.4001 672.812 59.4001 675.444C59.4001 677.519 60.9701 679.398 62.8871 679.611C64.8041 679.819 67.2682 680.23 68.3668 680.556C69.4609 680.877 71.6404 681.259 73.2193 681.422C75.332 681.636 75.0696 682.648 72.223 685.275C67.3038 689.825 69.6389 693.092 75.1497 689.364C78.5789 687.046 79.3217 687.288 79.3217 690.702C79.3217 693.93 80.745 694.588 85.7932 693.694C89.3559 693.059 94.0616 691.72 96.2544 690.702C100.177 688.88 100.124 688.902 96.3167 692.828C92.4337 696.821 93.2655 697.749 99.737 696.917C101.721 696.664 103.224 698.216 103.224 700.46C103.224 705.842 104.839 705.398 109.576 698.728L113.619 693.064L110.381 699.909C108.619 703.666 107.209 707.884 107.209 709.346C107.209 713.238 116.981 710.364 121.651 705.1C125.561 700.685 125.592 700.769 124.075 706.911C121.971 715.443 119.525 717.242 101.169 724.216C85.9222 730.003 85.0015 730.076 76.7687 726.106C67.793 721.77 55.4193 720.538 55.4193 723.98C55.4193 725.088 56.4601 727.422 57.7811 729.092C59.4001 731.139 56.7358 730.819 49.6283 728.147C43.815 725.965 37.6949 724.807 35.9958 725.633C33.3939 726.893 33.6296 728.147 37.4903 733.338L42.0359 739.474L35.3109 737.039C26.6466 733.895 16.1187 733.901 14.5842 737.039C13.0008 740.273 26.3219 747.168 34.19 747.185H40.4792L34.6259 753.085C28.8527 758.928 28.9061 766.588 34.6882 763.787C36.6141 762.854 37.4903 764.372 37.4903 768.663C37.4903 773.123 38.5311 774.878 41.2887 774.878C43.4014 774.878 46.5193 776.61 48.1961 778.731C50.7313 781.936 51.9233 782.021 55.2948 779.36C57.5275 777.6 59.4001 775.3 59.4001 774.248C59.4001 773.196 60.9701 774.344 62.9494 776.768C66.7656 781.436 67.8508 787.465 64.8797 787.465C63.9012 787.465 63.7544 788.685 64.5061 790.215C65.4535 792.155 63.9768 792.521 59.6491 791.317C55.6773 790.215 53.4267 790.53 53.4267 792.262C53.4267 793.803 49.5482 795.018 44.46 795.018C35.1285 795.018 33.3672 797.2 38.4866 802.571C40.4792 804.663 44.6957 805.214 50.9359 804.219L60.3964 802.729L52.9908 807.683C47.8447 811.131 45.9411 813.859 46.7639 816.569C47.5067 819.01 49.1657 819.831 51.185 818.774C52.9597 817.846 55.7662 816.828 57.4075 816.491C59.0531 816.159 59.2755 816.367 57.9056 816.963C52.8618 819.157 55.4682 823.2 60.8945 821.609C64.8175 820.456 65.5424 820.714 63.4475 822.469C58.1769 826.89 62.856 828.172 69.1763 824.044C72.5611 821.828 75.3365 821.086 75.3365 822.39C75.3365 823.695 74.2156 825.315 72.8457 825.934C71.4758 826.552 71.0488 827.992 71.9117 829.156C72.7745 830.326 76.0348 830.039 79.1971 828.526C83.9073 826.282 84.8013 826.434 83.9251 829.314C83.1557 831.85 83.8673 832.317 86.5404 831.125C89.6494 829.736 89.8496 830.062 87.6613 833.014C85.6242 835.759 78.7657 836.423 56.2911 836.001C38.8958 835.68 27.5317 836.428 27.5317 837.89C27.5317 839.223 28.9194 840.331 30.6407 840.331C32.362 840.331 35.0173 841.929 36.5563 843.869C38.9536 846.9 38.9047 847.615 36.2449 848.902C34.5414 849.729 30.316 850.376 26.8467 850.398C19.5257 850.443 14.5041 853.722 16.261 857.322C18.436 861.765 28.3234 862.575 36.494 858.975C47.3866 854.172 47.9782 854.448 42.3428 861.568C35.3198 870.448 35.8313 875.797 43.4014 873.052C46.6527 871.877 50.2376 870.162 51.3718 869.279C52.5016 868.396 53.5068 869.762 53.6713 872.265C53.8403 874.773 54.1117 878.108 54.2317 879.739C54.3563 881.376 55.059 883.536 55.7885 884.464C57.3585 886.443 69.3586 877.957 69.3586 874.863C69.3586 873.693 70.1726 873.412 71.2267 874.233C72.4543 875.195 72.4543 878.024 71.2267 882.102C70.1726 885.605 69.3586 889.604 69.3586 890.993C69.3586 894.317 78.7746 885.707 88.2217 873.761C95.267 864.852 96.2766 866.377 89.7161 876.044C88.106 878.418 87.3855 882.281 88.0972 884.615C89.2402 888.389 89.8985 888.176 94.4441 882.81L99.6125 876.832L98.9275 883.125C98.2959 888.901 96.9393 889.66 82.3061 892.72C72.0229 894.874 65.2934 895.2 63.323 893.665C58.3281 889.767 47.4489 887.456 47.4489 890.285C47.4489 891.679 49.0189 893.361 50.9359 893.98C52.8529 894.598 49.9396 894.587 44.46 893.98C36.454 893.091 34.9906 893.473 36.9921 896.027C40.7994 900.886 39.9455 902.691 34.5014 901.375C28.061 899.817 19.0275 902.725 20.5576 905.858C21.2159 907.202 23.7911 908.299 26.2863 908.299C34.7994 908.299 33.6029 911.763 23.2351 917.027C5.55966 926.009 9.41588 932.685 27.5895 924.58C36.792 920.48 40.3858 921.189 33.6296 925.761C31.3435 927.308 29.5199 930.351 29.5199 932.527C29.5199 935.564 30.7297 936.104 34.8127 934.811C39.514 933.315 39.8654 933.562 37.5526 937.088C32.1841 945.266 37.8772 945.283 46.7639 937.088C50.9137 933.264 51.0783 933.303 49.9396 938.899C48.8677 944.147 49.0812 944.405 52.119 941.261C55.1124 938.151 55.317 938.298 54.1072 942.516C52.9196 946.683 53.3867 946.554 57.7188 941.576C62.7937 935.744 65.9161 936.233 64.008 942.516C62.4824 947.527 67.2593 946.863 74.8383 941.025C78.4455 938.241 81.3098 937.285 81.3098 938.821C81.3098 940.525 83.3959 940.969 86.7895 940.002C90.4945 938.939 91.2996 939.164 89.2803 940.71C87.6346 941.964 81.3588 944.253 75.3365 945.823C62.3623 949.203 58.3326 951.958 60.3341 956.047C61.7085 958.859 64.386 958.55 76.3328 954.472C79.3839 953.432 78.8013 955.035 73.842 961.081C70.2793 965.428 67.366 969.511 67.366 970.209C67.366 972.711 78.441 969.601 84.7969 965.333C91.7799 960.636 92.8518 962.076 88.2217 969.815C84.1742 976.575 84.5656 979.556 89.2803 977.998C91.8689 977.143 93.261 977.976 93.261 980.276C93.261 984.989 95.0846 984.73 99.737 979.415C103.411 975.208 103.58 975.237 102.913 980.04C101.845 987.722 112.898 985.405 118.782 976.738L123.39 969.972L122.083 978.156C120.352 988.982 125.352 989.263 133.1 978.785C136.173 974.629 138.944 971.232 139.327 971.232C139.709 971.232 140.158 974.162 140.323 977.762C140.777 987.66 144.019 990.332 148.164 984.213C151.438 979.382 151.905 979.286 154.329 983.268C156.726 987.205 156.993 987.148 158.123 982.087C158.852 978.814 160.431 977.138 162.046 977.919C163.763 978.752 165.239 976.778 166.093 972.492C167.014 967.841 167.944 966.671 169.016 968.87C169.879 970.63 172.445 972.441 174.744 972.886C177.987 973.51 179.895 971.21 183.271 962.419C187.634 951.07 192.242 946.689 189.871 956.126C188.341 962.222 189.493 962.386 195.907 957.071C198.607 954.838 200.884 950.586 201.013 947.634C201.195 943.331 201.462 943.14 202.196 946.689C203.708 954.023 206.8 948.927 206.862 938.978C206.915 931.447 207.271 930.531 208.917 934.102C210.033 936.526 212.813 938.506 215.081 938.506C219.004 938.506 219.16 939.428 217.883 958.016C216.989 971.007 214.899 981.603 211.657 989.719C209.757 994.471 208.165 998.706 207.36 1001.05H256.913C259.105 998.824 258.118 994.921 255.854 988.065C252.318 977.385 250.957 955.569 253.737 954.399C254.822 953.938 257.264 956.919 259.212 961.086C262.846 968.853 267.307 971.716 265.252 964.939C262.899 957.189 266.604 961.435 269.3 969.579C271.448 976.08 273.169 978.026 276.768 977.683C279.347 977.441 282.75 978.42 284.298 979.888C286.317 981.794 287.34 981.716 287.909 979.573C288.439 977.588 290.013 978.223 292.579 981.457C297.703 987.941 300.256 987.627 299.051 980.675C298.477 977.363 298.762 976.103 299.736 977.683C302.031 981.406 308.387 984.111 308.387 981.384C308.387 978.842 319.382 979.742 325.133 982.717C328.162 984.286 328.718 983.791 327.748 980.596C327.072 978.369 327.561 976.091 328.869 975.478C330.684 974.635 330.706 973.544 328.807 970.996C324.283 964.939 326.156 964.157 333.597 968.955C341.825 974.252 344.12 973.476 340.135 966.829C338.005 963.274 337.974 962.987 340.073 965.333C341.523 966.958 343.916 967.717 345.424 966.986C346.936 966.255 348.226 966.66 348.226 967.931C348.226 969.196 349.44 972.374 350.966 975.012C353.354 979.14 354.23 979.32 357.068 976.345C359.923 973.347 360.728 973.712 363.539 978.785L366.777 984.606L368.583 978.549C370.247 972.919 370.554 972.813 372.938 976.896C376.091 982.3 377.501 982.379 381.406 977.447C383.835 974.382 383.968 972.852 382.029 969.894C380.69 967.858 380.187 966.199 380.908 966.199C381.629 966.199 381.184 963.651 379.912 960.535C377.977 955.794 378.702 956.07 384.328 962.504C396.724 976.665 397.543 977.188 401.074 972.728C402.836 970.507 403.569 967.323 402.756 965.569C401.924 963.769 402.947 964.073 405.122 966.277C415.65 976.963 426.311 979.067 419.128 969.033C415.881 964.5 415.992 964.146 421.178 962.504L426.596 960.771L420.747 954.793C413.092 946.886 417.184 946.869 428.152 954.793C432.92 958.235 437.986 961.07 439.356 961.086C443.377 961.131 442.216 957.121 437.364 954.163C433.33 951.705 433.636 951.407 440.913 951.25C445.361 951.16 450.738 949.428 452.864 947.397C456.543 943.882 456.494 943.702 450.809 943.624C442.279 943.5 411.94 936.52 405.62 933.236C397.876 929.215 396.409 923.056 404.063 926.706C410.775 929.912 414.169 927.263 409.227 922.696C406.358 920.042 407.283 919.727 414.894 920.492C424.607 921.47 426.676 918.377 419.435 913.726C415.561 911.234 416.215 910.925 424.665 911.448C436.065 912.151 439.281 907.416 429.46 904.367L422.922 902.32L429.398 901.375C436.977 900.234 437.644 897.641 431.39 893.586C427.725 891.218 429.278 890.892 439.854 892.017C451.775 893.277 452.442 893.08 448.879 889.497C446.753 887.36 443.453 885.645 441.536 885.645C439.619 885.645 437.475 884.391 436.741 882.889C435.905 881.174 437.155 880.296 440.104 880.606C448.425 881.483 453.798 880.656 453.798 878.406C453.798 877.197 447.482 875.431 439.792 874.47C432.102 873.513 426.235 871.815 426.782 870.696C427.329 869.577 433.072 867.164 439.543 865.347C451.752 861.922 459.483 856.799 457.036 853.705C455.782 852.119 444.698 854.403 429.896 859.369C425.346 860.893 425.461 860.421 431.702 853.627C441.963 842.446 436.172 841.293 421.365 851.58C406.501 861.905 397.987 862.749 381.526 855.589C362.85 847.468 332.552 828.031 330.297 822.711C327.508 816.114 329.091 816.311 334.157 823.183C336.39 826.209 338.267 827.767 338.267 826.642C338.267 825.517 339.61 826.018 341.252 827.745C343.725 830.332 344.24 830.09 344.24 826.327C344.24 822.537 345.259 823.003 350.467 829.162L356.69 836.558L355.507 828.453C354.315 820.461 354.395 820.383 359.741 823.262C362.717 824.865 366.502 827.48 368.143 829.083C375.869 836.597 376.763 836.428 375.366 827.587C374.307 820.906 374.517 819.747 376.425 822.16C379.889 826.541 388.064 826.04 388.064 821.451C388.064 816.761 391.28 816.524 393.415 821.057C394.291 822.919 397.503 826.389 400.514 828.847C405.033 832.525 405.989 832.666 405.989 829.634C405.989 827.61 404.197 823.96 402.008 821.451C399.816 818.943 398.023 815.692 398.023 814.292C398.023 812.891 398.53 812.492 399.206 813.347C399.882 814.207 401.853 813.15 403.565 810.99C405.718 808.263 408.956 807.436 414.146 808.313C419.306 809.191 421.965 808.521 422.673 806.187C423.456 803.617 425.266 803.353 430.27 805.169C447.834 811.536 451.067 804.275 434.126 796.514C422.673 791.267 421.223 788.612 431.946 792.498C445.574 797.442 463.303 793.702 455.791 787.465C454.145 786.104 448.768 784.821 443.84 784.636C436.225 784.349 435.727 784.096 440.664 782.746C443.857 781.869 446.873 779.574 447.385 777.634C448.163 774.681 445.018 774.349 428.09 775.823C408.155 777.561 407.835 777.561 410.286 772.6C413.933 765.216 411.429 763.939 401.51 768.191C396.146 770.491 389.265 771.459 383.892 770.632C372.377 768.855 334.277 752.719 329.803 747.742C325.124 742.534 325.386 738.923 330.301 740.897C332.534 741.791 334.282 741.336 334.282 739.874C334.282 737.14 337.266 737.928 347.229 743.411C350.516 745.222 357.731 746.758 363.29 746.797C368.85 746.831 374.227 747.101 375.242 747.348C379.903 748.473 380.397 746.752 376.923 741.521C374.423 737.765 375.206 738.186 379.227 742.781C386.116 750.661 388.064 751.319 388.064 745.852C388.064 742.528 388.705 742.551 393.171 746.246C396.173 748.732 398.868 749.513 399.642 748.13C400.371 746.831 403.65 744.294 406.923 742.466C412.643 739.283 412.736 739.036 409.04 735.622C404.53 731.454 405.678 731.111 412.776 734.525C416.633 736.375 417.945 736.201 417.945 733.738C417.945 731.747 422.997 729.132 430.892 727.051C438.013 725.172 443.84 722.608 443.84 721.387C443.84 720.167 444.68 719.908 445.766 720.757C446.855 721.607 449.333 721.162 451.245 719.812C454.283 717.664 454.007 717.09 449.19 715.566C445.036 714.245 443.973 712.704 444.836 709.273C445.681 705.904 444.792 704.549 441.411 703.919C438.187 703.323 440.477 701.551 449.253 698.019C462.858 692.547 466.216 687.592 454.296 690.545C443.288 693.278 415.952 693.897 415.952 691.411C415.952 690.235 416.846 689.29 417.945 689.29C419.039 689.29 419.933 688.143 419.933 686.771C419.933 685.399 415.676 684.358 410.472 684.487C397.405 684.825 376.509 679.302 375.242 675.129C374.525 672.778 375.815 671.665 379.16 671.665C381.869 671.665 384.079 670.568 384.079 669.229C384.079 667.885 385.423 667.407 387.068 668.206C388.709 669.004 390.057 668.324 390.057 666.71C390.057 664.781 391.556 665.152 394.474 667.733C396.911 669.887 401.168 671.636 403.939 671.586L408.978 671.507L404.375 666.631L399.829 661.834L409.352 661.046L418.937 660.18L411.967 655.934L404.993 651.688L411.095 651.609C414.982 651.542 418.959 649.23 421.925 645.237C424.501 641.772 427.521 638.943 428.713 638.943C429.9 638.943 432.057 636.626 433.441 633.826C437.083 626.458 432.444 624.979 420.991 629.894C408.64 635.192 406.082 635.046 407.359 628.871C408.618 622.791 408.289 622.757 395.781 627.926C386.268 631.863 385.276 631.745 370.073 626.278C349.573 618.899 344.316 611.987 360.115 613.14C361.743 613.258 363.7 612.117 364.473 610.542C365.452 608.54 367.102 609.006 369.886 612.195C373.009 615.767 375.62 616.38 381.962 615.024C391.018 613.095 391.578 612.139 386.57 606.925C382.99 603.191 384.311 603.309 392.855 607.634C395.919 609.181 396.431 608.714 395.408 605.351C394.465 602.246 395.225 601.183 398.272 601.183C401.048 601.183 402.057 599.985 401.323 597.561C400.718 595.576 401.261 593.377 402.569 592.685C404.237 591.797 404.01 590.357 401.697 587.967C398.672 584.84 398.793 584.109 403.191 578.76C410.366 570.031 409.031 568.209 398.521 572.467C372.382 583.062 362.797 583.692 356.378 575.065C352.745 570.172 352.531 568.839 354.946 567.669C356.57 566.882 360.586 567.501 363.913 569.087C372.426 573.147 374.245 569.098 367.151 561.848C362.174 556.764 361.84 555.819 365.158 556.185C372.124 556.944 376.113 555.943 376.113 553.35C376.113 551.967 374.543 550.763 372.626 550.673C369.802 550.549 369.904 550.055 373.311 548.317C375.624 547.136 378.053 544.402 378.729 542.181C379.792 538.677 379.396 538.52 375.553 541.236C368.605 546.151 327.09 545.398 318.345 540.212C312.234 536.585 311.91 536.067 316.042 535.887C319.818 535.724 320.587 534.673 319.715 530.46C318.737 525.736 318.955 525.556 321.957 528.807C326.32 533.531 332.289 536.174 332.289 533.368C332.289 532.159 334.082 531.703 336.275 532.423C338.503 533.16 340.26 532.502 340.26 530.933C340.26 529.386 342.497 528.177 345.237 528.177C351.86 528.177 351.53 525.674 343.867 517.716L337.458 511.108L348.101 513.228C359.078 515.421 363.072 514.51 360.986 510.242C358.945 506.068 364.3 500.484 370.322 500.484C377.11 500.484 378.048 496.328 371.63 494.584C369.086 493.892 370.162 493.454 374.121 493.639C378.653 493.859 380.917 492.959 380.592 490.968C380.321 489.281 381.046 487.897 382.273 487.897C383.777 487.897 383.701 486.615 381.962 483.966C380.316 481.452 377.514 480.451 374.245 481.289C371.425 482.02 370.26 482.042 371.63 481.289C376.229 478.763 374.192 474.731 369.139 476.334C365.101 477.616 364.478 477.121 365.532 473.662C366.47 470.564 366.061 470.001 364.1 471.536C362.628 472.684 359.141 473.837 356.316 474.129C353.496 474.427 348.973 475.451 346.233 476.413L341.256 478.145L346.731 472.245C353.06 465.378 353.981 461.357 348.35 465.164C342.795 468.921 338.716 468.606 341.816 464.692C346.286 459.04 344.521 454.585 339.948 459.973C337.609 462.724 332.912 466.649 329.487 468.702C317.318 476.002 284.485 466.064 284.485 455.092C284.485 452.898 283.373 449.754 282.056 448.095C280.459 446.071 280.415 445.103 281.869 445.103C283.066 445.103 284.538 446.802 285.169 448.877C285.899 451.279 288.741 452.533 292.886 452.341C296.48 452.173 301.439 452.898 303.904 453.916C307.586 455.435 308.387 454.76 308.387 450.452V445.261L315.17 450.294C320.049 453.933 322.366 454.591 323.389 452.499C324.172 450.896 323.589 448.511 322.082 447.229C319.715 445.216 331.342 445.486 339.263 447.623C340.358 447.915 343.289 447.302 345.797 446.284C350.005 444.575 350.08 444.063 347.167 439.991C344.24 435.908 344.401 435.497 349.097 434.013C354.853 432.185 355.996 427.472 350.716 427.325C348.519 427.264 349.44 425.97 353.203 423.782C356.49 421.876 361.814 417.562 365.029 414.188L370.82 408.052L363.539 406.319C359.501 405.363 356.192 403.502 356.192 402.152C356.192 400.735 353.874 400.369 350.716 401.365C345.931 402.872 345.508 402.647 347.728 399.239C351.575 393.339 345.842 391.534 339.944 396.803C337.186 399.267 331.195 401.1 325.444 401.207C317.598 401.353 316.477 400.858 319.902 398.924C323.776 396.742 324.159 394.689 322.455 385.083C322.375 384.622 319.297 386.601 315.606 389.487C311.918 392.366 305.865 394.694 302.16 394.678C289.742 394.627 268.366 384.172 254.791 371.473C249.565 366.58 250.672 365.567 256.721 369.662C259.857 371.782 260.595 371.433 260.644 367.772C260.702 363.481 260.8 363.436 262.762 367.693C263.891 370.145 265.621 371.54 266.618 370.764C267.619 369.982 270.696 371.225 273.467 373.514C278.449 377.642 278.48 377.58 278.507 370.449C278.525 366.478 279.196 364.521 280.001 366.045C281.745 369.341 289.27 374.616 292.264 374.616C293.433 374.616 294.523 372.069 294.63 368.953C294.817 363.576 294.87 363.61 296.187 369.583C296.947 373.042 297.992 375.353 298.491 374.774C298.989 374.195 301.262 374.971 303.53 376.506C306.897 378.784 308.169 378.413 310.38 374.538C311.87 371.928 313.858 370.421 314.801 371.158C315.739 371.889 315.886 369.566 315.17 365.961C313.929 359.696 314.098 359.51 319.342 362.03C325.818 365.14 327.833 363.599 324.323 358.256C322.224 355.061 322.433 354.476 325.382 354.476C328.736 354.476 328.687 354.212 325.444 349.679C323.558 347.047 322.864 344.263 323.887 343.464C324.906 342.666 327.308 344.224 329.238 346.923C332.276 351.164 334.229 351.546 341.937 349.6C342.346 349.499 341.727 347.919 340.509 346.063C337.916 342.115 339.45 339.376 344.303 339.376C346.189 339.376 349.871 337.143 352.46 334.415L357.188 329.46L351.215 328.988C347.928 328.729 343.04 328.763 340.384 329.067C336.172 329.55 335.852 329.089 338.143 325.608C342.497 318.972 339.432 318.994 331.729 325.608C323.38 332.779 318.35 334.027 322.331 327.964C324.435 324.759 324.319 324.359 321.583 325.687C317.781 327.531 317.229 324.106 320.649 319.787C325.751 313.336 320.338 314.304 314.053 320.968C301.671 334.078 300.15 334.494 286.166 329.146C271.501 323.538 261.667 316.536 258.714 309.557C256.904 305.288 257.317 304.681 261.641 304.996C264.367 305.192 267.018 307.116 267.552 309.242C268.09 311.373 270.416 313.274 272.72 313.494C276.083 313.814 276.67 312.807 275.771 308.46C274.771 303.629 275.193 303.803 279.316 309.872C281.869 313.623 285.93 316.716 288.407 316.716C292.313 316.716 292.775 315.76 291.766 309.399C290.258 299.872 294.937 297.246 299.798 304.917C303.121 310.159 314.325 313.842 314.365 309.714C314.374 308.691 311.46 304.833 307.889 301.064C302.938 295.834 302.258 294.192 304.962 294.141C306.915 294.102 309.005 295.688 309.632 297.757C310.259 299.827 311.527 300.986 312.434 300.277C313.337 299.568 314.609 300.125 315.299 301.537C315.984 302.943 318.95 304.13 321.833 304.13C326.85 304.13 326.903 303.944 323.202 300.513C319.471 297.049 319.538 296.829 324.946 294.22C328.028 292.729 331.613 291.515 332.912 291.464C334.211 291.413 333.037 289.766 330.297 287.848C325.444 284.445 325.493 284.372 333.037 285.249C337.925 285.823 341.821 284.85 343.618 282.578C347.999 277.044 344.894 273.922 335.029 273.922C329.518 273.922 326.547 272.882 327.312 271.324C329.821 266.195 322.464 266.105 314.178 271.167C304.015 277.37 302.129 277.685 303.654 272.663C304.375 270.289 303.637 268.889 301.666 268.889C299.691 268.889 298.953 267.483 299.674 265.11C301.012 260.695 300.323 260.543 293.758 263.698C289.493 265.745 289.021 265.43 289.897 261.178C290.947 256.122 287.602 254.351 285.419 258.816C284.729 260.222 280.513 263.788 276.02 266.684C268.793 271.341 266.925 271.572 259.835 268.889C253.221 266.386 252.376 265.43 255.165 263.462C257.024 262.146 258.59 259.356 258.59 257.247C258.59 254.266 256.548 253.558 249.565 254.098C242.769 254.626 239.642 253.558 236.742 249.851C232.37 244.261 228.14 224.301 230.889 222.158C232.588 220.831 233.54 226.196 232.819 233.092C232.632 234.863 234.389 239.694 236.742 243.873C240.153 249.93 241.608 250.852 243.836 248.513C245.375 246.899 246.696 242.63 246.825 238.997C247.008 233.766 247.301 233.44 248.071 237.422C249.578 245.245 254.747 251.269 259.959 251.269C264.029 251.269 264.407 250.571 262.637 246.387C260.035 240.245 260.017 237.939 262.575 239.936C263.669 240.797 264.567 240.302 264.567 238.839C264.567 237.371 265.461 236.162 266.556 236.162C267.654 236.162 268.548 237.748 268.548 239.7C268.548 244.216 280.188 256.78 282.616 254.885C283.622 254.103 284.485 251.28 284.485 248.592C284.485 245.903 285.379 243.715 286.539 243.715C287.7 243.715 288.118 242.298 287.411 240.566C286.704 238.839 287.785 239.987 289.84 243.164C291.89 246.342 294.256 248.119 295.066 247.096C295.875 246.078 298.482 244.852 300.919 244.424C306.314 243.474 314.365 238.457 314.365 236.005C314.365 235.021 311.696 232.827 308.449 231.129C305.202 229.425 302.738 226.731 302.97 225.15C303.21 223.542 300.679 222.141 297.307 222.001C290.338 221.714 280.197 215.73 283.986 214.133C285.352 213.559 286.477 211.456 286.477 209.493C286.477 205.5 276.514 204.482 273.405 208.154C270.394 211.709 262.575 214.037 262.575 211.382C262.575 210.055 264.843 208.267 267.676 207.367C271.924 206.023 272.404 205.044 270.416 202.018C268.45 199.026 268.744 198.385 271.786 198.323C276.225 198.228 283.715 191.529 281.932 189.274C281.247 188.408 276.585 187.154 271.599 186.445C261.632 185.022 261.681 185.062 264.625 178.105C266.538 173.589 267.023 173.521 271.413 177.16C275.847 180.832 276.225 180.709 277.448 175.821C278.169 172.953 279.61 171.255 280.624 172.048C281.642 172.84 282.492 172.334 282.492 170.866C282.492 169.399 284.284 168.189 286.477 168.189C288.665 168.189 290.458 166.581 290.458 164.652C290.458 160.805 286.25 158.122 280.312 158.122C275.789 158.122 275.184 153.499 279.441 151.435C281.078 150.642 281.998 149.163 281.496 148.134C280.993 147.099 282.817 144.782 285.543 142.937C292.255 138.399 290.596 134.209 282.056 134.209H275.024L280.063 125.868C283.995 119.361 284.52 116.92 282.616 114.541C280.722 112.173 278.787 113.461 273.654 120.519C267.561 128.883 266.929 129.209 264.812 124.923C263.558 122.381 261.641 120.362 260.582 120.362C258.211 120.362 251.922 134.45 250.557 142.858C249.552 149.079 231.218 168.932 228.46 166.778C227.673 166.165 227.286 159.444 227.526 151.829C227.766 144.214 227.175 137.982 226.219 137.982C225.267 137.982 224.76 133.804 225.098 128.703C225.614 120.964 226.619 119.085 231.262 117.527C236.075 115.913 236.689 116.273 235.683 120.283C233.864 127.516 238.721 129.361 242.591 122.882C244.637 119.451 246.558 118.169 247.323 119.732C248.68 122.51 256.597 121.043 256.597 118C256.597 115.66 246.683 103.94 244.957 104.232C244.223 104.361 242.07 103.923 240.162 103.293C234.545 101.431 238.196 97.8937 244.148 99.4347C254.133 102.022 263.131 101.538 264.002 98.3324C264.474 96.6058 263.549 95.1885 261.952 95.1885C260.351 95.1885 257.949 93.4732 256.597 91.4148C255.245 89.3507 253.337 88.2934 252.363 89.0527C251.393 89.8119 250.619 89.5419 250.619 88.4228C250.624 87.3036 253.319 84.1091 256.597 81.342C262.628 76.2522 264.283 72.529 260.52 72.529C256.89 72.529 243.845 80.1553 242.093 83.3104C241.056 85.1776 240.856 84.2047 241.595 80.8696C242.262 77.8719 241.941 74.7562 240.91 73.9463C238.744 72.2535 230.702 88.4452 230.702 94.4799C230.702 96.7071 230.11 97.8206 229.394 96.9208C228.683 96.0153 226.846 97.1907 225.351 99.5922C222.981 103.4 222.78 102.371 223.67 91.6454C224.493 81.6851 226.365 76.8259 233.629 66.0838C238.561 58.7837 242.653 51.18 242.653 49.1665C242.653 43.1206 232.646 47.0969 230.577 53.9639C227.29 64.8971 223.67 61.1065 224.417 47.513C224.96 37.5977 224.253 33.8521 220.93 29.3416L216.758 23.7568ZM203.25 112.1C204.162 112.168 206.328 114.355 208.792 117.842C212.889 123.641 214.766 128.871 214.766 134.597C214.766 139.197 214.387 143.016 213.96 143.016C212.889 143.016 210.322 135.215 209.415 129.248C209.006 126.554 207.36 122.539 205.741 120.283C204.126 118.022 202.814 114.603 202.814 112.73C202.814 112.263 202.948 112.078 203.25 112.1ZM198.398 149.073C202.187 149.427 211.381 157.442 212.84 162.29C215.433 170.917 213.96 172.526 209.477 165.912C207.511 163.01 204.798 160.642 203.437 160.642C201.133 160.642 195.693 150.907 197.152 149.388C197.433 149.096 197.855 149.022 198.398 149.073ZM252.799 169.607C253.279 169.612 253.862 169.719 254.48 169.922C257.767 171.007 256.997 172.503 249.316 179.916C244.334 184.713 238.512 188.841 236.431 189.038C234.345 189.235 232.695 190.23 232.695 191.321C232.695 192.412 231.685 193.363 230.515 193.363C229.345 193.363 228.669 190.815 229.021 187.699C229.572 182.801 230.711 182.115 237.173 182.823C242.924 183.459 244.646 182.733 244.646 179.679C244.646 177.492 245.989 175.743 247.635 175.743C249.276 175.743 250.619 174.151 250.619 172.205C250.619 170.507 251.362 169.595 252.799 169.607ZM229.706 205.635L234.376 208.548C236.942 210.128 241.199 210.719 243.836 209.886C246.549 209.02 248.631 209.453 248.631 210.904C248.631 212.316 247.768 213.503 246.763 213.503C245.758 213.503 243.645 214.088 242.093 214.841C240.54 215.595 237.142 213.812 234.5 210.904L229.706 205.635ZM251.553 211.849C252.007 211.934 252.674 212.524 253.608 213.503C255.836 215.837 256.597 215.876 256.597 213.66C256.597 212.024 257.575 211.495 258.839 212.479C260.426 213.722 260.013 215.325 257.469 217.67C252.336 222.411 250.619 221.9 250.619 215.707C250.619 212.918 250.801 211.709 251.553 211.849ZM281.558 221.056C283.266 221.056 284.164 222.186 283.488 223.57C281.896 226.832 278.507 226.832 278.507 223.57C278.507 222.186 279.85 221.056 281.558 221.056ZM234.687 261.336C235.781 261.336 236.675 266.999 236.675 273.922C236.675 286.684 236.377 287.78 234.002 284.777C231.881 282.094 232.49 261.336 234.687 261.336ZM219.498 294.923C220.21 294.771 220.743 295.322 220.743 296.419C220.743 297.887 219.845 299.096 218.751 299.096C216.198 299.096 216.198 297.313 218.751 295.317C219.022 295.103 219.258 294.973 219.498 294.923ZM235.559 300.277C235.67 300.26 235.857 300.479 235.995 300.901C236.537 302.605 236.56 306.008 236.057 308.454C235.55 310.907 235.101 309.54 235.061 305.389C235.03 302.274 235.212 300.316 235.559 300.277ZM210.78 301.61C211.879 301.61 212.773 302.105 212.773 302.712C212.773 303.325 211.879 304.534 210.78 305.389C209.686 306.244 208.788 305.755 208.788 304.287C208.788 302.819 209.686 301.61 210.78 301.61ZM200.822 306.649C201.916 306.649 202.814 307.138 202.814 307.746C202.814 308.359 201.916 309.568 200.822 310.423C199.728 311.278 198.829 310.788 198.829 309.321C198.829 307.853 199.728 306.649 200.822 306.649ZM159.368 306.728C160.729 306.897 162.42 308.033 163.723 310.108C167.761 316.536 174.455 317.391 178.165 311.919C181.447 307.071 186.131 307.009 183.769 311.84C183.137 313.128 183.991 314.197 185.633 314.197C187.278 314.197 189.191 313.066 189.867 311.683C191.477 308.393 194.848 308.376 194.848 311.683C194.848 313.1 192.384 315.49 189.369 316.952C186.358 318.415 178.77 320.175 172.561 320.884C162.678 322.02 161.014 321.587 159.119 317.11C157.927 314.298 157.002 310.8 157.002 309.321C157.002 307.408 158.003 306.553 159.368 306.728ZM342.123 440.07C343.284 440.07 344.24 441.2 344.24 442.584C344.24 445.812 342.831 445.812 341.252 442.584C340.576 441.2 340.962 440.07 342.123 440.07ZM175.612 470.277C176.83 470.277 174.473 472.543 170.386 475.31C163.149 480.209 158.99 481.576 158.99 479.09C158.99 477.526 172.672 470.277 175.612 470.277ZM347.603 577.815C349.796 577.798 351.98 578.091 353.327 578.76C356.049 580.104 354.711 580.678 348.724 580.807C344.067 580.903 340.255 580.548 340.255 580.02C340.255 578.681 343.942 577.843 347.603 577.815ZM392.17 591.425C392.864 591.392 393.691 591.532 394.411 591.898C395.999 592.702 395.488 593.27 393.166 593.394C391.067 593.501 389.893 592.893 390.551 592.055C390.884 591.639 391.48 591.459 392.17 591.425ZM392.668 654.123C392.757 654.089 392.904 654.123 393.042 654.123C394.14 654.123 396.377 655.22 398.023 656.564C399.664 657.902 400.114 658.999 399.019 658.999C397.921 658.999 395.684 657.902 394.038 656.564C392.601 655.388 392.045 654.354 392.668 654.123ZM45.6964 755.84C46.6394 755.66 46.9062 756.184 46.3814 757.258C45.7142 758.624 44.3621 759.772 43.3347 759.772C40.4659 759.772 41.0663 757.904 44.5133 756.234C44.9581 756.02 45.3851 755.897 45.6964 755.84ZM77.8806 777.476L82.4218 783.612L86.9052 789.748L90.3299 783.14C93.4434 777.128 93.8748 777.01 95.6806 781.093C97.1662 784.445 98.0735 784.715 99.23 782.352C100.324 780.108 101.134 780.738 102.094 784.551C103.455 789.973 107.196 792.122 107.196 787.465C107.196 786.081 109.664 784.94 112.676 784.945H118.151L112.177 788.961C108.326 791.525 103.171 792.465 97.7355 791.711C93.1009 791.07 89.7962 791.604 90.3922 792.813C91.9623 796.025 88.9912 795.44 82.8577 791.396C79.7309 789.338 77.2579 788.876 76.8843 790.299C76.5285 791.638 74.607 791.953 72.65 791.002C69.3453 789.399 69.4343 788.876 73.5218 783.376L77.8806 777.476ZM124.191 780.227C124.609 780.221 125.014 780.232 125.374 780.384C126.864 781.014 125.952 782.167 123.257 783.061C119.943 784.152 119.165 783.826 120.642 781.959C121.513 780.862 122.932 780.238 124.191 780.227ZM103.962 883.991C104.674 883.839 105.208 884.385 105.208 885.487C105.208 886.949 104.309 888.159 103.215 888.159C100.662 888.159 100.662 886.376 103.215 884.385C103.486 884.171 103.722 884.042 103.962 883.991Z" fill="#001223"/>
</g>
</svg>
