<svg width="334" height="1179" viewBox="0 0 334 1179" fill="none" xmlns="http://www.w3.org/2000/svg">
<mask id="mask0_1050_1451" style="mask-type:luminance" maskUnits="userSpaceOnUse" x="-137" y="-22" width="459" height="1173">
<path d="M-137 -22H321.994V1150.5H-137V-22Z" fill="white"/>
</mask>
<g mask="url(#mask0_1050_1451)">
<path d="M72.349 -22L72.0954 -14.6382C71.9868 -10.5895 71.7604 1.63079 71.5883 12.542L71.3348 32.367L63.8596 20.8485C55.2164 7.44739 54.0619 6.91431 54.1026 16.1318C54.1162 19.8701 57.6432 28.6422 61.8947 35.6667C68.7088 46.9153 69.6641 50.4579 70.0716 65.3975C70.3749 76.6798 69.7818 81.7204 68.3601 80.4046C67.1829 79.3249 66.2684 76.4774 66.2684 74.0819C66.2684 71.6864 65.3538 69.7431 64.24 69.7431C63.1262 69.7431 62.2116 64.4798 62.2116 58.0356C62.2116 44.6345 57.1089 35.2618 53.9124 42.7451C52.8937 45.1338 52.4727 48.6832 52.9616 50.6738C54.0392 55.0733 48.2076 52.2055 44.2822 46.4294C42.8062 44.2566 40.4291 42.5562 38.9577 42.5562C33.4747 42.5562 34.3712 51.0787 41.0494 62.4757C48.9909 76.0253 49.421 78.7311 44.1509 80.7825C41.5656 81.7946 40.6782 84.1361 41.3664 88.0498C42.5073 94.5547 47.945 95.7086 51.6305 90.2226C54.3924 86.1132 54.4603 86.3291 54.9266 97.6789C55.3115 107.153 54.9628 107.369 48.0175 101.458C41.2215 95.6681 39.9085 95.8098 39.9085 102.686C39.9085 105.884 42.8741 111.957 46.4962 116.181C51.4404 121.944 51.9927 123.469 48.7781 122.221C45.98 121.134 44.0694 122.214 43.268 125.338C41.5203 132.113 40.1077 131.553 26.6017 118.449C19.9733 112.011 13.5486 107.281 12.3442 107.969C8.12447 110.378 10.8048 121.904 16.7179 126.748L22.6718 131.566L17.225 132.511C14.2504 133.037 11.3436 135.345 10.7596 137.606C9.62312 142.019 14.6941 146.351 17.7321 143.55C18.7463 142.619 19.6292 143.301 19.6292 145.062C19.6292 146.823 21.2274 148.328 23.1788 148.463C25.7551 148.632 25.9362 149.131 23.8761 150.346C21.7255 151.614 22.1511 153.328 25.7143 157.329L30.4683 162.62L21.9745 164.793C13.2407 166.986 11.2485 171.844 16.4644 178.288C18.4294 180.717 20.4985 180.96 22.7985 179.044C26.6244 175.852 33.8233 177.634 33.8233 181.777C33.8233 183.248 35.648 184.516 37.8801 184.516C40.1122 184.516 41.9368 183.16 41.9368 181.493C41.9368 179.833 43.9879 178.518 46.4962 178.572L51.06 178.666L46.0525 184.8C42.1632 189.618 41.6833 191.5 43.8385 193.484C46.881 196.285 52.1376 194.233 54.7365 189.233C55.6737 187.425 55.9227 189.692 55.2436 194.334C54.2294 201.251 54.6821 202.641 58.0914 202.641C60.3462 202.641 62.2523 200.94 62.3384 198.862C62.447 196.285 62.8364 196.446 63.6061 199.335C64.4256 202.425 65.4534 201.582 67.3459 196.311L69.9448 189.044L72.4757 197.351C73.8703 201.912 74.3683 206.615 73.5533 207.83C72.7383 209.045 65.4715 210.522 57.3942 211.136C43.8837 212.149 41.9278 211.541 32.9993 203.113C24.1161 194.712 17.6053 193.309 17.6053 199.807C17.6053 201.237 20.1136 204.571 23.1788 207.169L28.7569 211.885L21.6576 209.908C14.6397 207.992 2.82713 198.93 -2.35701 191.406C-3.82849 189.267 -6.79408 187.539 -8.94471 187.539C-13.0784 187.539 -14.1515 193.376 -10.9097 198.201C-9.6963 200.016 -12.8113 201.474 -19.4035 202.074C-25.1401 202.594 -30.6095 203.7 -31.5059 204.524C-38.1706 210.664 -21.7443 221.811 -9.83213 219.247L-1.65974 217.554L-7.36005 222.365C-10.8146 225.287 -12.843 229.194 -12.431 232.277C-11.444 239.659 -2.683 237.183 2.90411 227.932C5.50298 223.627 9.01642 220.806 11.0131 221.515C13.8112 222.506 13.449 223.512 9.17488 226.144C2.27023 230.388 0.178467 235.361 4.36201 237.75C6.16853 238.782 7.19179 241.367 6.6394 243.506C6.09157 245.645 7.00162 248.162 8.6044 249.079C10.2072 249.99 11.5202 249.545 11.5202 248.135C11.5202 245.665 18.0717 241.434 22.9887 240.678C24.2836 240.476 27.2492 237.682 29.5809 234.538C31.9127 231.4 33.8233 229.841 33.8233 231.049C33.8233 234.187 29.3953 240.348 24.1297 244.545C21.644 246.529 19.6337 249.498 19.6292 251.151C19.6292 256.853 25.8728 257.737 29.7077 252.568C33.366 247.635 33.4883 247.682 32.4333 253.702C30.8849 262.514 35.0322 261.637 39.1478 252.284C41.7195 246.434 42.9827 245.516 44.2822 248.512C45.6903 251.758 46.2653 251.731 47.7005 248.418C48.6649 246.198 51.1732 244.713 53.2786 245.112C61.46 246.664 72.2177 235.766 72.5391 225.577C72.7157 220.077 72.9194 220.239 74.1872 226.798C75.3961 233.033 74.4 236.063 68.4235 244.072C64.4392 249.41 55.556 258.189 48.6513 263.614L36.1053 273.425L26.3482 266.158C20.9829 262.17 15.4502 258.627 14.0557 258.229C10.4381 257.21 10.9271 263.04 15.0699 270.315C18.2618 275.915 18.2437 276.07 15.1332 272.487C13.2316 270.294 10.8999 269.235 9.93553 270.126C8.97115 271.016 5.63879 269.795 2.52379 267.386C-4.94681 261.617 -7.27402 261.9 -5.90215 268.331C-4.99661 272.595 -5.94742 273.554 -10.8463 273.331C-14.1877 273.189 -17.3933 272.271 -18.009 271.354C-20.4766 267.676 -27.0054 273.088 -27.0054 278.81C-27.0054 283.453 -26.0184 284.512 -22.7585 283.243C-18.6882 281.658 -18.661 281.799 -22.0613 287.4C-25.7332 293.439 -25.131 294.269 -17.4386 293.345C-13.8979 292.92 -13.1645 293.939 -14.2058 297.967C-15.3015 302.225 -14.5997 302.94 -10.4026 301.746C-6.20549 300.551 -5.4856 301.26 -6.28247 305.801C-7.36909 311.975 -6.08325 312.637 -1.02588 308.635C3.94547 304.701 10.2208 317.198 6.13684 322.887C3.84586 326.072 3.15312 325.943 2.27023 322.509C1.66354 320.154 -1.93141 318.204 -5.90215 317.981C-9.80044 317.758 -12.5306 318.784 -11.9239 320.242C-11.3172 321.699 -12.6076 322.151 -14.8397 321.281C-19.9604 319.29 -20.1189 323.872 -15.0932 328.548C-12.431 331.025 -11.607 334.351 -12.3042 339.783C-13.5312 349.338 -13.8391 349.419 -21.3006 340.067C-24.6149 335.91 -28.649 332.516 -30.2382 332.516C-33.6339 332.516 -33.806 333.994 -31.1845 341.295C-29.0565 347.212 -30.3921 347.354 -45.7589 342.988C-50.7665 341.565 -53.3653 341.963 -53.3653 344.122C-53.3653 348.036 -42.8341 356.68 -38.0302 356.68C-35.2593 356.68 -35.0963 357.435 -37.1428 361.113C-39.1576 364.73 -39.0852 365.978 -36.6991 367.341C-35.0692 368.272 -32.8868 368.751 -31.8817 368.475C-27.6484 367.294 -25.0088 369.008 -25.4842 372.537C-25.7966 374.851 -23.8361 376.221 -20.4132 376.12C-16.1255 375.992 -14.8261 377.382 -14.7763 382.159C-14.7084 388.124 -14.5499 388.064 -10.7195 381.215C-7.55473 375.56 -6.72617 375.135 -6.72617 379.143C-6.72617 381.916 -5.81612 383.381 -4.70232 382.348C-3.584 381.323 -1.80463 384.001 -0.708939 388.293C0.386749 392.591 2.6732 396.863 4.36201 397.828C6.05081 398.793 7.46797 401.458 7.46797 403.773C7.46344 406.087 8.93039 408.024 10.7596 408.024C12.5887 408.024 15.2374 410.331 16.6545 413.213C19.0813 418.159 19.5296 418.118 24.0029 412.457L28.7569 406.512L25.1438 412.835C22.9615 416.695 16.2018 421.094 7.65813 424.164C-10.1989 430.582 -14.5137 430.379 -21.8077 423.22C-28.563 416.587 -31.8591 417.815 -30.0435 426.33C-29.0248 431.115 -29.8035 432.188 -34.6074 432.188C-37.8039 432.188 -41.3445 430.831 -42.4628 429.164C-43.8256 427.133 -45.7997 427.532 -48.4212 430.393C-52.1836 434.495 -52.0931 434.873 -45.8223 440.211C-41.0955 444.232 -39.5968 447.289 -40.4389 451.25C-41.186 454.786 -40.6019 456.513 -38.8543 456.162C-32.9819 454.968 -30.7045 456.459 -31.8183 460.785C-33.7652 468.335 -26.3625 471.939 -20.7301 466.163C-17.0356 462.377 -16.4923 462.195 -18.3214 465.596C-21.7489 471.952 -18.4528 478.592 -13.1283 476.075C-5.44937 472.445 -3.38025 478.255 -10.9097 482.303C-20.5807 487.513 -30.2291 487.405 -33.8467 482.02C-37.8446 476.062 -44.0565 475.987 -42.5262 481.926C-41.5799 485.603 -42.9925 486.089 -50.4495 484.571C-61.3566 482.344 -62.724 487.364 -52.6636 492.783C-47.7873 495.408 -46.0623 497.965 -46.7097 501.656C-47.7918 507.824 -41.3897 511.251 -36.4456 507.129C-33.7562 504.888 -33.0861 505.759 -33.0861 511.751C-33.0861 517.878 -32.3435 518.924 -28.7124 517.507C-25.1265 516.11 -24.6058 516.71 -25.7377 521.096C-26.8425 525.395 -26.2765 526.238 -23.0121 524.963C-20.7618 524.093 -18.8919 524.592 -18.8919 526.097C-18.8919 531.394 -14.6043 528.735 -9.19826 520.152C-2.68752 509.807 1.17003 507.527 5.94669 511.184C11.5021 515.442 10.1121 518.876 3.41121 517.412C-3.5704 515.887 -4.59818 520.489 0.432022 531.198C3.37952 537.46 3.36592 537.898 -0.387482 537.898C-2.60602 537.898 -5.81158 539.936 -7.48682 542.426C-9.15751 544.916 -11.8831 546.961 -13.5674 546.961C-15.2562 546.961 -17.1669 548.229 -17.8144 549.788C-18.4618 551.347 -22.5412 552.521 -26.8787 552.433C-31.2116 552.346 -35.9385 553.358 -37.3964 554.701C-38.8497 556.037 -42.9971 556.853 -46.5829 556.489C-51.9799 555.949 -53.2023 557.029 -53.7411 562.717C-54.212 567.67 -55.7967 569.66 -59.446 569.897C-62.235 570.072 -65.427 570.598 -66.5408 571.023C-67.6591 571.455 -70.1674 571.509 -72.1188 571.212C-74.0702 570.922 -75.6685 571.887 -75.6685 573.291C-75.6685 577.292 -64.4445 586.219 -59.3826 586.219C-54.9455 586.219 -54.864 586.395 -58.4318 592.266C-62.0131 598.156 -61.9769 598.305 -56.7837 598.305C-52.813 598.305 -51.7626 599.432 -52.6681 602.927C-53.6506 606.746 -52.7949 607.246 -48.0408 605.572C-44.8307 604.445 -41.7565 603.575 -41.1951 603.588C-34.8745 603.771 -33.403 604.81 -34.3538 608.494C-36.4727 616.72 -31.2207 616.483 -28.2053 608.211C-25.3393 600.336 -25.1808 600.235 -25.1038 606.611C-25.0586 610.35 -24.2934 613.508 -23.4558 613.69C-11.0636 616.389 -9.03074 615.491 -6.53601 606.517L-4.00053 597.455L-2.22571 604.628L-0.455399 611.895L3.47459 604.344C7.36383 596.807 7.3593 596.793 7.40457 603.588C7.46344 612.752 11.081 612.232 12.6611 602.833C13.3629 598.683 14.8344 595.282 15.8939 595.282C16.9534 595.282 17.1662 596.746 16.401 598.588C15.4321 600.923 17.0032 601.314 21.5987 599.816C26.475 598.217 27.9963 598.581 27.3624 601.416C26.1173 606.982 13.4173 616.423 7.15103 616.423C4.18542 616.423 1.3466 618.123 0.812347 620.201C0.214691 622.523 -3.74699 623.838 -9.5152 623.69C-14.6767 623.562 -18.8919 624.506 -18.8919 625.768C-18.8919 631.585 -11.856 637.874 -6.28247 637.003C-2.97276 636.484 -0.111298 637.253 0.0516968 638.798C0.590485 643.825 -11.2946 646.653 -40.1854 648.326C-72.7391 650.216 -85.8059 652.334 -85.8059 655.594C-85.8059 656.849 -88.0878 657.24 -90.8768 656.444C-93.7564 655.627 -95.9432 656.383 -95.9432 658.239C-95.9432 662.47 -89.3193 667.773 -83.9676 667.773C-81.6631 667.773 -79.7252 669.13 -79.7252 670.79C-79.7252 672.45 -80.7168 673.813 -81.8759 673.813C-83.0395 673.813 -86.0051 676.62 -88.4681 680.135L-92.9052 686.552L-86.3129 685.23C-81.9528 684.346 -79.7252 685.129 -79.7252 687.592C-79.7252 689.832 -78.1043 690.709 -75.6685 689.764C-73.4001 688.88 -71.6117 689.67 -71.6117 691.559C-71.6117 696.431 -66.4547 695.723 -63.5027 690.426C-62.1127 687.929 -60.0889 685.891 -58.9389 685.891C-57.7888 685.891 -58.2959 688.327 -60.1432 691.37C-61.9905 694.407 -63.5027 697.801 -63.5027 698.921C-63.5027 702.12 -55.7695 701.33 -54.375 697.977C-52.3693 693.138 -49.6844 694.468 -48.2944 700.993C-46.6644 708.638 -44.3508 708.591 -37.0161 700.804L-31.1211 694.576L-32.3888 703.827C-33.9146 715.197 -30.2337 716.115 -21.9979 706.472C-16.5874 700.129 -16.438 700.136 -18.575 706.094C-21.0969 713.105 -19.8835 716.432 -15.6592 714.023C-14.0836 713.119 -11.4259 714.043 -9.76875 716.094C-7.67244 718.685 -6.72617 718.827 -6.72617 716.472C-6.72617 714.61 -5.35883 713.078 -3.68359 713.078C-2.01291 713.078 -0.645554 714.947 -0.645554 717.322C-0.645554 720.258 1.15192 721.358 4.9325 720.723C26.0403 717.161 -1.26132 735.447 -25.8011 741.297C-41.8425 745.123 -43.4544 744.975 -48.7381 739.786C-51.8622 736.722 -55.516 734.232 -56.9105 734.219C-61.1031 734.185 -59.7674 740.231 -54.8821 743.376C-51.5317 745.528 -52.7451 745.758 -59.446 744.226C-64.4626 743.072 -70.8511 742.316 -73.6401 742.525C-76.4246 742.735 -83.2342 740.94 -88.7216 738.558C-94.2046 736.183 -98.9994 734.624 -99.3661 735.164C-101.481 738.315 -88.4998 750.771 -81.242 752.526L-72.6259 754.604L-80.2278 754.982C-85.5251 755.245 -87.8342 756.736 -87.8342 759.894C-87.8342 762.384 -86.236 764.638 -84.2846 764.894C-82.3332 765.144 -79.8248 765.637 -78.7065 766.028C-77.5927 766.413 -75.3742 766.872 -73.7669 767.067C-71.6162 767.324 -71.8834 768.538 -74.7811 771.689C-79.7886 777.148 -77.4116 781.069 -71.8019 776.595C-68.3111 773.815 -67.555 774.105 -67.555 778.201C-67.555 782.074 -66.1061 782.864 -60.9672 781.791C-57.3406 781.028 -52.5504 779.422 -50.3182 778.201C-46.3249 776.015 -46.3792 776.042 -50.2549 780.752C-54.2075 785.543 -53.3608 786.656 -46.7731 785.657C-44.7538 785.354 -43.2234 787.216 -43.2234 789.909C-43.2234 796.366 -41.5799 795.833 -36.758 787.83L-32.6424 781.035L-35.9385 789.247C-37.7314 793.755 -39.1667 798.816 -39.1667 800.57C-39.1667 805.24 -29.2195 801.791 -24.4654 795.475C-20.4857 790.178 -20.454 790.28 -21.9979 797.648C-24.1395 807.885 -26.6297 810.044 -45.3152 818.411C-60.8359 825.355 -61.7732 825.442 -70.1538 820.678C-79.2906 815.476 -91.8865 813.998 -91.8865 818.128C-91.8865 819.457 -90.827 822.257 -89.4823 824.262C-87.8342 826.718 -90.5463 826.333 -97.7814 823.128C-103.699 820.51 -109.929 819.12 -111.659 820.112C-114.307 821.623 -114.067 823.128 -110.137 829.356L-105.51 836.718L-112.356 833.796C-121.176 830.024 -131.893 830.031 -133.455 833.796C-135.067 837.676 -121.506 845.949 -113.497 845.969H-107.095L-113.053 853.048C-118.93 860.059 -118.876 869.249 -112.99 865.889C-111.029 864.769 -110.137 866.59 -110.137 871.739C-110.137 877.09 -109.078 879.195 -106.271 879.195C-104.12 879.195 -100.946 881.274 -99.2393 883.818C-96.6586 887.664 -95.4452 887.765 -92.0132 884.573C-89.7404 882.461 -87.8342 879.701 -87.8342 878.44C-87.8342 877.178 -86.236 878.554 -84.2212 881.463C-80.3365 887.063 -79.2317 894.297 -82.2562 894.297C-83.2523 894.297 -83.4017 895.761 -82.6365 897.597C-81.6721 899.925 -83.1753 900.363 -87.5807 898.919C-91.6239 897.597 -93.9148 897.974 -93.9148 900.053C-93.9148 901.902 -97.8629 903.359 -103.043 903.359C-112.542 903.359 -114.334 905.977 -109.123 912.422C-107.095 914.932 -102.803 915.593 -96.4503 914.399L-86.82 912.61L-94.3586 918.555C-99.597 922.692 -101.535 925.964 -100.697 929.217C-99.9411 932.145 -98.2523 933.13 -96.1968 931.862C-94.3902 930.749 -91.5333 929.527 -89.8626 929.122C-88.1874 928.724 -87.961 928.974 -89.3555 929.689C-94.4899 932.321 -91.8367 937.172 -86.3129 935.263C-82.3196 933.88 -81.5816 934.19 -83.7141 936.295C-89.0793 941.599 -84.3163 943.138 -77.8825 938.185C-74.437 935.526 -71.6117 934.635 -71.6117 936.201C-71.6117 937.766 -72.7527 939.71 -74.1472 940.452C-75.5417 941.194 -75.9764 942.922 -75.098 944.318C-74.2196 945.722 -70.9009 945.378 -67.6817 943.563C-62.887 940.87 -61.9769 941.052 -62.8689 944.507C-63.6521 947.551 -62.9277 948.111 -60.2066 946.68C-57.0418 945.013 -56.838 945.405 -59.0656 948.947C-61.1393 952.24 -68.1209 953.036 -90.9991 952.53C-108.707 952.146 -120.275 953.043 -120.275 954.798C-120.275 956.397 -118.862 957.726 -117.11 957.726C-115.358 957.726 -112.655 959.643 -111.088 961.971C-108.648 965.608 -108.698 966.465 -111.405 968.01C-113.139 969.002 -117.44 969.778 -120.972 969.805C-128.424 969.859 -133.536 973.793 -131.748 978.111C-129.534 983.442 -119.469 984.414 -111.152 980.095C-100.063 974.333 -99.4612 974.663 -105.198 983.206C-112.347 993.861 -111.826 1000.28 -104.12 996.985C-100.81 995.575 -97.1612 993.517 -96.0066 992.457C-94.8566 991.398 -93.8333 993.037 -93.6658 996.04C-93.4938 999.05 -93.2176 1003.05 -93.0953 1005.01C-92.9686 1006.97 -92.2532 1009.56 -91.5107 1010.68C-89.9124 1013.05 -77.6969 1002.87 -77.6969 999.158C-77.6969 997.754 -76.8683 997.417 -75.7952 998.402C-74.5456 999.556 -74.5456 1002.95 -75.7952 1007.84C-76.8683 1012.05 -77.6969 1016.84 -77.6969 1018.51C-77.6969 1022.5 -68.1119 1012.17 -58.4952 997.835C-51.3234 987.147 -50.2956 988.975 -56.9739 1000.57C-58.6129 1003.42 -59.3464 1008.06 -58.6219 1010.86C-57.4583 1015.39 -56.7882 1015.13 -52.161 1008.69L-46.8999 1001.52L-47.5971 1009.07C-48.2401 1016 -49.621 1016.91 -64.5169 1020.58C-74.9848 1023.17 -81.8351 1023.56 -83.8409 1021.72C-88.9254 1017.04 -100 1014.27 -100 1017.66C-100 1019.33 -98.4017 1021.35 -96.4503 1022.09C-94.4989 1022.84 -97.4645 1022.82 -103.043 1022.09C-111.192 1021.03 -112.682 1021.49 -110.644 1024.55C-106.769 1030.38 -107.638 1032.55 -113.18 1030.97C-119.736 1029.1 -128.932 1032.59 -127.374 1036.34C-126.704 1037.96 -124.082 1039.27 -121.542 1039.27C-112.877 1039.27 -114.095 1043.43 -124.648 1049.75C-142.641 1060.52 -138.716 1068.53 -120.216 1058.81C-110.848 1053.89 -107.19 1054.74 -114.067 1060.23C-116.395 1062.08 -118.251 1065.73 -118.251 1068.34C-118.251 1071.99 -117.019 1072.63 -112.863 1071.08C-108.077 1069.29 -107.72 1069.58 -110.074 1073.82C-115.539 1083.63 -109.743 1083.65 -100.697 1073.82C-96.473 1069.23 -96.3054 1069.27 -97.4645 1075.99C-98.5557 1082.28 -98.3383 1082.59 -95.246 1078.82C-92.1989 1075.09 -91.9906 1075.27 -93.2221 1080.33C-94.431 1085.33 -93.9556 1085.17 -89.5457 1079.2C-84.3796 1072.2 -81.2012 1072.79 -83.1436 1080.33C-84.6966 1086.34 -79.8339 1085.54 -72.1188 1078.54C-68.4469 1075.2 -65.5311 1074.05 -65.5311 1075.89C-65.5311 1077.94 -63.4076 1078.47 -59.9531 1077.31C-56.1815 1076.04 -55.362 1076.31 -57.4176 1078.16C-59.0928 1079.67 -65.4813 1082.41 -71.6117 1084.29C-84.8188 1088.35 -88.9209 1091.66 -86.8834 1096.56C-85.4844 1099.94 -82.7588 1099.56 -70.5975 1094.67C-67.4916 1093.42 -68.0847 1095.35 -73.133 1102.6C-76.7596 1107.82 -79.7252 1112.72 -79.7252 1113.55C-79.7252 1116.56 -68.4514 1112.82 -61.9814 1107.7C-54.873 1102.07 -53.7819 1103.8 -58.4952 1113.08C-62.6153 1121.19 -62.2169 1124.77 -57.4176 1122.9C-54.7825 1121.87 -53.3653 1122.87 -53.3653 1125.63C-53.3653 1131.29 -51.509 1130.98 -46.7731 1124.6C-43.0333 1119.55 -42.8612 1119.59 -43.5404 1125.35C-44.627 1134.57 -33.3758 1131.79 -27.3858 1121.39L-22.6951 1113.27L-24.0263 1123.09C-25.7875 1136.08 -20.6985 1136.41 -12.8113 1123.84C-9.68272 1118.86 -6.862 1114.78 -6.47263 1114.78C-6.08325 1114.78 -5.62596 1118.3 -5.45844 1122.62C-4.99661 1134.49 -1.69597 1137.7 2.52379 1130.36C5.85612 1124.56 6.33153 1124.44 8.79909 1129.22C11.2395 1133.94 11.5111 1133.88 12.6611 1127.8C13.4037 1123.88 15.011 1121.87 16.6545 1122.8C18.4022 1123.8 19.9054 1121.43 20.7747 1116.29C21.7119 1110.71 22.6582 1109.31 23.7493 1111.95C24.6277 1114.06 27.2401 1116.23 29.5809 1116.77C32.8816 1117.51 34.8239 1114.75 38.2604 1104.21C42.702 1090.59 47.3926 1085.33 44.9794 1096.66C43.4219 1103.97 44.5946 1104.17 51.1234 1097.79C53.8717 1095.11 56.1898 1090.01 56.3211 1086.47C56.5068 1081.31 56.7784 1081.08 57.5255 1085.33C59.0649 1094.13 62.2116 1088.02 62.275 1076.08C62.3293 1067.05 62.6915 1065.95 64.3667 1070.23C65.5032 1073.14 68.333 1075.52 70.6421 1075.52C74.6354 1075.52 74.7939 1076.62 73.4945 1098.92C72.5844 1114.51 70.4564 1127.22 67.1558 1136.96C65.2225 1142.66 63.6016 1147.74 62.7821 1150.55H113.224C115.457 1147.89 114.451 1143.2 112.147 1134.98C108.547 1122.16 107.162 1095.99 109.992 1094.59C111.096 1094.03 113.582 1097.61 115.565 1102.61C119.264 1111.93 123.806 1115.36 121.714 1107.23C119.319 1097.93 123.09 1103.03 125.834 1112.8C128.021 1120.6 129.773 1122.93 133.436 1122.52C136.062 1122.23 139.526 1123.4 141.101 1125.17C143.157 1127.45 144.198 1127.36 144.778 1124.79C145.316 1122.41 146.919 1123.17 149.532 1127.05C154.747 1134.83 157.346 1134.45 156.119 1126.11C155.535 1122.14 155.825 1120.62 156.817 1122.52C159.153 1126.99 165.623 1130.23 165.623 1126.96C165.623 1123.91 176.815 1124.99 182.669 1128.56C185.753 1130.44 186.319 1129.85 185.332 1126.02C184.643 1123.34 185.141 1120.61 186.473 1119.88C188.32 1118.86 188.342 1117.55 186.409 1114.5C181.805 1107.23 183.711 1106.29 191.285 1112.05C199.662 1118.4 201.998 1117.47 197.941 1109.5C195.772 1105.23 195.741 1104.89 197.878 1107.7C199.354 1109.65 201.79 1110.56 203.324 1109.69C204.864 1108.81 206.177 1109.3 206.177 1110.82C206.177 1112.34 207.413 1116.15 208.966 1119.32C211.397 1124.27 212.289 1124.48 215.178 1120.91C218.085 1117.32 218.904 1117.76 221.765 1123.84L225.062 1130.83L226.9 1123.56C228.593 1116.81 228.906 1116.68 231.332 1121.58C234.542 1128.06 235.978 1128.16 239.953 1122.24C242.425 1118.56 242.561 1116.72 240.587 1113.18C239.224 1110.73 238.712 1108.74 239.446 1108.74C240.179 1108.74 239.727 1105.69 238.432 1101.95C236.462 1096.26 237.2 1096.59 242.928 1104.31C255.546 1121.3 256.379 1121.93 259.974 1116.58C261.767 1113.91 262.514 1110.09 261.686 1107.99C260.839 1105.83 261.88 1106.19 264.094 1108.84C274.811 1121.66 285.664 1124.18 278.352 1112.14C275.047 1106.7 275.16 1106.28 280.439 1104.31L285.954 1102.23L280 1095.06C272.208 1085.57 276.373 1085.55 287.538 1095.06C292.392 1099.19 297.549 1102.59 298.944 1102.61C303.037 1102.66 301.855 1097.85 296.915 1094.3C292.809 1091.35 293.121 1091 300.528 1090.81C305.056 1090.7 310.53 1088.62 312.694 1086.18C316.438 1081.97 316.389 1081.75 310.602 1081.66C301.918 1081.51 271.035 1073.13 264.601 1069.19C256.719 1064.37 255.225 1056.98 263.017 1061.36C269.849 1065.21 273.304 1062.03 268.273 1056.55C265.353 1053.36 266.295 1052.98 274.042 1053.9C283.93 1055.08 286.035 1051.37 278.664 1045.79C274.721 1042.8 275.386 1042.42 283.989 1043.05C295.593 1043.9 298.867 1038.21 288.87 1034.56L282.214 1032.1L288.806 1030.97C296.521 1029.6 297.2 1026.49 290.835 1021.62C287.104 1018.78 288.684 1018.39 299.451 1019.74C311.585 1021.25 312.264 1021.01 308.637 1016.72C306.473 1014.15 303.113 1012.09 301.162 1012.09C299.211 1012.09 297.028 1010.59 296.281 1008.79C295.43 1006.73 296.702 1005.68 299.704 1006.05C308.175 1007.1 313.645 1006.11 313.645 1003.41C313.645 1001.96 307.216 999.839 299.387 998.685C291.559 997.538 285.587 995.5 286.144 994.158C286.701 992.815 292.546 989.92 299.134 987.74C311.562 983.631 319.431 977.484 316.941 973.772C315.664 971.87 304.381 974.609 289.313 980.568C284.681 982.396 284.799 981.829 291.151 973.678C301.597 960.263 295.702 958.88 280.629 971.222C265.498 983.611 256.832 984.623 240.075 976.033C221.064 966.289 190.221 942.969 187.926 936.585C185.087 928.67 186.699 928.906 191.856 937.152C194.129 940.783 196.039 942.652 196.039 941.302C196.039 939.953 197.407 940.553 199.077 942.625C201.595 945.729 202.12 945.438 202.12 940.924C202.12 936.376 203.157 936.936 208.459 944.325L214.793 953.198L213.589 943.475C212.375 933.886 212.457 933.792 217.899 937.247C220.928 939.17 224.781 942.307 226.452 944.231C234.316 953.246 235.226 953.043 233.804 942.436C232.727 934.419 232.94 933.029 234.882 935.924C238.409 941.181 246.731 940.58 246.731 935.074C246.731 929.446 250.004 929.163 252.178 934.602C253.07 936.835 256.339 940.998 259.404 943.947C264.004 948.36 264.977 948.529 264.977 944.892C264.977 942.463 263.153 938.083 260.925 935.074C258.693 932.064 256.868 928.164 256.868 926.484C256.868 924.804 257.384 924.325 258.073 925.35C258.761 926.383 260.767 925.114 262.51 922.523C264.701 919.25 267.997 918.258 273.281 919.311C278.533 920.364 281.24 919.561 281.96 916.76C282.757 913.677 284.6 913.359 289.694 915.539C307.573 923.177 310.865 914.466 293.619 905.154C281.96 898.858 280.484 895.673 291.401 900.336C305.273 906.268 323.32 901.78 315.673 894.297C313.998 892.664 308.524 891.125 303.507 890.903C295.756 890.559 295.249 890.255 300.275 888.636C303.526 887.583 306.595 884.83 307.116 882.502C307.908 878.959 304.707 878.561 287.475 880.329C267.182 882.414 266.856 882.414 269.351 876.463C273.064 867.603 270.515 866.071 260.418 871.172C254.958 873.932 247.953 875.093 242.484 874.101C230.762 871.968 191.978 852.609 187.423 846.637C182.66 840.389 182.927 836.057 187.93 838.425C190.203 839.498 191.983 838.951 191.983 837.197C191.983 833.918 195.021 834.862 205.163 841.441C208.509 843.614 215.852 845.456 221.512 845.504C227.171 845.544 232.645 845.868 233.678 846.165C238.423 847.514 238.925 845.45 235.389 839.174C232.845 834.667 233.641 835.173 237.734 840.686C244.748 850.139 246.731 850.929 246.731 844.37C246.731 840.382 247.383 840.409 251.929 844.842C254.985 847.825 257.728 848.763 258.516 847.103C259.259 845.544 262.596 842.501 265.928 840.308C271.751 836.489 271.846 836.192 268.083 832.096C263.492 827.096 264.66 826.684 271.886 830.78C275.812 833 277.147 832.791 277.147 829.835C277.147 827.446 282.291 824.309 290.327 821.812C297.576 819.558 303.507 816.481 303.507 815.017C303.507 813.553 304.363 813.242 305.468 814.261C306.577 815.28 309.099 814.747 311.046 813.128C314.138 810.55 313.858 809.862 308.954 808.033C304.725 806.447 303.643 804.598 304.522 800.482C305.382 796.44 304.476 794.814 301.035 794.058C297.753 793.343 300.085 791.218 309.018 786.98C322.868 780.414 326.286 774.47 314.152 778.012C302.946 781.292 275.119 782.034 275.119 779.051C275.119 777.641 276.029 776.507 277.147 776.507C278.261 776.507 279.171 775.131 279.171 773.484C279.171 771.838 274.838 770.59 269.541 770.745C256.239 771.15 234.968 764.523 233.678 759.516C232.949 756.696 234.262 755.36 237.667 755.36C240.424 755.36 242.674 754.044 242.674 752.438C242.674 750.825 244.041 750.252 245.717 751.21C247.387 752.168 248.759 751.352 248.759 749.415C248.759 747.1 250.285 747.546 253.255 750.643C255.736 753.227 260.069 755.326 262.89 755.265L268.02 755.171L263.334 749.32L258.706 743.565L268.4 742.62L278.157 741.581L271.062 736.486L263.963 731.392L270.175 731.297C274.132 731.216 278.18 728.443 281.2 723.652C283.821 719.495 286.896 716.101 288.109 716.101C289.318 716.101 291.514 713.321 292.922 709.961C296.63 701.121 291.908 699.346 280.249 705.244C267.676 711.6 265.072 711.425 266.372 704.016C267.653 696.721 267.318 696.681 254.586 702.882C244.902 707.606 243.892 707.464 228.417 700.905C207.549 692.052 202.197 683.759 218.279 685.142C219.936 685.284 221.928 683.914 222.716 682.025C223.712 679.622 225.392 680.183 228.226 684.009C231.405 688.293 234.063 689.029 240.519 687.403C249.737 685.088 250.308 683.941 245.21 677.686C241.565 673.205 242.91 673.347 251.607 678.536C254.727 680.392 255.247 679.832 254.206 675.797C253.246 672.072 254.02 670.796 257.122 670.796C259.947 670.796 260.975 669.359 260.228 666.451C259.612 664.069 260.164 661.43 261.495 660.6C263.193 659.534 262.962 657.807 260.608 654.939C257.529 651.187 257.652 650.31 262.129 643.893C269.432 633.42 268.074 631.234 257.375 636.342C230.766 649.055 221.009 649.811 214.476 639.46C210.777 633.589 210.56 631.99 213.018 630.586C214.671 629.642 218.759 630.384 222.146 632.287C230.812 637.159 232.663 632.3 225.442 623.602C220.375 617.502 220.036 616.369 223.414 616.807C230.504 617.718 234.565 616.517 234.565 613.406C234.565 611.746 232.967 610.302 231.015 610.194C228.14 610.046 228.245 609.452 231.713 607.367C234.067 605.95 236.539 602.671 237.227 600.005C238.309 595.801 237.906 595.612 233.995 598.872C226.922 604.769 184.661 603.865 175.76 597.643C169.539 593.291 169.209 592.67 173.415 592.454C177.259 592.259 178.042 590.997 177.155 585.943C176.159 580.275 176.38 580.059 179.437 583.959C183.878 589.627 189.954 592.799 189.954 589.431C189.954 587.981 191.779 587.434 194.011 588.298C196.279 589.182 198.068 588.392 198.068 586.51C198.068 584.654 200.345 583.203 203.134 583.203C209.876 583.203 209.541 580.2 201.74 570.652L195.215 562.724L206.05 565.268C217.224 567.899 221.29 566.806 219.167 561.685C217.088 556.678 222.54 549.977 228.67 549.977C235.579 549.977 236.535 544.99 230.001 542.899C227.411 542.069 228.507 541.542 232.537 541.765C237.15 542.028 239.455 540.948 239.124 538.56C238.848 536.535 239.586 534.875 240.836 534.875C242.366 534.875 242.289 533.337 240.519 530.159C238.844 527.143 235.991 525.941 232.663 526.947C229.793 527.824 228.607 527.851 230.001 526.947C234.683 523.917 232.609 519.079 227.466 521.002C223.355 522.541 222.721 521.947 223.794 517.797C224.749 514.079 224.333 513.404 222.336 515.246C220.837 516.623 217.288 518.006 214.413 518.357C211.542 518.715 206.937 519.943 204.148 521.096L199.082 523.175L204.656 516.096C211.098 507.857 212.036 503.033 206.304 507.601C200.649 512.108 196.497 511.731 199.652 507.034C204.203 500.253 202.405 494.908 197.751 501.373C195.369 504.672 190.588 509.382 187.102 511.845C174.714 520.604 141.291 508.681 141.291 495.516C141.291 492.884 140.159 489.112 138.819 487.121C137.194 484.692 137.148 483.531 138.629 483.531C139.847 483.531 141.346 485.569 141.989 488.059C142.731 490.941 145.624 492.445 149.844 492.216C153.502 492.013 158.551 492.884 161.059 494.105C164.808 495.927 165.623 495.117 165.623 489.949V483.72L172.527 489.76C177.494 494.126 179.853 494.915 180.895 492.405C181.691 490.482 181.098 487.621 179.563 486.082C177.155 483.666 188.99 483.99 197.054 486.555C198.167 486.905 201.151 486.17 203.705 484.949C207.988 482.897 208.065 482.283 205.099 477.398C202.12 472.499 202.283 472.006 207.064 470.225C212.923 468.032 214.087 462.377 208.712 462.202C206.476 462.128 207.413 460.576 211.243 457.951C214.589 455.663 220.009 450.488 223.282 446.439L229.177 439.077L221.765 436.999C217.654 435.852 214.286 433.618 214.286 431.999C214.286 430.298 211.927 429.86 208.712 431.054C203.841 432.862 203.41 432.592 205.67 428.503C209.586 421.425 203.75 419.259 197.746 425.581C194.939 428.537 188.841 430.737 182.986 430.865C175 431.04 173.859 430.447 177.345 428.125C181.288 425.507 181.678 423.044 179.944 411.519C179.862 410.966 176.729 413.341 172.971 416.803C169.218 420.257 163.056 423.051 159.284 423.031C146.643 422.97 124.883 410.426 111.065 395.189C105.745 389.319 106.872 388.104 113.03 393.017C116.222 395.56 116.973 395.142 117.023 390.749C117.082 385.601 117.182 385.547 119.178 390.655C120.328 393.597 122.09 395.27 123.104 394.339C124.122 393.401 127.256 394.892 130.076 397.639C135.147 402.592 135.179 402.517 135.206 393.961C135.224 389.197 135.908 386.849 136.727 388.678C138.502 392.632 146.163 398.961 149.21 398.961C150.401 398.961 151.51 395.905 151.619 392.166C151.809 385.715 151.863 385.756 153.203 392.922C153.978 397.072 155.042 399.845 155.549 399.15C156.056 398.455 158.37 399.386 160.679 401.229C164.106 403.961 165.401 403.516 167.651 398.867C169.168 395.736 171.192 393.927 172.152 394.811C173.107 395.689 173.256 392.902 172.527 388.577C171.264 381.059 171.436 380.837 176.774 383.86C183.367 387.591 185.418 385.742 181.845 379.332C179.708 375.499 179.921 374.797 182.923 374.797C186.337 374.797 186.287 374.48 182.986 369.042C181.067 365.884 180.36 362.543 181.402 361.585C182.438 360.627 184.883 362.496 186.848 365.735C189.941 370.823 191.928 371.282 199.775 368.947C200.191 368.826 199.562 366.93 198.321 364.703C195.682 359.966 197.244 356.68 202.183 356.68C204.103 356.68 207.852 354.001 210.487 350.728L215.3 344.783L209.219 344.216C205.873 343.906 200.898 343.947 198.195 344.311C193.907 344.891 193.581 344.338 195.913 340.161C200.345 332.199 197.226 332.226 189.384 340.161C180.885 348.764 175.765 350.263 179.817 342.988C181.958 339.142 181.841 338.663 179.056 340.256C175.185 342.469 174.624 338.359 178.105 333.177C183.299 325.437 177.789 326.598 171.391 334.594C158.786 350.323 157.238 350.823 143.003 344.405C128.075 337.678 118.065 329.277 115.058 320.903C113.215 315.781 113.636 315.052 118.037 315.43C120.813 315.667 123.511 317.974 124.055 320.525C124.602 323.082 126.97 325.363 129.316 325.626C132.739 326.011 133.336 324.803 132.422 319.587C131.403 313.791 131.833 314 136.03 321.281C138.629 325.781 142.763 329.493 145.285 329.493C149.26 329.493 149.731 328.346 148.703 320.714C147.168 309.283 151.931 306.132 156.88 315.336C160.262 321.625 171.667 326.045 171.708 321.092C171.717 319.864 168.751 315.235 165.116 310.714C160.076 304.438 159.384 302.468 162.137 302.407C164.124 302.36 166.252 304.263 166.891 306.746C167.529 309.229 168.819 310.619 169.743 309.769C170.662 308.919 171.957 309.587 172.659 311.28C173.356 312.967 176.376 314.391 179.31 314.391C184.417 314.391 184.471 314.169 180.704 310.052C176.906 305.896 176.974 305.633 182.479 302.502C185.617 300.713 189.266 299.256 190.588 299.195C191.91 299.134 190.715 297.157 187.926 294.856C182.986 290.774 183.036 290.686 190.715 291.739C195.691 292.427 199.657 291.26 201.486 288.534C205.946 281.894 202.786 278.149 192.743 278.149C187.134 278.149 184.109 276.9 184.888 275.031C187.441 268.877 179.953 268.769 171.518 274.842C161.172 282.285 159.252 282.663 160.805 276.637C161.539 273.79 160.787 272.109 158.782 272.109C156.771 272.109 156.02 270.423 156.753 267.575C158.116 262.278 157.414 262.096 150.731 265.881C146.389 268.337 145.909 267.96 146.801 262.858C147.87 256.792 144.465 254.666 142.242 260.024C141.54 261.711 137.248 265.989 132.675 269.464C125.318 275.052 123.416 275.328 116.199 272.109C109.467 269.107 108.606 267.96 111.445 265.598C113.338 264.019 114.931 260.672 114.931 258.142C114.931 254.565 112.853 253.715 105.745 254.363C98.8266 254.997 95.6437 253.715 92.6916 249.268C88.241 242.561 83.9352 218.613 86.7333 216.042C88.4628 214.45 89.4317 220.887 88.6983 229.16C88.5081 231.285 90.2965 237.082 92.6916 242.095C96.1643 249.363 97.6449 250.469 99.9132 247.662C101.48 245.726 102.824 240.604 102.956 236.245C103.141 229.97 103.44 229.578 104.224 234.356C105.758 243.742 111.02 250.969 116.326 250.969C120.469 250.969 120.854 250.132 119.052 245.112C116.403 237.743 116.385 234.976 118.988 237.372C120.102 238.404 121.017 237.81 121.017 236.056C121.017 234.295 121.927 232.844 123.04 232.844C124.159 232.844 125.069 234.747 125.069 237.088C125.069 242.507 136.918 257.582 139.39 255.307C140.413 254.37 141.291 250.982 141.291 247.757C141.291 244.531 142.201 241.906 143.383 241.906C144.565 241.906 144.99 240.206 144.27 238.128C143.551 236.056 144.651 237.433 146.743 241.245C148.83 245.058 151.238 247.19 152.063 245.962C152.887 244.74 155.54 243.269 158.021 242.757C163.513 241.616 171.708 235.597 171.708 232.655C171.708 231.474 168.991 228.843 165.686 226.805C162.381 224.76 159.873 221.528 160.108 219.632C160.353 217.702 157.776 216.022 154.344 215.853C147.25 215.509 136.927 208.329 140.784 206.413C142.174 205.725 143.32 203.201 143.32 200.846C143.32 196.055 133.178 194.834 130.013 199.24C126.948 203.505 118.988 206.298 118.988 203.113C118.988 201.521 121.297 199.375 124.181 198.295C128.505 196.683 128.994 195.509 126.97 191.878C124.969 188.288 125.268 187.519 128.365 187.445C132.883 187.33 140.508 179.294 138.692 176.588C137.995 175.549 133.25 174.044 128.175 173.194C118.028 171.486 118.078 171.534 121.075 163.187C123.022 157.768 123.516 157.687 127.985 162.053C132.499 166.459 132.883 166.311 134.129 160.447C134.862 157.006 136.329 154.968 137.361 155.919C138.398 156.871 139.263 156.263 139.263 154.502C139.263 152.741 141.088 151.29 143.32 151.29C145.547 151.29 147.372 149.36 147.372 147.046C147.372 142.43 143.089 139.212 137.044 139.212C132.44 139.212 131.824 133.665 136.157 131.189C137.823 130.237 138.76 128.462 138.249 127.228C137.737 125.986 139.593 123.206 142.369 120.993C149.201 115.547 147.512 110.52 138.819 110.52H131.661L136.791 100.513C140.793 92.7058 141.327 89.7773 139.39 86.923C137.461 84.0821 135.491 85.6274 130.266 94.0959C124.064 104.13 123.421 104.521 121.266 99.3794C119.989 96.3294 118.037 93.9069 116.96 93.9069C114.547 93.9069 108.144 110.81 106.754 120.898C105.731 128.361 87.0683 152.181 84.2612 149.596C83.4598 148.861 83.0659 140.797 83.3104 131.661C83.5549 122.524 82.9527 115.048 81.9792 115.048C81.0103 115.048 80.4942 110.034 80.8383 103.914C81.3635 94.6289 82.3867 92.3752 87.1136 90.506C92.0125 88.5694 92.6373 89.0013 91.6141 93.8124C89.7623 102.49 94.7064 104.703 98.6455 96.9299C100.728 92.8138 102.684 91.2753 103.463 93.1512C104.844 96.4846 112.903 94.7234 112.903 91.0728C112.903 88.2658 102.811 74.2034 101.054 74.5542C100.307 74.7094 98.1157 74.1831 96.1734 73.4274C90.455 71.1938 94.1722 66.9495 100.23 68.7984C110.395 71.9024 119.554 71.322 120.442 67.4758C120.921 65.4042 119.98 63.7038 118.354 63.7038C116.724 63.7038 114.279 61.6457 112.903 59.176C111.527 56.6996 109.584 55.431 108.593 56.3419C107.606 57.2529 106.818 56.929 106.818 55.5862C106.822 54.2434 109.566 50.4106 112.903 47.0907C119.042 40.9839 120.727 36.5169 116.896 36.5169C113.202 36.5169 99.9223 45.6669 98.1384 49.4524C97.0835 51.6927 96.8797 50.5253 97.6313 46.5239C98.3104 42.9273 97.9844 39.189 96.934 38.2173C94.7291 36.1863 86.5431 55.6132 86.5431 62.8536C86.5431 65.5257 85.9409 66.8617 85.212 65.7821C84.4876 64.6957 82.6176 66.106 81.0964 68.9873C78.6831 73.5556 78.4794 72.3207 79.3849 59.4527C80.2225 47.5023 82.1287 41.6722 89.5223 28.7839C94.5434 20.0253 98.7089 10.9023 98.7089 8.48655C98.7089 1.23267 88.5217 6.00336 86.4163 14.2424C83.0704 27.3601 79.3849 22.8121 80.1456 6.5027C80.6979 -5.39367 79.978 -9.8877 76.5959 -15.2994L72.349 -22ZM58.5985 83.9944C59.5267 84.0754 61.7317 86.7003 64.24 90.8839C68.4099 97.8409 70.3206 104.116 70.3206 110.986C70.3206 116.505 69.9357 121.087 69.5011 121.087C68.4099 121.087 65.7975 111.728 64.8738 104.568C64.4573 101.336 62.7821 96.5183 61.134 93.8124C59.4905 91.0998 58.1548 86.9972 58.1548 84.7502C58.1548 84.1901 58.2907 83.9674 58.5985 83.9944ZM53.6589 128.354C57.5164 128.78 66.8751 138.395 68.3601 144.212C70.9997 154.563 69.5011 156.493 64.9372 148.557C62.936 145.075 60.1742 142.235 58.7887 142.235C56.4434 142.235 50.9061 130.554 52.3912 128.732C52.6764 128.381 53.1065 128.294 53.6589 128.354ZM109.036 152.991C109.525 152.997 110.118 153.126 110.748 153.369C114.094 154.671 113.31 156.466 105.491 165.359C100.42 171.115 94.4936 176.068 92.3747 176.304C90.2512 176.54 88.5715 177.735 88.5715 179.044C88.5715 180.353 87.5437 181.493 86.353 181.493C85.1622 181.493 84.474 178.437 84.8317 174.698C85.3931 168.821 86.5522 167.998 93.1308 168.848C98.985 169.61 100.737 168.74 100.737 165.076C100.737 162.451 102.105 160.352 103.78 160.352C105.451 160.352 106.818 158.443 106.818 156.108C106.818 154.07 107.574 152.977 109.036 152.991ZM85.5289 196.217L90.2829 199.712C92.8954 201.609 97.2283 202.317 99.9132 201.318C102.675 200.279 104.794 200.799 104.794 202.54C104.794 204.233 103.916 205.657 102.892 205.657C101.869 205.657 99.7185 206.359 98.1384 207.263C96.5582 208.167 93.0991 206.028 90.4097 202.54L85.5289 196.217ZM107.769 203.673C108.23 203.775 108.91 204.483 109.86 205.657C112.129 208.458 112.903 208.505 112.903 205.846C112.903 203.883 113.899 203.248 115.185 204.429C116.801 205.92 116.38 207.843 113.79 210.657C108.566 216.346 106.818 215.732 106.818 208.302C106.818 204.955 107.003 203.505 107.769 203.673ZM138.312 214.719C140.051 214.719 140.965 216.076 140.277 217.736C138.656 221.649 135.206 221.649 135.206 217.736C135.206 216.076 136.573 214.719 138.312 214.719ZM90.5999 263.047C91.7137 263.047 92.6237 269.842 92.6237 278.149C92.6237 293.46 92.3204 294.775 89.9026 291.172C87.7429 287.953 88.3632 263.047 90.5999 263.047ZM75.138 303.345C75.8624 303.163 76.4057 303.824 76.4057 305.14C76.4057 306.901 75.4911 308.352 74.3773 308.352C71.7785 308.352 71.7785 306.213 74.3773 303.817C74.6535 303.561 74.8935 303.406 75.138 303.345ZM91.4873 309.769C91.6005 309.749 91.7906 310.012 91.931 310.518C92.4834 312.563 92.506 316.645 91.9944 319.58C91.4782 322.522 91.0209 320.883 90.9802 315.903C90.9485 312.164 91.1341 309.816 91.4873 309.769ZM66.2638 311.368C67.3822 311.368 68.2922 311.962 68.2922 312.691C68.2922 313.426 67.3822 314.877 66.2638 315.903C65.15 316.928 64.2354 316.341 64.2354 314.58C64.2354 312.819 65.15 311.368 66.2638 311.368ZM56.1264 317.414C57.2402 317.414 58.1548 318.001 58.1548 318.73C58.1548 319.466 57.2402 320.916 56.1264 321.942C55.0126 322.968 54.0981 322.381 54.0981 320.619C54.0981 318.858 55.0126 317.414 56.1264 317.414ZM13.9289 317.509C15.3143 317.711 17.0349 319.074 18.3615 321.564C22.4725 329.277 29.2866 330.303 33.0627 323.737C36.4041 317.92 41.1717 317.846 38.7675 323.642C38.1246 325.188 38.9939 326.47 40.6646 326.47C42.3398 326.47 44.2867 325.113 44.9749 323.453C46.6139 319.506 50.0458 319.486 50.0458 323.453C50.0458 325.154 47.5375 328.022 44.4678 329.776C41.4026 331.531 33.6784 333.643 27.3579 334.493C17.2975 335.856 15.6041 335.336 13.6753 329.965C12.4619 326.591 11.5202 322.394 11.5202 320.619C11.5202 318.325 12.5389 317.299 13.9289 317.509ZM199.965 477.492C201.147 477.492 202.12 478.849 202.12 480.508C202.12 484.382 200.685 484.382 199.077 480.508C198.389 478.849 198.783 477.492 199.965 477.492ZM30.4638 513.735C31.7044 513.735 29.3047 516.454 25.1438 519.774C17.7774 525.651 13.544 527.291 13.544 524.308C13.544 522.433 27.4711 513.735 30.4638 513.735ZM205.543 642.759C207.775 642.739 209.998 643.09 211.37 643.893C214.141 645.506 212.778 646.194 206.684 646.349C201.943 646.464 198.063 646.039 198.063 645.404C198.063 643.798 201.817 642.793 205.543 642.759ZM250.91 659.089C251.616 659.048 252.458 659.217 253.192 659.656C254.808 660.621 254.287 661.302 251.924 661.451C249.787 661.579 248.592 660.85 249.262 659.845C249.601 659.345 250.208 659.129 250.91 659.089ZM251.417 734.313C251.508 734.273 251.657 734.313 251.797 734.313C252.916 734.313 255.193 735.629 256.868 737.242C258.539 738.848 258.996 740.164 257.882 740.164C256.764 740.164 254.487 738.848 252.811 737.242C251.349 735.832 250.783 734.59 251.417 734.313ZM-101.784 856.354C-100.824 856.138 -100.552 856.766 -101.087 858.055C-101.766 859.694 -103.142 861.071 -104.188 861.071C-107.108 861.071 -106.497 858.831 -102.988 856.826C-102.535 856.57 -102.101 856.422 -101.784 856.354ZM-69.0219 882.313L-64.3992 889.675L-59.8353 897.037L-56.3491 889.108C-53.1797 881.894 -52.7405 881.753 -50.9023 886.652C-49.3901 890.673 -48.4664 890.997 -47.2893 888.163C-46.1755 885.471 -45.3514 886.227 -44.3735 890.802C-42.988 897.306 -39.1803 899.884 -39.1803 894.297C-39.1803 892.637 -36.6674 891.267 -33.6022 891.274H-28.0287L-34.1093 896.092C-38.0302 899.169 -43.2778 900.296 -48.8105 899.392C-53.5283 898.622 -56.8924 899.263 -56.2857 900.714C-54.6874 904.567 -57.7119 903.865 -63.9555 899.014C-67.1384 896.544 -69.6558 895.991 -70.0361 897.698C-70.3983 899.304 -72.3542 899.682 -74.3464 898.541C-77.7104 896.618 -77.6199 895.991 -73.459 889.391L-69.0219 882.313ZM-21.8802 885.612C-21.4546 885.606 -21.0426 885.619 -20.6758 885.801C-19.1591 886.557 -20.0872 887.94 -22.831 889.013C-26.2041 890.322 -26.9964 889.931 -25.4932 887.691C-24.6058 886.375 -23.1615 885.626 -21.8802 885.612ZM-42.4719 1010.11C-41.7474 1009.93 -41.2041 1010.58 -41.2041 1011.9C-41.2041 1013.66 -42.1187 1015.11 -43.2325 1015.11C-45.8314 1015.11 -45.8314 1012.97 -43.2325 1010.58C-42.9563 1010.33 -42.7163 1010.17 -42.4719 1010.11Z" fill="#001223"/>
</g>
<mask id="mask1_1050_1451" style="mask-type:luminance" maskUnits="userSpaceOnUse" x="-126" y="6" width="460" height="1173">
<path d="M-125.698 6.50223H333.295V1179H-125.698V6.50223Z" fill="white"/>
</mask>
<g mask="url(#mask1_1050_1451)">
<path d="M83.6501 6.50246L83.3966 13.8643C83.2879 17.913 83.0615 30.1333 82.8895 41.0444L82.6359 60.8695L75.1608 49.351C66.5175 35.9499 65.363 35.4168 65.4037 44.6343C65.4173 48.3725 68.9444 57.1447 73.1958 64.1691C80.0099 75.4177 80.9652 78.9603 81.3727 93.8999C81.6761 105.182 81.0829 110.223 79.6613 108.907C78.4841 107.827 77.5695 104.98 77.5695 102.584C77.5695 100.189 76.6549 98.2455 75.5411 98.2455C74.4273 98.2455 73.5127 92.9822 73.5127 86.5381C73.5127 73.137 68.4101 63.7643 65.2136 71.2476C64.1949 73.6363 63.7738 77.1856 64.2628 79.1762C65.3404 83.5758 59.5088 80.708 55.5833 74.9319C54.1073 72.7591 51.7303 71.0586 50.2588 71.0586C44.7758 71.0586 45.6723 79.5811 52.3506 90.9781C60.2921 104.528 60.7222 107.234 55.452 109.285C52.8667 110.297 51.9793 112.639 52.6675 116.552C53.8085 123.057 59.2462 124.211 62.9317 118.725C65.6935 114.616 65.7614 114.832 66.2278 126.181C66.6126 135.655 66.264 135.871 59.3186 129.96C52.5226 124.171 51.2096 124.312 51.2096 131.188C51.2096 134.387 54.1752 140.46 57.7973 144.684C62.7415 150.446 63.2939 151.971 60.0793 150.723C57.2812 149.637 55.3705 150.716 54.5691 153.841C52.8215 160.615 51.4088 160.055 37.9029 146.951C31.2744 140.514 24.8497 135.784 23.6454 136.472C19.4256 138.881 22.106 150.406 28.0191 155.251L33.9729 160.069L28.5262 161.014C25.5515 161.54 22.6448 163.848 22.0607 166.108C20.9243 170.521 25.9952 174.853 29.0332 172.053C30.0474 171.122 30.9303 171.803 30.9303 173.564C30.9303 175.326 32.5286 176.83 34.48 176.965C37.0562 177.134 37.2373 177.633 35.1773 178.848C33.0266 180.117 33.4522 181.83 37.0155 185.832L41.7695 191.122L33.2757 193.295C24.5418 195.488 22.5497 200.346 27.7655 206.791C29.7305 209.22 31.7996 209.463 34.0997 207.546C37.9255 204.355 45.1245 206.136 45.1245 210.279C45.1245 211.75 46.9491 213.019 49.1812 213.019C51.4134 213.019 53.238 211.662 53.238 209.996C53.238 208.336 55.289 207.02 57.7973 207.074L62.3612 207.168L57.3536 213.302C53.4644 218.12 52.9845 220.003 55.1396 221.987C58.1822 224.787 63.4388 222.736 66.0376 217.736C66.9748 215.927 67.2239 218.194 66.5447 222.837C65.5305 229.753 65.9833 231.143 69.3926 231.143C71.6474 231.143 73.5535 229.443 73.6395 227.365C73.7482 224.787 74.1376 224.949 74.9073 227.837C75.7268 230.927 76.7545 230.084 78.6471 224.814L81.2459 217.547L83.7769 225.853C85.1714 230.415 85.6694 235.118 84.8545 236.332C84.0395 237.547 76.7726 239.025 68.6953 239.639C55.1849 240.651 53.2289 240.044 44.3004 231.616C35.4172 223.215 28.9065 221.811 28.9065 228.309C28.9065 229.74 31.4148 233.073 34.48 235.671L40.058 240.388L32.9587 238.411C25.9409 236.494 14.1283 227.432 8.94414 219.908C7.47266 217.769 4.50706 216.042 2.35644 216.042C-1.7773 216.042 -2.85035 221.879 0.391441 226.703C1.60485 228.519 -1.51017 229.976 -8.1024 230.577C-13.8389 231.096 -19.3083 232.203 -20.2048 233.026C-26.8695 239.167 -10.4432 250.314 1.46902 247.75L9.6414 246.056L3.9411 250.867C0.486519 253.789 -1.54186 257.696 -1.12984 260.78C-0.142822 268.162 8.61815 265.685 14.2053 256.434C16.8041 252.129 20.3176 249.308 22.3143 250.017C25.1123 251.009 24.7501 252.014 20.476 254.646C13.5714 258.89 11.4796 263.863 15.6632 266.252C17.4697 267.285 18.4929 269.869 17.9406 272.008C17.3927 274.147 18.3028 276.664 19.9055 277.582C21.5083 278.493 22.8214 278.047 22.8214 276.637C22.8214 274.167 29.3728 269.936 34.2898 269.181C35.5847 268.978 38.5503 266.185 40.8821 263.04C43.2138 259.903 45.1245 258.344 45.1245 259.552C45.1245 262.689 40.6964 268.85 35.4308 273.047C32.9451 275.031 30.9349 278 30.9303 279.653C30.9303 285.355 37.1739 286.239 41.0089 281.07C44.6672 276.138 44.7894 276.185 43.7345 282.204C42.186 291.017 46.3333 290.139 50.449 280.787C53.0207 274.937 54.2839 274.019 55.5833 277.015C56.9914 280.261 57.5664 280.234 59.0017 276.92C59.9661 274.7 62.4744 273.216 64.5797 273.614C72.7612 275.166 83.5188 264.268 83.8403 254.079C84.0169 248.58 84.2206 248.742 85.4883 255.301C86.6972 261.535 85.7011 264.565 79.7247 272.575C75.7403 277.912 66.8571 286.691 59.9525 292.116L47.4064 301.928L37.6493 294.66C32.2841 290.672 26.7513 287.13 25.3568 286.732C21.7392 285.713 22.2282 291.543 26.371 298.817C29.563 304.418 29.5449 304.573 26.4344 300.99C24.5328 298.797 22.2011 297.737 21.2367 298.628C20.2723 299.519 16.9399 298.297 13.8249 295.889C6.35434 290.119 4.02713 290.403 5.399 296.833C6.30453 301.098 5.35373 302.056 0.454826 301.833C-2.88657 301.692 -6.09213 300.774 -6.70789 299.856C-9.17545 296.179 -15.7043 301.59 -15.7043 307.313C-15.7043 311.955 -14.7173 313.014 -11.4574 311.746C-7.38704 310.16 -7.35987 310.302 -10.7601 315.902C-14.432 321.942 -13.8299 322.772 -6.13741 321.847C-2.5968 321.422 -1.86332 322.441 -2.90468 326.47C-4.00037 330.727 -3.29858 331.443 0.898537 330.248C5.09566 329.054 5.81555 329.762 5.01868 334.304C3.93205 340.478 5.2179 341.139 10.2753 337.138C15.2466 333.204 21.5219 345.701 17.438 351.389C15.147 354.574 14.4543 354.446 13.5714 351.011C12.9647 348.656 9.36974 346.706 5.399 346.484C1.50071 346.261 -1.22945 347.286 -0.622749 348.744C-0.0160446 350.202 -1.30642 350.654 -3.53854 349.783C-8.6593 347.793 -8.81777 352.374 -3.79209 357.051C-1.12984 359.527 -0.305817 362.854 -1.00307 368.286C-2.23006 377.841 -2.53794 377.922 -9.99948 368.569C-13.3137 364.412 -17.3478 361.018 -18.937 361.018C-22.3328 361.018 -22.5048 362.496 -19.8833 369.797C-17.7553 375.715 -19.091 375.857 -34.4578 371.491C-39.4653 370.067 -42.0642 370.465 -42.0642 372.624C-42.0642 376.538 -31.5329 385.182 -26.7291 385.182C-23.9582 385.182 -23.7952 385.938 -25.8417 389.615C-27.8565 393.232 -27.784 394.481 -25.398 395.844C-23.768 396.775 -21.5857 397.254 -20.5806 396.977C-16.3472 395.796 -13.7076 397.51 -14.183 401.039C-14.4954 403.354 -12.535 404.724 -9.11207 404.623C-4.82439 404.494 -3.52496 405.884 -3.47516 410.662C-3.40725 416.627 -3.24878 416.566 0.581604 409.717C3.74641 404.062 4.57498 403.637 4.57498 407.646C4.57498 410.419 5.48503 411.883 6.59883 410.851C7.71715 409.825 9.49652 412.504 10.5922 416.796C11.6879 421.094 13.9743 425.365 15.6632 426.33C17.352 427.295 18.7691 429.961 18.7691 432.275C18.7646 434.59 20.2315 436.526 22.0607 436.526C23.8899 436.526 26.5385 438.834 27.9557 441.715C30.3825 446.661 30.8307 446.621 35.304 440.959L40.058 435.015L36.445 441.337C34.2627 445.197 27.5029 449.597 18.9593 452.667C1.10228 459.084 -3.21255 458.882 -10.5066 451.722C-17.2618 445.089 -20.5579 446.317 -18.7423 454.833C-17.7236 459.617 -18.5024 460.69 -23.3062 460.69C-26.5027 460.69 -30.0433 459.334 -31.1617 457.667C-32.5245 455.636 -34.4985 456.034 -37.12 458.895C-40.8825 462.998 -40.7919 463.376 -34.5212 468.713C-29.7943 472.735 -28.2957 475.792 -29.1378 479.752C-29.8849 483.288 -29.3008 485.016 -27.5531 484.665C-21.6808 483.471 -19.4034 484.962 -20.5172 489.287C-22.4641 496.838 -15.0614 500.441 -9.429 494.665C-5.73445 490.88 -5.19113 490.697 -7.0203 494.098C-10.4477 500.455 -7.1516 507.095 -1.8271 504.578C5.85178 500.947 7.9209 506.757 0.391441 510.806C-9.27959 516.015 -18.928 515.907 -22.5456 510.522C-26.5435 504.564 -32.7554 504.49 -31.225 510.428C-30.2788 514.106 -31.6914 514.591 -39.1484 513.073C-50.0555 510.846 -51.4228 515.867 -41.3624 521.285C-36.4862 523.91 -34.7611 526.467 -35.4086 530.159C-36.4907 536.326 -30.0886 539.754 -25.1444 535.631C-22.455 533.391 -21.7849 534.261 -21.7849 540.253C-21.7849 546.38 -21.0424 547.426 -17.4112 546.009C-13.8253 544.612 -13.3047 545.213 -14.4366 549.599C-15.5413 553.897 -14.9754 554.741 -11.7109 553.465C-9.46069 552.595 -7.59078 553.094 -7.59078 554.599C-7.59078 559.896 -3.30311 557.237 2.10289 548.654C8.61363 538.31 12.4712 536.029 17.2478 539.686C22.8032 543.944 21.4133 547.379 14.7124 545.915C7.73074 544.39 6.70297 548.992 11.7332 559.7C14.6807 565.962 14.6671 566.401 10.9137 566.401C8.69513 566.401 5.48956 568.439 3.81433 570.929C2.14364 573.419 -0.582001 575.463 -2.26628 575.463C-3.95509 575.463 -5.86575 576.732 -6.51321 578.291C-7.16065 579.849 -11.2401 581.023 -15.5775 580.936C-19.9105 580.848 -24.6373 581.86 -26.0952 583.203C-27.5486 584.539 -31.6959 585.356 -35.2818 584.991C-40.6787 584.451 -41.9012 585.531 -42.44 591.219C-42.9109 596.172 -44.4955 598.163 -48.1448 598.399C-50.9338 598.574 -54.1258 599.101 -55.2396 599.526C-56.3579 599.958 -58.8662 600.012 -60.8177 599.715C-62.7691 599.425 -64.3673 600.39 -64.3673 601.793C-64.3673 605.795 -53.1433 614.722 -48.0814 614.722C-43.6443 614.722 -43.5628 614.897 -47.1306 620.768C-50.712 626.659 -50.6758 626.807 -45.4826 626.807C-41.5118 626.807 -40.4614 627.934 -41.3669 631.429C-42.3494 635.249 -41.4937 635.748 -36.7397 634.075C-33.5296 632.948 -30.4553 632.077 -29.8939 632.091C-23.5733 632.273 -22.1019 633.312 -23.0527 636.996C-25.1716 645.222 -19.9195 644.986 -16.9041 636.713C-14.0381 628.838 -13.8797 628.737 -13.8027 635.114C-13.7574 638.852 -12.9922 642.01 -12.1546 642.192C0.237503 644.891 2.27041 643.994 4.76514 635.019L7.30061 625.957L9.07544 633.13L10.8457 640.397L14.7757 632.847C18.665 625.309 18.6604 625.296 18.7057 632.091C18.7646 641.254 22.3822 640.735 23.9623 631.335C24.6641 627.185 26.1356 623.784 27.195 623.784C28.2545 623.784 28.4673 625.248 27.7021 627.091C26.7332 629.425 28.3043 629.817 32.8999 628.319C37.7761 626.72 39.2974 627.084 38.6635 629.918C37.4184 635.485 24.7184 644.925 18.4522 644.925C15.4866 644.925 12.6478 646.626 12.1135 648.704C11.5158 651.025 7.55415 652.341 1.78595 652.192C-3.37555 652.064 -7.59078 653.009 -7.59078 654.271C-7.59078 660.087 -0.554832 666.376 5.01868 665.506C8.32838 664.986 11.1898 665.756 11.3528 667.301C11.8916 672.328 0.0065918 675.155 -28.8842 676.829C-61.438 678.718 -74.5047 680.837 -74.5047 684.096C-74.5047 685.351 -76.7866 685.743 -79.5757 684.946C-82.4552 684.13 -84.6421 684.886 -84.6421 686.741C-84.6421 690.972 -78.0182 696.276 -72.6665 696.276C-70.3619 696.276 -68.4241 697.632 -68.4241 699.292C-68.4241 700.952 -69.4156 702.315 -70.5747 702.315C-71.7383 702.315 -74.7039 705.122 -77.167 708.638L-81.604 715.055L-75.0118 713.732C-70.6517 712.848 -68.4241 713.631 -68.4241 716.094C-68.4241 718.334 -66.8032 719.212 -64.3673 718.267C-62.099 717.383 -60.3106 718.172 -60.3106 720.062C-60.3106 724.934 -55.1536 724.225 -52.2016 718.928C-50.8116 716.431 -48.7877 714.394 -47.6377 714.394C-46.4877 714.394 -46.9948 716.83 -48.8421 719.873C-50.6893 722.909 -52.2016 726.304 -52.2016 727.424C-52.2016 730.622 -44.4684 729.833 -43.0739 726.479C-41.0681 721.641 -38.3832 722.97 -36.9932 729.495C-35.3633 737.14 -33.0497 737.093 -25.7149 729.306L-19.8199 723.078L-21.0877 732.329C-22.6135 743.699 -18.9325 744.617 -10.6967 734.974C-5.28622 728.631 -5.1368 728.638 -7.27385 734.597C-9.79574 741.608 -8.58233 744.934 -4.35805 742.525C-2.78243 741.621 -0.12471 742.545 1.5324 744.597C3.62871 747.188 4.57498 747.33 4.57498 744.975C4.57498 743.112 5.94232 741.581 7.61755 741.581C9.28824 741.581 10.6556 743.45 10.6556 745.825C10.6556 748.76 12.4531 749.86 16.2336 749.226C37.3415 745.663 10.0398 763.949 -14.5 769.8C-30.5414 773.626 -32.1532 773.477 -37.437 768.288C-40.561 765.225 -44.2148 762.735 -45.6093 762.721C-49.8019 762.688 -48.4663 768.734 -43.581 771.878C-40.2305 774.031 -41.4439 774.26 -48.1448 772.728C-53.1614 771.574 -59.5499 770.819 -62.3389 771.028C-65.1234 771.237 -71.933 769.442 -77.4205 767.06C-82.9035 764.685 -87.6982 763.126 -88.065 763.666C-90.1794 766.817 -77.1986 779.274 -69.9408 781.028L-61.3248 783.106L-68.9267 783.484C-74.224 783.748 -76.5331 785.239 -76.5331 788.397C-76.5331 790.887 -74.9348 793.14 -72.9834 793.397C-71.032 793.647 -68.5237 794.139 -67.4054 794.531C-66.2916 794.915 -64.073 795.374 -62.4657 795.57C-60.3151 795.826 -60.5822 797.041 -63.4799 800.192C-68.4875 805.651 -66.1105 809.571 -60.5007 805.098C-57.0099 802.317 -56.2538 802.608 -56.2538 806.704C-56.2538 810.577 -54.805 811.366 -49.6661 810.293C-46.0395 809.531 -41.2492 807.925 -39.0171 806.704C-35.0237 804.517 -35.0781 804.544 -38.9537 809.254C-42.9063 814.045 -42.0597 815.159 -35.472 814.16C-33.4526 813.856 -31.9223 815.719 -31.9223 818.411C-31.9223 824.869 -30.2788 824.336 -25.4568 816.333L-21.3412 809.538L-24.6373 817.75C-26.4303 822.257 -27.8655 827.318 -27.8655 829.072C-27.8655 833.742 -17.9183 830.294 -13.1643 823.978C-9.18451 818.681 -9.15282 818.782 -10.6967 826.151C-12.8383 836.387 -15.3285 838.546 -34.0141 846.914C-49.5348 853.857 -50.472 853.945 -58.8527 849.181C-67.9894 843.978 -80.5853 842.501 -80.5853 846.63C-80.5853 847.96 -79.5259 850.76 -78.1811 852.764C-76.5331 855.22 -79.2451 854.836 -86.4803 851.63C-92.3979 849.012 -98.6279 847.622 -100.358 848.614C-103.006 850.126 -102.766 851.63 -98.8362 857.859L-94.209 865.22L-101.055 862.299C-109.875 858.527 -120.592 858.533 -122.154 862.299C-123.765 866.179 -110.205 874.451 -102.196 874.472H-95.7936L-101.752 881.55C-107.629 888.561 -107.575 897.752 -101.689 894.391C-99.7282 893.271 -98.8362 895.093 -98.8362 900.241C-98.8362 905.592 -97.7768 907.698 -94.9696 907.698C-92.819 907.698 -89.6451 909.776 -87.9382 912.32C-85.3574 916.166 -84.144 916.268 -80.7121 913.076C-78.4392 910.964 -76.5331 908.204 -76.5331 906.942C-76.5331 905.68 -74.9348 907.057 -72.92 909.965C-69.0353 915.566 -67.9306 922.799 -70.955 922.799C-71.9511 922.799 -72.1005 924.264 -71.3354 926.099C-70.371 928.427 -71.8741 928.866 -76.2795 927.422C-80.3227 926.099 -82.6137 926.477 -82.6137 928.555C-82.6137 930.404 -86.5618 931.862 -91.7414 931.862C-101.24 931.862 -103.033 934.48 -97.822 940.924C-95.7936 943.434 -91.5014 944.095 -85.1492 942.901L-75.5189 941.113L-83.0574 947.058C-88.2959 951.194 -90.2337 954.467 -89.3961 957.719C-88.64 960.648 -86.9512 961.633 -84.8956 960.364C-83.0891 959.251 -80.2322 958.03 -78.5615 957.625C-76.8862 957.227 -76.6599 957.476 -78.0544 958.192C-83.1887 960.823 -80.5355 965.675 -75.0118 963.765C-71.0184 962.382 -70.2804 962.692 -72.4129 964.798C-77.7782 970.101 -73.0151 971.64 -66.5813 966.687C-63.1358 964.028 -60.3106 963.138 -60.3106 964.703C-60.3106 966.269 -61.4515 968.212 -62.846 968.954C-64.2406 969.697 -64.6752 971.424 -63.7968 972.821C-62.9185 974.224 -59.5997 973.88 -56.3806 972.065C-51.5858 969.373 -50.6758 969.555 -51.5677 973.01C-52.351 976.053 -51.6266 976.613 -48.9055 975.183C-45.7406 973.516 -45.5369 973.907 -47.7645 977.45C-49.8381 980.743 -56.8198 981.539 -79.6979 981.033C-97.4055 980.648 -108.974 981.546 -108.974 983.3C-108.974 984.899 -107.561 986.229 -105.809 986.229C-104.057 986.229 -101.354 988.145 -99.787 990.473C-97.3466 994.11 -97.3964 994.967 -100.104 996.512C-101.838 997.504 -106.139 998.28 -109.671 998.307C-117.123 998.361 -122.235 1002.3 -120.447 1006.61C-118.233 1011.94 -108.168 1012.92 -99.8504 1008.6C-88.7622 1002.84 -88.1601 1003.17 -93.8966 1011.71C-101.046 1022.36 -100.525 1028.78 -92.819 1025.49C-89.5093 1024.08 -85.86 1022.02 -84.7055 1020.96C-83.5554 1019.9 -82.5322 1021.54 -82.3647 1024.54C-82.1926 1027.55 -81.9164 1031.55 -81.7942 1033.51C-81.6674 1035.47 -80.9521 1038.07 -80.2095 1039.18C-78.6113 1041.55 -66.3957 1031.37 -66.3957 1027.66C-66.3957 1026.26 -65.5672 1025.92 -64.4941 1026.9C-63.2445 1028.06 -63.2445 1031.45 -64.4941 1036.34C-65.5672 1040.55 -66.3957 1045.35 -66.3957 1047.01C-66.3957 1051 -56.8107 1040.67 -47.194 1026.34C-40.0222 1015.65 -38.9945 1017.48 -45.6727 1029.08C-47.3117 1031.92 -48.0452 1036.56 -47.3208 1039.36C-46.1572 1043.89 -45.4871 1043.63 -40.8598 1037.19L-35.5987 1030.02L-36.296 1037.57C-36.9389 1044.5 -38.3198 1045.41 -53.2158 1049.08C-63.6837 1051.67 -70.534 1052.06 -72.5397 1050.22C-77.6242 1045.54 -88.6988 1042.77 -88.6988 1046.16C-88.6988 1047.84 -87.1006 1049.85 -85.1492 1050.6C-83.1978 1051.34 -86.1634 1051.32 -91.7414 1050.6C-99.8912 1049.53 -101.381 1049.99 -99.3433 1053.05C-95.4677 1058.88 -96.337 1061.05 -101.879 1059.47C-108.435 1057.6 -117.63 1061.09 -116.073 1064.85C-115.403 1066.46 -112.781 1067.78 -110.241 1067.78C-101.575 1067.78 -102.793 1071.93 -113.347 1078.25C-131.34 1089.02 -127.415 1097.03 -108.915 1087.31C-99.5471 1082.39 -95.8887 1083.24 -102.766 1088.73C-105.093 1090.58 -106.95 1094.23 -106.95 1096.85C-106.95 1100.49 -105.718 1101.14 -101.562 1099.58C-96.7761 1097.79 -96.4185 1098.09 -98.7728 1102.32C-104.238 1112.13 -98.4423 1112.15 -89.3961 1102.32C-85.1718 1097.73 -85.0043 1097.78 -86.1634 1104.49C-87.2545 1110.79 -87.0372 1111.1 -83.9448 1107.32C-80.8977 1103.59 -80.6895 1103.77 -81.921 1108.83C-83.1298 1113.83 -82.6544 1113.67 -78.2445 1107.7C-73.0785 1100.71 -69.9001 1101.29 -71.8425 1108.83C-73.3954 1114.84 -68.5328 1114.05 -60.8177 1107.04C-57.1458 1103.7 -54.2299 1102.55 -54.2299 1104.4C-54.2299 1106.44 -52.1065 1106.97 -48.6519 1105.81C-44.8804 1104.54 -44.0609 1104.81 -46.1164 1106.66C-47.7917 1108.17 -54.1801 1110.91 -60.3106 1112.8C-73.5177 1116.85 -77.6197 1120.16 -75.5823 1125.06C-74.1832 1128.44 -71.4576 1128.07 -59.2964 1123.18C-56.1904 1121.93 -56.7835 1123.85 -61.8319 1131.1C-65.4585 1136.32 -68.4241 1141.22 -68.4241 1142.06C-68.4241 1145.06 -57.1503 1141.33 -50.6803 1136.21C-43.5719 1130.57 -42.4807 1132.3 -47.194 1141.58C-51.3142 1149.69 -50.9157 1153.27 -46.1164 1151.4C-43.4813 1150.38 -42.0642 1151.37 -42.0642 1154.13C-42.0642 1159.79 -40.2079 1159.48 -35.472 1153.1C-31.7321 1148.05 -31.5601 1148.09 -32.2392 1153.85C-33.3259 1163.07 -22.0747 1160.29 -16.0846 1149.89L-11.394 1141.77L-12.7251 1151.59C-14.4864 1164.58 -9.39731 1164.92 -1.51017 1152.35C1.61843 1147.36 4.43915 1143.28 4.82852 1143.28C5.2179 1143.28 5.67519 1146.8 5.84271 1151.12C6.30453 1162.99 9.60518 1166.2 13.8249 1158.86C17.1573 1153.06 17.6327 1152.95 20.1002 1157.72C22.5406 1162.45 22.8123 1162.38 23.9623 1156.31C24.7048 1152.38 26.3121 1150.37 27.9557 1151.31C29.7033 1152.31 31.2065 1149.94 32.0758 1144.8C33.013 1139.21 33.9593 1137.81 35.0505 1140.45C35.9288 1142.56 38.5413 1144.73 40.8821 1145.27C44.1827 1146.02 46.1251 1143.26 49.5616 1132.71C54.0032 1119.09 58.6938 1113.84 56.2806 1125.16C54.7231 1132.47 55.8957 1132.67 62.4246 1126.29C65.1728 1123.61 67.491 1118.51 67.6223 1114.97C67.8079 1109.81 68.0796 1109.58 68.8266 1113.84C70.366 1122.64 73.5127 1116.52 73.5761 1104.59C73.6305 1095.55 73.9927 1094.45 75.6679 1098.73C76.8043 1101.64 79.6341 1104.02 81.9432 1104.02C85.9366 1104.02 86.095 1105.12 84.7956 1127.43C83.8856 1143.01 81.7576 1155.73 78.4569 1165.46C76.5236 1171.17 74.9027 1176.25 74.0832 1179.05H124.526C126.758 1176.39 125.753 1171.71 123.448 1163.48C119.849 1150.67 118.463 1124.49 121.293 1123.09C122.398 1122.53 124.883 1126.11 126.866 1131.11C130.565 1140.43 135.107 1143.86 133.015 1135.73C130.62 1126.43 134.391 1131.53 137.135 1141.3C139.322 1149.1 141.074 1151.44 144.737 1151.02C147.363 1150.73 150.827 1151.91 152.402 1153.67C154.458 1155.96 155.499 1155.86 156.079 1153.29C156.617 1150.91 158.22 1151.67 160.833 1155.55C166.049 1163.33 168.647 1162.95 167.42 1154.61C166.836 1150.64 167.126 1149.13 168.118 1151.02C170.454 1155.49 176.924 1158.74 176.924 1155.46C176.924 1152.41 188.116 1153.49 193.97 1157.06C197.054 1158.95 197.62 1158.35 196.633 1154.52C195.945 1151.85 196.443 1149.11 197.774 1148.38C199.621 1147.37 199.644 1146.06 197.71 1143C193.106 1135.73 195.012 1134.79 202.587 1140.55C210.963 1146.91 213.299 1145.98 209.242 1138C207.073 1133.74 207.042 1133.39 209.179 1136.21C210.655 1138.16 213.091 1139.07 214.626 1138.19C216.165 1137.31 217.478 1137.8 217.478 1139.32C217.478 1140.84 218.714 1144.65 220.267 1147.82C222.698 1152.77 223.59 1152.99 226.479 1149.42C229.386 1145.82 230.205 1146.26 233.067 1152.35L236.363 1159.33L238.201 1152.06C239.894 1145.31 240.207 1145.18 242.634 1150.08C245.844 1156.56 247.279 1156.66 251.254 1150.74C253.726 1147.06 253.862 1145.23 251.888 1141.68C250.525 1139.24 250.014 1137.24 250.747 1137.24C251.48 1137.24 251.028 1134.19 249.733 1130.45C247.763 1124.76 248.501 1125.09 254.229 1132.81C266.847 1149.8 267.68 1150.43 271.275 1145.08C273.068 1142.41 273.815 1138.59 272.987 1136.49C272.14 1134.33 273.181 1134.69 275.395 1137.34C286.112 1150.16 296.965 1152.68 289.653 1140.65C286.348 1135.21 286.461 1134.78 291.74 1132.81L297.255 1130.73L291.301 1123.56C283.509 1114.07 287.674 1114.05 298.84 1123.56C303.693 1127.69 308.85 1131.09 310.245 1131.11C314.338 1131.16 313.156 1126.35 308.216 1122.8C304.11 1119.86 304.422 1119.5 311.829 1119.31C316.357 1119.2 321.831 1117.12 323.995 1114.69C327.739 1110.47 327.69 1110.25 321.903 1110.16C313.219 1110.01 282.336 1101.64 275.903 1097.7C268.02 1092.87 266.526 1085.48 274.318 1089.86C281.15 1093.71 284.605 1090.53 279.574 1085.05C276.654 1081.87 277.596 1081.49 285.343 1082.41C295.231 1083.58 297.336 1079.87 289.965 1074.29C286.022 1071.3 286.687 1070.93 295.29 1071.55C306.894 1072.4 310.168 1066.72 300.171 1063.06L293.515 1060.6L300.107 1059.47C307.822 1058.1 308.502 1054.99 302.136 1050.12C298.405 1047.28 299.985 1046.89 310.752 1048.24C322.886 1049.75 323.565 1049.52 319.938 1045.22C317.774 1042.65 314.415 1040.6 312.463 1040.6C310.512 1040.6 308.329 1039.09 307.582 1037.29C306.731 1035.23 308.004 1034.18 311.005 1034.55C319.477 1035.6 324.946 1034.61 324.946 1031.91C324.946 1030.46 318.517 1028.34 310.688 1027.19C302.86 1026.04 296.888 1024 297.445 1022.66C298.002 1021.32 303.847 1018.42 310.435 1016.24C322.863 1012.13 330.732 1005.99 328.242 1002.27C326.965 1000.37 315.682 1003.11 300.614 1009.07C295.983 1010.9 296.1 1010.33 302.453 1002.18C312.898 988.766 307.003 987.383 291.93 999.724C276.799 1012.11 268.133 1013.13 251.376 1004.54C232.365 994.792 201.523 971.471 199.227 965.088C196.388 957.173 198 957.409 203.157 965.655C205.43 969.285 207.341 971.154 207.341 969.805C207.341 968.455 208.708 969.056 210.379 971.127C212.896 974.231 213.421 973.941 213.421 969.427C213.421 964.879 214.458 965.439 219.76 972.828L226.094 981.701L224.89 971.977C223.676 962.389 223.758 962.294 229.2 965.749C232.229 967.672 236.082 970.81 237.753 972.733C245.617 981.748 246.527 981.546 245.106 970.938C244.028 962.922 244.241 961.532 246.183 964.427C249.71 969.683 258.032 969.083 258.032 963.576C258.032 957.949 261.305 957.665 263.479 963.104C264.371 965.337 267.64 969.501 270.705 972.45C275.305 976.863 276.278 977.031 276.278 973.394C276.278 970.965 274.454 966.586 272.226 963.576C269.994 960.567 268.169 956.667 268.169 954.986C268.169 953.306 268.686 952.827 269.374 953.853C270.062 954.885 272.068 953.617 273.811 951.025C276.002 947.753 279.298 946.761 284.582 947.813C289.834 948.866 292.542 948.063 293.262 945.263C294.058 942.179 295.901 941.862 300.995 944.041C318.874 951.68 322.166 942.969 304.92 933.657C293.262 927.361 291.786 924.176 302.702 928.839C316.574 934.77 334.621 930.283 326.974 922.799C325.299 921.166 319.825 919.628 314.809 919.405C307.057 919.061 306.55 918.757 311.576 917.138C314.827 916.085 317.896 913.332 318.417 911.004C319.209 907.462 316.008 907.064 298.776 908.831C278.483 910.917 278.157 910.917 280.652 904.965C284.365 896.105 281.816 894.573 271.719 899.675C266.259 902.435 259.254 903.595 253.785 902.603C242.063 900.471 203.279 881.111 198.724 875.14C193.961 868.891 194.229 864.559 199.232 866.928C201.504 868.001 203.284 867.454 203.284 865.7C203.284 862.42 206.322 863.365 216.464 869.944C219.81 872.117 227.154 873.959 232.813 874.006C238.473 874.047 243.947 874.37 244.979 874.667C249.724 876.017 250.226 873.952 246.69 867.677C244.146 863.169 244.943 863.675 249.036 869.188C256.049 878.642 258.032 879.431 258.032 872.872C258.032 868.884 258.684 868.911 263.23 873.345C266.286 876.327 269.03 877.265 269.817 875.605C270.56 874.047 273.897 871.003 277.229 868.81C283.052 864.991 283.147 864.694 279.384 860.598C274.793 855.598 275.961 855.186 283.188 859.282C287.113 861.502 288.449 861.293 288.449 858.338C288.449 855.949 293.592 852.811 301.629 850.315C308.877 848.061 314.809 844.984 314.809 843.519C314.809 842.055 315.664 841.745 316.769 842.764C317.878 843.783 320.4 843.25 322.347 841.63C325.439 839.052 325.159 838.364 320.255 836.536C316.026 834.95 314.944 833.101 315.823 828.985C316.683 824.943 315.777 823.317 312.336 822.561C309.054 821.846 311.386 819.72 320.319 815.482C334.169 808.917 337.587 802.972 325.453 806.515C314.247 809.794 286.42 810.536 286.42 807.554C286.42 806.143 287.33 805.01 288.449 805.01C289.562 805.01 290.473 803.633 290.473 801.987C290.473 800.34 286.14 799.092 280.842 799.247C267.54 799.652 246.269 793.026 244.979 788.019C244.25 785.198 245.563 783.862 248.968 783.862C251.725 783.862 253.975 782.546 253.975 780.94C253.975 779.328 255.343 778.754 257.018 779.712C258.689 780.671 260.06 779.854 260.06 777.917C260.06 775.603 261.586 776.048 264.556 779.146C267.037 781.73 271.37 783.829 274.191 783.768L279.321 783.673L274.635 777.823L270.008 772.067L279.701 771.122L289.458 770.083L282.363 764.989L275.264 759.894L281.476 759.8C285.433 759.719 289.481 756.945 292.501 752.154C295.122 747.998 298.197 744.604 299.41 744.604C300.619 744.604 302.815 741.823 304.223 738.463C307.931 729.623 303.209 727.849 291.55 733.746C278.977 740.103 276.373 739.927 277.673 732.518C278.954 725.224 278.619 725.183 265.887 731.385C256.203 736.108 255.193 735.966 239.718 729.407C218.85 720.554 213.498 712.261 229.58 713.645C231.237 713.786 233.23 712.417 234.017 710.527C235.013 708.125 236.693 708.685 239.528 712.511C242.706 716.796 245.364 717.531 251.82 715.905C261.038 713.591 261.609 712.444 256.511 706.188C252.866 701.708 254.211 701.85 262.908 707.039C266.028 708.894 266.548 708.334 265.507 704.299C264.547 700.574 265.322 699.299 268.423 699.299C271.248 699.299 272.276 697.862 271.529 694.953C270.913 692.571 271.465 689.933 272.797 689.103C274.494 688.037 274.264 686.309 271.909 683.441C268.83 679.69 268.953 678.813 273.43 672.395C280.734 661.923 279.375 659.737 268.676 664.845C242.068 677.557 232.31 678.313 225.777 667.962C222.078 662.092 221.861 660.492 224.319 659.089C225.972 658.144 230.06 658.886 233.447 660.789C242.113 665.661 243.965 660.803 236.743 652.105C231.677 646.005 231.337 644.871 234.715 645.31C241.805 646.221 245.866 645.02 245.866 641.909C245.866 640.249 244.268 638.805 242.317 638.697C239.442 638.548 239.546 637.955 243.014 635.87C245.368 634.453 247.84 631.173 248.529 628.508C249.611 624.304 249.208 624.115 245.296 627.374C238.224 633.272 195.963 632.367 187.061 626.146C180.84 621.794 180.51 621.173 184.716 620.957C188.56 620.761 189.343 619.499 188.456 614.445C187.46 608.777 187.682 608.561 190.738 612.461C195.179 618.13 201.255 621.301 201.255 617.934C201.255 616.483 203.08 615.937 205.312 616.8C207.581 617.684 209.369 616.895 209.369 615.012C209.369 613.156 211.646 611.706 214.435 611.706C221.177 611.706 220.842 608.703 213.041 599.155L206.517 591.226L217.351 593.77C228.525 596.402 232.591 595.309 230.468 590.187C228.39 585.18 233.841 578.48 239.971 578.48C246.88 578.48 247.836 573.493 241.302 571.401C238.713 570.571 239.808 570.045 243.838 570.267C248.452 570.531 250.756 569.451 250.426 567.062C250.149 565.038 250.887 563.378 252.137 563.378C253.667 563.378 253.59 561.839 251.82 558.661C250.145 555.645 247.292 554.444 243.965 555.449C241.094 556.326 239.908 556.353 241.302 555.449C245.984 552.42 243.91 547.581 238.767 549.504C234.656 551.043 234.022 550.449 235.095 546.299C236.05 542.581 235.634 541.906 233.637 543.749C232.138 545.125 228.589 546.508 225.714 546.859C222.843 547.217 218.239 548.445 215.45 549.599L210.383 551.677L215.957 544.599C222.4 536.36 223.337 531.535 217.605 536.103C211.95 540.611 207.798 540.233 210.954 535.537C215.504 528.755 213.706 523.411 209.052 529.875C206.671 533.175 201.889 537.885 198.403 540.348C186.015 549.106 152.592 537.183 152.592 524.018C152.592 521.386 151.461 517.614 150.12 515.624C148.495 513.195 148.45 512.034 149.93 512.034C151.148 512.034 152.647 514.072 153.29 516.562C154.032 519.443 156.925 520.948 161.145 520.718C164.803 520.516 169.852 521.386 172.36 522.608C176.109 524.43 176.924 523.62 176.924 518.451V512.223L183.829 518.262C188.795 522.628 191.154 523.418 192.196 520.907C192.993 518.984 192.399 516.123 190.865 514.585C188.456 512.169 200.291 512.493 208.355 515.057C209.469 515.408 212.452 514.672 215.006 513.451C219.289 511.4 219.366 510.786 216.4 505.9C213.421 501.001 213.584 500.509 218.365 498.727C224.224 496.534 225.388 490.88 220.013 490.704C217.777 490.63 218.714 489.078 222.544 486.453C225.89 484.166 231.31 478.99 234.583 474.941L240.478 467.579L233.067 465.501C228.956 464.354 225.587 462.121 225.587 460.501C225.587 458.801 223.228 458.362 220.013 459.556C215.142 461.365 214.712 461.095 216.971 457.006C220.887 449.927 215.051 447.761 209.048 454.084C206.24 457.039 200.142 459.239 194.287 459.367C186.301 459.543 185.16 458.949 188.646 456.628C192.59 454.01 192.979 451.547 191.245 440.021C191.163 439.468 188.03 441.843 184.272 445.305C180.519 448.76 174.357 451.553 170.585 451.533C157.944 451.472 136.184 438.928 122.366 423.692C117.046 417.821 118.173 416.607 124.331 421.519C127.523 424.063 128.274 423.645 128.324 419.252C128.383 414.103 128.483 414.049 130.479 419.157C131.629 422.099 133.391 423.773 134.405 422.842C135.424 421.904 138.557 423.395 141.377 426.141C146.448 431.094 146.48 431.02 146.507 422.464C146.525 417.7 147.209 415.352 148.029 417.18C149.803 421.134 157.464 427.464 160.511 427.464C161.702 427.464 162.811 424.407 162.92 420.669C163.11 414.218 163.164 414.258 164.505 421.425C165.279 425.574 166.343 428.348 166.85 427.653C167.357 426.958 169.671 427.889 171.98 429.731C175.407 432.464 176.702 432.019 178.952 427.369C180.469 424.238 182.493 422.43 183.453 423.314C184.408 424.191 184.558 421.404 183.829 417.079C182.565 409.562 182.737 409.339 188.076 412.362C194.668 416.094 196.719 414.245 193.146 407.834C191.009 404.002 191.222 403.3 194.224 403.3C197.638 403.3 197.588 402.983 194.287 397.544C192.368 394.386 191.661 391.046 192.703 390.088C193.74 389.13 196.185 390.999 198.15 394.238C201.242 399.325 203.229 399.784 211.076 397.45C211.492 397.328 210.863 395.432 209.623 393.205C206.983 388.468 208.545 385.182 213.485 385.182C215.404 385.182 219.153 382.503 221.788 379.231L226.601 373.286L220.521 372.719C217.175 372.409 212.199 372.449 209.496 372.813C205.208 373.394 204.882 372.84 207.214 368.664C211.646 360.701 208.527 360.728 200.685 368.664C192.187 377.267 187.066 378.765 191.118 371.491C193.26 367.645 193.142 367.165 190.357 368.758C186.486 370.971 185.925 366.862 189.407 361.68C194.6 353.94 189.09 355.1 182.692 363.097C170.087 378.826 168.539 379.325 154.304 372.908C139.376 366.18 129.366 357.779 126.359 349.405C124.517 344.284 124.938 343.555 129.338 343.933C132.114 344.169 134.812 346.477 135.356 349.027C135.904 351.585 138.272 353.866 140.617 354.129C144.04 354.513 144.637 353.306 143.723 348.089C142.704 342.293 143.134 342.502 147.331 349.783C149.93 354.284 154.064 357.995 156.586 357.995C160.561 357.995 161.032 356.848 160.004 349.216C158.469 337.786 163.232 334.634 168.181 343.838C171.563 350.127 182.968 354.547 183.009 349.594C183.018 348.366 180.053 343.737 176.417 339.216C171.378 332.941 170.685 330.97 173.438 330.91C175.425 330.862 177.553 332.765 178.192 335.248C178.83 337.732 180.12 339.122 181.044 338.271C181.963 337.421 183.258 338.089 183.96 339.783C184.657 341.47 187.677 342.894 190.611 342.894C195.718 342.894 195.772 342.671 192.005 338.555C188.207 334.398 188.275 334.135 193.78 331.004C196.918 329.216 200.567 327.758 201.889 327.698C203.211 327.637 202.016 325.66 199.227 323.359C194.287 319.276 194.337 319.189 202.016 320.241C206.992 320.93 210.958 319.762 212.787 317.036C217.247 310.396 214.087 306.651 204.044 306.651C198.435 306.651 195.41 305.403 196.189 303.534C198.743 297.38 191.254 297.272 182.819 303.345C172.473 310.788 170.554 311.166 172.107 305.14C172.84 302.292 172.088 300.612 170.083 300.612C168.072 300.612 167.321 298.925 168.054 296.077C169.417 290.78 168.715 290.598 162.033 294.384C157.691 296.84 157.211 296.462 158.103 291.361C159.171 285.294 155.766 283.169 153.543 288.527C152.841 290.214 148.549 294.492 143.976 297.967C136.619 303.554 134.717 303.831 127.5 300.612C120.768 297.609 119.907 296.462 122.746 294.1C124.639 292.521 126.233 289.174 126.233 286.644C126.233 283.068 124.154 282.217 117.046 282.865C110.128 283.5 106.945 282.217 103.993 277.771C99.5421 271.063 95.2363 247.115 98.0344 244.545C99.764 242.952 100.733 249.389 99.9994 257.662C99.8092 259.788 101.598 265.584 103.993 270.598C107.465 277.865 108.946 278.972 111.214 276.165C112.781 274.228 114.126 269.106 114.257 264.747C114.443 258.472 114.741 258.081 115.525 262.858C117.06 272.244 122.321 279.471 127.627 279.471C131.77 279.471 132.155 278.634 130.353 273.614C127.704 266.245 127.686 263.479 130.289 265.874C131.403 266.907 132.318 266.313 132.318 264.558C132.318 262.797 133.228 261.347 134.342 261.347C135.46 261.347 136.37 263.249 136.37 265.591C136.37 271.009 148.219 286.084 150.691 283.81C151.714 282.872 152.592 279.485 152.592 276.259C152.592 273.034 153.502 270.409 154.684 270.409C155.866 270.409 156.292 268.708 155.572 266.63C154.852 264.558 155.952 265.935 158.044 269.748C160.131 273.56 162.54 275.692 163.364 274.464C164.188 273.243 166.841 271.772 169.322 271.259C174.814 270.119 183.009 264.1 183.009 261.158C183.009 259.977 180.293 257.345 176.987 255.307C173.682 253.263 171.174 250.03 171.409 248.134C171.654 246.204 169.078 244.524 165.646 244.356C158.551 244.011 148.228 236.832 152.085 234.915C153.475 234.227 154.621 231.703 154.621 229.348C154.621 224.558 144.479 223.336 141.314 227.743C138.249 232.007 130.289 234.801 130.289 231.616C130.289 230.023 132.598 227.877 135.482 226.798C139.806 225.185 140.295 224.011 138.272 220.381C136.27 216.791 136.569 216.022 139.666 215.947C144.185 215.833 151.809 207.796 149.994 205.09C149.296 204.051 144.551 202.546 139.476 201.696C129.329 199.989 129.379 200.036 132.377 191.689C134.323 186.271 134.817 186.19 139.286 190.555C143.8 194.962 144.185 194.813 145.43 188.949C146.163 185.508 147.63 183.47 148.662 184.422C149.699 185.373 150.564 184.766 150.564 183.005C150.564 181.243 152.389 179.793 154.621 179.793C156.848 179.793 158.673 177.863 158.673 175.548C158.673 170.933 154.39 167.714 148.345 167.714C143.741 167.714 143.125 162.167 147.458 159.691C149.124 158.74 150.061 156.965 149.55 155.73C149.038 154.488 150.895 151.708 153.67 149.495C160.502 144.05 158.813 139.022 150.12 139.022H142.962L148.092 129.015C152.094 121.208 152.629 118.28 150.691 115.425C148.762 112.585 146.793 114.13 141.568 122.598C135.365 132.632 134.722 133.024 132.567 127.882C131.29 124.832 129.338 122.409 128.261 122.409C125.848 122.409 119.446 139.313 118.056 149.401C117.032 156.864 98.3695 180.683 95.5623 178.099C94.7609 177.363 94.367 169.3 94.6115 160.163C94.856 151.027 94.2538 143.55 93.2804 143.55C92.3115 143.55 91.7953 138.537 92.1394 132.416C92.6646 123.131 93.6879 120.878 98.4147 119.008C103.314 117.072 103.938 117.504 102.915 122.315C101.063 130.993 106.008 133.206 109.947 125.432C112.029 121.316 113.985 119.778 114.764 121.654C116.145 124.987 124.204 123.226 124.204 119.575C124.204 116.768 114.112 102.706 112.355 103.057C111.608 103.212 109.417 102.686 107.475 101.93C101.756 99.6963 105.473 95.4519 111.531 97.3008C121.696 100.405 130.855 99.8245 131.743 95.9783C132.223 93.9067 131.281 92.2062 129.655 92.2062C128.025 92.2062 125.581 90.1482 124.204 87.6785C122.828 85.202 120.885 83.9334 119.894 84.8444C118.907 85.7553 118.119 85.4314 118.119 84.0886C118.124 82.7458 120.867 78.9131 124.204 75.5932C130.344 69.4864 132.028 65.0194 128.198 65.0194C124.503 65.0194 111.223 74.1694 109.44 77.9549C108.385 80.1952 108.181 79.0278 108.932 75.0264C109.612 71.4298 109.286 67.6915 108.235 66.7198C106.03 64.6887 97.8443 84.1156 97.8443 91.356C97.8443 94.0281 97.2421 95.3642 96.5131 94.2846C95.7887 93.1982 93.9188 94.6085 92.3975 97.4898C89.9843 102.058 89.7805 100.823 90.6861 87.9551C91.5237 76.0048 93.4298 70.1747 100.823 57.2864C105.845 48.5277 110.01 39.4047 110.01 36.989C110.01 29.7351 99.8228 34.5058 97.7175 42.7449C94.3716 55.8626 90.6861 51.3146 91.4467 35.0052C91.9991 23.1088 91.2792 18.6148 87.897 13.203L83.6501 6.50246ZM69.8997 112.497C70.8279 112.578 73.0328 115.203 75.5411 119.386C79.7111 126.343 81.6217 132.619 81.6217 139.488C81.6217 145.008 81.2369 149.59 80.8022 149.59C79.7111 149.59 77.0986 140.23 76.175 133.071C75.7585 129.839 74.0832 125.021 72.4352 122.315C70.7916 119.602 69.456 115.5 69.456 113.253C69.456 112.693 69.5918 112.47 69.8997 112.497ZM64.96 156.857C68.8176 157.282 78.1762 166.898 79.6613 172.714C82.3009 183.065 80.8022 184.995 76.2384 177.06C74.2372 173.578 71.4753 170.737 70.0898 170.737C67.7445 170.737 62.2072 159.057 63.6923 157.235C63.9775 156.884 64.4077 156.796 64.96 156.857ZM120.338 181.493C120.827 181.5 121.42 181.628 122.049 181.871C125.395 183.173 124.612 184.968 116.792 193.862C111.721 199.618 105.795 204.571 103.676 204.807C101.552 205.043 99.8726 206.237 99.8726 207.546C99.8726 208.855 98.8449 209.996 97.6541 209.996C96.4633 209.996 95.7751 206.939 96.1328 203.201C96.6942 197.323 97.8533 196.5 104.432 197.35C110.286 198.113 112.038 197.242 112.038 193.578C112.038 190.954 113.406 188.855 115.081 188.855C116.752 188.855 118.119 186.945 118.119 184.611C118.119 182.573 118.875 181.48 120.338 181.493ZM96.8301 224.719L101.584 228.215C104.197 230.111 108.529 230.819 111.214 229.821C113.976 228.782 116.095 229.301 116.095 231.042C116.095 232.736 115.217 234.16 114.194 234.16C113.17 234.16 111.02 234.861 109.44 235.766C107.859 236.67 104.4 234.531 101.711 231.042L96.8301 224.719ZM119.07 232.176C119.532 232.277 120.211 232.986 121.162 234.16C123.43 236.96 124.204 237.007 124.204 234.349C124.204 232.385 125.2 231.751 126.486 232.932C128.102 234.423 127.681 236.346 125.092 239.16C119.867 244.848 118.119 244.234 118.119 236.805C118.119 233.458 118.305 232.007 119.07 232.176ZM149.613 243.222C151.352 243.222 152.266 244.578 151.578 246.238C149.957 250.152 146.507 250.152 146.507 246.238C146.507 244.578 147.875 243.222 149.613 243.222ZM101.901 291.55C103.015 291.55 103.925 298.345 103.925 306.651C103.925 321.962 103.622 323.278 101.204 319.674C99.0441 316.456 99.6644 291.55 101.901 291.55ZM86.4391 331.848C87.1636 331.665 87.7069 332.327 87.7069 333.642C87.7069 335.404 86.7923 336.854 85.6785 336.854C83.0796 336.854 83.0796 334.715 85.6785 332.32C85.9547 332.063 86.1947 331.908 86.4391 331.848ZM102.788 338.271C102.902 338.251 103.092 338.514 103.232 339.02C103.785 341.065 103.807 345.147 103.296 348.083C102.779 351.025 102.322 349.385 102.281 344.405C102.25 340.667 102.435 338.319 102.788 338.271ZM77.565 339.871C78.6833 339.871 79.5934 340.464 79.5934 341.193C79.5934 341.929 78.6833 343.38 77.565 344.405C76.4512 345.431 75.5366 344.844 75.5366 343.083C75.5366 341.321 76.4512 339.871 77.565 339.871ZM67.4276 345.917C68.5414 345.917 69.456 346.504 69.456 347.233C69.456 347.968 68.5414 349.419 67.4276 350.444C66.3138 351.47 65.3992 350.883 65.3992 349.122C65.3992 347.361 66.3138 345.917 67.4276 345.917ZM25.23 346.011C26.6155 346.214 28.336 347.577 29.6626 350.067C33.7737 357.779 40.5878 358.805 44.3638 352.239C47.7052 346.423 52.4728 346.349 50.0686 352.145C49.4257 353.69 50.295 354.972 51.9657 354.972C53.6409 354.972 55.5878 353.616 56.276 351.956C57.915 348.009 61.347 347.988 61.347 351.956C61.347 353.656 58.8387 356.524 55.7689 358.279C52.7037 360.033 44.9796 362.145 38.659 362.995C28.5986 364.358 26.9053 363.839 24.9765 358.468C23.7631 355.094 22.8214 350.897 22.8214 349.122C22.8214 346.828 23.8401 345.802 25.23 346.011ZM211.266 505.995C212.448 505.995 213.421 507.351 213.421 509.011C213.421 512.884 211.986 512.884 210.379 509.011C209.69 507.351 210.084 505.995 211.266 505.995ZM41.765 542.237C43.0055 542.237 40.6059 544.956 36.445 548.276C29.0785 554.154 24.8452 555.793 24.8452 552.811C24.8452 550.935 38.7722 542.237 41.765 542.237ZM216.844 671.262C219.076 671.241 221.299 671.592 222.671 672.395C225.442 674.008 224.079 674.696 217.985 674.852C213.245 674.966 209.364 674.541 209.364 673.907C209.364 672.301 213.118 671.295 216.844 671.262ZM262.211 687.591C262.917 687.551 263.759 687.72 264.493 688.158C266.109 689.123 265.589 689.805 263.225 689.953C261.088 690.081 259.893 689.353 260.563 688.347C260.903 687.848 261.509 687.632 262.211 687.591ZM262.718 762.816C262.809 762.775 262.958 762.816 263.098 762.816C264.217 762.816 266.494 764.132 268.169 765.744C269.84 767.35 270.297 768.666 269.184 768.666C268.065 768.666 265.788 767.35 264.113 765.744C262.65 764.334 262.084 763.092 262.718 762.816ZM-90.4827 884.857C-89.5229 884.641 -89.2512 885.268 -89.7855 886.557C-90.4646 888.197 -91.841 889.573 -92.8869 889.573C-95.8072 889.573 -95.196 887.333 -91.6871 885.329C-91.2343 885.072 -90.7997 884.924 -90.4827 884.857ZM-57.7208 910.815L-53.098 918.177L-48.5342 925.539L-45.0479 917.61C-41.8786 910.397 -41.4394 910.255 -39.6012 915.154C-38.0889 919.176 -37.1653 919.5 -35.9881 916.666C-34.8743 913.973 -34.0503 914.729 -33.0723 919.304C-31.6869 925.809 -27.8791 928.387 -27.8791 922.799C-27.8791 921.139 -25.3663 919.77 -22.3011 919.776H-16.7275L-22.8082 924.594C-26.7291 927.671 -31.9766 928.798 -37.5094 927.894C-42.2272 927.125 -45.5912 927.766 -44.9845 929.217C-43.3863 933.07 -46.4107 932.368 -52.6543 927.516C-55.8373 925.046 -58.3546 924.493 -58.7349 926.2C-59.0972 927.806 -61.0531 928.184 -63.0453 927.044C-66.4093 925.121 -66.3187 924.493 -62.1578 917.894L-57.7208 910.815ZM-10.579 914.115C-10.1534 914.108 -9.74141 914.122 -9.37467 914.304C-7.85791 915.06 -8.78608 916.443 -11.5298 917.516C-14.9029 918.825 -15.6953 918.434 -14.1921 916.193C-13.3047 914.877 -11.8603 914.129 -10.579 914.115ZM-31.1707 1038.61C-30.4463 1038.43 -29.903 1039.08 -29.903 1040.41C-29.903 1042.16 -30.8176 1043.61 -31.9314 1043.61C-34.5302 1043.61 -34.5302 1041.47 -31.9314 1039.08C-31.6552 1038.83 -31.4152 1038.67 -31.1707 1038.61Z" fill="#001223"/>
</g>
</svg>
