<svg width="200" height="435" viewBox="0 0 200 435" fill="none" xmlns="http://www.w3.org/2000/svg">
<path d="M17.9664 177.615C17.9101 177.242 17.8206 176.919 17.7229 176.603C17.761 176.922 17.8273 177.254 17.9664 177.615Z" fill="#723E40"/>
<path d="M198.002 162.465C198.171 162.289 198.345 162.122 198.53 161.986C201.467 157.407 197.651 155.026 194.787 155.105C185.816 155.353 178.638 150.409 170.6 148.075C170.079 147.519 169.558 146.962 169.036 146.405C170.056 144.617 169.553 142.047 171.85 140.914C173.599 141.531 175.35 142.147 177.099 142.763C183.074 141.426 189.219 141.393 191.563 133.305C194.437 123.393 195.085 121.047 190.909 115.772C187.424 115.194 185.035 117.408 182.443 119.099C180.623 118.018 180.46 115.53 181.721 115.155C186.702 113.676 185.536 109.071 187.127 105.913C191.063 106.133 190.271 103.312 190.283 101.008C193.621 99.744 192.531 97.3356 191.832 95.0266C188.797 96.4809 184.749 92.4044 183.074 94.9288C178.769 101.419 175.468 97.1534 171.743 94.8857C167.827 91.982 165.9 88.6725 166.959 83.2924C167.389 81.0977 170.568 75.9727 164.254 75.2372C159.699 73.5146 160.159 64.3645 152.47 67.2815C153.093 61.7092 152.816 56.8758 145.023 58.2175C130.358 57.8614 130.358 57.8614 132.969 46.9571C133.239 45.1814 133.126 43.5317 130.718 43.9193C127.591 44.4228 128.197 41.9697 127.667 40.3795C128.386 38.3736 129.221 36.4007 129.784 34.3518C130.165 32.9653 129.361 30.9892 128.025 31.8373C121.22 36.1556 123.948 30.9263 123.59 27.9778C123.431 26.6693 123.415 23.8765 120.519 24.1565C118.379 24.1648 116.241 24.1747 114.101 24.183C110.851 23.1775 108.881 25.7036 106.364 26.8498C103.789 28.0226 100.78 27.3931 100.967 24.1896C101.512 14.8159 98.0847 11.0376 88.6878 14.0423C88.2042 14.1964 87.6095 14.0026 87.0662 13.9711C84.8333 11.9486 86.1419 8.08419 83.1554 6.45261C77.4854 4.44999 72.5725 0.284091 66.129 0.491144C63.9856 -0.761112 62.8294 0.597155 61.7444 2.14757C59.9472 4.68521 60.5833 9.49381 55.6505 9.11283C48.1005 8.52977 45.6705 12.0397 47.2756 19.058C45.9256 20.6283 44.453 21.912 42.149 21.2511C39.2237 21.3273 36.2786 21.2345 33.3782 21.541C31.6356 21.7248 29.8964 23.2123 31.5329 24.7876C38.2481 31.2509 32.4937 34.4859 28.3957 38.2394C22.5551 40.02 26.8751 44.9744 25.3164 48.0934C22.4475 50.0199 23.7229 51.6945 25.6344 53.3294C28.3907 57.0547 28.6557 62.2675 33.1065 65.1182C34.2727 65.8652 36.812 67.293 35.568 69.9499C34.3108 72.6367 32.285 73.0375 29.5568 72.5158C28.0395 72.2242 26.3699 72.7327 24.7681 72.8801C21.071 75.9247 17.3755 78.9692 13.6784 82.0154C11.3826 86.8819 19.0402 88.5648 17.2761 93.2608C14.4022 94.2629 16.8156 96.7708 15.8781 98.3245C10.5444 97.5493 8.73725 102.121 6.83898 105.305C5.86335 106.94 9.21098 108.286 11.4604 108.526C12.7243 110.233 13.9881 111.94 15.2503 113.646H15.252C11.2997 113.419 8.28339 114.788 6.73297 118.65C6.22114 119.658 6.06378 120.608 6.68659 121.44C6.67665 121.455 6.66672 121.471 6.65678 121.486C6.35862 122.253 6.405 122.997 6.80254 123.719C7.53965 124.713 8.27676 125.707 9.01221 126.701C16.2061 127.579 16.5307 132.632 16.004 138.203C16.486 138.229 16.9531 138.319 17.4119 138.471C20.6088 142.418 18.0828 144.605 14.914 146.594C13.1947 146.841 11.9557 146.261 10.5792 145.054C6.97978 141.897 8.52191 145.504 8.40099 146.873C8.21713 150.474 9.52736 155.001 3.08056 154.454C2.35505 154.393 1.40757 156.964 0.564453 158.312C1.86143 161.673 1.4672 165.65 4.27318 168.459C4.69557 168.563 5.12459 168.635 5.55857 168.676C7.56781 174.154 15.9327 170.808 17.7167 176.599C17.6886 176.35 17.6852 176.113 17.7084 175.887C17.8095 176.441 17.8906 177.018 17.9602 177.609C18.8746 177.732 19.7889 177.853 20.7032 177.975C21.2101 179.507 17.8724 181.555 21.3343 182.694C24.5693 189.173 30.5407 187.152 35.5879 186.794C37.9947 186.623 38.3375 184.071 36.166 182.194C35.9241 181.805 35.5829 181.672 35.1423 181.795C34.6305 179.777 31.1139 178.471 33.8983 175.613C34.7961 174.692 35.2814 174.106 36.3415 175.014C40.9812 178.992 41.9899 173.667 44.3868 171.896C45.3127 170.074 45.3243 168.378 43.7077 166.902C43.2637 166.821 42.8198 166.736 42.3759 166.65C42.3958 165.41 44.4448 164.888 43.5536 163.326C44.0969 162.648 44.6402 161.973 45.1835 161.295C46.1641 161.285 47.1447 161.275 48.1237 161.265C49.1656 160.899 50.3433 160.796 50.7176 161.984C51.1881 163.472 49.5184 164.123 48.9469 165.232C50.8468 166.839 53.8682 167.739 51.6966 171.427C50.7938 172.963 52.1819 174.339 54.0272 174.691C53.1178 175.785 51.2229 177.427 51.473 177.878C52.4287 179.599 54.3154 179.897 56.2898 179.299C58.9567 178.492 59.0147 175.53 60.7937 174.006C60.9924 174.139 61.1929 174.273 61.3916 174.406C61.5192 174.174 61.7179 173.955 61.7643 173.708C62.0078 172.433 61.8405 170.861 63.8812 170.992C65.6983 174.603 67.3995 173.789 69.046 170.858C72.1468 173.003 70.9359 176.312 71.2258 179.174C72.5526 192.356 68.9863 205.545 71.2407 218.733C71.3467 225.319 71.4528 231.903 71.5571 238.489C69.5479 241.844 70.5367 245.488 70.6742 248.996C71.2258 262.932 70.9674 276.869 70.9459 290.806C72.594 304.859 69.4733 318.889 70.7305 332.94C69.528 343.321 69.0211 353.723 69.8642 364.167C70.3877 368.857 68.9499 373.506 69.629 378.2C69.4087 382.007 70.9873 385.946 68.723 389.582C68.6186 391.222 68.5176 392.86 68.4149 394.498C66.8032 396.959 67.5121 399.717 67.3349 402.383C66.7651 410.984 67.8616 419.601 67.0168 428.195C69.3292 436.553 74.8749 434.028 80.2368 432.122C81.3018 412.659 81.4774 393.199 80.202 373.733C79.662 365.494 80.1258 357.271 81.3681 349.102C82.14 320.385 80.4289 291.629 82.685 262.933C84.03 261.252 84.1376 259.591 82.6005 257.957C81.976 241.415 81.3532 224.87 80.7304 208.328C82.3288 204.934 81.7938 201.346 81.6464 197.806C81.3068 189.648 80.8347 181.49 82.2112 173.374C84.1294 171.167 83.1355 168.673 82.6353 166.403C81.2174 159.957 82.9169 154.696 87.9789 150.494C88.1661 150.002 88.2058 149.569 88.1296 149.182C90.4138 147.91 93.7416 144.918 92.6666 151.092C91.7174 156.535 94.752 154.752 96.8755 154.635C96.9699 154.779 97.0743 154.916 97.1753 155.055C90.6093 159.635 86.4699 166.046 83.6043 173.417C86.6521 176.952 89.2957 173.466 92.11 172.926C95.8088 171.234 96.2262 166.173 100.341 164.906C102.476 163.722 103.715 161.971 103.776 159.475C106.658 158.782 103.374 151.299 109.55 154.23C111.016 154.855 112.499 155.353 114.126 154.871C114.41 154.757 114.685 154.618 114.959 154.471C115.413 155.219 116.057 155.821 116.723 156.409C116.524 156.798 116.398 157.219 116.368 157.679H116.363C114.695 157.928 114.048 159.306 113.234 160.5C107.868 167.906 117.539 165.307 118.54 168.477C120.231 169.819 121.897 169.695 123.546 168.391L123.433 168.25C125.098 168.298 126.761 168.345 128.424 168.393C128.43 167.801 128.435 167.21 128.442 166.619C129.194 166.413 129.923 166.236 130.617 166.095C131.597 166.069 132.566 165.984 133.514 165.809C136.128 165.943 137.332 167.642 135.358 172.86C132.815 173.905 133.966 175.911 134.11 177.656C135.951 177.985 136.235 180.896 138.435 180.334C138.77 180.248 138.689 178.532 138.798 177.569C139.328 176.942 139.856 176.314 140.386 175.686C143.138 175.736 145.616 177.912 148.524 176.735C148.495 176.445 148.574 176.198 148.707 175.971C149.909 176.458 150.976 176.272 151.884 175.302C159.482 169.98 168.397 172.103 176.723 170.904C182.657 169.748 188.949 175.173 194.659 169.922C195.795 169.897 196.93 169.872 198.066 169.849C199.087 167.747 200.125 165.645 198.113 163.52C198.081 163.175 198.042 162.819 198.002 162.465ZM59.7965 150.012C58.4863 150.701 57.499 152.498 55.8393 151.85C56.4025 149.958 57.2025 148.231 59.0428 147.215C59.7203 146.979 60.3183 146.654 60.8848 146.293C61.5192 146.336 62.1552 146.379 62.7896 146.422C64.6796 145.985 64.4212 143.679 65.0937 142.185C65.3753 141.849 65.6569 141.516 65.9435 141.184C66.2267 141.02 66.5829 140.919 67.0284 140.898C67.0218 140.999 67.0235 141.09 66.9986 141.216C66.9522 141.473 66.9638 141.741 66.9539 141.978C67.1146 142.665 67.4193 143.31 67.8831 143.871C69.3458 145.342 70.1491 146.941 70.5864 148.61C70.9674 151.357 70.5185 154.133 69.4518 156.932C69.2447 156.685 69.0344 156.442 68.8273 156.197C68.6219 155.923 68.4049 155.66 68.1946 155.392C68.0074 153.011 67.0301 151.294 64.1347 151.176C63.7471 150.865 63.3611 150.55 62.942 150.27C61.9283 149.861 60.8864 149.768 59.7965 150.012ZM82.9268 139.598C83.8378 140.789 84.9774 141.247 86.4483 140.641C85.6284 142.819 85.0752 145.026 85.5241 147.345C80.5846 146.341 81.5536 143.056 82.9268 139.598ZM101.164 159.625C101.166 159.62 101.166 159.615 101.166 159.609C101.174 159.614 101.182 159.619 101.191 159.624C101.181 159.625 101.172 159.625 101.164 159.625ZM118.856 142.1C119.26 142.132 119.631 142.291 119.998 142.475C119.574 142.495 119.161 142.543 118.773 142.654C118.709 142.352 118.737 142.09 118.856 142.1ZM146.813 170.531C145.717 171.325 144.849 171.578 144.186 171.411C144.854 171.257 145.702 170.945 146.813 170.531C144.102 170.791 142.248 170.392 144.221 167.111C145.333 165.262 145.818 163.606 143.038 162.844C142.616 162.513 142.141 162.392 141.611 162.479C142.119 159.34 145.7 155.61 139.109 154.081C137.953 153.813 138.95 153.034 139.893 152.193C140.261 152.258 140.648 152.289 141.081 152.249C144.463 152.816 147.774 153.949 151.284 153.536C151.306 153.53 151.327 153.52 151.35 153.513C150.549 154.413 149.841 155.375 149.583 156.642C149.376 159.957 148.607 163.399 149.974 166.332C149.75 167.25 149.348 168.133 148.617 168.953C148.014 169.478 147.413 170.005 146.813 170.531Z" fill="#723E40"/>
<path d="M72.5008 12.8691C75.1826 12.079 78.3331 13.9773 78.8913 16.717C79.1845 18.1614 78.84 19.677 79.1282 21.1231C79.4164 22.5675 80.8177 24.0201 82.1959 23.4984C83.0075 23.1903 83.5376 22.2875 84.3956 22.1617C85.5071 21.9993 86.4546 23.2367 87.5693 23.1058C88.9326 22.9451 90.2726 20.9028 91.172 21.9397C91.4338 22.2412 91.442 22.6785 91.5563 23.0611C92.1179 24.9511 94.8543 25.0107 96.2324 26.4203C98.5961 28.8403 95.8895 33.7583 98.4504 35.9663C99.6165 36.9717 101.361 36.8607 102.863 36.5245C105.616 35.9083 108.24 34.719 110.519 33.0559C111.38 32.4282 112.376 31.691 113.405 31.9693C114.229 32.1929 114.743 32.9996 115.112 33.7699C117.173 38.0501 117.226 43.2462 115.253 47.5695C117.236 46.9235 119.386 48.6462 119.876 50.672C120.367 52.6978 119.629 54.818 118.679 56.6749C118.134 57.7383 117.496 58.8415 117.57 60.0324C117.676 61.7485 119.288 63.0654 120.971 63.4149C122.654 63.766 124.392 63.3734 126.066 62.9842C125.306 63.4248 124.85 64.3392 124.955 65.2104C125.183 67.1054 127.469 67.8723 129.339 68.245C131.364 68.6492 133.381 69.0765 135.395 69.5287C138.161 70.1499 140.916 70.8158 143.672 71.4816C144.083 71.581 144.504 71.6837 144.857 71.9173C146.198 72.8051 145.829 74.8359 145.304 76.3565C144.494 78.697 143.686 81.0392 142.876 83.3797C142.72 83.827 142.558 84.2891 142.236 84.6386C141.141 85.8279 139.172 84.9997 137.865 84.0456C136.56 83.0932 134.802 82.038 133.474 82.9573C133.007 83.2803 132.689 83.8137 132.17 84.044C131.135 84.5044 130.07 83.5669 129.038 83.0998C126.557 81.9768 123.519 83.6199 120.971 82.6559C119.431 82.0728 118.286 80.6003 116.669 80.2855C113.827 79.7306 111.16 82.9971 108.381 82.1788C105.889 81.445 104.814 77.7578 102.217 77.7479C100.294 77.7413 99.0517 79.8267 97.2495 80.4992C95.1856 81.2694 92.6098 79.6478 92.4127 77.4547C92.1792 74.8608 94.6224 72.936 96.6018 71.2431C98.5812 69.5503 100.426 66.6532 98.9009 64.5412C98.129 63.4712 96.7558 63.0687 95.5102 62.6347C92.4906 61.5829 89.6664 59.9662 87.2314 57.8924C87.3722 53.7612 84.4818 49.7129 80.5279 48.5071C77.5645 47.6027 74.3527 48.194 71.2966 47.6905C70.9421 47.6325 70.5496 47.5314 70.3657 47.2233C70.1835 46.9185 70.2746 46.5309 70.3723 46.1881C70.9206 44.2666 71.4689 42.3435 72.0172 40.4221C71.0448 39.2709 69.1963 39.4746 67.8314 40.114C66.4665 40.7533 65.201 41.7356 63.7019 41.8698C61.8716 42.0321 60.1042 40.8047 59.2594 39.1731C58.4146 37.5415 58.3699 35.5936 58.7244 33.7914C58.8469 33.1669 59.0424 32.5093 59.5377 32.1101C60.2864 31.5055 61.5386 31.6447 62.0836 30.8513C62.8058 29.7994 61.5685 28.5621 60.7038 27.6245C58.4279 25.1564 58.8006 21.1231 60.9191 18.5192C65.8586 12.4467 72.5008 12.8691 72.5008 12.8691Z" fill="#723E40"/>
<path d="M155.773 88.3985C155.07 89.346 153.467 89.1124 152.639 89.9506C151.81 90.7887 151.484 92.2497 152.254 93.1425C152.986 93.9906 154.419 94.0635 154.974 95.0358C155.715 96.3328 154.277 97.797 154.088 99.2779C153.682 102.476 158.701 103.542 159.885 106.541C160.811 108.882 158.358 111.776 155.897 111.247C158.058 112.65 158.266 115.995 156.813 118.123C155.36 120.252 152.741 121.305 150.185 121.645C149.38 121.752 148.551 121.799 147.767 121.588C146.22 121.174 145.118 119.856 144.034 118.678C142.949 117.5 141.604 116.321 140.003 116.344C138.402 116.367 136.934 118.37 137.953 119.604C138.198 118.55 136.399 118.532 135.491 119.12C132.473 121.076 129.831 123.612 127.753 126.546C126.032 126.486 124.357 127.765 123.959 129.44C123.562 131.116 124.486 133.009 126.051 133.728C128.248 134.735 130.741 133.485 133.008 132.65C135.276 131.815 138.451 131.747 139.442 133.952C140.186 135.605 139.197 137.674 140.002 139.297C141.012 137.616 143.411 137.225 145.241 137.931C147.071 138.636 148.446 140.162 149.685 141.681C150.399 142.555 151.108 143.476 151.428 144.558C152.034 146.612 151.27 149.221 152.837 150.682C153.939 151.709 155.638 151.584 157.126 151.823C158.613 152.061 160.303 153.282 159.841 154.717C159.7 155.154 159.374 155.507 159.036 155.818C157.467 157.259 155.354 158.207 154.343 160.08C153.198 162.199 153.982 165.098 155.947 166.487C157.911 167.879 160.778 167.72 162.688 166.255C163.495 165.636 164.147 164.818 165.019 164.294C169.685 161.49 176.152 168.74 180.594 165.594C181.306 165.091 181.863 164.352 182.668 164.016C184.296 163.333 186.045 164.536 187.773 164.9C189.388 165.24 191.152 164.786 192.403 163.708C192.719 163.434 193.019 163.093 193.064 162.676C193.128 162.073 192.648 161.561 192.182 161.172C190.186 159.504 187.755 158.363 185.197 157.892C182.661 157.427 180.047 157.612 177.495 157.253C173.847 156.739 170.369 155.083 167.667 152.578C165.774 150.822 164.272 148.676 163.089 146.38C162.37 144.984 161.752 143.417 162.064 141.878C162.397 140.228 163.732 138.962 165.156 138.065C167.172 136.796 169.508 136.036 171.885 135.877C171.217 134.782 171.429 133.233 172.365 132.357C173.301 131.482 174.863 131.374 175.91 132.115C176.647 132.637 177.089 133.475 177.732 134.109C179.867 136.221 183.796 135.375 185.603 132.976C187.41 130.579 187.467 127.25 186.708 124.346C186.562 123.79 186.378 123.218 185.986 122.797C185.052 121.795 183.347 122.072 182.217 122.847C181.086 123.621 180.258 124.775 179.125 125.547C178.865 125.724 178.572 125.885 178.259 125.873C177.841 125.859 177.502 125.55 177.202 125.259C175.386 123.496 173.412 121.017 174.462 118.714C174.899 117.757 175.784 117.093 176.443 116.271C178.825 113.303 177.374 108.153 173.793 106.866C174.805 105.466 175.781 103.402 174.543 102.198C173.468 101.153 171.707 101.767 170.208 101.706C168.274 101.625 166.576 100.267 165.567 98.6137C164.558 96.9606 164.278 94.9911 163.695 93.1442C160.985 84.5457 159.292 83.6561 155.773 88.3985Z" fill="#723E40"/>
<path d="M48.2996 43.0286C46.8668 44.3786 45.9723 46.2852 45.8498 48.2497C45.8017 49.0265 45.9309 49.921 46.5786 50.3517C48.1389 51.3902 50.1614 48.5661 51.8411 49.3976C52.5417 49.7438 52.8101 50.5803 53.148 51.2842C54.0756 53.2189 56.0335 54.6203 58.1636 54.8721C59.5285 55.0327 60.9978 54.7694 62.2185 55.3988C63.5983 56.1094 64.2178 57.7244 65.2796 58.8557C66.9957 60.6828 70.0418 61.072 72.162 59.7337C73.7224 63.7919 78.5939 65.2181 82.1486 67.7226C82.5975 68.039 83.0563 68.415 83.2054 68.9434C83.333 69.3956 83.2087 69.8776 83.0845 70.3315C82.3474 73.0397 81.6086 75.7463 80.8715 78.4545C80.6943 79.1039 80.5038 79.778 80.0549 80.2799C79.6226 80.762 79.0064 81.022 78.4515 81.355C76.4373 82.5641 75.2231 84.7407 73.4806 86.3176C71.7364 87.8929 68.7614 88.7177 67.1779 86.9818C66.3132 86.0343 66.1791 84.6562 65.7732 83.4404C65.3657 82.2246 64.3321 80.9624 63.0699 81.1827C61.4566 81.4643 61.2164 83.6458 60.312 85.0123C57.834 83.1952 54.1501 84.0599 51.8775 86.1271C49.6049 88.196 48.4073 91.161 47.2826 94.02C42.8102 91.5651 38.5946 88.6449 34.7252 85.3221C37.3457 83.0478 39.9645 80.7736 42.585 78.4993C43.8852 77.3713 45.2104 76.2118 46.0585 74.7144C46.9082 73.2169 47.2047 71.2905 46.3732 69.7832C44.74 66.8182 39.9943 67.0418 38.0927 64.2408C39.5289 64.0188 39.8071 61.9533 39.1297 60.6679C38.4522 59.3825 37.2281 58.4019 36.7775 57.0204C36.3286 55.6423 36.7378 54.1416 36.6202 52.6988C36.5026 51.2544 35.3861 49.6229 33.9716 49.9326C35.2801 49.0713 36.6699 48.1072 37.1916 46.6313C37.7118 45.1538 36.7759 43.1098 35.2106 43.1727C36.1117 41.026 37.021 38.326 39.2009 37.5078C47.3107 34.4666 48.2996 43.0286 48.2996 43.0286Z" fill="#723E40"/>
<path d="M26.5382 105.478C26.7983 107.606 24.0619 108.978 22.8229 110.727C24.4246 113.907 26.0264 117.089 27.6298 120.269C27.7656 120.538 27.9048 120.829 27.8601 121.127C27.8037 121.507 27.4691 121.775 27.1528 121.992C26.043 122.746 24.8155 123.347 23.8432 124.273C22.8726 125.199 22.1785 126.577 22.5247 127.874C23.0233 129.736 25.3887 130.672 25.768 132.56C26.2599 135.012 23.1343 137.645 24.6035 139.666C25.117 140.372 26.0347 140.655 26.6625 141.261C28.0307 142.585 27.5818 144.859 26.8679 146.625C26.1556 148.389 25.2711 150.375 26.0661 152.106C22.9156 151.788 19.7552 152.426 16.651 153.062C14.3817 153.525 12.1141 153.991 9.84479 154.455C7.57384 154.92 4.98153 155.629 4.02412 157.741C2.74867 160.557 5.5265 163.774 8.54119 164.458C9.50854 164.676 10.5289 164.743 11.4151 165.19C12.8611 165.922 13.7523 167.58 15.306 168.039C15.8825 168.21 16.5483 168.215 16.9923 168.622C17.4163 169.011 17.4942 169.639 17.5571 170.211C17.7592 172.009 18.1203 173.873 19.2301 175.304C20.3399 176.735 22.3955 177.577 24.0238 176.787C25.9204 175.867 26.356 173.265 25.7663 171.243C25.609 170.704 25.397 170.146 25.5112 169.598C25.7365 168.526 26.9987 168.104 28.0423 167.772C32.4285 166.379 36.2184 163.201 38.3552 159.124C38.7659 158.341 39.1287 157.509 39.7449 156.873C41.7574 154.794 45.3204 155.767 47.6709 157.454C48.1264 153.36 47.1905 149.123 45.0554 145.599C47.4655 144.221 49.8772 142.843 52.2873 141.465C52.6352 141.266 53.0327 141.061 53.417 141.175C53.952 141.334 54.1392 142.003 54.5864 142.338C55.4577 142.987 56.7199 141.96 56.8541 140.882C56.9899 139.804 56.5013 138.75 56.3919 137.67C56.0921 134.702 58.7474 132.143 61.5964 131.256C64.4438 130.369 67.5049 130.655 70.4815 130.461C71.5532 130.392 72.6895 130.228 73.5028 129.527C74.1422 128.976 74.4917 128.164 74.77 127.366C75.898 124.142 76.2309 120.644 75.729 117.266C75.3166 117.887 74.9041 118.507 74.49 119.128C75.1907 116.365 74.6905 112.955 72.2621 111.461C69.4131 109.708 65.7723 111.456 62.91 113.187C62.307 113.551 61.6908 113.929 61.2618 114.487C60.8179 115.068 60.6175 115.794 60.3607 116.48C59.1366 119.761 56.3721 122.429 53.0493 123.538C51.4094 119.57 51.6397 114.876 53.6605 111.089C54.4722 109.567 55.5571 108.184 56.17 106.571C56.7829 104.959 56.8292 102.966 55.6847 101.674C54.0614 99.8407 50.4371 100.835 49.975 103.24C47.6775 103.321 45.4413 104.495 44.0698 106.341C44.1394 103.009 39.5163 101.969 37.6048 99.2394C30.7439 89.4334 24.9646 92.5939 26.5382 105.478Z" fill="#723E40"/>
<path d="M69.698 101.985C70.6124 100.395 72.6862 99.5716 74.4354 100.121C76.1846 100.67 77.4186 102.548 77.2066 104.37C77.0459 105.757 76.2823 107.489 77.4103 108.312C78.0232 108.76 78.8663 108.604 79.625 108.652C81.8495 108.796 83.5076 110.835 84.2646 112.931C85.0233 115.026 85.1756 117.309 85.9823 119.386C87.0739 122.195 89.3366 124.579 89.701 127.572C90.0654 130.562 88.1821 133.682 85.3661 134.751C87.7398 135.907 89.8169 137.663 92.3065 138.541C94.7962 139.418 98.0427 139.1 99.4275 136.853C100.098 137.626 100.769 138.4 101.44 139.175C103.092 135.451 104.317 131.539 105.084 127.539C103.224 126.571 101.662 125.041 100.657 123.202C100.37 122.677 100.122 122.074 100.274 121.494C100.433 120.886 100.986 120.479 101.501 120.121C103.507 118.728 105.513 117.333 107.517 115.94C107.753 115.778 107.998 115.601 108.112 115.339C108.387 114.713 107.753 114.042 107.103 113.828C106.454 113.615 105.72 113.621 105.152 113.244C104.16 112.583 104.17 111.08 104.672 109.997C105.174 108.915 106.033 108.019 106.464 106.908C107.349 104.63 106.259 102.108 105.189 99.9111C103.847 97.1565 102.036 94.0474 98.9968 93.6548C97.3354 93.4395 95.5846 94.2048 94.6139 95.5696C94.0905 96.3051 93.4843 97.3371 92.6097 97.1085C91.9521 96.9379 91.7169 96.1527 91.5131 95.5034C90.5275 92.3545 87.6802 89.8682 84.4269 89.3166C80.6718 88.6806 76.6003 88.553 73.0688 89.9792C64.6675 93.3765 69.698 101.985 69.698 101.985Z" fill="#723E40"/>
<path d="M140.067 92.1392C140.902 93.5571 143.079 93.4992 144.705 93.7526C143.937 94.5576 143.138 95.4123 142.858 96.4907C142.579 97.569 143.031 98.9223 144.094 99.2486C144.442 99.3546 144.83 99.3496 145.138 99.5401C146.176 100.181 145.179 101.838 145.553 103C145.729 103.544 146.201 103.93 146.519 104.403C147.409 105.732 146.985 107.504 146.527 109.035C146.428 109.366 146.322 109.711 146.082 109.961C145.461 110.605 144.394 110.275 143.564 109.942C141.389 109.073 138.986 108.478 136.713 109.045C134.441 109.611 132.405 111.64 132.499 113.981C130.192 114.284 127.959 115.132 126.031 116.436C126.412 115.369 124.792 114.503 123.8 115.051C122.807 115.599 122.428 116.81 122.137 117.905C121.809 119.137 121.479 120.37 121.151 121.602C121.037 122.033 120.888 122.506 120.5 122.723C120.104 122.945 119.612 122.815 119.16 122.839C117.681 122.924 116.871 124.589 115.61 125.367C115.395 125.501 115.127 125.611 114.893 125.511C114.66 125.412 114.554 125.147 114.474 124.907C113.878 123.09 113.515 121.196 113.396 119.288C113.359 118.715 113.353 118.109 113.631 117.605C114.023 116.896 114.858 116.588 115.529 116.131C116.811 115.26 117.563 113.664 117.421 112.122C117.363 111.498 117.172 110.885 117.207 110.259C117.326 108.096 120.02 106.631 119.872 104.47C119.781 103.143 118.647 102.175 117.731 101.211C116.815 100.249 116.018 98.7964 116.695 97.6535C117.694 95.9705 120.455 96.9428 122.094 95.8711C120.586 95.0761 119.601 93.2755 119.975 91.6141C120.349 89.9511 122.218 88.7137 123.844 89.2206C124.903 89.5502 125.713 90.5623 125.802 91.6671C126.476 91.3027 127.109 90.2923 127.823 90.5722C133.765 92.8896 136.809 86.6084 140.067 92.1392Z" fill="#723E40"/>
</svg>
