<svg width="200" height="354" viewBox="0 0 200 354" fill="none" xmlns="http://www.w3.org/2000/svg">
<path d="M17.4017 144.467C17.3454 144.164 17.2559 143.901 17.1582 143.644C17.1963 143.904 17.2626 144.174 17.4017 144.467Z" fill="#723E40"/>
<path d="M197.437 132.145C197.606 132.002 197.78 131.866 197.966 131.755C200.903 128.031 197.086 126.094 194.222 126.159C185.251 126.361 178.074 122.339 170.035 120.441C169.515 119.988 168.993 119.535 168.472 119.083C169.492 117.628 168.988 115.538 171.286 114.616C173.035 115.118 174.786 115.619 176.535 116.12C182.51 115.033 188.655 115.006 190.999 108.427C193.873 100.365 194.52 98.4569 190.345 94.1657C186.859 93.6955 184.471 95.4969 181.879 96.8724C180.058 95.9927 179.896 93.969 181.156 93.6645C186.137 92.4614 184.971 88.7159 186.563 86.1466C190.499 86.3258 189.707 84.0314 189.718 82.1573C193.056 81.1293 191.966 79.1704 191.267 77.2922C188.233 78.4752 184.184 75.1595 182.51 77.2127C178.205 82.4914 174.903 79.0222 171.178 77.1777C167.262 74.8159 165.336 72.124 166.394 67.748C166.825 65.9628 170.004 61.7943 163.689 61.1961C159.134 59.7949 159.595 52.3525 151.906 54.7251C152.528 50.1928 152.252 46.2614 144.458 47.3527C129.794 47.063 129.794 47.063 132.405 38.1938C132.675 36.7495 132.562 35.4076 130.153 35.7228C127.026 36.1324 127.632 34.1371 127.102 32.8437C127.821 31.2121 128.656 29.6075 129.219 27.9409C129.6 26.8132 128.797 25.2059 127.46 25.8957C120.656 29.4081 123.384 25.1547 123.026 22.7565C122.867 21.6921 122.85 19.4206 119.955 19.6483C117.815 19.655 115.676 19.6631 113.536 19.6698C110.286 18.852 108.317 20.9067 105.799 21.839C103.225 22.7929 100.215 22.2809 100.402 19.6752C100.947 12.0509 97.5203 8.9777 88.1234 11.4217C87.6397 11.547 87.045 11.3894 86.5017 11.3638C84.2689 9.71872 85.5775 6.57548 82.5909 5.24839C76.921 3.61951 72.008 0.231072 65.5646 0.399484C63.4211 -0.61907 62.265 0.485711 61.18 1.74678C59.3828 3.81083 60.0188 7.72203 55.086 7.41215C47.536 6.9379 45.1061 9.79282 46.7111 15.5013C45.3612 16.7785 43.8886 17.8227 41.5845 17.2851C38.6593 17.3471 35.7141 17.2717 32.8137 17.5209C31.0712 17.6705 29.3319 18.8803 30.9685 20.1616C37.6836 25.4187 31.9292 28.05 27.8312 31.103C21.9907 32.5513 26.3106 36.5811 24.7519 39.118C21.883 40.6849 23.1585 42.047 25.07 43.3768C27.8263 46.4069 28.0913 50.6468 32.5421 52.9655C33.7082 53.5731 36.2475 54.7345 35.0035 56.8955C33.7463 59.0809 31.7205 59.4069 28.9924 58.9825C27.4751 58.7454 25.8054 59.159 24.2037 59.2789C20.5065 61.7552 16.811 64.2316 13.1139 66.7093C10.8181 70.6676 18.4757 72.0364 16.7117 75.856C13.8378 76.6711 16.2512 78.7109 15.3136 79.9747C9.97995 79.3442 8.17279 83.0627 6.27453 85.6522C5.2989 86.982 8.64653 88.0773 10.896 88.2727C12.1598 89.6604 13.4237 91.0495 14.6858 92.4372H14.6875C10.7353 92.2526 7.71893 93.3654 6.16852 96.5073C5.65669 97.3265 5.49933 98.0998 6.12214 98.7762C6.1122 98.7883 6.10226 98.8018 6.09232 98.8139C5.79417 99.4377 5.84055 100.043 6.23809 100.63C6.9752 101.438 7.71231 102.247 8.44776 103.055C15.6416 103.769 15.9663 107.88 15.4395 112.411C15.9215 112.432 16.3887 112.505 16.8475 112.629C20.0444 115.84 17.5183 117.618 14.3496 119.236C12.6302 119.437 11.3912 118.965 10.0147 117.983C6.41533 115.415 7.95746 118.35 7.83654 119.463C7.65268 122.392 8.96291 126.074 2.51611 125.629C1.79059 125.579 0.84312 127.67 0 128.767C1.29698 131.501 0.90275 134.735 3.70873 137.02C4.13112 137.105 4.56013 137.163 4.99412 137.197C7.00336 141.652 15.3683 138.931 17.1523 143.641C17.1241 143.439 17.1208 143.246 17.144 143.062C17.245 143.513 17.3262 143.982 17.3958 144.463C18.3101 144.563 19.2244 144.661 20.1388 144.761C20.6457 146.007 17.308 147.672 20.7699 148.599C24.0049 153.868 29.9763 152.225 35.0234 151.934C37.4302 151.795 37.7731 149.719 35.6015 148.192C35.3597 147.876 35.0184 147.768 34.5778 147.868C34.066 146.227 30.5494 145.164 33.3339 142.839C34.2316 142.09 34.717 141.613 35.7771 142.352C40.4167 145.588 41.4255 141.256 43.8223 139.816C44.7483 138.334 44.7599 136.954 43.1432 135.754C42.6993 135.688 42.2554 135.619 41.8114 135.549C41.8313 134.54 43.8803 134.116 42.9892 132.845C43.5325 132.294 44.0758 131.744 44.6191 131.193C45.5997 131.185 46.5803 131.177 47.5592 131.169C48.6011 130.871 49.7788 130.788 50.1532 131.754C50.6236 132.964 48.9539 133.493 48.3825 134.396C50.2824 135.703 53.3037 136.434 51.1321 139.435C50.2294 140.684 51.6175 141.803 53.4627 142.089C52.5533 142.98 50.6584 144.315 50.9085 144.681C51.8643 146.081 53.7509 146.324 55.7254 145.837C58.3922 145.181 58.4502 142.772 60.2292 141.533C60.428 141.64 60.6284 141.749 60.8272 141.857C60.9547 141.669 61.1535 141.491 61.1999 141.29C61.4434 140.253 61.2761 138.974 63.3168 139.08C65.1339 142.018 66.835 141.356 68.4815 138.971C71.5823 140.716 70.3715 143.408 70.6614 145.736C71.9882 156.458 68.4219 167.185 70.6763 177.912C70.7823 183.269 70.8883 188.624 70.9927 193.981C68.9834 196.71 69.9723 199.674 70.1098 202.527C70.6614 213.862 70.403 225.198 70.3814 236.534C72.0296 247.965 68.9089 259.376 70.1661 270.805C68.9635 279.249 68.4567 287.71 69.2998 296.205C69.8232 300.019 68.3854 303.801 69.0646 307.619C68.8443 310.715 70.4228 313.919 68.1585 316.876C68.0542 318.21 67.9531 319.542 67.8504 320.875C66.2387 322.877 66.9477 325.12 66.7704 327.288C66.2006 334.284 67.2972 341.293 66.4524 348.283C68.7648 355.081 74.3105 353.028 79.6723 351.477C80.7374 335.647 80.913 319.819 79.6375 303.985C79.0975 297.284 79.5613 290.596 80.8036 283.951C81.5755 260.593 79.8644 237.204 82.1205 213.863C83.4655 212.496 83.5732 211.145 82.036 209.816C81.4116 196.361 80.7887 182.904 80.1659 169.448C81.7644 166.688 81.2293 163.77 81.0819 160.89C80.7424 154.255 80.2703 147.62 81.6468 141.018C83.5649 139.223 82.571 137.194 82.0708 135.348C80.6529 130.105 82.3524 125.826 87.4144 122.408C87.6016 122.008 87.6414 121.656 87.5652 121.341C89.8494 120.306 93.1771 117.873 92.1021 122.894C91.153 127.321 94.1875 125.872 96.3111 125.776C96.4055 125.893 96.5098 126.005 96.6109 126.118C90.0448 129.843 85.9054 135.057 83.0398 141.053C86.0876 143.928 88.7313 141.093 91.5456 140.654C95.2443 139.277 95.6618 135.161 99.7763 134.131C101.911 133.167 103.15 131.743 103.212 129.713C106.094 129.15 102.809 123.063 108.986 125.447C110.452 125.955 111.934 126.361 113.561 125.969C113.846 125.876 114.121 125.762 114.394 125.643C114.848 126.252 115.492 126.741 116.158 127.219C115.96 127.536 115.834 127.878 115.804 128.252H115.799C114.131 128.454 113.483 129.575 112.67 130.547C107.303 136.57 116.975 134.457 117.975 137.035C119.667 138.127 121.333 138.026 122.981 136.965L122.869 136.851C124.533 136.89 126.196 136.927 127.859 136.967C127.866 136.486 127.871 136.005 127.878 135.524C128.63 135.357 129.358 135.212 130.052 135.098C131.033 135.076 132.002 135.008 132.95 134.865C135.563 134.974 136.768 136.356 134.793 140.6C132.25 141.45 133.402 143.082 133.546 144.501C135.386 144.769 135.671 147.136 137.871 146.679C138.205 146.609 138.124 145.213 138.234 144.431C138.764 143.92 139.292 143.409 139.822 142.899C142.573 142.939 145.051 144.709 147.96 143.752C147.93 143.516 148.01 143.315 148.142 143.13C149.345 143.527 150.412 143.376 151.319 142.586C158.917 138.257 167.832 139.985 176.159 139.009C182.092 138.069 188.385 142.481 194.095 138.21C195.231 138.19 196.366 138.17 197.502 138.151C198.522 136.441 199.561 134.731 197.548 133.003C197.517 132.723 197.477 132.433 197.437 132.145ZM59.232 122.016C57.9218 122.576 56.9346 124.038 55.2748 123.511C55.838 121.973 56.6381 120.567 58.4784 119.741C59.1558 119.549 59.7538 119.285 60.3203 118.991C60.9547 119.026 61.5908 119.061 62.2252 119.096C64.1152 118.74 63.8568 116.865 64.5293 115.65C64.8109 115.376 65.0925 115.105 65.379 114.836C65.6623 114.703 66.0184 114.62 66.464 114.603C66.4574 114.685 66.459 114.759 66.4342 114.862C66.3878 115.07 66.3994 115.289 66.3895 115.481C66.5501 116.04 66.8549 116.564 67.3187 117.021C68.7813 118.218 69.5847 119.518 70.022 120.876C70.403 123.11 69.9541 125.368 68.8873 127.645C68.6803 127.444 68.4699 127.246 68.2629 127.046C68.0575 126.824 67.8405 126.61 67.6301 126.392C67.4429 124.456 66.4656 123.058 63.5702 122.963C63.1826 122.71 62.7967 122.454 62.3776 122.226C61.3639 121.893 60.322 121.818 59.232 122.016ZM82.3623 113.545C83.2734 114.514 84.413 114.887 85.8839 114.394C85.064 116.166 84.5107 117.96 84.9596 119.847C80.0202 119.03 80.9892 116.358 82.3623 113.545ZM100.6 129.835C100.601 129.831 100.601 129.827 100.601 129.822C100.609 129.826 100.618 129.83 100.626 129.834C100.616 129.835 100.608 129.835 100.6 129.835ZM118.292 115.581C118.696 115.607 119.067 115.736 119.433 115.885C119.009 115.902 118.597 115.941 118.209 116.031C118.144 115.786 118.173 115.573 118.292 115.581ZM146.249 138.706C145.152 139.351 144.284 139.557 143.622 139.421C144.289 139.296 145.137 139.043 146.249 138.706C143.537 138.917 141.684 138.593 143.657 135.924C144.768 134.42 145.253 133.073 142.474 132.453C142.052 132.184 141.576 132.085 141.046 132.157C141.555 129.604 145.136 126.569 138.545 125.326C137.389 125.108 138.386 124.474 139.328 123.79C139.696 123.843 140.084 123.868 140.516 123.836C143.898 124.297 147.21 125.218 150.72 124.883C150.741 124.877 150.763 124.869 150.786 124.864C149.984 125.595 149.277 126.378 149.018 127.409C148.811 130.105 148.043 132.904 149.409 135.291C149.186 136.037 148.783 136.755 148.053 137.422C147.45 137.849 146.849 138.277 146.249 138.706Z" fill="#723E40"/>
<path d="M71.9369 10.4673C74.6186 9.82466 77.7691 11.3687 78.3274 13.5971C78.6206 14.7719 78.276 16.0047 78.5642 17.1809C78.8524 18.3557 80.2538 19.5373 81.6319 19.1129C82.4436 18.8623 82.9736 18.128 83.8317 18.0256C84.9431 17.8936 85.8906 18.9 87.0054 18.7936C88.3686 18.6629 89.7086 17.0017 90.6081 17.8451C90.8698 18.0903 90.8781 18.446 90.9924 18.7572C91.5539 20.2945 94.2903 20.343 95.6685 21.4895C98.0322 23.4579 95.3256 27.458 97.8864 29.254C99.0525 30.0718 100.797 29.9815 102.299 29.708C105.052 29.2068 107.676 28.2395 109.955 26.8868C110.816 26.3762 111.812 25.7766 112.841 26.003C113.665 26.1848 114.179 26.841 114.548 27.4675C116.609 30.9489 116.662 35.1753 114.689 38.6918C116.672 38.1663 118.822 39.5675 119.312 41.2153C119.803 42.863 119.065 44.5875 118.115 46.0979C117.57 46.9628 116.932 47.8601 117.007 48.8288C117.113 50.2246 118.724 51.2957 120.407 51.58C122.09 51.8656 123.828 51.5463 125.502 51.2297C124.742 51.5881 124.286 52.3318 124.391 53.0405C124.619 54.5818 126.905 55.2056 128.775 55.5087C130.8 55.8374 132.817 56.185 134.831 56.5528C137.598 57.0581 140.352 57.5997 143.108 58.1413C143.519 58.2221 143.94 58.3057 144.293 58.4956C145.634 59.2178 145.265 60.8696 144.74 62.1064C143.93 64.0101 143.122 65.9152 142.312 67.8189C142.156 68.1827 141.994 68.5586 141.672 68.8429C140.577 69.8102 138.608 69.1366 137.301 68.3605C135.996 67.5858 134.238 66.7276 132.91 67.4753C132.443 67.7381 132.125 68.1719 131.606 68.3592C130.571 68.7337 129.506 67.9712 128.474 67.5912C125.993 66.6778 122.955 68.0143 120.407 67.2301C118.867 66.7559 117.722 65.5582 116.105 65.3022C113.263 64.8508 110.596 67.5077 107.817 66.8421C105.325 66.2453 104.25 63.2462 101.653 63.2381C99.73 63.2327 98.4877 64.929 96.6855 65.476C94.6216 66.1025 92.0459 64.7835 91.8487 62.9996C91.6152 60.8898 94.0584 59.3242 96.0378 57.9473C98.0173 56.5704 99.8625 54.2139 98.337 52.4961C97.5651 51.6258 96.1919 51.2984 94.9463 50.9454C91.9266 50.0899 89.1024 48.7749 86.6675 47.0881C86.8083 43.728 83.9178 40.4352 79.9639 39.4543C77.0006 38.7187 73.7888 39.1997 70.7327 38.7901C70.3782 38.743 69.9856 38.6608 69.8017 38.4102C69.6195 38.1623 69.7106 37.847 69.8084 37.5681C70.3567 36.0053 70.9049 34.4411 71.4532 32.8782C70.4809 31.9418 68.6323 32.1076 67.2674 32.6276C65.9025 33.1477 64.637 33.9466 63.138 34.0557C61.3076 34.1878 59.5402 33.1894 58.6954 31.8623C57.8507 30.5352 57.8059 28.9508 58.1604 27.485C58.283 26.9771 58.4784 26.4422 58.9737 26.1175C59.7224 25.6257 60.9747 25.7389 61.5196 25.0935C62.2418 24.238 61.0045 23.2316 60.1398 22.469C57.8639 20.4615 58.2366 17.1809 60.3552 15.0629C65.2946 10.1238 71.9369 10.4673 71.9369 10.4673Z" fill="#723E40"/>
<path d="M155.208 71.9017C154.506 72.6723 152.902 72.4824 152.074 73.1641C151.246 73.8458 150.92 75.0341 151.69 75.7603C152.422 76.4502 153.855 76.5094 154.41 77.3003C155.15 78.3552 153.712 79.5462 153.524 80.7507C153.118 83.3524 158.137 84.2187 159.321 86.6586C160.247 88.5623 157.794 90.9161 155.332 90.4863C157.494 91.6274 157.701 94.3476 156.248 96.0789C154.796 97.8102 152.177 98.667 149.621 98.9432C148.816 99.0308 147.986 99.0685 147.203 98.8974C145.656 98.5606 144.554 97.4881 143.469 96.5302C142.384 95.5723 141.039 94.613 139.439 94.6319C137.837 94.6507 136.37 96.2796 137.388 97.2834C137.633 96.4265 135.835 96.4117 134.927 96.8899C131.909 98.4811 129.267 100.544 127.188 102.93C125.467 102.881 123.792 103.921 123.395 105.284C122.997 106.647 123.922 108.187 125.487 108.772C127.683 109.591 130.176 108.574 132.444 107.895C134.712 107.216 137.887 107.16 138.877 108.954C139.621 110.298 138.632 111.981 139.437 113.301C140.448 111.934 142.846 111.616 144.677 112.19C146.507 112.764 147.882 114.005 149.121 115.24C149.835 115.951 150.544 116.701 150.863 117.58C151.47 119.251 150.706 121.373 152.273 122.561C153.374 123.397 155.074 123.296 156.561 123.49C158.049 123.684 159.738 124.677 159.276 125.843C159.136 126.199 158.809 126.486 158.471 126.739C156.903 127.911 154.789 128.682 153.779 130.206C152.634 131.929 153.418 134.287 155.382 135.417C157.347 136.549 160.214 136.42 162.124 135.229C162.93 134.725 163.583 134.059 164.454 133.633C169.12 131.352 175.587 137.249 180.03 134.691C180.742 134.281 181.298 133.681 182.103 133.407C183.732 132.852 185.481 133.83 187.209 134.126C188.824 134.403 190.588 134.033 191.838 133.156C192.155 132.934 192.454 132.657 192.499 132.317C192.564 131.827 192.083 131.41 191.618 131.094C189.622 129.737 187.19 128.809 184.633 128.426C182.097 128.047 179.483 128.198 176.93 127.906C173.283 127.488 169.805 126.141 167.103 124.104C165.21 122.676 163.707 120.93 162.525 119.062C161.806 117.927 161.188 116.652 161.499 115.4C161.832 114.059 163.167 113.029 164.592 112.299C166.608 111.267 168.943 110.649 171.32 110.519C170.653 109.629 170.865 108.369 171.801 107.656C172.736 106.945 174.298 106.857 175.345 107.459C176.082 107.884 176.525 108.566 177.167 109.082C179.302 110.799 183.231 110.111 185.039 108.16C186.846 106.211 186.902 103.502 186.143 101.141C185.998 100.688 185.814 100.223 185.421 99.8809C184.487 99.0658 182.783 99.2908 181.653 99.9214C180.522 100.551 179.693 101.49 178.56 102.117C178.3 102.262 178.007 102.392 177.694 102.383C177.277 102.371 176.937 102.12 176.637 101.883C174.822 100.45 172.847 98.4326 173.898 96.5599C174.335 95.7811 175.219 95.2409 175.879 94.5726C178.261 92.1583 176.81 87.9695 173.228 86.9227C174.24 85.7842 175.216 84.1055 173.979 83.126C172.904 82.2759 171.143 82.7757 169.644 82.7258C167.709 82.6598 166.011 81.5551 165.003 80.2105C163.994 78.8659 163.714 77.2639 163.131 75.7617C160.421 68.7679 158.728 68.0444 155.208 71.9017Z" fill="#723E40"/>
<path d="M47.7353 34.9986C46.3025 36.0966 45.408 37.6473 45.2854 39.2452C45.2374 39.8771 45.3666 40.6046 46.0143 40.9549C47.5746 41.7997 49.5971 39.5026 51.2767 40.1789C51.9774 40.4605 52.2457 41.1409 52.5836 41.7135C53.5112 43.2871 55.4691 44.4269 57.5993 44.6317C58.9642 44.7624 60.4334 44.5482 61.6542 45.0601C63.034 45.6381 63.6535 46.9517 64.7153 47.8719C66.4313 49.358 69.4775 49.6746 71.5977 48.586C73.1581 51.8869 78.0296 53.0469 81.5843 55.084C82.0332 55.3413 82.492 55.6472 82.6411 56.077C82.7686 56.4448 82.6444 56.8368 82.5202 57.206C81.7831 59.4088 81.0443 61.6103 80.3072 63.8131C80.13 64.3413 79.9395 64.8896 79.4906 65.2978C79.0583 65.6899 78.4421 65.9014 77.8872 66.1722C75.8729 67.1558 74.6588 68.9261 72.9162 70.2087C71.172 71.49 68.1971 72.1609 66.6135 70.749C65.7489 69.9783 65.6147 68.8574 65.2089 67.8685C64.8014 66.8796 63.7678 65.8529 62.5056 66.0321C60.8923 66.2612 60.6521 68.0355 59.7477 69.1471C57.2697 67.6691 53.5858 68.3724 51.3132 70.0538C49.0405 71.7366 47.843 74.1482 46.7182 76.4736C42.2459 74.477 38.0303 72.1017 34.1609 69.399C36.7814 67.5492 39.4002 65.6993 42.0206 63.8495C43.3209 62.932 44.6461 61.9889 45.4941 60.7709C46.3439 59.553 46.6404 57.9861 45.8089 56.76C44.1756 54.3484 39.43 54.5303 37.5284 52.252C38.9645 52.0715 39.2428 50.3914 38.5653 49.3459C37.8879 48.3004 36.6638 47.5028 36.2132 46.3791C35.7643 45.2582 36.1735 44.0375 36.0558 42.8641C35.9382 41.6892 34.8218 40.3621 33.4072 40.6141C34.7158 39.9135 36.1055 39.1293 36.6273 37.9289C37.1474 36.7271 36.2115 35.0646 34.6462 35.1158C35.5473 33.3697 36.4567 31.1736 38.6366 30.508C46.7464 28.0344 47.7353 34.9986 47.7353 34.9986Z" fill="#723E40"/>
<path d="M25.9735 85.7927C26.2336 87.524 23.4972 88.6396 22.2582 90.0623C23.8599 92.6491 25.4617 95.2373 27.0651 97.8241C27.2009 98.0423 27.3401 98.2795 27.2954 98.522C27.239 98.8305 26.9044 99.0488 26.5881 99.2253C25.4783 99.8383 24.2509 100.327 23.2785 101.08C22.3079 101.834 21.6138 102.955 21.96 104.01C22.4586 105.524 24.824 106.285 25.2033 107.821C25.6953 109.815 22.5696 111.957 24.0388 113.601C24.5523 114.175 25.47 114.405 26.0978 114.898C27.466 115.975 27.0171 117.825 26.3032 119.261C25.5909 120.696 24.7064 122.311 25.5014 123.719C22.3509 123.46 19.1905 123.979 16.0863 124.496C13.817 124.874 11.5494 125.252 9.2801 125.63C7.00914 126.008 4.41684 126.585 3.45942 128.303C2.18398 130.593 4.9618 133.209 7.97649 133.766C8.94384 133.944 9.9642 133.998 10.8504 134.361C12.2964 134.957 13.1876 136.305 14.7413 136.679C15.3178 136.817 15.9836 136.821 16.4276 137.153C16.8516 137.47 16.9295 137.98 16.9924 138.445C17.1945 139.908 17.5556 141.424 18.6654 142.588C19.7752 143.752 21.8308 144.436 23.4591 143.794C25.3557 143.046 25.7913 140.929 25.2016 139.284C25.0443 138.846 24.8323 138.392 24.9465 137.946C25.1718 137.075 26.434 136.731 27.4776 136.462C31.8638 135.329 35.6537 132.743 37.7905 129.428C38.2013 128.79 38.564 128.114 39.1802 127.597C41.1927 125.906 44.7557 126.697 47.1062 128.069C47.5617 124.739 46.6258 121.293 44.4907 118.427C46.9008 117.306 49.3125 116.185 51.7226 115.064C52.0705 114.902 52.468 114.735 52.8523 114.828C53.3873 114.958 53.5745 115.502 54.0218 115.774C54.893 116.302 56.1552 115.467 56.2894 114.59C56.4252 113.713 55.9366 112.856 55.8273 111.977C55.5274 109.563 58.1827 107.481 61.0317 106.761C63.8791 106.039 66.9402 106.272 69.9168 106.114C70.9885 106.057 72.1248 105.924 72.9381 105.354C73.5775 104.905 73.927 104.245 74.2053 103.596C75.3333 100.974 75.6662 98.1286 75.1643 95.3814C74.7519 95.8867 74.3394 96.3906 73.9253 96.8958C74.626 94.6485 74.1258 91.8744 71.6974 90.6592C68.8484 89.2337 65.2076 90.6551 62.3453 92.063C61.7423 92.3594 61.1261 92.6666 60.6971 93.1207C60.2532 93.5936 60.0528 94.1837 59.796 94.7415C58.5719 97.4105 55.8074 99.5809 52.4846 100.482C50.8447 97.2555 51.075 93.4373 53.0958 90.3574C53.9075 89.1192 54.9924 87.9942 55.6053 86.6819C56.2182 85.371 56.2645 83.7502 55.12 82.6994C53.4967 81.2079 49.8724 82.0163 49.4103 83.9725C47.1128 84.0386 44.8766 84.9938 43.5051 86.4947C43.5747 83.7853 38.9516 82.9392 37.0401 80.7188C30.1792 72.7429 24.3999 75.3135 25.9735 85.7927Z" fill="#723E40"/>
<path d="M69.1336 82.9523C70.0479 81.6589 72.1218 80.9893 73.8709 81.4366C75.6201 81.8826 76.8542 83.4104 76.6421 84.8924C76.4815 86.0201 75.7179 87.4294 76.8459 88.099C77.4588 88.4628 78.3019 88.3361 79.0605 88.3752C81.2851 88.4924 82.9432 90.1509 83.7002 91.8552C84.4588 93.5596 84.6112 95.4161 85.4179 97.1056C86.5095 99.3906 88.7721 101.329 89.1365 103.764C89.501 106.196 87.6176 108.734 84.8017 109.603C87.1753 110.544 89.2525 111.972 91.7421 112.686C94.2317 113.4 97.4783 113.141 98.8631 111.313C99.5339 111.942 100.205 112.571 100.876 113.202C102.527 110.173 103.753 106.991 104.52 103.737C102.66 102.95 101.098 101.705 100.092 100.21C99.8056 99.7827 99.5571 99.2923 99.7095 98.8208C99.8685 98.3263 100.422 97.9949 100.937 97.7038C102.943 96.5708 104.949 95.4363 106.953 94.3033C107.188 94.1712 107.433 94.0271 107.548 93.8142C107.823 93.3049 107.188 92.7593 106.539 92.5855C105.89 92.4117 105.156 92.4171 104.588 92.1099C103.595 91.5723 103.605 90.3503 104.107 89.4692C104.609 88.5894 105.469 87.8605 105.9 86.9565C106.784 85.104 105.694 83.052 104.624 81.2655C103.282 79.025 101.472 76.4961 98.4324 76.1768C96.771 76.0016 95.0202 76.6241 94.0495 77.7343C93.5261 78.3325 92.9198 79.1718 92.0452 78.9859C91.3876 78.8471 91.1524 78.2085 90.9487 77.6804C89.9631 75.1192 87.1157 73.0969 83.8625 72.6482C80.1074 72.1309 76.0359 72.0271 72.5044 73.1871C64.103 75.9504 69.1336 82.9523 69.1336 82.9523Z" fill="#723E40"/>
<path d="M139.503 74.9432C140.338 76.0965 142.515 76.0493 144.141 76.2555C143.373 76.9103 142.574 77.6055 142.294 78.4826C142.014 79.3596 142.467 80.4604 143.53 80.7258C143.878 80.812 144.265 80.808 144.574 80.9629C145.612 81.4843 144.615 82.8316 144.989 83.7774C145.165 84.2193 145.637 84.5332 145.955 84.9186C146.844 85.9991 146.42 87.4407 145.963 88.6856C145.864 88.9551 145.758 89.2353 145.518 89.4387C144.897 89.9628 143.83 89.6947 143 89.4239C140.825 88.7166 138.422 88.2329 136.149 88.6937C133.876 89.1545 131.841 90.8049 131.935 92.7086C129.628 92.9552 127.395 93.645 125.467 94.7053C125.848 93.8377 124.228 93.133 123.235 93.579C122.243 94.0249 121.864 95.0098 121.572 95.9004C121.244 96.9028 120.915 97.9051 120.587 98.9075C120.473 99.2578 120.323 99.6431 119.936 99.8196C119.54 100 119.048 99.8937 118.596 99.914C117.117 99.9827 116.307 101.337 115.046 101.97C114.831 102.079 114.562 102.168 114.329 102.087C114.095 102.006 113.989 101.791 113.91 101.595C113.313 100.117 112.951 98.5774 112.831 97.0254C112.795 96.5592 112.788 96.0661 113.067 95.6565C113.459 95.0799 114.294 94.8293 114.965 94.4574C116.247 93.7487 116.999 92.4513 116.857 91.197C116.799 90.689 116.608 90.1905 116.643 89.6813C116.762 87.9217 119.456 86.7307 119.308 84.9725C119.217 83.8933 118.082 83.1065 117.166 82.3223C116.25 81.5396 115.454 80.358 116.131 79.4284C117.13 78.0595 119.891 78.8504 121.529 77.9787C120.022 77.332 119.036 75.8675 119.411 74.5161C119.785 73.1634 121.654 72.157 123.28 72.5693C124.339 72.8374 125.149 73.6606 125.238 74.5592C125.912 74.2628 126.545 73.441 127.259 73.6687C133.201 75.5535 136.245 70.4446 139.503 74.9432Z" fill="#723E40"/>
</svg>
