<svg width="193" height="463" viewBox="0 0 193 463" fill="none" xmlns="http://www.w3.org/2000/svg">
<path d="M111.5 461H92.9998L96 459.5L94 436C91.6516 411.204 89.2924 397.598 83 374C80.7032 369.691 79.7712 369.943 78.5 373.5C75.0395 381.079 74.8294 387.15 74 397.5C75.0006 408.92 65.9651 401.554 52 391.5C42.2993 387.491 46.064 385.995 55 383.5C60.6206 383.075 58.7072 369.394 58.5 353.5C55.327 336.245 55.5521 324.941 60 302C59.2755 299.67 58.6552 299.149 57 300.5L35.5 321L31 315L53 292C58.3167 289.396 54.1139 281.348 54.5 279.5C54.8861 277.652 62.9702 273.235 67.5 268C70.6206 265.459 71.2651 264.206 69 262.5C59.1048 258.58 54.4366 255.506 49 247C49.811 242.689 48.4839 240.602 45.5 237C49.9624 238.093 51.4686 237.73 51.5 234.5C49.405 231.032 49.7625 228.905 51.5 225C44.5166 220.358 50.344 214.065 59 203.5C63.4635 199.157 62.5164 197.423 60 194.5C64.217 191.878 65.8167 189.647 68.5 185.5C68.9471 180.786 75.4429 180.534 85.5 179.5C91.4702 179.643 89.3307 178.336 85.5 176C83.7726 168.259 79.6276 163.109 74.5 154.5C72.9554 152.801 72.086 152.835 70.5 154C64.8205 155.728 62.5429 155.132 60.5 150.5C59.1274 147.208 57.9947 145.495 55.5 143C56.0571 140.432 56.1196 139.12 55 137.5C50.0778 138.071 48.0534 138.158 48.5 137C54.9014 129.544 56.4476 125.679 51 120C46.2726 119.747 43.7643 119.559 44 118C47.5773 116.076 47.7277 115.515 47.9931 114.525L48 114.5L17.9997 68C3.84607 43.2576 -2.32658 29.2033 1.99969 2.50024C2.37491 0.147902 2.7651 -0.226303 3.99969 2.00024C12.4866 25.1003 20.2024 35.9543 32.9997 56.0002L54.4997 101C56.1491 101.746 56.6878 102.379 55.9997 104.5C57.1701 109.871 60.5193 108.483 66.4997 106C67.6809 105.931 67.8443 106.323 66.9997 108C64.3253 109.127 63.0324 110.23 60.9999 113C60.1083 114.147 60.2022 114.546 61.9999 114.5C65.9999 112 71.5595 120.666 70.4998 125.5C68.6758 126.809 68.6531 128.22 68.9998 131C78.5901 147.131 84.1816 156.421 88.4998 166.5C92.2286 175.39 92.1195 169.365 92.4998 161.5C94.5267 159.283 94.3055 157.126 93.4998 153C93.5922 148.985 94.3777 147.765 97.4998 148C99.8801 149.826 100.247 149.772 98.4998 147C94.0231 143.316 94.2715 139.347 97.9998 130C99.9023 123.915 100.243 120.067 100.5 113L105 118.5C107.512 119.595 107.894 120.466 107 122.5C101.5 127 104.805 130.343 111 131C106.179 131.295 104.343 133.104 102.5 139C102.09 141.982 102.656 142.315 104.5 141.5C106.396 140.914 106.898 140.476 106.5 139.5C105.522 139.326 104.975 139.509 104 140L106 138C109.5 134 118.542 133.829 121.5 137C126.841 141.489 126.846 139.873 126.5 136.5C126.65 132.242 123.622 131.491 118.5 130C127 128 128.573 125.522 124 123C121.29 120.196 126.046 117.54 130.5 113.5C129.669 115.985 129.258 117.386 129.5 120C132.55 127.615 133.333 131.625 133.5 138.5C136.127 136.447 135.821 138.443 135 142.5C133.51 142.941 133.115 144.148 132.5 146.5C131.185 148.571 131.205 149.116 133 149C134.692 147.107 135.24 147.814 136 150C137.063 158.715 137.45 163.679 137 173C136.587 178.83 136.431 181.907 138 182.5C144.145 186.553 147.213 187.638 152.5 189C155.704 190.4 156.747 190.342 157.5 189C156.334 184.083 158.336 184.407 161.799 184.968L162 185C166.598 182.736 167.485 186.002 169 192C167.434 192.422 167.652 193.57 168.5 196C170.92 198.452 166.5 203 165 200C163.5 197 162.096 197.949 160.5 200.5C161.938 203.577 160.372 204.102 157.5 205C153.911 206.045 152.811 207.009 154 210C156.679 213.045 155.902 218.028 155.5 225.5C155.401 229.406 157.384 228.684 160.5 228C167.231 224.744 167.408 226.031 163 232.501C160.306 232.261 160.253 233.477 160 235.501C161.5 240.001 160.784 244.372 156 243C153.37 242.432 153.421 242.827 154.5 244C156.144 248.151 155.591 249.027 153.5 249.5C148.5 249 147.231 250.459 150 254C156.26 263.681 165.642 269.209 178.5 279C180.31 279.966 181.124 280.576 180 282.5L172 294.001C166 291 166.456 297.906 167.5 301.001L190.5 351.501C194.925 360.88 191.839 360.154 186 358.501L172 329.001C169.585 345.353 169.232 355.372 169.5 374.001C167.585 383.951 168.751 384.343 174.5 376.501C181.752 380.001 182.162 382.278 181 386.501C175.212 390.661 171.82 393.057 162.5 398.501C156 405.501 152.314 403.699 153 394.5C152.661 371.535 150.173 372.836 142 399C134.293 406.882 132.273 414.644 133.5 435.5L134.5 461.5L116 463V453.5C117.362 450.658 117.649 448.039 117.5 442C119.531 438.34 119.187 434.234 119 427.5C117.036 424.033 117.111 418.879 117.5 409C124.726 403.163 123.856 395.446 121 380.501C118.881 377.912 118.099 378.35 117 380.501C117.327 389.339 116.927 393.459 116 400.501C109.799 402.621 110.659 424.801 111.5 461Z" fill="black"/>
</svg>
