<svg width="302" height="927" viewBox="0 0 302 927" fill="none" xmlns="http://www.w3.org/2000/svg">
<mask id="mask0_897_10685" style="mask-type:luminance" maskUnits="userSpaceOnUse" x="-239" y="0" width="528" height="905">
<path d="M-239 0H289V905H-239V0Z" fill="white"/>
</mask>
<g mask="url(#mask0_897_10685)">
<path d="M1.82298 0L1.53133 5.68229C1.40633 8.80729 1.1459 18.2396 0.947983 26.6615L0.656326 41.9635L-7.94264 33.0729C-17.8853 22.7292 -19.2135 22.3177 -19.1666 29.4323C-19.151 32.3177 -15.0937 39.0885 -10.2031 44.5104C-2.36452 53.1927 -1.26556 55.9271 -0.796799 67.4583C-0.447845 76.1667 -1.13014 80.0573 -2.76555 79.0417C-4.11972 78.2083 -5.17181 76.0104 -5.17181 74.1615C-5.17181 72.3125 -6.22389 70.8125 -7.50514 70.8125C-8.78639 70.8125 -9.83847 66.75 -9.83847 61.776C-9.83847 51.4323 -15.7083 44.1979 -19.3853 49.974C-20.5572 51.8177 -21.0416 54.5573 -20.4791 56.0938C-19.2395 59.4896 -25.9478 57.276 -30.4635 52.8177C-32.1614 51.1406 -34.8958 49.8281 -36.5885 49.8281C-42.8958 49.8281 -41.8645 56.4063 -34.1822 65.2031C-25.0468 75.6615 -24.552 77.75 -30.6145 79.3333C-33.5885 80.1146 -34.6093 81.9219 -33.8176 84.9427C-32.5051 89.9635 -26.2499 90.8542 -22.0103 86.6198C-18.8333 83.4479 -18.7551 83.6146 -18.2187 92.375C-17.776 99.6875 -18.177 99.8542 -26.1666 95.2917C-33.9843 90.8229 -35.4947 90.9323 -35.4947 96.2396C-35.4947 98.7083 -32.0833 103.396 -27.9166 106.656C-22.2291 111.104 -21.5937 112.281 -25.2916 111.318C-28.5103 110.479 -30.7083 111.312 -31.6301 113.724C-33.6406 118.953 -35.2656 118.521 -50.802 108.406C-58.427 103.438 -65.8176 99.7865 -67.2031 100.318C-72.0572 102.177 -68.9739 111.073 -62.1718 114.812L-55.3229 118.531L-61.5885 119.26C-65.0104 119.667 -68.3541 121.448 -69.026 123.193C-70.3333 126.599 -64.4999 129.943 -61.0051 127.781C-59.8385 127.062 -58.8229 127.589 -58.8229 128.948C-58.8229 130.307 -56.9843 131.469 -54.7395 131.573C-51.776 131.703 -51.5676 132.089 -53.9374 133.026C-56.4114 134.005 -55.9218 135.328 -51.8229 138.417L-46.3541 142.5L-56.1249 144.177C-66.1718 145.87 -68.4635 149.62 -62.4635 154.594C-60.2031 156.469 -57.8229 156.656 -55.177 155.177C-50.776 152.714 -42.4947 154.089 -42.4947 157.286C-42.4947 158.422 -40.3958 159.401 -37.8281 159.401C-35.2603 159.401 -33.1614 158.354 -33.1614 157.068C-33.1614 155.786 -30.802 154.771 -27.9166 154.812L-22.6666 154.885L-28.427 159.62C-32.901 163.339 -33.4531 164.792 -30.9739 166.323C-27.4739 168.484 -21.427 166.901 -18.4374 163.042C-17.3593 161.646 -17.0728 163.396 -17.8541 166.979C-19.0208 172.318 -18.4999 173.391 -14.5781 173.391C-11.9843 173.391 -9.7916 172.078 -9.69264 170.474C-9.56764 168.484 -9.11972 168.609 -8.23431 170.839C-7.2916 173.224 -6.1093 172.573 -3.93222 168.505L-0.942642 162.896L1.96883 169.307C3.57298 172.828 4.1459 176.458 3.2084 177.396C2.2709 178.333 -6.08847 179.474 -15.3801 179.948C-30.9218 180.729 -33.1718 180.26 -43.4426 173.755C-53.6614 167.271 -61.151 166.188 -61.151 171.203C-61.151 172.307 -58.2656 174.88 -54.7395 176.885L-48.3229 180.526L-56.4895 179C-64.5624 177.521 -78.151 170.526 -84.1145 164.719C-85.8072 163.068 -89.2187 161.734 -91.6926 161.734C-96.4478 161.734 -97.6822 166.24 -93.9531 169.964C-92.5572 171.365 -96.1406 172.49 -103.724 172.953C-110.323 173.354 -116.615 174.208 -117.646 174.844C-125.312 179.583 -106.417 188.188 -92.7135 186.208L-83.3124 184.901L-89.8697 188.615C-93.8437 190.87 -96.177 193.885 -95.7031 196.266C-94.5676 201.964 -84.4895 200.052 -78.0624 192.911C-75.0728 189.589 -71.0312 187.411 -68.7343 187.958C-65.5155 188.724 -65.9322 189.5 -70.8489 191.531C-78.7916 194.807 -81.1978 198.646 -76.3853 200.49C-74.3072 201.286 -73.1301 203.281 -73.7655 204.932C-74.3958 206.583 -73.3489 208.526 -71.5051 209.234C-69.6614 209.938 -68.151 209.594 -68.151 208.505C-68.151 206.599 -60.6145 203.333 -54.9583 202.75C-53.4687 202.594 -50.0572 200.438 -47.3749 198.01C-44.6926 195.589 -42.4947 194.385 -42.4947 195.318C-42.4947 197.74 -47.5885 202.495 -53.6458 205.734C-56.5051 207.266 -58.8176 209.557 -58.8229 210.833C-58.8229 215.234 -51.6406 215.917 -47.2291 211.927C-43.0208 208.12 -42.8801 208.156 -44.0937 212.802C-45.8749 219.604 -41.1041 218.927 -36.3697 211.708C-33.4114 207.193 -31.9583 206.484 -30.4635 208.797C-28.8437 211.302 -28.1822 211.281 -26.5312 208.724C-25.4218 207.01 -22.5364 205.865 -20.1145 206.172C-10.7031 207.37 1.67195 198.958 2.04173 191.094C2.24486 186.849 2.47923 186.974 3.93758 192.036C5.3282 196.849 4.18236 199.188 -2.69264 205.37C-7.27597 209.49 -17.4947 216.266 -25.4374 220.453L-39.8697 228.026L-51.0937 222.417C-57.2656 219.339 -63.6301 216.604 -65.2343 216.297C-69.3958 215.51 -68.8333 220.01 -64.0676 225.625C-60.3958 229.948 -60.4166 230.068 -63.9947 227.302C-66.1822 225.609 -68.8645 224.792 -69.9739 225.479C-71.0833 226.167 -74.9166 225.224 -78.4999 223.365C-87.0937 218.911 -89.7708 219.13 -88.1926 224.094C-87.151 227.385 -88.2447 228.125 -93.8801 227.953C-97.7239 227.844 -101.411 227.135 -102.12 226.427C-104.958 223.589 -112.469 227.766 -112.469 232.182C-112.469 235.766 -111.333 236.583 -107.583 235.604C-102.901 234.38 -102.87 234.49 -106.781 238.812C-111.005 243.474 -110.312 244.115 -101.463 243.401C-97.3906 243.073 -96.5468 243.859 -97.7447 246.969C-99.0051 250.255 -98.1978 250.807 -93.3697 249.885C-88.5416 248.964 -87.7135 249.51 -88.6301 253.016C-89.8801 257.781 -88.401 258.292 -82.5833 255.203C-76.8645 252.167 -69.6458 261.812 -74.3437 266.203C-76.9791 268.661 -77.776 268.562 -78.7916 265.911C-79.4895 264.094 -83.6249 262.589 -88.1926 262.417C-92.677 262.245 -95.8176 263.036 -95.1197 264.161C-94.4218 265.286 -95.9062 265.635 -98.4739 264.964C-104.365 263.427 -104.547 266.964 -98.7656 270.573C-95.7031 272.484 -94.7551 275.052 -95.5572 279.245C-96.9687 286.62 -97.3228 286.682 -105.906 279.464C-109.719 276.255 -114.359 273.635 -116.187 273.635C-120.094 273.635 -120.292 274.776 -117.276 280.411C-114.828 284.979 -116.365 285.089 -134.042 281.719C-139.802 280.62 -142.792 280.927 -142.792 282.594C-142.792 285.615 -130.677 292.286 -125.151 292.286C-121.963 292.286 -121.776 292.87 -124.13 295.708C-126.448 298.5 -126.365 299.464 -123.62 300.516C-121.745 301.234 -119.234 301.604 -118.078 301.391C-113.208 300.479 -110.172 301.802 -110.719 304.526C-111.078 306.312 -108.823 307.37 -104.885 307.292C-99.9531 307.193 -98.4583 308.266 -98.401 311.953C-98.3228 316.557 -98.1406 316.51 -93.7343 311.224C-90.0937 306.859 -89.1406 306.531 -89.1406 309.625C-89.1406 311.766 -88.0937 312.896 -86.8124 312.099C-85.526 311.307 -83.4791 313.375 -82.2187 316.688C-80.9583 320.005 -78.328 323.302 -76.3853 324.047C-74.4426 324.792 -72.8124 326.849 -72.8124 328.635C-72.8176 330.422 -71.1301 331.917 -69.026 331.917C-66.9218 331.917 -63.8749 333.698 -62.2447 335.922C-59.4531 339.74 -58.9374 339.708 -53.7916 335.339L-48.3229 330.75L-52.4791 335.63C-54.9895 338.609 -62.7655 342.005 -72.5937 344.375C-93.1353 349.328 -98.0989 349.172 -106.49 343.646C-114.26 338.526 -118.052 339.474 -115.963 346.047C-114.792 349.74 -115.687 350.568 -121.213 350.568C-124.891 350.568 -128.963 349.521 -130.25 348.234C-131.818 346.667 -134.088 346.974 -137.104 349.182C-141.432 352.349 -141.328 352.641 -134.115 356.76C-128.677 359.865 -126.953 362.224 -127.922 365.281C-128.781 368.01 -128.109 369.344 -126.099 369.073C-119.344 368.151 -116.724 369.302 -118.005 372.641C-120.245 378.469 -111.729 381.25 -105.25 376.792C-101 373.87 -100.375 373.729 -102.479 376.354C-106.422 381.26 -102.63 386.385 -96.5051 384.443C-87.6718 381.641 -85.2916 386.125 -93.9531 389.25C-105.078 393.271 -116.177 393.188 -120.338 389.031C-124.937 384.432 -132.083 384.375 -130.323 388.958C-129.234 391.797 -130.859 392.172 -139.437 391C-151.984 389.281 -153.557 393.156 -141.984 397.339C-136.375 399.365 -134.391 401.339 -135.135 404.188C-136.38 408.948 -129.016 411.594 -123.328 408.411C-120.234 406.682 -119.463 407.354 -119.463 411.979C-119.463 416.708 -118.609 417.516 -114.432 416.422C-110.307 415.344 -109.708 415.807 -111.01 419.193C-112.281 422.51 -111.63 423.161 -107.875 422.177C-105.286 421.505 -103.135 421.891 -103.135 423.052C-103.135 427.141 -98.2031 425.089 -91.9843 418.464C-84.4947 410.479 -80.0572 408.719 -74.5624 411.542C-68.1718 414.828 -69.7708 417.479 -77.4791 416.349C-85.5103 415.172 -86.6926 418.724 -80.9062 426.99C-77.5155 431.823 -77.5312 432.161 -81.8489 432.161C-84.401 432.161 -88.0885 433.734 -90.0156 435.656C-91.9374 437.578 -95.0728 439.156 -97.0103 439.156C-98.9531 439.156 -101.151 440.135 -101.896 441.339C-102.641 442.542 -107.333 443.448 -112.323 443.38C-117.307 443.312 -122.745 444.094 -124.422 445.13C-126.094 446.161 -130.865 446.792 -134.99 446.51C-141.198 446.094 -142.604 446.927 -143.224 451.318C-143.766 455.141 -145.588 456.677 -149.786 456.859C-152.995 456.995 -156.667 457.401 -157.948 457.729C-159.234 458.062 -162.12 458.104 -164.365 457.875C-166.609 457.651 -168.448 458.396 -168.448 459.479C-168.448 462.568 -155.536 469.458 -149.713 469.458C-144.609 469.458 -144.516 469.594 -148.62 474.125C-152.74 478.672 -152.698 478.786 -146.724 478.786C-142.156 478.786 -140.948 479.656 -141.99 482.354C-143.12 485.302 -142.135 485.688 -136.667 484.396C-132.974 483.526 -129.437 482.854 -128.792 482.865C-121.521 483.005 -119.828 483.807 -120.922 486.651C-123.359 493 -117.318 492.818 -113.849 486.432C-110.552 480.354 -110.37 480.276 -110.281 485.198C-110.229 488.083 -109.349 490.521 -108.385 490.661C-94.1301 492.745 -91.7916 492.052 -88.9218 485.125L-86.0051 478.13L-83.9635 483.667L-81.927 489.276L-77.4062 483.448C-72.9322 477.63 -72.9374 477.62 -72.8853 482.865C-72.8176 489.938 -68.6562 489.536 -66.8385 482.281C-66.0312 479.078 -64.3385 476.453 -63.1197 476.453C-61.901 476.453 -61.6562 477.583 -62.5364 479.005C-63.651 480.807 -61.8437 481.109 -56.5572 479.953C-50.9479 478.719 -49.1979 479 -49.927 481.188C-51.3593 485.484 -65.9687 492.771 -73.177 492.771C-76.5885 492.771 -79.8541 494.083 -80.4687 495.688C-81.1562 497.479 -85.7135 498.495 -92.3489 498.38C-98.2864 498.281 -103.135 499.01 -103.135 499.984C-103.135 504.474 -95.0416 509.328 -88.6301 508.656C-84.8228 508.255 -81.5312 508.849 -81.3437 510.042C-80.7239 513.922 -94.3958 516.104 -127.63 517.396C-165.078 518.854 -180.109 520.49 -180.109 523.005C-180.109 523.974 -182.734 524.276 -185.943 523.661C-189.255 523.031 -191.771 523.615 -191.771 525.047C-191.771 528.312 -184.151 532.406 -177.995 532.406C-175.344 532.406 -173.115 533.453 -173.115 534.734C-173.115 536.016 -174.255 537.068 -175.588 537.068C-176.927 537.068 -180.338 539.234 -183.172 541.948L-188.276 546.901L-180.693 545.88C-175.677 545.198 -173.115 545.802 -173.115 547.703C-173.115 549.432 -171.25 550.109 -168.448 549.38C-165.838 548.698 -163.781 549.307 -163.781 550.766C-163.781 554.526 -157.849 553.979 -154.453 549.891C-152.854 547.964 -150.526 546.391 -149.203 546.391C-147.88 546.391 -148.463 548.271 -150.588 550.62C-152.713 552.964 -154.453 555.583 -154.453 556.448C-154.453 558.917 -145.557 558.307 -143.953 555.719C-141.646 551.984 -138.557 553.01 -136.958 558.047C-135.083 563.948 -132.422 563.911 -123.984 557.901L-117.203 553.094L-118.661 560.234C-120.417 569.01 -116.182 569.719 -106.708 562.276C-100.484 557.38 -100.312 557.385 -102.771 561.984C-105.672 567.396 -104.276 569.964 -99.4166 568.104C-97.6041 567.406 -94.5468 568.12 -92.6406 569.703C-90.2291 571.703 -89.1406 571.812 -89.1406 569.995C-89.1406 568.557 -87.5676 567.375 -85.6405 567.375C-83.7187 567.375 -82.1458 568.818 -82.1458 570.651C-82.1458 572.917 -80.078 573.766 -75.7291 573.276C-51.4478 570.526 -82.8541 584.641 -111.083 589.156C-129.536 592.109 -131.391 591.995 -137.469 587.99C-141.062 585.625 -145.266 583.703 -146.87 583.693C-151.693 583.667 -150.156 588.333 -144.536 590.76C-140.682 592.422 -142.078 592.599 -149.786 591.417C-155.557 590.526 -162.906 589.943 -166.115 590.104C-169.318 590.266 -177.151 588.88 -183.463 587.042C-189.771 585.208 -195.286 584.005 -195.708 584.422C-198.141 586.854 -183.208 596.469 -174.859 597.823L-164.948 599.427L-173.693 599.719C-179.786 599.922 -182.443 601.073 -182.443 603.51C-182.443 605.432 -180.604 607.172 -178.359 607.37C-176.115 607.562 -173.229 607.943 -171.943 608.245C-170.661 608.542 -168.109 608.896 -166.26 609.047C-163.786 609.245 -164.094 610.182 -167.427 612.615C-173.187 616.828 -170.453 619.854 -164 616.401C-159.984 614.255 -159.115 614.479 -159.115 617.641C-159.115 620.63 -157.448 621.24 -151.536 620.411C-147.365 619.823 -141.854 618.583 -139.286 617.641C-134.693 615.953 -134.755 615.974 -139.213 619.609C-143.76 623.307 -142.786 624.167 -135.208 623.396C-132.885 623.161 -131.125 624.599 -131.125 626.677C-131.125 631.661 -129.234 631.25 -123.687 625.073L-118.953 619.828L-122.745 626.167C-124.807 629.646 -126.458 633.552 -126.458 634.906C-126.458 638.51 -115.016 635.849 -109.547 630.974C-104.969 626.885 -104.932 626.964 -106.708 632.651C-109.172 640.552 -112.036 642.219 -133.531 648.677C-151.385 654.036 -152.463 654.104 -162.104 650.427C-172.615 646.411 -187.104 645.271 -187.104 648.458C-187.104 649.484 -185.885 651.646 -184.338 653.193C-182.443 655.089 -185.562 654.792 -193.885 652.318C-200.693 650.297 -207.859 649.224 -209.849 649.99C-212.896 651.156 -212.62 652.318 -208.099 657.125L-202.776 662.807L-210.651 660.552C-220.797 657.641 -233.125 657.646 -234.922 660.552C-236.776 663.547 -221.177 669.932 -211.963 669.948H-204.599L-211.453 675.411C-218.213 680.823 -218.151 687.917 -211.38 685.323C-209.125 684.458 -208.099 685.865 -208.099 689.839C-208.099 693.969 -206.88 695.594 -203.651 695.594C-201.177 695.594 -197.526 697.198 -195.562 699.161C-192.594 702.13 -191.198 702.208 -187.25 699.745C-184.635 698.115 -182.443 695.984 -182.443 695.01C-182.443 694.036 -180.604 695.099 -178.286 697.344C-173.818 701.667 -172.547 707.25 -176.026 707.25C-177.172 707.25 -177.344 708.38 -176.463 709.797C-175.354 711.594 -177.083 711.932 -182.151 710.818C-186.802 709.797 -189.437 710.089 -189.437 711.693C-189.437 713.12 -193.979 714.245 -199.937 714.245C-210.865 714.245 -212.927 716.266 -206.932 721.24C-204.599 723.177 -199.661 723.688 -192.354 722.766L-181.276 721.385L-189.948 725.974C-195.974 729.167 -198.203 731.693 -197.24 734.203C-196.37 736.464 -194.427 737.224 -192.062 736.245C-189.984 735.385 -186.698 734.443 -184.776 734.13C-182.849 733.823 -182.588 734.016 -184.193 734.568C-190.099 736.599 -187.047 740.344 -180.693 738.87C-176.099 737.802 -175.25 738.042 -177.703 739.667C-183.875 743.76 -178.396 744.948 -170.995 741.125C-167.031 739.073 -163.781 738.385 -163.781 739.594C-163.781 740.802 -165.094 742.302 -166.698 742.875C-168.302 743.448 -168.802 744.781 -167.792 745.859C-166.781 746.943 -162.963 746.677 -159.26 745.276C-153.745 743.198 -152.698 743.339 -153.724 746.005C-154.625 748.354 -153.792 748.786 -150.661 747.682C-147.021 746.396 -146.786 746.698 -149.349 749.432C-151.734 751.974 -159.766 752.589 -186.083 752.198C-206.453 751.901 -219.76 752.594 -219.76 753.948C-219.76 755.182 -218.135 756.208 -216.12 756.208C-214.104 756.208 -210.995 757.688 -209.193 759.484C-206.385 762.292 -206.443 762.953 -209.557 764.146C-211.552 764.911 -216.5 765.51 -220.562 765.531C-229.135 765.573 -235.016 768.609 -232.958 771.943C-230.411 776.057 -218.833 776.807 -209.266 773.474C-196.51 769.026 -195.818 769.281 -202.417 775.875C-210.641 784.099 -210.042 789.052 -201.177 786.51C-197.37 785.422 -193.172 783.833 -191.844 783.016C-190.521 782.198 -189.344 783.464 -189.151 785.781C-188.953 788.104 -188.635 791.193 -188.495 792.703C-188.349 794.219 -187.526 796.219 -186.672 797.078C-184.833 798.911 -170.781 791.052 -170.781 788.188C-170.781 787.104 -169.828 786.844 -168.594 787.604C-167.156 788.495 -167.156 791.115 -168.594 794.891C-169.828 798.135 -170.781 801.839 -170.781 803.125C-170.781 806.203 -159.755 798.229 -148.693 787.167C-140.443 778.917 -139.26 780.328 -146.943 789.281C-148.828 791.479 -149.672 795.057 -148.838 797.219C-147.5 800.714 -146.729 800.516 -141.406 795.547L-135.354 790.01L-136.156 795.839C-136.896 801.188 -138.484 801.891 -155.62 804.724C-167.661 806.719 -175.542 807.021 -177.849 805.599C-183.698 801.99 -196.437 799.849 -196.437 802.469C-196.437 803.76 -194.599 805.318 -192.354 805.891C-190.109 806.464 -193.521 806.453 -199.937 805.891C-209.312 805.068 -211.026 805.422 -208.682 807.786C-204.224 812.286 -205.224 813.958 -211.599 812.74C-219.141 811.297 -229.719 813.99 -227.927 816.891C-227.156 818.135 -224.141 819.151 -221.219 819.151C-211.25 819.151 -212.651 822.359 -224.792 827.234C-245.49 835.552 -240.974 841.734 -219.693 834.229C-208.917 830.432 -204.708 831.089 -212.62 835.323C-215.297 836.755 -217.432 839.573 -217.432 841.589C-217.432 844.401 -216.016 844.901 -211.234 843.703C-205.729 842.318 -205.318 842.547 -208.026 845.812C-214.312 853.385 -207.646 853.401 -197.24 845.812C-192.38 842.271 -192.187 842.307 -193.521 847.49C-194.776 852.349 -194.526 852.589 -190.969 849.677C-187.463 846.797 -187.224 846.932 -188.641 850.839C-190.031 854.698 -189.484 854.578 -184.411 849.969C-178.469 844.568 -174.812 845.021 -177.047 850.839C-178.833 855.479 -173.24 854.865 -164.365 849.458C-160.141 846.88 -156.786 845.995 -156.786 847.417C-156.786 848.995 -154.344 849.406 -150.37 848.51C-146.031 847.526 -145.088 847.734 -147.453 849.167C-149.38 850.328 -156.729 852.448 -163.781 853.901C-178.974 857.031 -183.693 859.583 -181.349 863.37C-179.74 865.974 -176.604 865.688 -162.615 861.911C-159.042 860.948 -159.724 862.432 -165.531 868.031C-169.703 872.057 -173.115 875.839 -173.115 876.484C-173.115 878.802 -160.146 875.922 -152.703 871.969C-144.526 867.62 -143.271 868.953 -148.693 876.12C-153.432 882.38 -152.974 885.141 -147.453 883.698C-144.422 882.906 -142.792 883.677 -142.792 885.807C-142.792 890.172 -140.656 889.932 -135.208 885.01C-130.906 881.115 -130.708 881.141 -131.49 885.589C-132.74 892.703 -119.797 890.557 -112.906 882.531L-107.51 876.266L-109.042 883.844C-111.068 893.87 -105.213 894.13 -96.1406 884.427C-92.5416 880.578 -89.2968 877.432 -88.8489 877.432C-88.401 877.432 -87.8749 880.146 -87.6822 883.479C-87.151 892.646 -83.3541 895.12 -78.4999 889.453C-74.6666 884.979 -74.1197 884.891 -71.2812 888.578C-68.4739 892.224 -68.1614 892.172 -66.8385 887.484C-65.9843 884.453 -64.1354 882.901 -62.2447 883.625C-60.2343 884.396 -58.5051 882.568 -57.5051 878.599C-56.427 874.292 -55.3385 873.208 -54.0833 875.245C-53.0729 876.875 -50.0676 878.552 -47.3749 878.964C-43.5781 879.542 -41.3437 877.411 -37.3906 869.271C-32.2812 858.76 -26.8853 854.703 -29.6614 863.443C-31.4531 869.089 -30.1041 869.24 -22.5937 864.318C-19.4322 862.25 -16.7656 858.312 -16.6145 855.578C-16.401 851.594 -16.0885 851.417 -15.2291 854.703C-13.4583 861.495 -9.83847 856.776 -9.76556 847.562C-9.70306 840.589 -9.28639 839.74 -7.35931 843.047C-6.05202 845.292 -2.7968 847.125 -0.140549 847.125C4.4532 847.125 4.63548 847.979 3.1407 865.193C2.09381 877.224 -0.354095 887.036 -4.15097 894.552C-6.37494 898.953 -8.23952 902.875 -9.18222 905.042H48.8438C51.4115 902.984 50.2553 899.37 47.6042 893.021C43.4636 883.13 41.8699 862.927 45.1251 861.844C46.3959 861.417 49.2553 864.177 51.5365 868.036C55.7917 875.229 61.0157 877.88 58.6094 871.604C55.8542 864.427 60.1928 868.359 63.349 875.901C65.8647 881.922 67.8803 883.724 72.0938 883.406C75.1147 883.182 79.099 884.089 80.9115 885.448C83.2761 887.214 84.474 887.141 85.1407 885.156C85.7605 883.318 87.6042 883.906 90.6095 886.901C96.6095 892.906 99.599 892.615 98.1876 886.177C97.5157 883.109 97.849 881.943 98.9897 883.406C101.677 886.854 109.12 889.359 109.12 886.833C109.12 884.479 121.995 885.312 128.729 888.068C132.276 889.521 132.927 889.062 131.792 886.104C131 884.042 131.573 881.932 133.104 881.365C135.229 880.583 135.255 879.573 133.031 877.214C127.734 871.604 129.927 870.88 138.641 875.323C148.276 880.229 150.964 879.51 146.297 873.354C143.802 870.062 143.766 869.797 146.224 871.969C147.922 873.474 150.724 874.177 152.49 873.5C154.26 872.823 155.771 873.198 155.771 874.375C155.771 875.547 157.193 878.49 158.979 880.932C161.776 884.755 162.802 884.922 166.125 882.167C169.469 879.391 170.412 879.729 173.703 884.427L177.495 889.818L179.609 884.208C181.557 878.995 181.917 878.896 184.708 882.677C188.401 887.682 190.052 887.755 194.625 883.188C197.469 880.349 197.625 878.932 195.354 876.193C193.787 874.307 193.198 872.771 194.042 872.771C194.885 872.771 194.365 870.411 192.875 867.526C190.609 863.135 191.458 863.391 198.047 869.349C212.563 882.464 213.521 882.948 217.656 878.818C219.719 876.76 220.578 873.812 219.625 872.188C218.651 870.521 219.849 870.802 222.396 872.844C234.724 882.74 247.208 884.688 238.797 875.396C234.995 871.198 235.125 870.87 241.198 869.349L247.542 867.745L240.693 862.208C231.729 854.885 236.521 854.87 249.365 862.208C254.948 865.396 260.88 868.021 262.484 868.036C267.193 868.078 265.833 864.365 260.151 861.625C255.427 859.349 255.787 859.073 264.307 858.927C269.516 858.844 275.813 857.24 278.302 855.359C282.609 852.104 282.552 851.938 275.896 851.865C265.906 851.75 230.38 845.286 222.979 842.245C213.912 838.521 212.193 832.818 221.156 836.198C229.016 839.167 232.99 836.714 227.203 832.484C223.844 830.026 224.927 829.734 233.839 830.443C245.214 831.349 247.636 828.484 239.156 824.177C234.62 821.87 235.385 821.583 245.281 822.068C258.63 822.719 262.396 818.333 250.896 815.51L243.24 813.615L250.823 812.74C259.698 811.682 260.479 809.281 253.156 805.526C248.865 803.333 250.682 803.031 263.068 804.073C277.026 805.24 277.807 805.057 273.636 801.74C271.146 799.76 267.281 798.172 265.037 798.172C262.792 798.172 260.281 797.01 259.422 795.62C258.443 794.031 259.906 793.219 263.359 793.505C273.104 794.318 279.396 793.552 279.396 791.469C279.396 790.349 272 788.714 262.995 787.823C253.99 786.938 247.12 785.365 247.761 784.328C248.401 783.292 255.125 781.057 262.703 779.375C277 776.203 286.052 771.458 283.188 768.594C281.719 767.125 268.74 769.24 251.406 773.839C246.078 775.25 246.214 774.812 253.521 768.521C265.537 758.167 258.755 757.099 241.417 766.625C224.01 776.188 214.042 776.969 194.766 770.339C172.896 762.818 137.417 744.818 134.776 739.891C131.51 733.781 133.365 733.964 139.297 740.328C141.912 743.13 144.109 744.573 144.109 743.531C144.109 742.49 145.682 742.953 147.604 744.552C150.5 746.948 151.104 746.724 151.104 743.24C151.104 739.729 152.297 740.161 158.396 745.865L165.682 752.714L164.297 745.208C162.901 737.807 162.995 737.734 169.255 740.401C172.74 741.885 177.172 744.307 179.094 745.792C188.141 752.75 189.188 752.594 187.552 744.406C186.313 738.219 186.557 737.146 188.792 739.38C192.849 743.438 202.422 742.974 202.422 738.724C202.422 734.38 206.188 734.161 208.688 738.359C209.714 740.083 213.474 743.297 217 745.573C222.292 748.979 223.412 749.109 223.412 746.302C223.412 744.427 221.313 741.047 218.75 738.724C216.182 736.401 214.083 733.391 214.083 732.094C214.083 730.797 214.677 730.427 215.469 731.219C216.26 732.016 218.568 731.036 220.573 729.036C223.094 726.51 226.885 725.745 232.964 726.557C239.005 727.37 242.12 726.75 242.948 724.589C243.865 722.208 245.984 721.964 251.844 723.646C272.412 729.542 276.198 722.818 256.359 715.63C242.948 710.771 241.25 708.312 253.807 711.911C269.766 716.49 290.526 713.026 281.729 707.25C279.802 705.99 273.505 704.802 267.734 704.63C258.818 704.365 258.234 704.13 264.016 702.88C267.755 702.068 271.287 699.943 271.886 698.146C272.797 695.411 269.115 695.104 249.292 696.469C225.948 698.078 225.573 698.078 228.443 693.484C232.714 686.646 229.781 685.464 218.167 689.401C211.885 691.531 203.828 692.427 197.537 691.661C184.052 690.016 139.438 675.073 134.198 670.464C128.719 665.641 129.026 662.297 134.781 664.125C137.396 664.953 139.443 664.531 139.443 663.177C139.443 660.646 142.938 661.375 154.604 666.453C158.453 668.13 166.901 669.552 173.412 669.589C179.922 669.62 186.219 669.87 187.406 670.099C192.865 671.141 193.443 669.547 189.375 664.703C186.448 661.224 187.365 661.615 192.073 665.87C200.141 673.167 202.422 673.776 202.422 668.714C202.422 665.635 203.172 665.656 208.401 669.078C211.917 671.38 215.073 672.104 215.979 670.823C216.833 669.62 220.672 667.271 224.505 665.578C231.203 662.63 231.313 662.401 226.984 659.24C221.703 655.38 223.047 655.062 231.359 658.224C235.875 659.938 237.412 659.776 237.412 657.495C237.412 655.651 243.328 653.229 252.573 651.302C260.912 649.562 267.734 647.188 267.734 646.057C267.734 644.927 268.719 644.688 269.99 645.474C271.266 646.26 274.167 645.849 276.406 644.599C279.964 642.609 279.641 642.078 274 640.667C269.136 639.443 267.891 638.016 268.901 634.839C269.891 631.719 268.849 630.464 264.891 629.88C261.115 629.328 263.797 627.688 274.073 624.417C290.005 619.349 293.938 614.76 279.979 617.495C267.089 620.026 235.078 620.599 235.078 618.297C235.078 617.208 236.125 616.333 237.412 616.333C238.693 616.333 239.74 615.271 239.74 614C239.74 612.729 234.755 611.766 228.662 611.885C213.359 612.198 188.891 607.083 187.406 603.219C186.568 601.042 188.078 600.01 191.995 600.01C195.167 600.01 197.755 598.995 197.755 597.755C197.755 596.51 199.328 596.068 201.255 596.807C203.177 597.547 204.755 596.917 204.755 595.422C204.755 593.635 206.51 593.979 209.927 596.37C212.781 598.365 217.766 599.984 221.01 599.938L226.912 599.865L221.521 595.349L216.198 590.906L227.349 590.177L238.573 589.375L230.412 585.443L222.245 581.51L229.391 581.438C233.943 581.375 238.599 579.234 242.073 575.536C245.089 572.328 248.625 569.708 250.021 569.708C251.412 569.708 253.938 567.562 255.557 564.969C259.823 558.146 254.391 556.776 240.979 561.328C226.516 566.234 223.521 566.099 225.016 560.38C226.49 554.75 226.104 554.719 211.458 559.505C200.318 563.151 199.156 563.042 181.354 557.979C157.349 551.146 151.193 544.745 169.693 545.812C171.599 545.922 173.891 544.865 174.797 543.406C175.943 541.552 177.875 541.984 181.135 544.938C184.792 548.245 187.849 548.812 195.276 547.557C205.88 545.771 206.537 544.885 200.672 540.057C196.479 536.599 198.026 536.708 208.031 540.714C211.62 542.146 212.219 541.714 211.021 538.599C209.917 535.724 210.807 534.74 214.375 534.74C217.625 534.74 218.807 533.63 217.948 531.385C217.24 529.547 217.875 527.51 219.406 526.87C221.359 526.047 221.094 524.714 218.385 522.5C214.844 519.604 214.984 518.927 220.135 513.974C228.537 505.891 226.974 504.203 214.667 508.146C184.057 517.958 172.833 518.542 165.318 510.552C161.063 506.021 160.813 504.786 163.641 503.703C165.542 502.974 170.245 503.547 174.141 505.016C184.109 508.776 186.24 505.026 177.932 498.312C172.104 493.604 171.714 492.729 175.599 493.068C183.755 493.771 188.427 492.844 188.427 490.443C188.427 489.161 186.589 488.047 184.344 487.964C181.037 487.849 181.156 487.391 185.146 485.781C187.854 484.688 190.698 482.156 191.49 480.099C192.734 476.854 192.271 476.708 187.771 479.224C179.635 483.776 131.021 483.078 120.781 478.276C113.625 474.917 113.245 474.438 118.083 474.271C122.505 474.12 123.406 473.146 122.385 469.245C121.24 464.87 121.495 464.703 125.01 467.714C130.12 472.089 137.109 474.536 137.109 471.938C137.109 470.818 139.208 470.396 141.776 471.062C144.385 471.745 146.443 471.135 146.443 469.682C146.443 468.25 149.063 467.13 152.271 467.13C160.026 467.13 159.641 464.812 150.667 457.443L143.162 451.323L155.625 453.286C168.479 455.318 173.156 454.474 170.714 450.521C168.323 446.656 174.594 441.484 181.646 441.484C189.594 441.484 190.693 437.635 183.177 436.021C180.198 435.38 181.458 434.974 186.094 435.146C191.401 435.349 194.052 434.516 193.672 432.672C193.354 431.109 194.203 429.828 195.641 429.828C197.401 429.828 197.313 428.641 195.276 426.188C193.349 423.859 190.068 422.932 186.24 423.708C182.938 424.385 181.573 424.406 183.177 423.708C188.563 421.37 186.177 417.635 180.26 419.12C175.531 420.307 174.802 419.849 176.037 416.646C177.135 413.776 176.656 413.255 174.359 414.677C172.635 415.74 168.552 416.807 165.245 417.078C161.943 417.354 156.646 418.302 153.438 419.193L147.609 420.797L154.021 415.333C161.432 408.974 162.51 405.25 155.917 408.776C149.412 412.255 144.635 411.964 148.266 408.339C153.5 403.104 151.432 398.979 146.078 403.969C143.339 406.516 137.839 410.151 133.828 412.052C119.578 418.812 81.1303 409.609 81.1303 399.448C81.1303 397.417 79.8282 394.505 78.2865 392.969C76.4167 391.094 76.3647 390.198 78.0678 390.198C79.4688 390.198 81.1928 391.771 81.9324 393.693C82.7865 395.917 86.1147 397.078 90.9688 396.901C95.1772 396.745 100.984 397.417 103.87 398.359C108.182 399.766 109.12 399.141 109.12 395.151V390.344L117.063 395.005C122.776 398.375 125.49 398.984 126.688 397.047C127.604 395.562 126.922 393.354 125.156 392.167C122.385 390.302 136 390.552 145.276 392.531C146.557 392.802 149.99 392.234 152.927 391.292C157.854 389.708 157.943 389.234 154.531 385.464C151.104 381.682 151.292 381.302 156.792 379.927C163.531 378.234 164.87 373.87 158.688 373.734C156.115 373.677 157.193 372.479 161.599 370.453C165.448 368.688 171.682 364.693 175.448 361.568L182.229 355.885L173.703 354.281C168.974 353.396 165.099 351.672 165.099 350.422C165.099 349.109 162.385 348.771 158.688 349.693C153.083 351.089 152.589 350.88 155.188 347.724C159.693 342.26 152.979 340.589 146.073 345.469C142.844 347.75 135.828 349.448 129.094 349.547C119.906 349.682 118.594 349.224 122.604 347.432C127.141 345.411 127.589 343.51 125.594 334.615C125.5 334.188 121.896 336.021 117.573 338.693C113.255 341.359 106.167 343.516 101.828 343.5C87.2865 343.453 62.2553 333.771 46.3594 322.01C40.2397 317.479 41.5365 316.542 48.6199 320.333C52.2917 322.297 53.1563 321.974 53.2136 318.583C53.2813 314.609 53.3959 314.568 55.6928 318.51C57.0157 320.781 59.0417 322.073 60.2084 321.354C61.3803 320.63 64.9845 321.781 68.2292 323.901C74.0626 327.724 74.099 327.667 74.1303 321.062C74.1511 317.385 74.9376 315.573 75.8803 316.984C77.922 320.036 86.7345 324.922 90.2397 324.922C91.6095 324.922 92.8855 322.562 93.0105 319.677C93.2292 314.698 93.2917 314.729 94.8334 320.26C95.724 323.464 96.948 325.604 97.5313 325.068C98.1147 324.531 100.776 325.25 103.432 326.672C107.375 328.781 108.865 328.438 111.453 324.849C113.198 322.432 115.526 321.036 116.63 321.719C117.729 322.396 117.901 320.245 117.063 316.906C115.609 311.104 115.807 310.932 121.948 313.266C129.531 316.146 131.891 314.719 127.781 309.771C125.323 306.812 125.568 306.271 129.021 306.271C132.948 306.271 132.891 306.026 129.094 301.828C126.885 299.391 126.073 296.812 127.271 296.073C128.464 295.333 131.276 296.776 133.537 299.276C137.094 303.203 139.38 303.557 148.406 301.755C148.885 301.661 148.162 300.198 146.734 298.479C143.698 294.823 145.495 292.286 151.177 292.286C153.385 292.286 157.698 290.219 160.729 287.693L166.266 283.104L159.271 282.667C155.422 282.427 149.698 282.458 146.589 282.74C141.656 283.188 141.281 282.76 143.964 279.536C149.063 273.391 145.474 273.411 136.453 279.536C126.677 286.177 120.787 287.333 125.448 281.719C127.912 278.75 127.776 278.38 124.573 279.609C120.12 281.318 119.474 278.146 123.479 274.146C129.453 268.172 123.115 269.068 115.755 275.24C101.255 287.38 99.474 287.766 83.099 282.812C65.9272 277.62 54.4115 271.135 50.9532 264.672C48.8334 260.719 49.3178 260.156 54.3803 260.448C57.573 260.63 60.6772 262.411 61.3022 264.38C61.9324 266.354 64.6563 268.115 67.3542 268.318C71.2917 268.615 71.9792 267.682 70.9272 263.656C69.7553 259.182 70.2501 259.344 75.0782 264.964C78.0678 268.438 82.823 271.302 85.724 271.302C90.297 271.302 90.8386 270.417 89.6563 264.526C87.8907 255.703 93.3699 253.271 99.0626 260.375C102.953 265.229 116.073 268.641 116.12 264.818C116.13 263.87 112.719 260.297 108.537 256.807C102.74 251.964 101.943 250.443 105.109 250.396C107.396 250.359 109.844 251.828 110.578 253.745C111.313 255.661 112.797 256.734 113.859 256.078C114.917 255.422 116.406 255.938 117.214 257.245C118.016 258.547 121.49 259.646 124.865 259.646C130.74 259.646 130.802 259.474 126.469 256.297C122.099 253.089 122.177 252.885 128.51 250.469C132.12 249.089 136.318 247.964 137.839 247.917C139.359 247.87 137.984 246.344 134.776 244.568C129.094 241.417 129.151 241.349 137.984 242.161C143.708 242.693 148.271 241.792 150.375 239.688C155.505 234.562 151.87 231.672 140.318 231.672C133.865 231.672 130.385 230.708 131.281 229.266C134.219 224.516 125.604 224.432 115.901 229.12C104 234.865 101.792 235.156 103.578 230.505C104.422 228.307 103.557 227.01 101.25 227.01C98.9376 227.01 98.073 225.708 98.9167 223.51C100.484 219.422 99.6772 219.281 91.9897 222.203C86.9949 224.099 86.4428 223.807 87.4688 219.87C88.698 215.188 84.7813 213.547 82.224 217.682C81.4167 218.984 76.4792 222.286 71.2188 224.969C62.7553 229.281 60.5678 229.495 52.2657 227.01C44.5209 224.693 43.5313 223.807 46.7969 221.984C48.974 220.766 50.8074 218.182 50.8074 216.229C50.8074 213.469 48.4167 212.812 40.2397 213.312C32.2813 213.802 28.6199 212.812 25.224 209.38C20.1042 204.203 15.1511 185.719 18.3699 183.734C20.3594 182.505 21.474 187.474 20.6303 193.859C20.4115 195.5 22.4688 199.974 25.224 203.844C29.2188 209.453 30.9219 210.307 33.5313 208.141C35.3334 206.646 36.8803 202.693 37.0313 199.328C37.2449 194.484 37.5886 194.182 38.4897 197.87C40.2553 205.115 46.3074 210.693 52.4115 210.693C57.1772 210.693 57.6199 210.047 55.5469 206.172C52.5001 200.484 52.4792 198.349 55.474 200.198C56.7553 200.995 57.8074 200.536 57.8074 199.182C57.8074 197.823 58.8542 196.703 60.1355 196.703C61.422 196.703 62.4688 198.172 62.4688 199.979C62.4688 204.161 76.099 215.797 78.9428 214.042C80.1199 213.318 81.1303 210.703 81.1303 208.214C81.1303 205.724 82.1772 203.698 83.5365 203.698C84.8959 203.698 85.3855 202.385 84.5574 200.781C83.7292 199.182 84.9949 200.245 87.4011 203.188C89.8022 206.13 92.573 207.776 93.5209 206.828C94.4688 205.885 97.5209 204.75 100.375 204.354C106.693 203.474 116.12 198.828 116.12 196.557C116.12 195.646 112.995 193.615 109.193 192.042C105.391 190.464 102.505 187.969 102.776 186.505C103.057 185.016 100.094 183.719 96.1459 183.589C87.9845 183.323 76.1095 177.781 80.547 176.302C82.1459 175.771 83.4636 173.823 83.4636 172.005C83.4636 168.307 71.797 167.365 68.1563 170.766C64.6303 174.057 55.474 176.214 55.474 173.755C55.474 172.526 58.1303 170.87 61.448 170.036C66.4219 168.792 66.9844 167.885 64.6563 165.083C62.3542 162.312 62.698 161.719 66.2605 161.661C71.4584 161.573 80.2292 155.37 78.1407 153.281C77.3386 152.479 71.8803 151.318 66.0417 150.661C54.3699 149.344 54.4272 149.38 57.8751 142.938C60.1147 138.755 60.6824 138.693 65.823 142.062C71.0157 145.464 71.4584 145.349 72.8907 140.823C73.7345 138.167 75.422 136.594 76.6095 137.328C77.8022 138.062 78.797 137.594 78.797 136.234C78.797 134.875 80.8959 133.755 83.4636 133.755C86.0261 133.755 88.1251 132.266 88.1251 130.479C88.1251 126.917 83.198 124.432 76.2449 124.432C70.948 124.432 70.2397 120.151 75.224 118.24C77.1407 117.505 78.2188 116.135 77.6303 115.182C77.0417 114.224 79.1772 112.078 82.3699 110.37C90.2292 106.167 88.2865 102.286 78.2865 102.286H70.0522L75.9532 94.5625C80.5574 88.5365 81.172 86.276 78.9428 84.0729C76.724 81.8802 74.4584 83.0729 68.448 89.6094C61.3126 97.3542 60.573 97.6562 58.0938 93.6875C56.6251 91.3333 54.3803 89.4635 53.1407 89.4635C50.3647 89.4635 43.0001 102.51 41.4011 110.297C40.224 116.057 18.7553 134.443 15.5261 132.448C14.6042 131.88 14.1511 125.656 14.4324 118.604C14.7136 111.552 14.0209 105.781 12.9011 105.781C11.7865 105.781 11.1928 101.911 11.5886 97.1875C12.1928 90.0208 13.3699 88.2812 18.8074 86.8385C24.4428 85.3438 25.1615 85.6771 23.9844 89.3906C21.8542 96.0885 27.5417 97.7969 32.073 91.7969C34.4688 88.6198 36.7188 87.4323 37.6147 88.8802C39.2032 91.4531 48.474 90.0938 48.474 87.276C48.474 85.1094 36.8647 74.2552 34.8438 74.526C33.9844 74.6458 31.4636 74.2396 29.2292 73.6562C22.6511 71.9323 26.9272 68.6562 33.8959 70.0833C45.5886 72.4792 56.1251 72.0312 57.1459 69.0625C57.698 67.4635 56.6147 66.151 54.7449 66.151C52.8699 66.151 50.0574 64.5625 48.474 62.6562C46.8907 60.7448 44.6563 59.7656 43.5157 60.4688C42.3803 61.1719 41.474 60.9219 41.474 59.8854C41.4792 58.849 44.6355 55.8906 48.474 53.3281C55.5365 48.6146 57.474 45.1667 53.0678 45.1667C48.8178 45.1667 33.5417 52.2292 31.4897 55.151C30.2761 56.8802 30.0417 55.9792 30.9063 52.8906C31.6876 50.1146 31.3126 47.2292 30.1042 46.4792C27.5678 44.9115 18.1511 59.9063 18.1511 65.4948C18.1511 67.5573 17.4584 68.5885 16.6199 67.7552C15.7865 66.9167 13.6355 68.0052 11.8855 70.2292C9.10945 73.7552 8.87508 72.8021 9.91673 62.8698C10.8803 53.6458 13.073 49.1458 21.5782 39.1979C27.3542 32.4375 32.1459 25.3958 32.1459 23.5312C32.1459 17.9323 20.4272 21.6146 18.0053 27.974C14.1563 38.099 9.91673 34.5885 10.7917 22C11.4272 12.8177 10.599 9.34896 6.7084 5.17188L1.82298 0ZM-13.9947 81.8125C-12.927 81.875 -10.3906 83.901 -7.50514 87.1302C-2.70827 92.5 -0.510345 97.3438 -0.510345 102.646C-0.510345 106.906 -0.953049 110.443 -1.45305 110.443C-2.70827 110.443 -5.71347 103.219 -6.77597 97.6927C-7.25514 95.1979 -9.18222 91.4792 -11.0781 89.3906C-12.9687 87.2969 -14.5051 84.1302 -14.5051 82.3958C-14.5051 81.9635 -14.3489 81.7917 -13.9947 81.8125ZM-19.677 116.052C-15.2395 116.38 -4.47389 123.802 -2.76555 128.292C0.270905 136.281 -1.45305 137.771 -6.70306 131.646C-9.00514 128.958 -12.1822 126.766 -13.776 126.766C-16.4739 126.766 -22.8437 117.75 -21.1353 116.344C-20.8072 116.073 -20.3124 116.005 -19.677 116.052ZM44.0261 135.068C44.5886 135.073 45.2709 135.172 45.9949 135.359C49.8438 136.365 48.9428 137.75 39.948 144.615C34.1147 149.057 27.2969 152.88 24.8594 153.062C22.4167 153.245 20.4844 154.167 20.4844 155.177C20.4844 156.188 19.3022 157.068 17.9324 157.068C16.5626 157.068 15.7709 154.708 16.1824 151.823C16.8282 147.286 18.1615 146.651 25.7292 147.307C32.4636 147.896 34.4792 147.224 34.4792 144.396C34.4792 142.37 36.0522 140.75 37.9792 140.75C39.9011 140.75 41.474 139.276 41.474 137.474C41.474 135.901 42.3438 135.057 44.0261 135.068ZM16.9845 168.432L22.4532 171.13C25.4584 172.594 30.4428 173.141 33.5313 172.37C36.7084 171.568 39.1459 171.969 39.1459 173.312C39.1459 174.62 38.1355 175.719 36.9584 175.719C35.7813 175.719 33.3074 176.26 31.4897 176.958C29.6719 177.656 25.6928 176.005 22.599 173.312L16.9845 168.432ZM42.5678 174.188C43.099 174.266 43.8803 174.812 44.974 175.719C47.5834 177.88 48.474 177.917 48.474 175.865C48.474 174.349 49.6199 173.859 51.099 174.771C52.9584 175.922 52.474 177.406 49.4949 179.578C43.4844 183.969 41.474 183.495 41.474 177.76C41.474 175.177 41.6876 174.057 42.5678 174.188ZM77.7032 182.714C79.7032 182.714 80.7553 183.76 79.9636 185.042C78.099 188.062 74.1303 188.062 74.1303 185.042C74.1303 183.76 75.7032 182.714 77.7032 182.714ZM22.8178 220.016C24.099 220.016 25.1459 225.26 25.1459 231.672C25.1459 243.49 24.7969 244.505 22.0157 241.724C19.5313 239.24 20.2449 220.016 22.8178 220.016ZM5.03133 251.12C5.86465 250.979 6.48965 251.49 6.48965 252.505C6.48965 253.865 5.43758 254.984 4.15633 254.984C1.16673 254.984 1.16673 253.333 4.15633 251.484C4.47403 251.286 4.75008 251.167 5.03133 251.12ZM23.8386 256.078C23.9688 256.062 24.1876 256.266 24.349 256.656C24.9844 258.234 25.0105 261.385 24.4219 263.651C23.8282 265.922 23.3022 264.656 23.2553 260.812C23.2188 257.927 23.4324 256.115 23.8386 256.078ZM-5.17702 257.312C-3.89056 257.312 -2.84367 257.771 -2.84367 258.333C-2.84367 258.901 -3.89056 260.021 -5.17702 260.812C-6.45827 261.604 -7.51035 261.151 -7.51035 259.792C-7.51035 258.432 -6.45827 257.312 -5.17702 257.312ZM-16.8385 261.979C-15.5572 261.979 -14.5051 262.432 -14.5051 262.995C-14.5051 263.562 -15.5572 264.682 -16.8385 265.474C-18.1197 266.266 -19.1718 265.812 -19.1718 264.453C-19.1718 263.094 -18.1197 261.979 -16.8385 261.979ZM-65.3801 262.052C-63.7864 262.208 -61.8072 263.26 -60.2812 265.182C-55.552 271.135 -47.7135 271.927 -43.3697 266.859C-39.526 262.37 -34.0416 262.312 -36.8072 266.786C-37.5468 267.979 -36.5468 268.969 -34.6249 268.969C-32.6978 268.969 -30.4583 267.922 -29.6666 266.641C-27.7812 263.594 -23.8333 263.578 -23.8333 266.641C-23.8333 267.953 -26.7187 270.167 -30.2499 271.521C-33.776 272.875 -42.6614 274.505 -49.9322 275.161C-61.5051 276.214 -63.4531 275.812 -65.6718 271.667C-67.0676 269.062 -68.151 265.823 -68.151 264.453C-68.151 262.682 -66.9791 261.891 -65.3801 262.052ZM148.625 385.536C149.984 385.536 151.104 386.583 151.104 387.865C151.104 390.854 149.453 390.854 147.604 387.865C146.813 386.583 147.266 385.536 148.625 385.536ZM-46.3593 413.51C-44.9322 413.51 -47.6926 415.609 -52.4791 418.172C-60.9531 422.708 -65.8229 423.974 -65.8229 421.672C-65.8229 420.224 -49.802 413.51 -46.3593 413.51ZM155.042 513.099C157.609 513.083 160.167 513.354 161.745 513.974C164.932 515.219 163.365 515.75 156.354 515.87C150.901 515.958 146.438 515.63 146.438 515.141C146.438 513.901 150.755 513.125 155.042 513.099ZM207.229 525.703C208.042 525.672 209.01 525.802 209.854 526.141C211.714 526.885 211.115 527.411 208.396 527.526C205.938 527.625 204.563 527.062 205.333 526.286C205.724 525.901 206.422 525.734 207.229 525.703ZM207.813 583.766C207.917 583.734 208.089 583.766 208.25 583.766C209.537 583.766 212.156 584.781 214.083 586.026C216.005 587.266 216.531 588.281 215.25 588.281C213.964 588.281 211.344 587.266 209.417 586.026C207.734 584.938 207.083 583.979 207.813 583.766ZM-198.49 677.964C-197.385 677.797 -197.073 678.281 -197.687 679.276C-198.469 680.542 -200.052 681.604 -201.255 681.604C-204.615 681.604 -203.911 679.875 -199.875 678.328C-199.354 678.13 -198.854 678.016 -198.49 677.964ZM-160.802 698L-155.484 703.682L-150.234 709.365L-146.224 703.245C-142.578 697.677 -142.073 697.568 -139.958 701.349C-138.219 704.453 -137.156 704.703 -135.802 702.516C-134.521 700.438 -133.573 701.021 -132.448 704.552C-130.854 709.573 -126.474 711.562 -126.474 707.25C-126.474 705.969 -123.583 704.911 -120.057 704.917H-113.646L-120.641 708.635C-125.151 711.01 -131.187 711.88 -137.552 711.182C-142.979 710.589 -146.849 711.083 -146.151 712.203C-144.312 715.177 -147.792 714.635 -154.974 710.891C-158.635 708.984 -161.531 708.557 -161.969 709.875C-162.385 711.115 -164.635 711.406 -166.927 710.526C-170.797 709.042 -170.693 708.557 -165.906 703.464L-160.802 698ZM-106.573 700.547C-106.083 700.542 -105.609 700.552 -105.187 700.693C-103.443 701.276 -104.51 702.344 -107.667 703.172C-111.547 704.182 -112.458 703.88 -110.729 702.151C-109.708 701.135 -108.047 700.557 -106.573 700.547ZM-130.26 796.641C-129.427 796.5 -128.802 797.005 -128.802 798.026C-128.802 799.38 -129.854 800.5 -131.135 800.5C-134.125 800.5 -134.125 798.849 -131.135 797.005C-130.818 796.807 -130.542 796.688 -130.26 796.641Z" fill="#001223"/>
</g>
<mask id="mask1_897_10685" style="mask-type:luminance" maskUnits="userSpaceOnUse" x="-226" y="22" width="528" height="905">
<path d="M-226 22H302V927H-226V22Z" fill="white"/>
</mask>
<g mask="url(#mask1_897_10685)">
<path d="M14.823 22L14.5313 27.6823C14.4063 30.8073 14.1459 40.2396 13.948 48.6615L13.6563 63.9635L5.05736 55.0729C-4.88535 44.7292 -6.21347 44.3177 -6.1666 51.4323C-6.15097 54.3177 -2.09369 61.0885 2.79694 66.5104C10.6355 75.1927 11.7344 77.9271 12.2032 89.4583C12.5522 98.1667 11.8699 102.057 10.2345 101.042C8.88028 100.208 7.82819 98.0104 7.82819 96.1615C7.82819 94.3125 6.77611 92.8125 5.49486 92.8125C4.21361 92.8125 3.16153 88.75 3.16153 83.776C3.16153 73.4323 -2.70827 66.1979 -6.38535 71.974C-7.55722 73.8177 -8.0416 76.5573 -7.4791 78.0938C-6.23952 81.4896 -12.9478 79.276 -17.4635 74.8177C-19.1614 73.1406 -21.8958 71.8281 -23.5885 71.8281C-29.8958 71.8281 -28.8645 78.4063 -21.1822 87.2031C-12.0468 97.6615 -11.552 99.75 -17.6145 101.333C-20.5885 102.115 -21.6093 103.922 -20.8176 106.943C-19.5051 111.964 -13.2499 112.854 -9.01035 108.62C-5.83327 105.448 -5.75514 105.615 -5.21869 114.375C-4.77597 121.688 -5.17702 121.854 -13.1666 117.292C-20.9843 112.823 -22.4947 112.932 -22.4947 118.24C-22.4947 120.708 -19.0833 125.396 -14.9166 128.656C-9.2291 133.104 -8.59369 134.281 -12.2916 133.318C-15.5103 132.479 -17.7083 133.312 -18.6301 135.724C-20.6406 140.953 -22.2656 140.521 -37.802 130.406C-45.427 125.438 -52.8176 121.786 -54.2031 122.318C-59.0572 124.177 -55.9739 133.073 -49.1718 136.812L-42.3229 140.531L-48.5885 141.26C-52.0104 141.667 -55.3541 143.448 -56.026 145.193C-57.3333 148.599 -51.4999 151.943 -48.0051 149.781C-46.8385 149.062 -45.8229 149.589 -45.8229 150.948C-45.8229 152.307 -43.9843 153.469 -41.7395 153.573C-38.776 153.703 -38.5676 154.089 -40.9374 155.026C-43.4114 156.005 -42.9218 157.328 -38.8229 160.417L-33.3541 164.5L-43.1249 166.177C-53.1718 167.87 -55.4635 171.62 -49.4635 176.594C-47.2031 178.469 -44.8229 178.656 -42.177 177.177C-37.776 174.714 -29.4947 176.089 -29.4947 179.286C-29.4947 180.422 -27.3958 181.401 -24.8281 181.401C-22.2603 181.401 -20.1614 180.354 -20.1614 179.068C-20.1614 177.786 -17.802 176.771 -14.9166 176.812L-9.6666 176.885L-15.427 181.62C-19.901 185.339 -20.4531 186.792 -17.9739 188.323C-14.4739 190.484 -8.42702 188.901 -5.43744 185.042C-4.35931 183.646 -4.07285 185.396 -4.8541 188.979C-6.02077 194.318 -5.49994 195.391 -1.57806 195.391C1.01569 195.391 3.2084 194.078 3.30736 192.474C3.43236 190.484 3.88028 190.609 4.76569 192.839C5.7084 195.224 6.8907 194.573 9.06778 190.505L12.0574 184.896L14.9688 191.307C16.573 194.828 17.1459 198.458 16.2084 199.396C15.2709 200.333 6.91153 201.474 -2.38014 201.948C-17.9218 202.729 -20.1718 202.26 -30.4426 195.755C-40.6614 189.271 -48.151 188.188 -48.151 193.203C-48.151 194.307 -45.2656 196.88 -41.7395 198.885L-35.3229 202.526L-43.4895 201C-51.5624 199.521 -65.151 192.526 -71.1145 186.719C-72.8072 185.068 -76.2187 183.734 -78.6926 183.734C-83.4478 183.734 -84.6822 188.24 -80.9531 191.964C-79.5572 193.365 -83.1406 194.49 -90.7239 194.953C-97.3229 195.354 -103.615 196.208 -104.646 196.844C-112.312 201.583 -93.4166 210.188 -79.7135 208.208L-70.3124 206.901L-76.8697 210.615C-80.8437 212.87 -83.177 215.885 -82.7031 218.266C-81.5676 223.964 -71.4895 222.052 -65.0624 214.911C-62.0728 211.589 -58.0312 209.411 -55.7343 209.958C-52.5155 210.724 -52.9322 211.5 -57.8489 213.531C-65.7916 216.807 -68.1978 220.646 -63.3853 222.49C-61.3072 223.286 -60.1301 225.281 -60.7655 226.932C-61.3958 228.583 -60.3489 230.526 -58.5051 231.234C-56.6614 231.938 -55.151 231.594 -55.151 230.505C-55.151 228.599 -47.6145 225.333 -41.9583 224.75C-40.4687 224.594 -37.0572 222.438 -34.3749 220.01C-31.6926 217.589 -29.4947 216.385 -29.4947 217.318C-29.4947 219.74 -34.5885 224.495 -40.6458 227.734C-43.5051 229.266 -45.8176 231.557 -45.8229 232.833C-45.8229 237.234 -38.6406 237.917 -34.2291 233.927C-30.0208 230.12 -29.8801 230.156 -31.0937 234.802C-32.8749 241.604 -28.1041 240.927 -23.3697 233.708C-20.4114 229.193 -18.9583 228.484 -17.4635 230.797C-15.8437 233.302 -15.1822 233.281 -13.5312 230.724C-12.4218 229.01 -9.53639 227.865 -7.11452 228.172C2.29694 229.37 14.672 220.958 15.0417 213.094C15.2449 208.849 15.4792 208.974 16.9376 214.036C18.3282 218.849 17.1824 221.188 10.3074 227.37C5.72403 231.49 -4.49472 238.266 -12.4374 242.453L-26.8697 250.026L-38.0937 244.417C-44.2656 241.339 -50.6301 238.604 -52.2343 238.297C-56.3958 237.51 -55.8333 242.01 -51.0676 247.625C-47.3958 251.948 -47.4166 252.068 -50.9947 249.302C-53.1822 247.609 -55.8645 246.792 -56.9739 247.479C-58.0833 248.167 -61.9166 247.224 -65.4999 245.365C-74.0937 240.911 -76.7708 241.13 -75.1926 246.094C-74.151 249.385 -75.2447 250.125 -80.8801 249.953C-84.7239 249.844 -88.4114 249.135 -89.1197 248.427C-91.9583 245.589 -99.4687 249.766 -99.4687 254.182C-99.4687 257.766 -98.3333 258.583 -94.5833 257.604C-89.901 256.38 -89.8697 256.49 -93.7812 260.812C-98.0051 265.474 -97.3124 266.115 -88.4635 265.401C-84.3906 265.073 -83.5468 265.859 -84.7447 268.969C-86.0051 272.255 -85.1978 272.807 -80.3697 271.885C-75.5416 270.964 -74.7135 271.51 -75.6301 275.016C-76.8801 279.781 -75.401 280.292 -69.5833 277.203C-63.8645 274.167 -56.6458 283.812 -61.3437 288.203C-63.9791 290.661 -64.776 290.562 -65.7916 287.911C-66.4895 286.094 -70.6249 284.589 -75.1926 284.417C-79.677 284.245 -82.8176 285.036 -82.1197 286.161C-81.4218 287.286 -82.9062 287.635 -85.4739 286.964C-91.3645 285.427 -91.5468 288.964 -85.7656 292.573C-82.7031 294.484 -81.7551 297.052 -82.5572 301.245C-83.9687 308.62 -84.3228 308.682 -92.9062 301.464C-96.7187 298.255 -101.359 295.635 -103.187 295.635C-107.094 295.635 -107.292 296.776 -104.276 302.411C-101.828 306.979 -103.365 307.089 -121.042 303.719C-126.802 302.62 -129.792 302.927 -129.792 304.594C-129.792 307.615 -117.677 314.286 -112.151 314.286C-108.963 314.286 -108.776 314.87 -111.13 317.708C-113.448 320.5 -113.365 321.464 -110.62 322.516C-108.745 323.234 -106.234 323.604 -105.078 323.391C-100.208 322.479 -97.1718 323.802 -97.7187 326.526C-98.0781 328.312 -95.8228 329.37 -91.8853 329.292C-86.9531 329.193 -85.4583 330.266 -85.401 333.953C-85.3228 338.557 -85.1406 338.51 -80.7343 333.224C-77.0937 328.859 -76.1406 328.531 -76.1406 331.625C-76.1406 333.766 -75.0937 334.896 -73.8124 334.099C-72.526 333.307 -70.4791 335.375 -69.2187 338.688C-67.9583 342.005 -65.328 345.302 -63.3853 346.047C-61.4426 346.792 -59.8124 348.849 -59.8124 350.635C-59.8176 352.422 -58.1301 353.917 -56.026 353.917C-53.9218 353.917 -50.8749 355.698 -49.2447 357.922C-46.4531 361.74 -45.9374 361.708 -40.7916 357.339L-35.3229 352.75L-39.4791 357.63C-41.9895 360.609 -49.7655 364.005 -59.5937 366.375C-80.1353 371.328 -85.0989 371.172 -93.4895 365.646C-101.26 360.526 -105.052 361.474 -102.963 368.047C-101.792 371.74 -102.687 372.568 -108.213 372.568C-111.891 372.568 -115.963 371.521 -117.25 370.234C-118.818 368.667 -121.088 368.974 -124.104 371.182C-128.432 374.349 -128.328 374.641 -121.115 378.76C-115.677 381.865 -113.953 384.224 -114.922 387.281C-115.781 390.01 -115.109 391.344 -113.099 391.073C-106.344 390.151 -103.724 391.302 -105.005 394.641C-107.245 400.469 -98.7291 403.25 -92.2499 398.792C-87.9999 395.87 -87.3749 395.729 -89.4791 398.354C-93.4218 403.26 -89.6301 408.385 -83.5051 406.443C-74.6718 403.641 -72.2916 408.125 -80.9531 411.25C-92.0781 415.271 -103.177 415.188 -107.338 411.031C-111.937 406.432 -119.083 406.375 -117.323 410.958C-116.234 413.797 -117.859 414.172 -126.437 413C-138.984 411.281 -140.557 415.156 -128.984 419.339C-123.375 421.365 -121.391 423.339 -122.135 426.188C-123.38 430.948 -116.016 433.594 -110.328 430.411C-107.234 428.682 -106.463 429.354 -106.463 433.979C-106.463 438.708 -105.609 439.516 -101.432 438.422C-97.3072 437.344 -96.7083 437.807 -98.0104 441.193C-99.2812 444.51 -98.6301 445.161 -94.8749 444.177C-92.2864 443.505 -90.1353 443.891 -90.1353 445.052C-90.1353 449.141 -85.2031 447.089 -78.9843 440.464C-71.4947 432.479 -67.0572 430.719 -61.5624 433.542C-55.1718 436.828 -56.7708 439.479 -64.4791 438.349C-72.5103 437.172 -73.6926 440.724 -67.9062 448.99C-64.5155 453.823 -64.5312 454.161 -68.8489 454.161C-71.401 454.161 -75.0885 455.734 -77.0156 457.656C-78.9374 459.578 -82.0728 461.156 -84.0103 461.156C-85.9531 461.156 -88.151 462.135 -88.8958 463.339C-89.6406 464.542 -94.3333 465.448 -99.3229 465.38C-104.307 465.312 -109.745 466.094 -111.422 467.13C-113.094 468.161 -117.865 468.792 -121.99 468.51C-128.198 468.094 -129.604 468.927 -130.224 473.318C-130.766 477.141 -132.588 478.677 -136.786 478.859C-139.995 478.995 -143.667 479.401 -144.948 479.729C-146.234 480.062 -149.12 480.104 -151.365 479.875C-153.609 479.651 -155.448 480.396 -155.448 481.479C-155.448 484.568 -142.536 491.458 -136.713 491.458C-131.609 491.458 -131.516 491.594 -135.62 496.125C-139.74 500.672 -139.698 500.786 -133.724 500.786C-129.156 500.786 -127.948 501.656 -128.99 504.354C-130.12 507.302 -129.135 507.688 -123.667 506.396C-119.974 505.526 -116.437 504.854 -115.792 504.865C-108.521 505.005 -106.828 505.807 -107.922 508.651C-110.359 515 -104.318 514.818 -100.849 508.432C-97.552 502.354 -97.3697 502.276 -97.2812 507.198C-97.2291 510.083 -96.3489 512.521 -95.3853 512.661C-81.1301 514.745 -78.7916 514.052 -75.9218 507.125L-73.0051 500.13L-70.9635 505.667L-68.927 511.276L-64.4062 505.448C-59.9322 499.63 -59.9374 499.62 -59.8853 504.865C-59.8176 511.938 -55.6562 511.536 -53.8385 504.281C-53.0312 501.078 -51.3385 498.453 -50.1197 498.453C-48.901 498.453 -48.6562 499.583 -49.5364 501.005C-50.651 502.807 -48.8437 503.109 -43.5572 501.953C-37.9479 500.719 -36.1979 501 -36.927 503.188C-38.3593 507.484 -52.9687 514.771 -60.177 514.771C-63.5885 514.771 -66.8541 516.083 -67.4687 517.688C-68.1562 519.479 -72.7135 520.495 -79.3489 520.38C-85.2864 520.281 -90.1353 521.01 -90.1353 521.984C-90.1353 526.474 -82.0416 531.328 -75.6301 530.656C-71.8228 530.255 -68.5312 530.849 -68.3437 532.042C-67.7239 535.922 -81.3958 538.104 -114.63 539.396C-152.078 540.854 -167.109 542.49 -167.109 545.005C-167.109 545.974 -169.734 546.276 -172.943 545.661C-176.255 545.031 -178.771 545.615 -178.771 547.047C-178.771 550.312 -171.151 554.406 -164.995 554.406C-162.344 554.406 -160.115 555.453 -160.115 556.734C-160.115 558.016 -161.255 559.068 -162.588 559.068C-163.927 559.068 -167.338 561.234 -170.172 563.948L-175.276 568.901L-167.693 567.88C-162.677 567.198 -160.115 567.802 -160.115 569.703C-160.115 571.432 -158.25 572.109 -155.448 571.38C-152.838 570.698 -150.781 571.307 -150.781 572.766C-150.781 576.526 -144.849 575.979 -141.453 571.891C-139.854 569.964 -137.526 568.391 -136.203 568.391C-134.88 568.391 -135.463 570.271 -137.588 572.62C-139.713 574.964 -141.453 577.583 -141.453 578.448C-141.453 580.917 -132.557 580.307 -130.953 577.719C-128.646 573.984 -125.557 575.01 -123.958 580.047C-122.083 585.948 -119.422 585.911 -110.984 579.901L-104.203 575.094L-105.661 582.234C-107.417 591.01 -103.182 591.719 -93.7083 584.276C-87.4843 579.38 -87.3124 579.385 -89.7708 583.984C-92.6718 589.396 -91.276 591.964 -86.4166 590.104C-84.6041 589.406 -81.5468 590.12 -79.6406 591.703C-77.2291 593.703 -76.1406 593.812 -76.1406 591.995C-76.1406 590.557 -74.5676 589.375 -72.6405 589.375C-70.7187 589.375 -69.1458 590.818 -69.1458 592.651C-69.1458 594.917 -67.078 595.766 -62.7291 595.276C-38.4478 592.526 -69.8541 606.641 -98.0833 611.156C-116.536 614.109 -118.391 613.995 -124.469 609.99C-128.062 607.625 -132.266 605.703 -133.87 605.693C-138.693 605.667 -137.156 610.333 -131.536 612.76C-127.682 614.422 -129.078 614.599 -136.786 613.417C-142.557 612.526 -149.906 611.943 -153.115 612.104C-156.318 612.266 -164.151 610.88 -170.463 609.042C-176.771 607.208 -182.286 606.005 -182.708 606.422C-185.141 608.854 -170.208 618.469 -161.859 619.823L-151.948 621.427L-160.693 621.719C-166.786 621.922 -169.443 623.073 -169.443 625.51C-169.443 627.432 -167.604 629.172 -165.359 629.37C-163.115 629.562 -160.229 629.943 -158.943 630.245C-157.661 630.542 -155.109 630.896 -153.26 631.047C-150.786 631.245 -151.094 632.182 -154.427 634.615C-160.187 638.828 -157.453 641.854 -151 638.401C-146.984 636.255 -146.115 636.479 -146.115 639.641C-146.115 642.63 -144.448 643.24 -138.536 642.411C-134.365 641.823 -128.854 640.583 -126.286 639.641C-121.693 637.953 -121.755 637.974 -126.213 641.609C-130.76 645.307 -129.786 646.167 -122.208 645.396C-119.885 645.161 -118.125 646.599 -118.125 648.677C-118.125 653.661 -116.234 653.25 -110.687 647.073L-105.953 641.828L-109.745 648.167C-111.807 651.646 -113.458 655.552 -113.458 656.906C-113.458 660.51 -102.016 657.849 -96.5468 652.974C-91.9687 648.885 -91.9322 648.964 -93.7083 654.651C-96.1718 662.552 -99.0364 664.219 -120.531 670.677C-138.385 676.036 -139.463 676.104 -149.104 672.427C-159.615 668.411 -174.104 667.271 -174.104 670.458C-174.104 671.484 -172.885 673.646 -171.338 675.193C-169.443 677.089 -172.562 676.792 -180.885 674.318C-187.693 672.297 -194.859 671.224 -196.849 671.99C-199.896 673.156 -199.62 674.318 -195.099 679.125L-189.776 684.807L-197.651 682.552C-207.797 679.641 -220.125 679.646 -221.922 682.552C-223.776 685.547 -208.177 691.932 -198.963 691.948H-191.599L-198.453 697.411C-205.213 702.823 -205.151 709.917 -198.38 707.323C-196.125 706.458 -195.099 707.865 -195.099 711.839C-195.099 715.969 -193.88 717.594 -190.651 717.594C-188.177 717.594 -184.526 719.198 -182.562 721.161C-179.594 724.13 -178.198 724.208 -174.25 721.745C-171.635 720.115 -169.443 717.984 -169.443 717.01C-169.443 716.036 -167.604 717.099 -165.286 719.344C-160.818 723.667 -159.547 729.25 -163.026 729.25C-164.172 729.25 -164.344 730.38 -163.463 731.797C-162.354 733.594 -164.083 733.932 -169.151 732.818C-173.802 731.797 -176.437 732.089 -176.437 733.693C-176.437 735.12 -180.979 736.245 -186.937 736.245C-197.865 736.245 -199.927 738.266 -193.932 743.24C-191.599 745.177 -186.661 745.688 -179.354 744.766L-168.276 743.385L-176.948 747.974C-182.974 751.167 -185.203 753.693 -184.24 756.203C-183.37 758.464 -181.427 759.224 -179.062 758.245C-176.984 757.385 -173.698 756.443 -171.776 756.13C-169.849 755.823 -169.588 756.016 -171.193 756.568C-177.099 758.599 -174.047 762.344 -167.693 760.87C-163.099 759.802 -162.25 760.042 -164.703 761.667C-170.875 765.76 -165.396 766.948 -157.995 763.125C-154.031 761.073 -150.781 760.385 -150.781 761.594C-150.781 762.802 -152.094 764.302 -153.698 764.875C-155.302 765.448 -155.802 766.781 -154.792 767.859C-153.781 768.943 -149.963 768.677 -146.26 767.276C-140.745 765.198 -139.698 765.339 -140.724 768.005C-141.625 770.354 -140.792 770.786 -137.661 769.682C-134.021 768.396 -133.786 768.698 -136.349 771.432C-138.734 773.974 -146.766 774.589 -173.083 774.198C-193.453 773.901 -206.76 774.594 -206.76 775.948C-206.76 777.182 -205.135 778.208 -203.12 778.208C-201.104 778.208 -197.995 779.688 -196.193 781.484C-193.385 784.292 -193.443 784.953 -196.557 786.146C-198.552 786.911 -203.5 787.51 -207.562 787.531C-216.135 787.573 -222.016 790.609 -219.958 793.943C-217.411 798.057 -205.833 798.807 -196.266 795.474C-183.51 791.026 -182.818 791.281 -189.417 797.875C-197.641 806.099 -197.042 811.052 -188.177 808.51C-184.37 807.422 -180.172 805.833 -178.844 805.016C-177.521 804.198 -176.344 805.464 -176.151 807.781C-175.953 810.104 -175.635 813.193 -175.495 814.703C-175.349 816.219 -174.526 818.219 -173.672 819.078C-171.833 820.911 -157.781 813.052 -157.781 810.188C-157.781 809.104 -156.828 808.844 -155.594 809.604C-154.156 810.495 -154.156 813.115 -155.594 816.891C-156.828 820.135 -157.781 823.839 -157.781 825.125C-157.781 828.203 -146.755 820.229 -135.693 809.167C-127.443 800.917 -126.26 802.328 -133.943 811.281C-135.828 813.479 -136.672 817.057 -135.838 819.219C-134.5 822.714 -133.729 822.516 -128.406 817.547L-122.354 812.01L-123.156 817.839C-123.896 823.188 -125.484 823.891 -142.62 826.724C-154.661 828.719 -162.542 829.021 -164.849 827.599C-170.698 823.99 -183.437 821.849 -183.437 824.469C-183.437 825.76 -181.599 827.318 -179.354 827.891C-177.109 828.464 -180.521 828.453 -186.937 827.891C-196.312 827.068 -198.026 827.422 -195.682 829.786C-191.224 834.286 -192.224 835.958 -198.599 834.74C-206.141 833.297 -216.719 835.99 -214.927 838.891C-214.156 840.135 -211.141 841.151 -208.219 841.151C-198.25 841.151 -199.651 844.359 -211.792 849.234C-232.49 857.552 -227.974 863.734 -206.693 856.229C-195.917 852.432 -191.708 853.089 -199.62 857.323C-202.297 858.755 -204.432 861.573 -204.432 863.589C-204.432 866.401 -203.016 866.901 -198.234 865.703C-192.729 864.318 -192.318 864.547 -195.026 867.812C-201.312 875.385 -194.646 875.401 -184.24 867.812C-179.38 864.271 -179.187 864.307 -180.521 869.49C-181.776 874.349 -181.526 874.589 -177.969 871.677C-174.463 868.797 -174.224 868.932 -175.641 872.839C-177.031 876.698 -176.484 876.578 -171.411 871.969C-165.469 866.568 -161.812 867.021 -164.047 872.839C-165.833 877.479 -160.24 876.865 -151.365 871.458C-147.141 868.88 -143.786 867.995 -143.786 869.417C-143.786 870.995 -141.344 871.406 -137.37 870.51C-133.031 869.526 -132.088 869.734 -134.453 871.167C-136.38 872.328 -143.729 874.448 -150.781 875.901C-165.974 879.031 -170.693 881.583 -168.349 885.37C-166.74 887.974 -163.604 887.688 -149.615 883.911C-146.042 882.948 -146.724 884.432 -152.531 890.031C-156.703 894.057 -160.115 897.839 -160.115 898.484C-160.115 900.802 -147.146 897.922 -139.703 893.969C-131.526 889.62 -130.271 890.953 -135.693 898.12C-140.432 904.38 -139.974 907.141 -134.453 905.698C-131.422 904.906 -129.792 905.677 -129.792 907.807C-129.792 912.172 -127.656 911.932 -122.208 907.01C-117.906 903.115 -117.708 903.141 -118.49 907.589C-119.74 914.703 -106.797 912.557 -99.9062 904.531L-94.5103 898.266L-96.0416 905.844C-98.0676 915.87 -92.2135 916.13 -83.1406 906.427C-79.5416 902.578 -76.2968 899.432 -75.8489 899.432C-75.401 899.432 -74.8749 902.146 -74.6822 905.479C-74.151 914.646 -70.3541 917.12 -65.4999 911.453C-61.6666 906.979 -61.1197 906.891 -58.2812 910.578C-55.4739 914.224 -55.1614 914.172 -53.8385 909.484C-52.9843 906.453 -51.1354 904.901 -49.2447 905.625C-47.2343 906.396 -45.5051 904.568 -44.5051 900.599C-43.427 896.292 -42.3385 895.208 -41.0833 897.245C-40.0729 898.875 -37.0676 900.552 -34.3749 900.964C-30.5781 901.542 -28.3437 899.411 -24.3906 891.271C-19.2812 880.76 -13.8853 876.703 -16.6614 885.443C-18.4531 891.089 -17.1041 891.24 -9.59369 886.318C-6.43222 884.25 -3.76556 880.312 -3.61452 877.578C-3.40097 873.594 -3.08847 873.417 -2.2291 876.703C-0.458267 883.495 3.16153 878.776 3.23444 869.562C3.29694 862.589 3.71361 861.74 5.64069 865.047C6.94798 867.292 10.2032 869.125 12.8595 869.125C17.4532 869.125 17.6355 869.979 16.1407 887.193C15.0938 899.224 12.6459 909.036 8.84903 916.552C6.62506 920.953 4.76048 924.875 3.81778 927.042H61.8438C64.4115 924.984 63.2553 921.37 60.6042 915.021C56.4636 905.13 54.8699 884.927 58.1251 883.844C59.3959 883.417 62.2553 886.177 64.5365 890.036C68.7917 897.229 74.0157 899.88 71.6094 893.604C68.8542 886.427 73.1928 890.359 76.349 897.901C78.8647 903.922 80.8803 905.724 85.0938 905.406C88.1147 905.182 92.099 906.089 93.9115 907.448C96.2761 909.214 97.474 909.141 98.1407 907.156C98.7605 905.318 100.604 905.906 103.609 908.901C109.609 914.906 112.599 914.615 111.188 908.177C110.516 905.109 110.849 903.943 111.99 905.406C114.677 908.854 122.12 911.359 122.12 908.833C122.12 906.479 134.995 907.312 141.729 910.068C145.276 911.521 145.927 911.062 144.792 908.104C144 906.042 144.573 903.932 146.104 903.365C148.229 902.583 148.255 901.573 146.031 899.214C140.734 893.604 142.927 892.88 151.641 897.323C161.276 902.229 163.964 901.51 159.297 895.354C156.802 892.062 156.766 891.797 159.224 893.969C160.922 895.474 163.724 896.177 165.49 895.5C167.26 894.823 168.771 895.198 168.771 896.375C168.771 897.547 170.193 900.49 171.979 902.932C174.776 906.755 175.802 906.922 179.125 904.167C182.469 901.391 183.412 901.729 186.703 906.427L190.495 911.818L192.609 906.208C194.557 900.995 194.917 900.896 197.708 904.677C201.401 909.682 203.052 909.755 207.625 905.188C210.469 902.349 210.625 900.932 208.354 898.193C206.787 896.307 206.198 894.771 207.042 894.771C207.885 894.771 207.365 892.411 205.875 889.526C203.609 885.135 204.458 885.391 211.047 891.349C225.563 904.464 226.521 904.948 230.656 900.818C232.719 898.76 233.578 895.812 232.625 894.188C231.651 892.521 232.849 892.802 235.396 894.844C247.724 904.74 260.208 906.688 251.797 897.396C247.995 893.198 248.125 892.87 254.198 891.349L260.542 889.745L253.693 884.208C244.729 876.885 249.521 876.87 262.365 884.208C267.948 887.396 273.88 890.021 275.484 890.036C280.193 890.078 278.833 886.365 273.151 883.625C268.427 881.349 268.787 881.073 277.307 880.927C282.516 880.844 288.813 879.24 291.302 877.359C295.609 874.104 295.552 873.938 288.896 873.865C278.906 873.75 243.38 867.286 235.979 864.245C226.912 860.521 225.193 854.818 234.156 858.198C242.016 861.167 245.99 858.714 240.203 854.484C236.844 852.026 237.927 851.734 246.839 852.443C258.214 853.349 260.636 850.484 252.156 846.177C247.62 843.87 248.385 843.583 258.281 844.068C271.63 844.719 275.396 840.333 263.896 837.51L256.24 835.615L263.823 834.74C272.698 833.682 273.479 831.281 266.156 827.526C261.865 825.333 263.682 825.031 276.068 826.073C290.026 827.24 290.807 827.057 286.636 823.74C284.146 821.76 280.281 820.172 278.037 820.172C275.792 820.172 273.281 819.01 272.422 817.62C271.443 816.031 272.906 815.219 276.359 815.505C286.104 816.318 292.396 815.552 292.396 813.469C292.396 812.349 285 810.714 275.995 809.823C266.99 808.938 260.12 807.365 260.761 806.328C261.401 805.292 268.125 803.057 275.703 801.375C290 798.203 299.052 793.458 296.188 790.594C294.719 789.125 281.74 791.24 264.406 795.839C259.078 797.25 259.214 796.812 266.521 790.521C278.537 780.167 271.755 779.099 254.417 788.625C237.01 798.188 227.042 798.969 207.766 792.339C185.896 784.818 150.417 766.818 147.776 761.891C144.51 755.781 146.365 755.964 152.297 762.328C154.912 765.13 157.109 766.573 157.109 765.531C157.109 764.49 158.682 764.953 160.604 766.552C163.5 768.948 164.104 768.724 164.104 765.24C164.104 761.729 165.297 762.161 171.396 767.865L178.682 774.714L177.297 767.208C175.901 759.807 175.995 759.734 182.255 762.401C185.74 763.885 190.172 766.307 192.094 767.792C201.141 774.75 202.188 774.594 200.552 766.406C199.313 760.219 199.557 759.146 201.792 761.38C205.849 765.438 215.422 764.974 215.422 760.724C215.422 756.38 219.188 756.161 221.688 760.359C222.714 762.083 226.474 765.297 230 767.573C235.292 770.979 236.412 771.109 236.412 768.302C236.412 766.427 234.313 763.047 231.75 760.724C229.182 758.401 227.083 755.391 227.083 754.094C227.083 752.797 227.677 752.427 228.469 753.219C229.26 754.016 231.568 753.036 233.573 751.036C236.094 748.51 239.885 747.745 245.964 748.557C252.005 749.37 255.12 748.75 255.948 746.589C256.865 744.208 258.984 743.964 264.844 745.646C285.412 751.542 289.198 744.818 269.359 737.63C255.948 732.771 254.25 730.312 266.807 733.911C282.766 738.49 303.526 735.026 294.729 729.25C292.802 727.99 286.505 726.802 280.734 726.63C271.818 726.365 271.234 726.13 277.016 724.88C280.755 724.068 284.287 721.943 284.886 720.146C285.797 717.411 282.115 717.104 262.292 718.469C238.948 720.078 238.573 720.078 241.443 715.484C245.714 708.646 242.781 707.464 231.167 711.401C224.885 713.531 216.828 714.427 210.537 713.661C197.052 712.016 152.438 697.073 147.198 692.464C141.719 687.641 142.026 684.297 147.781 686.125C150.396 686.953 152.443 686.531 152.443 685.177C152.443 682.646 155.938 683.375 167.604 688.453C171.453 690.13 179.901 691.552 186.412 691.589C192.922 691.62 199.219 691.87 200.406 692.099C205.865 693.141 206.443 691.547 202.375 686.703C199.448 683.224 200.365 683.615 205.073 687.87C213.141 695.167 215.422 695.776 215.422 690.714C215.422 687.635 216.172 687.656 221.401 691.078C224.917 693.38 228.073 694.104 228.979 692.823C229.833 691.62 233.672 689.271 237.505 687.578C244.203 684.63 244.313 684.401 239.984 681.24C234.703 677.38 236.047 677.062 244.359 680.224C248.875 681.938 250.412 681.776 250.412 679.495C250.412 677.651 256.328 675.229 265.573 673.302C273.912 671.562 280.734 669.188 280.734 668.057C280.734 666.927 281.719 666.688 282.99 667.474C284.266 668.26 287.167 667.849 289.406 666.599C292.964 664.609 292.641 664.078 287 662.667C282.136 661.443 280.891 660.016 281.901 656.839C282.891 653.719 281.849 652.464 277.891 651.88C274.115 651.328 276.797 649.688 287.073 646.417C303.005 641.349 306.938 636.76 292.979 639.495C280.089 642.026 248.078 642.599 248.078 640.297C248.078 639.208 249.125 638.333 250.412 638.333C251.693 638.333 252.74 637.271 252.74 636C252.74 634.729 247.755 633.766 241.662 633.885C226.359 634.198 201.891 629.083 200.406 625.219C199.568 623.042 201.078 622.01 204.995 622.01C208.167 622.01 210.755 620.995 210.755 619.755C210.755 618.51 212.328 618.068 214.255 618.807C216.177 619.547 217.755 618.917 217.755 617.422C217.755 615.635 219.51 615.979 222.927 618.37C225.781 620.365 230.766 621.984 234.01 621.938L239.912 621.865L234.521 617.349L229.198 612.906L240.349 612.177L251.573 611.375L243.412 607.443L235.245 603.51L242.391 603.438C246.943 603.375 251.599 601.234 255.073 597.536C258.089 594.328 261.625 591.708 263.021 591.708C264.412 591.708 266.938 589.562 268.557 586.969C272.823 580.146 267.391 578.776 253.979 583.328C239.516 588.234 236.521 588.099 238.016 582.38C239.49 576.75 239.104 576.719 224.458 581.505C213.318 585.151 212.156 585.042 194.354 579.979C170.349 573.146 164.193 566.745 182.693 567.812C184.599 567.922 186.891 566.865 187.797 565.406C188.943 563.552 190.875 563.984 194.135 566.938C197.792 570.245 200.849 570.812 208.276 569.557C218.88 567.771 219.537 566.885 213.672 562.057C209.479 558.599 211.026 558.708 221.031 562.714C224.62 564.146 225.219 563.714 224.021 560.599C222.917 557.724 223.807 556.74 227.375 556.74C230.625 556.74 231.807 555.63 230.948 553.385C230.24 551.547 230.875 549.51 232.406 548.87C234.359 548.047 234.094 546.714 231.385 544.5C227.844 541.604 227.984 540.927 233.135 535.974C241.537 527.891 239.974 526.203 227.667 530.146C197.057 539.958 185.833 540.542 178.318 532.552C174.063 528.021 173.813 526.786 176.641 525.703C178.542 524.974 183.245 525.547 187.141 527.016C197.109 530.776 199.24 527.026 190.932 520.312C185.104 515.604 184.714 514.729 188.599 515.068C196.755 515.771 201.427 514.844 201.427 512.443C201.427 511.161 199.589 510.047 197.344 509.964C194.037 509.849 194.156 509.391 198.146 507.781C200.854 506.688 203.698 504.156 204.49 502.099C205.734 498.854 205.271 498.708 200.771 501.224C192.635 505.776 144.021 505.078 133.781 500.276C126.625 496.917 126.245 496.438 131.083 496.271C135.505 496.12 136.406 495.146 135.385 491.245C134.24 486.87 134.495 486.703 138.01 489.714C143.12 494.089 150.109 496.536 150.109 493.938C150.109 492.818 152.208 492.396 154.776 493.062C157.385 493.745 159.443 493.135 159.443 491.682C159.443 490.25 162.063 489.13 165.271 489.13C173.026 489.13 172.641 486.812 163.667 479.443L156.162 473.323L168.625 475.286C181.479 477.318 186.156 476.474 183.714 472.521C181.323 468.656 187.594 463.484 194.646 463.484C202.594 463.484 203.693 459.635 196.177 458.021C193.198 457.38 194.458 456.974 199.094 457.146C204.401 457.349 207.052 456.516 206.672 454.672C206.354 453.109 207.203 451.828 208.641 451.828C210.401 451.828 210.313 450.641 208.276 448.188C206.349 445.859 203.068 444.932 199.24 445.708C195.938 446.385 194.573 446.406 196.177 445.708C201.563 443.37 199.177 439.635 193.26 441.12C188.531 442.307 187.802 441.849 189.037 438.646C190.135 435.776 189.656 435.255 187.359 436.677C185.635 437.74 181.552 438.807 178.245 439.078C174.943 439.354 169.646 440.302 166.438 441.193L160.609 442.797L167.021 437.333C174.432 430.974 175.51 427.25 168.917 430.776C162.412 434.255 157.635 433.964 161.266 430.339C166.5 425.104 164.432 420.979 159.078 425.969C156.339 428.516 150.839 432.151 146.828 434.052C132.578 440.812 94.1303 431.609 94.1303 421.448C94.1303 419.417 92.8282 416.505 91.2865 414.969C89.4167 413.094 89.3647 412.198 91.0678 412.198C92.4688 412.198 94.1928 413.771 94.9324 415.693C95.7865 417.917 99.1147 419.078 103.969 418.901C108.177 418.745 113.984 419.417 116.87 420.359C121.182 421.766 122.12 421.141 122.12 417.151V412.344L130.063 417.005C135.776 420.375 138.49 420.984 139.688 419.047C140.604 417.562 139.922 415.354 138.156 414.167C135.385 412.302 149 412.552 158.276 414.531C159.557 414.802 162.99 414.234 165.927 413.292C170.854 411.708 170.943 411.234 167.531 407.464C164.104 403.682 164.292 403.302 169.792 401.927C176.531 400.234 177.87 395.87 171.688 395.734C169.115 395.677 170.193 394.479 174.599 392.453C178.448 390.688 184.682 386.693 188.448 383.568L195.229 377.885L186.703 376.281C181.974 375.396 178.099 373.672 178.099 372.422C178.099 371.109 175.385 370.771 171.688 371.693C166.083 373.089 165.589 372.88 168.188 369.724C172.693 364.26 165.979 362.589 159.073 367.469C155.844 369.75 148.828 371.448 142.094 371.547C132.906 371.682 131.594 371.224 135.604 369.432C140.141 367.411 140.589 365.51 138.594 356.615C138.5 356.188 134.896 358.021 130.573 360.693C126.255 363.359 119.167 365.516 114.828 365.5C100.287 365.453 75.2553 355.771 59.3594 344.01C53.2397 339.479 54.5365 338.542 61.6199 342.333C65.2917 344.297 66.1563 343.974 66.2136 340.583C66.2813 336.609 66.3959 336.568 68.6928 340.51C70.0157 342.781 72.0417 344.073 73.2084 343.354C74.3803 342.63 77.9845 343.781 81.2292 345.901C87.0626 349.724 87.099 349.667 87.1303 343.062C87.1511 339.385 87.9376 337.573 88.8803 338.984C90.922 342.036 99.7345 346.922 103.24 346.922C104.609 346.922 105.885 344.562 106.01 341.677C106.229 336.698 106.292 336.729 107.833 342.26C108.724 345.464 109.948 347.604 110.531 347.068C111.115 346.531 113.776 347.25 116.432 348.672C120.375 350.781 121.865 350.438 124.453 346.849C126.198 344.432 128.526 343.036 129.63 343.719C130.729 344.396 130.901 342.245 130.063 338.906C128.609 333.104 128.807 332.932 134.948 335.266C142.531 338.146 144.891 336.719 140.781 331.771C138.323 328.812 138.568 328.271 142.021 328.271C145.948 328.271 145.891 328.026 142.094 323.828C139.885 321.391 139.073 318.812 140.271 318.073C141.464 317.333 144.276 318.776 146.537 321.276C150.094 325.203 152.38 325.557 161.406 323.755C161.885 323.661 161.162 322.198 159.734 320.479C156.698 316.823 158.495 314.286 164.177 314.286C166.385 314.286 170.698 312.219 173.729 309.693L179.266 305.104L172.271 304.667C168.422 304.427 162.698 304.458 159.589 304.74C154.656 305.188 154.281 304.76 156.964 301.536C162.063 295.391 158.474 295.411 149.453 301.536C139.677 308.177 133.787 309.333 138.448 303.719C140.912 300.75 140.776 300.38 137.573 301.609C133.12 303.318 132.474 300.146 136.479 296.146C142.453 290.172 136.115 291.068 128.755 297.24C114.255 309.38 112.474 309.766 96.099 304.812C78.9272 299.62 67.4115 293.135 63.9532 286.672C61.8334 282.719 62.3178 282.156 67.3803 282.448C70.573 282.63 73.6772 284.411 74.3022 286.38C74.9324 288.354 77.6563 290.115 80.3542 290.318C84.2917 290.615 84.9792 289.682 83.9272 285.656C82.7553 281.182 83.2501 281.344 88.0782 286.964C91.0678 290.438 95.823 293.302 98.724 293.302C103.297 293.302 103.839 292.417 102.656 286.526C100.891 277.703 106.37 275.271 112.063 282.375C115.953 287.229 129.073 290.641 129.12 286.818C129.13 285.87 125.719 282.297 121.537 278.807C115.74 273.964 114.943 272.443 118.109 272.396C120.396 272.359 122.844 273.828 123.578 275.745C124.313 277.661 125.797 278.734 126.859 278.078C127.917 277.422 129.406 277.938 130.214 279.245C131.016 280.547 134.49 281.646 137.865 281.646C143.74 281.646 143.802 281.474 139.469 278.297C135.099 275.089 135.177 274.885 141.51 272.469C145.12 271.089 149.318 269.964 150.839 269.917C152.359 269.87 150.984 268.344 147.776 266.568C142.094 263.417 142.151 263.349 150.984 264.161C156.708 264.693 161.271 263.792 163.375 261.688C168.505 256.562 164.87 253.672 153.318 253.672C146.865 253.672 143.385 252.708 144.281 251.266C147.219 246.516 138.604 246.432 128.901 251.12C117 256.865 114.792 257.156 116.578 252.505C117.422 250.307 116.557 249.01 114.25 249.01C111.938 249.01 111.073 247.708 111.917 245.51C113.484 241.422 112.677 241.281 104.99 244.203C99.9949 246.099 99.4428 245.807 100.469 241.87C101.698 237.188 97.7813 235.547 95.224 239.682C94.4167 240.984 89.4792 244.286 84.2188 246.969C75.7553 251.281 73.5678 251.495 65.2657 249.01C57.5209 246.693 56.5313 245.807 59.7969 243.984C61.974 242.766 63.8074 240.182 63.8074 238.229C63.8074 235.469 61.4167 234.812 53.2397 235.312C45.2813 235.802 41.6199 234.812 38.224 231.38C33.1042 226.203 28.1511 207.719 31.3699 205.734C33.3594 204.505 34.474 209.474 33.6303 215.859C33.4115 217.5 35.4688 221.974 38.224 225.844C42.2188 231.453 43.9219 232.307 46.5313 230.141C48.3334 228.646 49.8803 224.693 50.0313 221.328C50.2449 216.484 50.5886 216.182 51.4897 219.87C53.2553 227.115 59.3074 232.693 65.4115 232.693C70.1772 232.693 70.6199 232.047 68.5469 228.172C65.5001 222.484 65.4792 220.349 68.474 222.198C69.7553 222.995 70.8074 222.536 70.8074 221.182C70.8074 219.823 71.8542 218.703 73.1355 218.703C74.422 218.703 75.4688 220.172 75.4688 221.979C75.4688 226.161 89.099 237.797 91.9428 236.042C93.1199 235.318 94.1303 232.703 94.1303 230.214C94.1303 227.724 95.1772 225.698 96.5365 225.698C97.8959 225.698 98.3855 224.385 97.5574 222.781C96.7292 221.182 97.9949 222.245 100.401 225.188C102.802 228.13 105.573 229.776 106.521 228.828C107.469 227.885 110.521 226.75 113.375 226.354C119.693 225.474 129.12 220.828 129.12 218.557C129.12 217.646 125.995 215.615 122.193 214.042C118.391 212.464 115.505 209.969 115.776 208.505C116.057 207.016 113.094 205.719 109.146 205.589C100.984 205.323 89.1095 199.781 93.547 198.302C95.1459 197.771 96.4636 195.823 96.4636 194.005C96.4636 190.307 84.797 189.365 81.1563 192.766C77.6303 196.057 68.474 198.214 68.474 195.755C68.474 194.526 71.1303 192.87 74.448 192.036C79.4219 190.792 79.9844 189.885 77.6563 187.083C75.3542 184.312 75.698 183.719 79.2605 183.661C84.4584 183.573 93.2292 177.37 91.1407 175.281C90.3386 174.479 84.8803 173.318 79.0417 172.661C67.3699 171.344 67.4272 171.38 70.8751 164.938C73.1147 160.755 73.6824 160.693 78.823 164.062C84.0157 167.464 84.4584 167.349 85.8907 162.823C86.7345 160.167 88.422 158.594 89.6095 159.328C90.8022 160.062 91.797 159.594 91.797 158.234C91.797 156.875 93.8959 155.755 96.4636 155.755C99.0261 155.755 101.125 154.266 101.125 152.479C101.125 148.917 96.198 146.432 89.2449 146.432C83.948 146.432 83.2397 142.151 88.224 140.24C90.1407 139.505 91.2188 138.135 90.6303 137.182C90.0417 136.224 92.1772 134.078 95.3699 132.37C103.229 128.167 101.287 124.286 91.2865 124.286H83.0522L88.9532 116.562C93.5574 110.536 94.172 108.276 91.9428 106.073C89.724 103.88 87.4584 105.073 81.448 111.609C74.3126 119.354 73.573 119.656 71.0938 115.688C69.6251 113.333 67.3803 111.464 66.1407 111.464C63.3647 111.464 56.0001 124.51 54.4011 132.297C53.224 138.057 31.7553 156.443 28.5261 154.448C27.6042 153.88 27.1511 147.656 27.4324 140.604C27.7136 133.552 27.0209 127.781 25.9011 127.781C24.7865 127.781 24.1928 123.911 24.5886 119.188C25.1928 112.021 26.3699 110.281 31.8074 108.839C37.4428 107.344 38.1615 107.677 36.9844 111.391C34.8542 118.089 40.5417 119.797 45.073 113.797C47.4688 110.62 49.7188 109.432 50.6147 110.88C52.2032 113.453 61.474 112.094 61.474 109.276C61.474 107.109 49.8647 96.2552 47.8438 96.526C46.9844 96.6458 44.4636 96.2396 42.2292 95.6562C35.6511 93.9323 39.9272 90.6562 46.8959 92.0833C58.5886 94.4792 69.1251 94.0312 70.1459 91.0625C70.698 89.4635 69.6147 88.151 67.7449 88.151C65.8699 88.151 63.0574 86.5625 61.474 84.6562C59.8907 82.7448 57.6563 81.7656 56.5157 82.4688C55.3803 83.1719 54.474 82.9219 54.474 81.8854C54.4792 80.849 57.6355 77.8906 61.474 75.3281C68.5365 70.6146 70.474 67.1667 66.0678 67.1667C61.8178 67.1667 46.5417 74.2292 44.4897 77.151C43.2761 78.8802 43.0417 77.9792 43.9063 74.8906C44.6876 72.1146 44.3126 69.2292 43.1042 68.4792C40.5678 66.9115 31.1511 81.9063 31.1511 87.4948C31.1511 89.5573 30.4584 90.5885 29.6199 89.7552C28.7865 88.9167 26.6355 90.0052 24.8855 92.2292C22.1095 95.7552 21.8751 94.8021 22.9167 84.8698C23.8803 75.6458 26.073 71.1458 34.5782 61.1979C40.3542 54.4375 45.1459 47.3958 45.1459 45.5312C45.1459 39.9323 33.4272 43.6146 31.0053 49.974C27.1563 60.099 22.9167 56.5885 23.7917 44C24.4272 34.8177 23.599 31.349 19.7084 27.1719L14.823 22ZM-0.99472 103.812C0.0729828 103.875 2.60944 105.901 5.49486 109.13C10.2917 114.5 12.4897 119.344 12.4897 124.646C12.4897 128.906 12.047 132.443 11.547 132.443C10.2917 132.443 7.28653 125.219 6.22403 119.693C5.74486 117.198 3.81778 113.479 1.92194 111.391C0.031311 109.297 -1.50514 106.13 -1.50514 104.396C-1.50514 103.964 -1.34889 103.792 -0.99472 103.812ZM-6.67702 138.052C-2.23952 138.38 8.52611 145.802 10.2345 150.292C13.2709 158.281 11.547 159.771 6.29694 153.646C3.99486 150.958 0.81778 148.766 -0.77597 148.766C-3.47389 148.766 -9.84369 139.75 -8.13535 138.344C-7.80722 138.073 -7.31244 138.005 -6.67702 138.052ZM57.0261 157.068C57.5886 157.073 58.2709 157.172 58.9949 157.359C62.8438 158.365 61.9428 159.75 52.948 166.615C47.1147 171.057 40.2969 174.88 37.8594 175.062C35.4167 175.245 33.4844 176.167 33.4844 177.177C33.4844 178.188 32.3022 179.068 30.9324 179.068C29.5626 179.068 28.7709 176.708 29.1824 173.823C29.8282 169.286 31.1615 168.651 38.7292 169.307C45.4636 169.896 47.4792 169.224 47.4792 166.396C47.4792 164.37 49.0522 162.75 50.9792 162.75C52.9011 162.75 54.474 161.276 54.474 159.474C54.474 157.901 55.3438 157.057 57.0261 157.068ZM29.9845 190.432L35.4532 193.13C38.4584 194.594 43.4428 195.141 46.5313 194.37C49.7084 193.568 52.1459 193.969 52.1459 195.312C52.1459 196.62 51.1355 197.719 49.9584 197.719C48.7813 197.719 46.3074 198.26 44.4897 198.958C42.6719 199.656 38.6928 198.005 35.599 195.312L29.9845 190.432ZM55.5678 196.188C56.099 196.266 56.8803 196.812 57.974 197.719C60.5834 199.88 61.474 199.917 61.474 197.865C61.474 196.349 62.6199 195.859 64.099 196.771C65.9584 197.922 65.474 199.406 62.4949 201.578C56.4844 205.969 54.474 205.495 54.474 199.76C54.474 197.177 54.6876 196.057 55.5678 196.188ZM90.7032 204.714C92.7032 204.714 93.7553 205.76 92.9636 207.042C91.099 210.062 87.1303 210.062 87.1303 207.042C87.1303 205.76 88.7032 204.714 90.7032 204.714ZM35.8178 242.016C37.099 242.016 38.1459 247.26 38.1459 253.672C38.1459 265.49 37.7969 266.505 35.0157 263.724C32.5313 261.24 33.2449 242.016 35.8178 242.016ZM18.0313 273.12C18.8647 272.979 19.4897 273.49 19.4897 274.505C19.4897 275.865 18.4376 276.984 17.1563 276.984C14.1667 276.984 14.1667 275.333 17.1563 273.484C17.474 273.286 17.7501 273.167 18.0313 273.12ZM36.8386 278.078C36.9688 278.062 37.1876 278.266 37.349 278.656C37.9844 280.234 38.0105 283.385 37.4219 285.651C36.8282 287.922 36.3022 286.656 36.2553 282.812C36.2188 279.927 36.4324 278.115 36.8386 278.078ZM7.82298 279.312C9.10944 279.312 10.1563 279.771 10.1563 280.333C10.1563 280.901 9.10944 282.021 7.82298 282.812C6.54173 283.604 5.48965 283.151 5.48965 281.792C5.48965 280.432 6.54173 279.312 7.82298 279.312ZM-3.83847 283.979C-2.55722 283.979 -1.50514 284.432 -1.50514 284.995C-1.50514 285.562 -2.55722 286.682 -3.83847 287.474C-5.11972 288.266 -6.17181 287.812 -6.17181 286.453C-6.17181 285.094 -5.11972 283.979 -3.83847 283.979ZM-52.3801 284.052C-50.7864 284.208 -48.8072 285.26 -47.2812 287.182C-42.552 293.135 -34.7135 293.927 -30.3697 288.859C-26.526 284.37 -21.0416 284.312 -23.8072 288.786C-24.5468 289.979 -23.5468 290.969 -21.6249 290.969C-19.6978 290.969 -17.4583 289.922 -16.6666 288.641C-14.7812 285.594 -10.8333 285.578 -10.8333 288.641C-10.8333 289.953 -13.7187 292.167 -17.2499 293.521C-20.776 294.875 -29.6614 296.505 -36.9322 297.161C-48.5051 298.214 -50.4531 297.812 -52.6718 293.667C-54.0676 291.062 -55.151 287.823 -55.151 286.453C-55.151 284.682 -53.9791 283.891 -52.3801 284.052ZM161.625 407.536C162.984 407.536 164.104 408.583 164.104 409.865C164.104 412.854 162.453 412.854 160.604 409.865C159.813 408.583 160.266 407.536 161.625 407.536ZM-33.3593 435.51C-31.9322 435.51 -34.6926 437.609 -39.4791 440.172C-47.9531 444.708 -52.8229 445.974 -52.8229 443.672C-52.8229 442.224 -36.802 435.51 -33.3593 435.51ZM168.042 535.099C170.609 535.083 173.167 535.354 174.745 535.974C177.932 537.219 176.365 537.75 169.354 537.87C163.901 537.958 159.438 537.63 159.438 537.141C159.438 535.901 163.755 535.125 168.042 535.099ZM220.229 547.703C221.042 547.672 222.01 547.802 222.854 548.141C224.714 548.885 224.115 549.411 221.396 549.526C218.938 549.625 217.563 549.062 218.333 548.286C218.724 547.901 219.422 547.734 220.229 547.703ZM220.813 605.766C220.917 605.734 221.089 605.766 221.25 605.766C222.537 605.766 225.156 606.781 227.083 608.026C229.005 609.266 229.531 610.281 228.25 610.281C226.964 610.281 224.344 609.266 222.417 608.026C220.734 606.938 220.083 605.979 220.813 605.766ZM-185.49 699.964C-184.385 699.797 -184.073 700.281 -184.687 701.276C-185.469 702.542 -187.052 703.604 -188.255 703.604C-191.615 703.604 -190.911 701.875 -186.875 700.328C-186.354 700.13 -185.854 700.016 -185.49 699.964ZM-147.802 720L-142.484 725.682L-137.234 731.365L-133.224 725.245C-129.578 719.677 -129.073 719.568 -126.958 723.349C-125.219 726.453 -124.156 726.703 -122.802 724.516C-121.521 722.438 -120.573 723.021 -119.448 726.552C-117.854 731.573 -113.474 733.562 -113.474 729.25C-113.474 727.969 -110.583 726.911 -107.057 726.917H-100.646L-107.641 730.635C-112.151 733.01 -118.187 733.88 -124.552 733.182C-129.979 732.589 -133.849 733.083 -133.151 734.203C-131.312 737.177 -134.792 736.635 -141.974 732.891C-145.635 730.984 -148.531 730.557 -148.969 731.875C-149.385 733.115 -151.635 733.406 -153.927 732.526C-157.797 731.042 -157.693 730.557 -152.906 725.464L-147.802 720ZM-93.5728 722.547C-93.0833 722.542 -92.6093 722.552 -92.1874 722.693C-90.4426 723.276 -91.5103 724.344 -94.6666 725.172C-98.5468 726.182 -99.4583 725.88 -97.7291 724.151C-96.7083 723.135 -95.0468 722.557 -93.5728 722.547ZM-117.26 818.641C-116.427 818.5 -115.802 819.005 -115.802 820.026C-115.802 821.38 -116.854 822.5 -118.135 822.5C-121.125 822.5 -121.125 820.849 -118.135 819.005C-117.818 818.807 -117.542 818.688 -117.26 818.641Z" fill="#001223"/>
</g>
</svg>
