<svg width="360" height="868" viewBox="0 0 360 868" fill="none" xmlns="http://www.w3.org/2000/svg">
<mask id="mask0_897_10696" style="mask-type:luminance" maskUnits="userSpaceOnUse" x="0" y="-59" width="528" height="905">
<path d="M0 -59H528V846H0V-59Z" fill="white"/>
</mask>
<g mask="url(#mask0_897_10696)">
<path d="M240.823 -59L240.531 -53.3177C240.406 -50.1927 240.146 -40.7604 239.948 -32.3385L239.656 -17.0365L231.057 -25.9271C221.114 -36.2708 219.786 -36.6823 219.833 -29.5677C219.849 -26.6823 223.906 -19.9115 228.797 -14.4896C236.635 -5.80729 237.734 -3.07291 238.203 8.45834C238.552 17.1667 237.87 21.0573 236.234 20.0417C234.88 19.2083 233.828 17.0104 233.828 15.1615C233.828 13.3125 232.776 11.8125 231.495 11.8125C230.213 11.8125 229.161 7.75 229.161 2.77604C229.161 -7.56771 223.291 -14.8021 219.614 -9.02604C218.443 -7.18229 217.958 -4.44271 218.521 -2.90625C219.76 0.489586 213.052 -1.72396 208.536 -6.18229C206.838 -7.85937 204.104 -9.17188 202.411 -9.17188C196.104 -9.17188 197.135 -2.59375 204.818 6.20312C213.953 16.6615 214.448 18.75 208.385 20.3333C205.411 21.1146 204.39 22.9219 205.182 25.9427C206.495 30.9635 212.75 31.8542 216.989 27.6198C220.166 24.4479 220.245 24.6146 220.781 33.375C221.224 40.6875 220.823 40.8542 212.833 36.2917C205.015 31.8229 203.505 31.9323 203.505 37.2396C203.505 39.7083 206.916 44.3958 211.083 47.6562C216.771 52.1042 217.406 53.2813 213.708 52.3177C210.489 51.4792 208.291 52.3125 207.37 54.724C205.359 59.9531 203.734 59.5208 188.198 49.4062C180.573 44.4375 173.182 40.7865 171.797 41.3177C166.943 43.1771 170.026 52.0729 176.828 55.8125L183.677 59.5312L177.411 60.2604C173.989 60.6667 170.646 62.4479 169.974 64.1927C168.666 67.599 174.5 70.9427 177.995 68.7812C179.161 68.0625 180.177 68.5885 180.177 69.9479C180.177 71.3073 182.015 72.4688 184.26 72.5729C187.224 72.7031 187.432 73.0885 185.062 74.026C182.588 75.0052 183.078 76.3281 187.177 79.4167L192.646 83.5L182.875 85.1771C172.828 86.8698 170.536 90.6198 176.536 95.5938C178.797 97.4688 181.177 97.6562 183.823 96.1771C188.224 93.7135 196.505 95.0885 196.505 98.2865C196.505 99.4219 198.604 100.401 201.172 100.401C203.739 100.401 205.838 99.3542 205.838 98.0677C205.838 96.7865 208.198 95.7708 211.083 95.8125L216.333 95.8854L210.573 100.62C206.099 104.339 205.547 105.792 208.026 107.323C211.526 109.484 217.573 107.901 220.562 104.042C221.64 102.646 221.927 104.396 221.146 107.979C219.979 113.318 220.5 114.391 224.422 114.391C227.015 114.391 229.208 113.078 229.307 111.474C229.432 109.484 229.88 109.609 230.765 111.839C231.708 114.224 232.89 113.573 235.068 109.505L238.057 103.896L240.969 110.307C242.573 113.828 243.146 117.458 242.208 118.396C241.271 119.333 232.911 120.474 223.62 120.948C208.078 121.729 205.828 121.26 195.557 114.755C185.338 108.271 177.849 107.188 177.849 112.203C177.849 113.307 180.734 115.88 184.26 117.885L190.677 121.526L182.51 120C174.437 118.521 160.849 111.526 154.885 105.719C153.193 104.068 149.781 102.734 147.307 102.734C142.552 102.734 141.318 107.24 145.047 110.964C146.443 112.365 142.859 113.49 135.276 113.953C128.677 114.354 122.385 115.208 121.354 115.844C113.687 120.583 132.583 129.188 146.286 127.208L155.687 125.901L149.13 129.615C145.156 131.87 142.823 134.885 143.297 137.266C144.432 142.964 154.51 141.052 160.937 133.911C163.927 130.589 167.969 128.411 170.265 128.958C173.484 129.724 173.068 130.5 168.151 132.531C160.208 135.807 157.802 139.646 162.614 141.49C164.693 142.286 165.87 144.281 165.234 145.932C164.604 147.583 165.651 149.526 167.495 150.234C169.338 150.938 170.849 150.594 170.849 149.505C170.849 147.599 178.385 144.333 184.041 143.75C185.531 143.594 188.943 141.438 191.625 139.01C194.307 136.589 196.505 135.385 196.505 136.318C196.505 138.74 191.411 143.495 185.354 146.734C182.495 148.266 180.182 150.557 180.177 151.833C180.177 156.234 187.359 156.917 191.771 152.927C195.979 149.12 196.12 149.156 194.906 153.802C193.125 160.604 197.896 159.927 202.63 152.708C205.588 148.193 207.041 147.484 208.536 149.797C210.156 152.302 210.818 152.281 212.469 149.724C213.578 148.01 216.463 146.865 218.885 147.172C228.297 148.37 240.672 139.958 241.041 132.094C241.245 127.849 241.479 127.974 242.937 133.036C244.328 137.849 243.182 140.188 236.307 146.37C231.724 150.49 221.505 157.266 213.562 161.453L199.13 169.026L187.906 163.417C181.734 160.339 175.37 157.604 173.765 157.297C169.604 156.51 170.166 161.01 174.932 166.625C178.604 170.948 178.583 171.068 175.005 168.302C172.818 166.609 170.135 165.792 169.026 166.479C167.916 167.167 164.083 166.224 160.5 164.365C151.906 159.911 149.229 160.13 150.807 165.094C151.849 168.385 150.755 169.125 145.12 168.953C141.276 168.844 137.588 168.135 136.88 167.427C134.041 164.589 126.531 168.766 126.531 173.182C126.531 176.766 127.666 177.583 131.416 176.604C136.099 175.38 136.13 175.49 132.219 179.812C127.995 184.474 128.687 185.115 137.536 184.401C141.609 184.073 142.453 184.859 141.255 187.969C139.995 191.255 140.802 191.807 145.63 190.885C150.458 189.964 151.286 190.51 150.37 194.016C149.12 198.781 150.599 199.292 156.416 196.203C162.135 193.167 169.354 202.812 164.656 207.203C162.021 209.661 161.224 209.562 160.208 206.911C159.51 205.094 155.375 203.589 150.807 203.417C146.323 203.245 143.182 204.036 143.88 205.161C144.578 206.286 143.094 206.635 140.526 205.964C134.635 204.427 134.453 207.964 140.234 211.573C143.297 213.484 144.245 216.052 143.443 220.245C142.031 227.62 141.677 227.682 133.094 220.464C129.281 217.255 124.64 214.635 122.812 214.635C118.906 214.635 118.708 215.776 121.724 221.411C124.172 225.979 122.635 226.089 104.958 222.719C99.1977 221.62 96.2082 221.927 96.2082 223.594C96.2082 226.615 108.323 233.286 113.849 233.286C117.036 233.286 117.224 233.87 114.87 236.708C112.552 239.5 112.635 240.464 115.38 241.516C117.255 242.234 119.765 242.604 120.922 242.391C125.791 241.479 128.828 242.802 128.281 245.526C127.922 247.312 130.177 248.37 134.114 248.292C139.047 248.193 140.541 249.266 140.599 252.953C140.677 257.557 140.859 257.51 145.265 252.224C148.906 247.859 149.859 247.531 149.859 250.625C149.859 252.766 150.906 253.896 152.187 253.099C153.474 252.307 155.521 254.375 156.781 257.688C158.041 261.005 160.672 264.302 162.614 265.047C164.557 265.792 166.187 267.849 166.187 269.635C166.182 271.422 167.87 272.917 169.974 272.917C172.078 272.917 175.125 274.698 176.755 276.922C179.547 280.74 180.062 280.708 185.208 276.339L190.677 271.75L186.521 276.63C184.01 279.609 176.234 283.005 166.406 285.375C145.864 290.328 140.901 290.172 132.51 284.646C124.739 279.526 120.948 280.474 123.036 287.047C124.208 290.74 123.312 291.568 117.786 291.568C114.109 291.568 110.036 290.521 108.75 289.234C107.182 287.667 104.911 287.974 101.896 290.182C97.5675 293.349 97.6717 293.641 104.885 297.76C110.323 300.865 112.047 303.224 111.078 306.281C110.219 309.01 110.89 310.344 112.901 310.073C119.656 309.151 122.276 310.302 120.995 313.641C118.755 319.469 127.271 322.25 133.75 317.792C138 314.87 138.625 314.729 136.521 317.354C132.578 322.26 136.37 327.385 142.495 325.443C151.328 322.641 153.708 327.125 145.047 330.25C133.922 334.271 122.823 334.188 118.661 330.031C114.062 325.432 106.916 325.375 108.677 329.958C109.765 332.797 108.14 333.172 99.5623 332C87.0154 330.281 85.4425 334.156 97.0154 338.339C102.625 340.365 104.609 342.339 103.864 345.188C102.62 349.948 109.984 352.594 115.672 349.411C118.765 347.682 119.536 348.354 119.536 352.979C119.536 357.708 120.39 358.516 124.568 357.422C128.693 356.344 129.291 356.807 127.989 360.193C126.719 363.51 127.37 364.161 131.125 363.177C133.713 362.505 135.864 362.891 135.864 364.052C135.864 368.141 140.797 366.089 147.015 359.464C154.505 351.479 158.943 349.719 164.437 352.542C170.828 355.828 169.229 358.479 161.521 357.349C153.489 356.172 152.307 359.724 158.094 367.99C161.484 372.823 161.469 373.161 157.151 373.161C154.599 373.161 150.911 374.734 148.984 376.656C147.062 378.578 143.927 380.156 141.989 380.156C140.047 380.156 137.849 381.135 137.104 382.339C136.359 383.542 131.666 384.448 126.677 384.38C121.693 384.312 116.255 385.094 114.578 386.13C112.906 387.161 108.135 387.792 104.01 387.51C97.8019 387.094 96.3957 387.927 95.7759 392.318C95.2342 396.141 93.4113 397.677 89.2134 397.859C86.005 397.995 82.3332 398.401 81.0519 398.729C79.7654 399.062 76.88 399.104 74.6352 398.875C72.3904 398.651 70.5519 399.396 70.5519 400.479C70.5519 403.568 83.4634 410.458 89.2863 410.458C94.3904 410.458 94.4842 410.594 90.38 415.125C86.2602 419.672 86.3019 419.786 92.2759 419.786C96.8436 419.786 98.0519 420.656 97.0102 423.354C95.88 426.302 96.8644 426.688 102.333 425.396C106.026 424.526 109.562 423.854 110.208 423.865C117.479 424.005 119.172 424.807 118.078 427.651C115.64 434 121.682 433.818 125.151 427.432C128.448 421.354 128.63 421.276 128.719 426.198C128.771 429.083 129.651 431.521 130.614 431.661C144.87 433.745 147.208 433.052 150.078 426.125L152.995 419.13L155.036 424.667L157.073 430.276L161.594 424.448C166.068 418.63 166.062 418.62 166.114 423.865C166.182 430.938 170.344 430.536 172.161 423.281C172.969 420.078 174.661 417.453 175.88 417.453C177.099 417.453 177.344 418.583 176.463 420.005C175.349 421.807 177.156 422.109 182.443 420.953C188.052 419.719 189.802 420 189.073 422.188C187.64 426.484 173.031 433.771 165.823 433.771C162.411 433.771 159.146 435.083 158.531 436.688C157.844 438.479 153.286 439.495 146.651 439.38C140.713 439.281 135.864 440.01 135.864 440.984C135.864 445.474 143.958 450.328 150.37 449.656C154.177 449.255 157.469 449.849 157.656 451.042C158.276 454.922 144.604 457.104 111.37 458.396C73.9217 459.854 58.8904 461.49 58.8904 464.005C58.8904 464.974 56.2654 465.276 53.0571 464.661C49.7446 464.031 47.229 464.615 47.229 466.047C47.229 469.312 54.8488 473.406 61.005 473.406C63.6561 473.406 65.8852 474.453 65.8852 475.734C65.8852 477.016 64.7446 478.068 63.4113 478.068C62.0727 478.068 58.6613 480.234 55.8279 482.948L50.7238 487.901L58.3071 486.88C63.3227 486.198 65.8852 486.802 65.8852 488.703C65.8852 490.432 67.7498 491.109 70.5519 490.38C73.1613 489.698 75.2186 490.307 75.2186 491.766C75.2186 495.526 81.1509 494.979 84.5467 490.891C86.1457 488.964 88.4738 487.391 89.7967 487.391C91.1196 487.391 90.5363 489.271 88.4113 491.62C86.2863 493.964 84.5467 496.583 84.5467 497.448C84.5467 499.917 93.4425 499.307 95.0467 496.719C97.354 492.984 100.443 494.01 102.041 499.047C103.916 504.948 106.578 504.911 115.015 498.901L121.797 494.094L120.338 501.234C118.583 510.01 122.818 510.719 132.291 503.276C138.515 498.38 138.687 498.385 136.229 502.984C133.328 508.396 134.724 510.964 139.583 509.104C141.396 508.406 144.453 509.12 146.359 510.703C148.771 512.703 149.859 512.812 149.859 510.995C149.859 509.557 151.432 508.375 153.359 508.375C155.281 508.375 156.854 509.818 156.854 511.651C156.854 513.917 158.922 514.766 163.271 514.276C187.552 511.526 156.146 525.641 127.916 530.156C109.463 533.109 107.609 532.995 101.531 528.99C97.9373 526.625 93.7342 524.703 92.13 524.693C87.3071 524.667 88.8436 529.333 94.4634 531.76C98.3175 533.422 96.9217 533.599 89.2134 532.417C83.4425 531.526 76.0936 530.943 72.8852 531.104C69.6821 531.266 61.8488 529.88 55.5363 528.042C49.229 526.208 43.7134 525.005 43.2915 525.422C40.8592 527.854 55.7915 537.469 64.1404 538.823L74.0519 540.427L65.3071 540.719C59.2134 540.922 56.5571 542.073 56.5571 544.51C56.5571 546.432 58.3956 548.172 60.6404 548.37C62.8852 548.562 65.7706 548.943 67.0571 549.245C68.3384 549.542 70.8904 549.896 72.7394 550.047C75.2134 550.245 74.9061 551.182 71.5727 553.615C65.8123 557.828 68.5467 560.854 74.9998 557.401C79.0154 555.255 79.8852 555.479 79.8852 558.641C79.8852 561.63 81.5519 562.24 87.4634 561.411C91.6352 560.823 97.1457 559.583 99.7134 558.641C104.307 556.953 104.245 556.974 99.7863 560.609C95.2394 564.307 96.2134 565.167 103.791 564.396C106.114 564.161 107.875 565.599 107.875 567.677C107.875 572.661 109.765 572.25 115.312 566.073L120.047 560.828L116.255 567.167C114.193 570.646 112.541 574.552 112.541 575.906C112.541 579.51 123.984 576.849 129.453 571.974C134.031 567.885 134.068 567.964 132.291 573.651C129.828 581.552 126.963 583.219 105.469 589.677C87.6144 595.036 86.5363 595.104 76.8957 591.427C66.3852 587.411 51.8956 586.271 51.8956 589.458C51.8956 590.484 53.1144 592.646 54.6613 594.193C56.5571 596.089 53.4373 595.792 45.1144 593.318C38.3071 591.297 31.1404 590.224 29.1509 590.99C26.104 592.156 26.38 593.318 30.9009 598.125L36.2238 603.807L28.3488 601.552C18.2029 598.641 5.87481 598.646 4.07793 601.552C2.22376 604.547 17.8227 610.932 27.0363 610.948H34.4009L27.5467 616.411C20.7863 621.823 20.8488 628.917 27.6196 626.323C29.8748 625.458 30.9009 626.865 30.9009 630.839C30.9009 634.969 32.1196 636.594 35.3488 636.594C37.8227 636.594 41.4738 638.198 43.4373 640.161C46.4061 643.13 47.8019 643.208 51.7498 640.745C54.3644 639.115 56.5571 636.984 56.5571 636.01C56.5571 635.036 58.3956 636.099 60.7134 638.344C65.1821 642.667 66.4529 648.25 62.9738 648.25C61.8279 648.25 61.6561 649.38 62.5363 650.797C63.6456 652.594 61.9165 652.932 56.8488 651.818C52.1977 650.797 49.5623 651.089 49.5623 652.693C49.5623 654.12 45.0206 655.245 39.0623 655.245C28.1352 655.245 26.0727 657.266 32.0675 662.24C34.4009 664.177 39.3384 664.688 46.6456 663.766L57.7238 662.385L49.0519 666.974C43.0259 670.167 40.7967 672.693 41.7602 675.203C42.63 677.464 44.5727 678.224 46.9373 677.245C49.0154 676.385 52.3019 675.443 54.2238 675.13C56.1509 674.823 56.4113 675.016 54.8071 675.568C48.9009 677.599 51.9529 681.344 58.3071 679.87C62.9009 678.802 63.7498 679.042 61.2967 680.667C55.1248 684.76 60.604 685.948 68.005 682.125C71.9686 680.073 75.2186 679.385 75.2186 680.594C75.2186 681.802 73.9061 683.302 72.3019 683.875C70.6977 684.448 70.1977 685.781 71.2081 686.859C72.2186 687.943 76.0363 687.677 79.7394 686.276C85.255 684.198 86.3019 684.339 85.2759 687.005C84.3748 689.354 85.2082 689.786 88.3384 688.682C91.979 687.396 92.2134 687.698 89.6509 690.432C87.2654 692.974 79.2342 693.589 52.9165 693.198C32.5467 692.901 19.2394 693.594 19.2394 694.948C19.2394 696.182 20.8644 697.208 22.88 697.208C24.8956 697.208 28.005 698.688 29.8071 700.484C32.6144 703.292 32.5571 703.953 29.4425 705.146C27.4477 705.911 22.4998 706.51 18.4373 706.531C9.86439 706.573 3.98418 709.609 6.04147 712.943C8.58835 717.057 20.1665 717.807 29.7342 714.474C42.4894 710.026 43.1821 710.281 36.5831 716.875C28.3592 725.099 28.9581 730.052 37.8227 727.51C41.63 726.422 45.8279 724.833 47.1561 724.016C48.479 723.198 49.6561 724.464 49.8488 726.781C50.0467 729.104 50.3644 732.193 50.505 733.703C50.6509 735.219 51.4738 737.219 52.3279 738.078C54.1665 739.911 68.2186 732.052 68.2186 729.188C68.2186 728.104 69.1717 727.844 70.4061 728.604C71.8436 729.495 71.8436 732.115 70.4061 735.891C69.1717 739.135 68.2186 742.839 68.2186 744.125C68.2186 747.203 79.2446 739.229 90.3071 728.167C98.5571 719.917 99.7394 721.328 92.0571 730.281C90.1717 732.479 89.3279 736.057 90.1613 738.219C91.4998 741.714 92.2707 741.516 97.5936 736.547L103.646 731.01L102.844 736.839C102.104 742.188 100.515 742.891 83.38 745.724C71.3384 747.719 63.4581 748.021 61.1509 746.599C55.3019 742.99 42.5623 740.849 42.5623 743.469C42.5623 744.76 44.4009 746.318 46.6456 746.891C48.8904 747.464 45.479 747.453 39.0623 746.891C29.6873 746.068 27.9738 746.422 30.3175 748.786C34.7759 753.286 33.7759 754.958 27.4009 753.74C19.8592 752.297 9.28106 754.99 11.0727 757.891C11.8436 759.135 14.8592 760.151 17.7811 760.151C27.7498 760.151 26.3488 763.359 14.2081 768.234C-6.48978 776.552 -1.97415 782.734 19.3071 775.229C30.0831 771.432 34.2915 772.089 26.38 776.323C23.7029 777.755 21.5675 780.573 21.5675 782.589C21.5675 785.401 22.9842 785.901 27.7654 784.703C33.2706 783.318 33.6821 783.547 30.9738 786.812C24.6873 794.385 31.354 794.401 41.7602 786.812C46.6196 783.271 46.8123 783.307 45.479 788.49C44.2238 793.349 44.4738 793.589 48.0311 790.677C51.5363 787.797 51.7759 787.932 50.3592 791.839C48.9686 795.698 49.5154 795.578 54.5884 790.969C60.5311 785.568 64.1873 786.021 61.9529 791.839C60.1665 796.479 65.7602 795.865 74.6352 790.458C78.8592 787.88 82.2134 786.995 82.2134 788.417C82.2134 789.995 84.6561 790.406 88.63 789.51C92.9686 788.526 93.9113 788.734 91.5467 790.167C89.6196 791.328 82.2707 793.448 75.2186 794.901C60.0259 798.031 55.3071 800.583 57.6509 804.37C59.2602 806.974 62.3956 806.688 76.3852 802.911C79.9582 801.948 79.2759 803.432 73.4686 809.031C69.2967 813.057 65.8852 816.839 65.8852 817.484C65.8852 819.802 78.854 816.922 86.2967 812.969C94.4738 808.62 95.729 809.953 90.3071 817.12C85.5675 823.38 86.0259 826.141 91.5467 824.698C94.5779 823.906 96.2082 824.677 96.2082 826.807C96.2082 831.172 98.3436 830.932 103.791 826.01C108.094 822.115 108.291 822.141 107.51 826.589C106.26 833.703 119.203 831.557 126.094 823.531L131.489 817.266L129.958 824.844C127.932 834.87 133.786 835.13 142.859 825.427C146.458 821.578 149.703 818.432 150.151 818.432C150.599 818.432 151.125 821.146 151.318 824.479C151.849 833.646 155.646 836.12 160.5 830.453C164.333 825.979 164.88 825.891 167.719 829.578C170.526 833.224 170.838 833.172 172.161 828.484C173.015 825.453 174.864 823.901 176.755 824.625C178.765 825.396 180.495 823.568 181.495 819.599C182.573 815.292 183.661 814.208 184.916 816.245C185.927 817.875 188.932 819.552 191.625 819.964C195.422 820.542 197.656 818.411 201.609 810.271C206.719 799.76 212.114 795.703 209.338 804.443C207.547 810.089 208.896 810.24 216.406 805.318C219.568 803.25 222.234 799.312 222.385 796.578C222.599 792.594 222.911 792.417 223.771 795.703C225.541 802.495 229.161 797.776 229.234 788.562C229.297 781.589 229.713 780.74 231.64 784.047C232.948 786.292 236.203 788.125 238.859 788.125C243.453 788.125 243.635 788.979 242.14 806.193C241.094 818.224 238.646 828.036 234.849 835.552C232.625 839.953 230.76 843.875 229.818 846.042H287.844C290.411 843.984 289.255 840.37 286.604 834.021C282.463 824.13 280.87 803.927 284.125 802.844C285.396 802.417 288.255 805.177 290.536 809.036C294.792 816.229 300.015 818.88 297.609 812.604C294.854 805.427 299.193 809.359 302.349 816.901C304.864 822.922 306.88 824.724 311.094 824.406C314.114 824.182 318.099 825.089 319.911 826.448C322.276 828.214 323.474 828.141 324.14 826.156C324.76 824.318 326.604 824.906 329.609 827.901C335.609 833.906 338.599 833.615 337.187 827.177C336.515 824.109 336.849 822.943 337.989 824.406C340.677 827.854 348.12 830.359 348.12 827.833C348.12 825.479 360.995 826.312 367.729 829.068C371.276 830.521 371.927 830.062 370.792 827.104C370 825.042 370.573 822.932 372.104 822.365C374.229 821.583 374.255 820.573 372.031 818.214C366.734 812.604 368.927 811.88 377.64 816.323C387.276 821.229 389.963 820.51 385.297 814.354C382.802 811.062 382.765 810.797 385.224 812.969C386.922 814.474 389.724 815.177 391.489 814.5C393.26 813.823 394.771 814.198 394.771 815.375C394.771 816.547 396.193 819.49 397.979 821.932C400.776 825.755 401.802 825.922 405.125 823.167C408.469 820.391 409.411 820.729 412.703 825.427L416.495 830.818L418.609 825.208C420.557 819.995 420.917 819.896 423.708 823.677C427.401 828.682 429.052 828.755 433.625 824.188C436.469 821.349 436.625 819.932 434.354 817.193C432.786 815.307 432.198 813.771 433.042 813.771C433.885 813.771 433.364 811.411 431.875 808.526C429.609 804.135 430.458 804.391 437.047 810.349C451.562 823.464 452.521 823.948 456.656 819.818C458.719 817.76 459.578 814.812 458.625 813.188C457.651 811.521 458.849 811.802 461.396 813.844C473.724 823.74 486.208 825.688 477.797 816.396C473.995 812.198 474.125 811.87 480.198 810.349L486.542 808.745L479.693 803.208C470.729 795.885 475.521 795.87 488.364 803.208C493.948 806.396 499.88 809.021 501.484 809.036C506.193 809.078 504.833 805.365 499.151 802.625C494.427 800.349 494.786 800.073 503.307 799.927C508.515 799.844 514.812 798.24 517.302 796.359C521.609 793.104 521.552 792.938 514.896 792.865C504.906 792.75 469.38 786.286 461.979 783.245C452.911 779.521 451.193 773.818 460.156 777.198C468.015 780.167 471.989 777.714 466.203 773.484C462.844 771.026 463.927 770.734 472.838 771.443C484.213 772.349 486.635 769.484 478.156 765.177C473.62 762.87 474.385 762.583 484.281 763.068C497.63 763.719 501.396 759.333 489.896 756.51L482.239 754.615L489.823 753.74C498.698 752.682 499.479 750.281 492.156 746.526C487.864 744.333 489.682 744.031 502.068 745.073C516.026 746.24 516.807 746.057 512.635 742.74C510.146 740.76 506.281 739.172 504.036 739.172C501.792 739.172 499.281 738.01 498.422 736.62C497.443 735.031 498.906 734.219 502.359 734.505C512.104 735.318 518.396 734.552 518.396 732.469C518.396 731.349 511 729.714 501.995 728.823C492.989 727.938 486.12 726.365 486.76 725.328C487.401 724.292 494.125 722.057 501.703 720.375C516 717.203 525.052 712.458 522.187 709.594C520.719 708.125 507.739 710.24 490.406 714.839C485.078 716.25 485.213 715.812 492.521 709.521C504.536 699.167 497.755 698.099 480.417 707.625C463.01 717.188 453.042 717.969 433.765 711.339C411.896 703.818 376.417 685.818 373.776 680.891C370.51 674.781 372.364 674.964 378.297 681.328C380.911 684.13 383.109 685.573 383.109 684.531C383.109 683.49 384.682 683.953 386.604 685.552C389.5 687.948 390.104 687.724 390.104 684.24C390.104 680.729 391.297 681.161 397.396 686.865L404.682 693.714L403.297 686.208C401.901 678.807 401.995 678.734 408.255 681.401C411.739 682.885 416.172 685.307 418.094 686.792C427.14 693.75 428.187 693.594 426.552 685.406C425.312 679.219 425.557 678.146 427.792 680.38C431.849 684.438 441.422 683.974 441.422 679.724C441.422 675.38 445.187 675.161 447.687 679.359C448.713 681.083 452.474 684.297 456 686.573C461.292 689.979 462.411 690.109 462.411 687.302C462.411 685.427 460.312 682.047 457.75 679.724C455.182 677.401 453.083 674.391 453.083 673.094C453.083 671.797 453.677 671.427 454.469 672.219C455.26 673.016 457.568 672.036 459.573 670.036C462.094 667.51 465.885 666.745 471.963 667.557C478.005 668.37 481.12 667.75 481.948 665.589C482.864 663.208 484.984 662.964 490.844 664.646C511.411 670.542 515.198 663.818 495.359 656.63C481.948 651.771 480.25 649.312 492.807 652.911C508.765 657.49 529.526 654.026 520.729 648.25C518.802 646.99 512.505 645.802 506.734 645.63C497.818 645.365 497.234 645.13 503.015 643.88C506.755 643.068 510.286 640.943 510.885 639.146C511.797 636.411 508.114 636.104 488.292 637.469C464.948 639.078 464.573 639.078 467.443 634.484C471.713 627.646 468.781 626.464 457.167 630.401C450.885 632.531 442.828 633.427 436.536 632.661C423.052 631.016 378.437 616.073 373.198 611.464C367.719 606.641 368.026 603.297 373.781 605.125C376.396 605.953 378.443 605.531 378.443 604.177C378.443 601.646 381.937 602.375 393.604 607.453C397.453 609.13 405.901 610.552 412.411 610.589C418.922 610.62 425.219 610.87 426.406 611.099C431.864 612.141 432.443 610.547 428.375 605.703C425.448 602.224 426.364 602.615 431.073 606.87C439.14 614.167 441.422 614.776 441.422 609.714C441.422 606.635 442.172 606.656 447.401 610.078C450.917 612.38 454.073 613.104 454.979 611.823C455.833 610.62 459.672 608.271 463.505 606.578C470.203 603.63 470.312 603.401 465.984 600.24C460.703 596.38 462.047 596.062 470.359 599.224C474.875 600.938 476.411 600.776 476.411 598.495C476.411 596.651 482.328 594.229 491.573 592.302C499.911 590.562 506.734 588.188 506.734 587.057C506.734 585.927 507.719 585.688 508.989 586.474C510.265 587.26 513.167 586.849 515.406 585.599C518.963 583.609 518.641 583.078 513 581.667C508.135 580.443 506.89 579.016 507.901 575.839C508.89 572.719 507.849 571.464 503.89 570.88C500.114 570.328 502.797 568.688 513.073 565.417C529.005 560.349 532.937 555.76 518.979 558.495C506.088 561.026 474.078 561.599 474.078 559.297C474.078 558.208 475.125 557.333 476.411 557.333C477.693 557.333 478.739 556.271 478.739 555C478.739 553.729 473.755 552.766 467.661 552.885C452.359 553.198 427.89 548.083 426.406 544.219C425.568 542.042 427.078 541.01 430.995 541.01C434.167 541.01 436.755 539.995 436.755 538.755C436.755 537.51 438.328 537.068 440.255 537.807C442.177 538.547 443.755 537.917 443.755 536.422C443.755 534.635 445.51 534.979 448.927 537.37C451.781 539.365 456.765 540.984 460.01 540.938L465.911 540.865L460.521 536.349L455.198 531.906L466.349 531.177L477.573 530.375L469.411 526.443L461.245 522.51L468.39 522.438C472.943 522.375 477.599 520.234 481.073 516.536C484.088 513.328 487.625 510.708 489.021 510.708C490.411 510.708 492.937 508.562 494.557 505.969C498.823 499.146 493.39 497.776 479.979 502.328C465.515 507.234 462.521 507.099 464.015 501.38C465.489 495.75 465.104 495.719 450.458 500.505C439.318 504.151 438.156 504.042 420.354 498.979C396.349 492.146 390.193 485.745 408.693 486.812C410.599 486.922 412.89 485.865 413.797 484.406C414.943 482.552 416.875 482.984 420.135 485.938C423.792 489.245 426.849 489.812 434.276 488.557C444.88 486.771 445.536 485.885 439.672 481.057C435.479 477.599 437.026 477.708 447.031 481.714C450.62 483.146 451.219 482.714 450.021 479.599C448.917 476.724 449.807 475.74 453.375 475.74C456.625 475.74 457.807 474.63 456.948 472.385C456.239 470.547 456.875 468.51 458.406 467.87C460.359 467.047 460.094 465.714 457.385 463.5C453.844 460.604 453.984 459.927 459.135 454.974C467.536 446.891 465.974 445.203 453.667 449.146C423.057 458.958 411.833 459.542 404.318 451.552C400.062 447.021 399.812 445.786 402.64 444.703C404.542 443.974 409.245 444.547 413.14 446.016C423.109 449.776 425.239 446.026 416.932 439.312C411.104 434.604 410.713 433.729 414.599 434.068C422.755 434.771 427.427 433.844 427.427 431.443C427.427 430.161 425.588 429.047 423.344 428.964C420.036 428.849 420.156 428.391 424.146 426.781C426.854 425.688 429.698 423.156 430.489 421.099C431.734 417.854 431.271 417.708 426.771 420.224C418.635 424.776 370.021 424.078 359.781 419.276C352.625 415.917 352.245 415.438 357.083 415.271C361.505 415.12 362.406 414.146 361.385 410.245C360.239 405.87 360.495 405.703 364.01 408.714C369.12 413.089 376.109 415.536 376.109 412.938C376.109 411.818 378.208 411.396 380.776 412.062C383.385 412.745 385.443 412.135 385.443 410.682C385.443 409.25 388.062 408.13 391.271 408.13C399.026 408.13 398.64 405.812 389.667 398.443L382.161 392.323L394.625 394.286C407.479 396.318 412.156 395.474 409.713 391.521C407.323 387.656 413.594 382.484 420.646 382.484C428.594 382.484 429.693 378.635 422.177 377.021C419.198 376.38 420.458 375.974 425.094 376.146C430.401 376.349 433.052 375.516 432.672 373.672C432.354 372.109 433.203 370.828 434.64 370.828C436.401 370.828 436.312 369.641 434.276 367.188C432.349 364.859 429.068 363.932 425.239 364.708C421.937 365.385 420.573 365.406 422.177 364.708C427.562 362.37 425.177 358.635 419.26 360.12C414.531 361.307 413.802 360.849 415.036 357.646C416.135 354.776 415.656 354.255 413.359 355.677C411.635 356.74 407.552 357.807 404.245 358.078C400.943 358.354 395.646 359.302 392.437 360.193L386.609 361.797L393.021 356.333C400.432 349.974 401.51 346.25 394.917 349.776C388.411 353.255 383.635 352.964 387.265 349.339C392.5 344.104 390.432 339.979 385.078 344.969C382.338 347.516 376.838 351.151 372.828 353.052C358.578 359.812 320.13 350.609 320.13 340.448C320.13 338.417 318.828 335.505 317.286 333.969C315.417 332.094 315.364 331.198 317.068 331.198C318.469 331.198 320.193 332.771 320.932 334.693C321.786 336.917 325.114 338.078 329.969 337.901C334.177 337.745 339.984 338.417 342.87 339.359C347.182 340.766 348.12 340.141 348.12 336.151V331.344L356.062 336.005C361.776 339.375 364.489 339.984 365.687 338.047C366.604 336.562 365.922 334.354 364.156 333.167C361.385 331.302 375 331.552 384.276 333.531C385.557 333.802 388.989 333.234 391.927 332.292C396.854 330.708 396.943 330.234 393.531 326.464C390.104 322.682 390.292 322.302 395.792 320.927C402.531 319.234 403.87 314.87 397.687 314.734C395.114 314.677 396.193 313.479 400.599 311.453C404.448 309.688 410.682 305.693 414.448 302.568L421.229 296.885L412.703 295.281C407.974 294.396 404.099 292.672 404.099 291.422C404.099 290.109 401.385 289.771 397.687 290.693C392.083 292.089 391.588 291.88 394.187 288.724C398.693 283.26 391.979 281.589 385.073 286.469C381.844 288.75 374.828 290.448 368.094 290.547C358.906 290.682 357.594 290.224 361.604 288.432C366.14 286.411 366.588 284.51 364.594 275.615C364.5 275.188 360.896 277.021 356.573 279.693C352.255 282.359 345.167 284.516 340.828 284.5C326.286 284.453 301.255 274.771 285.359 263.01C279.239 258.479 280.536 257.542 287.62 261.333C291.292 263.297 292.156 262.974 292.213 259.583C292.281 255.609 292.396 255.568 294.693 259.51C296.015 261.781 298.042 263.073 299.208 262.354C300.38 261.63 303.984 262.781 307.229 264.901C313.062 268.724 313.099 268.667 313.13 262.062C313.151 258.385 313.937 256.573 314.88 257.984C316.922 261.036 325.734 265.922 329.239 265.922C330.609 265.922 331.885 263.562 332.01 260.677C332.229 255.698 332.292 255.729 333.833 261.26C334.724 264.464 335.948 266.604 336.531 266.068C337.114 265.531 339.776 266.25 342.432 267.672C346.375 269.781 347.864 269.438 350.453 265.849C352.198 263.432 354.526 262.036 355.63 262.719C356.729 263.396 356.901 261.245 356.062 257.906C354.609 252.104 354.807 251.932 360.948 254.266C368.531 257.146 370.89 255.719 366.781 250.771C364.323 247.812 364.568 247.271 368.021 247.271C371.948 247.271 371.89 247.026 368.094 242.828C365.885 240.391 365.073 237.812 366.271 237.073C367.463 236.333 370.276 237.776 372.536 240.276C376.094 244.203 378.38 244.557 387.406 242.755C387.885 242.661 387.161 241.198 385.734 239.479C382.698 235.823 384.495 233.286 390.177 233.286C392.385 233.286 396.698 231.219 399.729 228.693L405.265 224.104L398.271 223.667C394.422 223.427 388.698 223.458 385.588 223.74C380.656 224.188 380.281 223.76 382.963 220.536C388.062 214.391 384.474 214.411 375.453 220.536C365.677 227.177 359.786 228.333 364.448 222.719C366.911 219.75 366.776 219.38 363.573 220.609C359.12 222.318 358.474 219.146 362.479 215.146C368.453 209.172 362.114 210.068 354.755 216.24C340.255 228.38 338.474 228.766 322.099 223.812C304.927 218.62 293.411 212.135 289.953 205.672C287.833 201.719 288.318 201.156 293.38 201.448C296.573 201.63 299.677 203.411 300.302 205.38C300.932 207.354 303.656 209.115 306.354 209.318C310.292 209.615 310.979 208.682 309.927 204.656C308.755 200.182 309.25 200.344 314.078 205.964C317.068 209.438 321.823 212.302 324.724 212.302C329.297 212.302 329.838 211.417 328.656 205.526C326.89 196.703 332.37 194.271 338.062 201.375C341.953 206.229 355.073 209.641 355.12 205.818C355.13 204.87 351.719 201.297 347.536 197.807C341.739 192.964 340.943 191.443 344.109 191.396C346.396 191.359 348.844 192.828 349.578 194.745C350.312 196.661 351.797 197.734 352.859 197.078C353.917 196.422 355.406 196.938 356.213 198.245C357.015 199.547 360.489 200.646 363.864 200.646C369.739 200.646 369.802 200.474 365.469 197.297C361.099 194.089 361.177 193.885 367.51 191.469C371.12 190.089 375.318 188.964 376.838 188.917C378.359 188.87 376.984 187.344 373.776 185.568C368.094 182.417 368.151 182.349 376.984 183.161C382.708 183.693 387.271 182.792 389.375 180.688C394.505 175.562 390.87 172.672 379.318 172.672C372.864 172.672 369.385 171.708 370.281 170.266C373.219 165.516 364.604 165.432 354.901 170.12C343 175.865 340.792 176.156 342.578 171.505C343.422 169.307 342.557 168.01 340.25 168.01C337.937 168.01 337.073 166.708 337.917 164.51C339.484 160.422 338.677 160.281 330.989 163.203C325.995 165.099 325.443 164.807 326.469 160.87C327.698 156.188 323.781 154.547 321.224 158.682C320.417 159.984 315.479 163.286 310.219 165.969C301.755 170.281 299.568 170.495 291.265 168.01C283.521 165.693 282.531 164.807 285.797 162.984C287.974 161.766 289.807 159.182 289.807 157.229C289.807 154.469 287.417 153.812 279.239 154.312C271.281 154.802 267.62 153.812 264.224 150.38C259.104 145.203 254.151 126.719 257.37 124.734C259.359 123.505 260.474 128.474 259.63 134.859C259.411 136.5 261.469 140.974 264.224 144.844C268.219 150.453 269.922 151.307 272.531 149.141C274.333 147.646 275.88 143.693 276.031 140.328C276.245 135.484 276.588 135.182 277.489 138.87C279.255 146.115 285.307 151.693 291.411 151.693C296.177 151.693 296.62 151.047 294.547 147.172C291.5 141.484 291.479 139.349 294.474 141.198C295.755 141.995 296.807 141.536 296.807 140.182C296.807 138.823 297.854 137.703 299.135 137.703C300.422 137.703 301.469 139.172 301.469 140.979C301.469 145.161 315.099 156.797 317.943 155.042C319.12 154.318 320.13 151.703 320.13 149.214C320.13 146.724 321.177 144.698 322.536 144.698C323.896 144.698 324.385 143.385 323.557 141.781C322.729 140.182 323.995 141.245 326.401 144.188C328.802 147.13 331.573 148.776 332.521 147.828C333.469 146.885 336.521 145.75 339.375 145.354C345.693 144.474 355.12 139.828 355.12 137.557C355.12 136.646 351.995 134.615 348.193 133.042C344.39 131.464 341.505 128.969 341.776 127.505C342.057 126.016 339.094 124.719 335.146 124.589C326.984 124.323 315.109 118.781 319.547 117.302C321.146 116.771 322.463 114.823 322.463 113.005C322.463 109.307 310.797 108.365 307.156 111.766C303.63 115.057 294.474 117.214 294.474 114.755C294.474 113.526 297.13 111.87 300.448 111.036C305.422 109.792 305.984 108.885 303.656 106.083C301.354 103.312 301.698 102.719 305.26 102.661C310.458 102.573 319.229 96.3698 317.14 94.2812C316.338 93.4792 310.88 92.3177 305.042 91.6615C293.37 90.3438 293.427 90.3802 296.875 83.9375C299.114 79.7552 299.682 79.6927 304.823 83.0625C310.015 86.4635 310.458 86.349 311.89 81.8229C312.734 79.1667 314.422 77.5938 315.609 78.3281C316.802 79.0625 317.797 78.5938 317.797 77.2344C317.797 75.875 319.896 74.7552 322.463 74.7552C325.026 74.7552 327.125 73.2656 327.125 71.4792C327.125 67.9167 322.198 65.4323 315.245 65.4323C309.948 65.4323 309.239 61.151 314.224 59.2396C316.14 58.5052 317.219 57.1354 316.63 56.1823C316.042 55.224 318.177 53.0781 321.37 51.3698C329.229 47.1667 327.286 43.2865 317.286 43.2865H309.052L314.953 35.5625C319.557 29.5365 320.172 27.276 317.943 25.0729C315.724 22.8802 313.458 24.0729 307.448 30.6094C300.312 38.3542 299.573 38.6562 297.094 34.6875C295.625 32.3333 293.38 30.4635 292.14 30.4635C289.364 30.4635 282 43.5104 280.401 51.2969C279.224 57.0573 257.755 75.4427 254.526 73.4479C253.604 72.8802 253.151 66.6563 253.432 59.6042C253.713 52.5521 253.021 46.7812 251.901 46.7812C250.786 46.7812 250.193 42.9115 250.588 38.1875C251.193 31.0208 252.37 29.2812 257.807 27.8385C263.443 26.3438 264.161 26.6771 262.984 30.3906C260.854 37.0885 266.542 38.7969 271.073 32.7969C273.469 29.6198 275.719 28.4323 276.614 29.8802C278.203 32.4531 287.474 31.0938 287.474 28.276C287.474 26.1094 275.864 15.2552 273.844 15.526C272.984 15.6458 270.463 15.2396 268.229 14.6562C261.651 12.9323 265.927 9.65625 272.896 11.0833C284.588 13.4792 295.125 13.0312 296.146 10.0625C296.698 8.46355 295.614 7.15105 293.745 7.15105C291.87 7.15105 289.057 5.5625 287.474 3.65625C285.89 1.74479 283.656 0.765625 282.515 1.46875C281.38 2.17188 280.474 1.92188 280.474 0.885418C280.479 -0.151039 283.635 -3.10938 287.474 -5.67188C294.536 -10.3854 296.474 -13.8333 292.068 -13.8333C287.818 -13.8333 272.542 -6.77083 270.489 -3.84896C269.276 -2.11979 269.042 -3.02083 269.906 -6.10938C270.687 -8.88541 270.312 -11.7708 269.104 -12.5208C266.568 -14.0885 257.151 0.906254 257.151 6.4948C257.151 8.5573 256.458 9.58855 255.62 8.75521C254.786 7.91666 252.635 9.00521 250.885 11.2292C248.109 14.7552 247.875 13.8021 248.916 3.86979C249.88 -5.35416 252.073 -9.85416 260.578 -19.8021C266.354 -26.5625 271.146 -33.6042 271.146 -35.4688C271.146 -41.0677 259.427 -37.3854 257.005 -31.026C253.156 -20.901 248.916 -24.4115 249.791 -37C250.427 -46.1823 249.599 -49.651 245.708 -53.8281L240.823 -59ZM225.005 22.8125C226.073 22.875 228.609 24.901 231.495 28.1302C236.291 33.5 238.489 38.3438 238.489 43.6458C238.489 47.9063 238.047 51.4427 237.547 51.4427C236.291 51.4427 233.286 44.2188 232.224 38.6927C231.745 36.1979 229.818 32.4792 227.922 30.3906C226.031 28.2969 224.495 25.1302 224.495 23.3958C224.495 22.9635 224.651 22.7917 225.005 22.8125ZM219.323 57.0521C223.76 57.3802 234.526 64.8021 236.234 69.2917C239.271 77.2812 237.547 78.7708 232.297 72.6458C229.995 69.9583 226.818 67.7656 225.224 67.7656C222.526 67.7656 216.156 58.75 217.864 57.3438C218.193 57.0729 218.687 57.0052 219.323 57.0521ZM283.026 76.0677C283.588 76.0729 284.271 76.1719 284.995 76.3594C288.844 77.3646 287.943 78.75 278.948 85.6146C273.114 90.0573 266.297 93.8802 263.859 94.0625C261.417 94.2448 259.484 95.1667 259.484 96.1771C259.484 97.1875 258.302 98.0677 256.932 98.0677C255.562 98.0677 254.771 95.7083 255.182 92.8229C255.828 88.2865 257.161 87.651 264.729 88.3073C271.463 88.8958 273.479 88.224 273.479 85.3958C273.479 83.3698 275.052 81.75 276.979 81.75C278.901 81.75 280.474 80.276 280.474 78.474C280.474 76.901 281.344 76.0573 283.026 76.0677ZM255.984 109.432L261.453 112.13C264.458 113.594 269.443 114.141 272.531 113.37C275.708 112.568 278.146 112.969 278.146 114.312C278.146 115.62 277.135 116.719 275.958 116.719C274.781 116.719 272.307 117.26 270.489 117.958C268.672 118.656 264.693 117.005 261.599 114.312L255.984 109.432ZM281.568 115.188C282.099 115.266 282.88 115.812 283.974 116.719C286.583 118.88 287.474 118.917 287.474 116.865C287.474 115.349 288.62 114.859 290.099 115.771C291.958 116.922 291.474 118.406 288.495 120.578C282.484 124.969 280.474 124.495 280.474 118.76C280.474 116.177 280.687 115.057 281.568 115.188ZM316.703 123.714C318.703 123.714 319.755 124.76 318.963 126.042C317.099 129.062 313.13 129.062 313.13 126.042C313.13 124.76 314.703 123.714 316.703 123.714ZM261.818 161.016C263.099 161.016 264.146 166.26 264.146 172.672C264.146 184.49 263.797 185.505 261.015 182.724C258.531 180.24 259.245 161.016 261.818 161.016ZM244.031 192.12C244.864 191.979 245.489 192.49 245.489 193.505C245.489 194.865 244.437 195.984 243.156 195.984C240.166 195.984 240.166 194.333 243.156 192.484C243.474 192.286 243.75 192.167 244.031 192.12ZM262.838 197.078C262.969 197.062 263.187 197.266 263.349 197.656C263.984 199.234 264.01 202.385 263.422 204.651C262.828 206.922 262.302 205.656 262.255 201.812C262.219 198.927 262.432 197.115 262.838 197.078ZM233.823 198.312C235.109 198.312 236.156 198.771 236.156 199.333C236.156 199.901 235.109 201.021 233.823 201.812C232.541 202.604 231.489 202.151 231.489 200.792C231.489 199.432 232.541 198.312 233.823 198.312ZM222.161 202.979C223.443 202.979 224.495 203.432 224.495 203.995C224.495 204.562 223.443 205.682 222.161 206.474C220.88 207.266 219.828 206.812 219.828 205.453C219.828 204.094 220.88 202.979 222.161 202.979ZM173.62 203.052C175.213 203.208 177.193 204.26 178.719 206.182C183.448 212.135 191.286 212.927 195.63 207.859C199.474 203.37 204.958 203.312 202.193 207.786C201.453 208.979 202.453 209.969 204.375 209.969C206.302 209.969 208.541 208.922 209.333 207.641C211.219 204.594 215.166 204.578 215.166 207.641C215.166 208.953 212.281 211.167 208.75 212.521C205.224 213.875 196.338 215.505 189.068 216.161C177.495 217.214 175.547 216.812 173.328 212.667C171.932 210.062 170.849 206.823 170.849 205.453C170.849 203.682 172.021 202.891 173.62 203.052ZM387.625 326.536C388.984 326.536 390.104 327.583 390.104 328.865C390.104 331.854 388.453 331.854 386.604 328.865C385.812 327.583 386.265 326.536 387.625 326.536ZM192.64 354.51C194.068 354.51 191.307 356.609 186.521 359.172C178.047 363.708 173.177 364.974 173.177 362.672C173.177 361.224 189.198 354.51 192.64 354.51ZM394.042 454.099C396.609 454.083 399.167 454.354 400.745 454.974C403.932 456.219 402.364 456.75 395.354 456.87C389.901 456.958 385.437 456.63 385.437 456.141C385.437 454.901 389.755 454.125 394.042 454.099ZM446.229 466.703C447.042 466.672 448.01 466.802 448.854 467.141C450.713 467.885 450.114 468.411 447.396 468.526C444.937 468.625 443.562 468.062 444.333 467.286C444.724 466.901 445.422 466.734 446.229 466.703ZM446.812 524.766C446.917 524.734 447.088 524.766 447.25 524.766C448.536 524.766 451.156 525.781 453.083 527.026C455.005 528.266 455.531 529.281 454.25 529.281C452.963 529.281 450.344 528.266 448.417 527.026C446.734 525.938 446.083 524.979 446.812 524.766ZM40.5102 618.964C41.6144 618.797 41.9269 619.281 41.3123 620.276C40.5311 621.542 38.9477 622.604 37.7446 622.604C34.3852 622.604 35.0884 620.875 39.1248 619.328C39.6456 619.13 40.1456 619.016 40.5102 618.964ZM78.1977 639L83.5154 644.682L88.7654 650.365L92.7759 644.245C96.4217 638.677 96.9269 638.568 99.0415 642.349C100.781 645.453 101.844 645.703 103.198 643.516C104.479 641.438 105.427 642.021 106.552 645.552C108.146 650.573 112.526 652.562 112.526 648.25C112.526 646.969 115.416 645.911 118.943 645.917H125.354L118.359 649.635C113.849 652.01 107.812 652.88 101.448 652.182C96.0207 651.589 92.1509 652.083 92.8488 653.203C94.6873 656.177 91.2082 655.635 84.0259 651.891C80.3644 649.984 77.4686 649.557 77.0311 650.875C76.6144 652.115 74.3644 652.406 72.0727 651.526C68.2029 650.042 68.3071 649.557 73.0936 644.464L78.1977 639ZM132.427 641.547C132.916 641.542 133.39 641.552 133.812 641.693C135.557 642.276 134.489 643.344 131.333 644.172C127.453 645.182 126.541 644.88 128.271 643.151C129.291 642.135 130.953 641.557 132.427 641.547ZM108.739 737.641C109.573 737.5 110.198 738.005 110.198 739.026C110.198 740.38 109.146 741.5 107.864 741.5C104.875 741.5 104.875 739.849 107.864 738.005C108.182 737.807 108.458 737.688 108.739 737.641Z" fill="#001223"/>
</g>
<mask id="mask1_897_10696" style="mask-type:luminance" maskUnits="userSpaceOnUse" x="13" y="-37" width="528" height="905">
<path d="M13 -37H541V868H13V-37Z" fill="white"/>
</mask>
<g mask="url(#mask1_897_10696)">
<path d="M253.823 -37L253.531 -31.3177C253.406 -28.1927 253.146 -18.7604 252.948 -10.3385L252.656 4.96354L244.057 -3.92708C234.114 -14.2708 232.786 -14.6823 232.833 -7.56771C232.849 -4.68229 236.906 2.08854 241.797 7.51042C249.635 16.1927 250.734 18.9271 251.203 30.4583C251.552 39.1667 250.87 43.0573 249.234 42.0417C247.88 41.2083 246.828 39.0104 246.828 37.1615C246.828 35.3125 245.776 33.8125 244.495 33.8125C243.213 33.8125 242.161 29.75 242.161 24.776C242.161 14.4323 236.291 7.19792 232.614 12.974C231.443 14.8177 230.958 17.5573 231.521 19.0938C232.76 22.4896 226.052 20.276 221.536 15.8177C219.838 14.1406 217.104 12.8281 215.411 12.8281C209.104 12.8281 210.135 19.4063 217.818 28.2031C226.953 38.6615 227.448 40.75 221.385 42.3333C218.411 43.1146 217.39 44.9219 218.182 47.9427C219.495 52.9635 225.75 53.8542 229.989 49.6198C233.166 46.4479 233.245 46.6146 233.781 55.375C234.224 62.6875 233.823 62.8542 225.833 58.2917C218.015 53.8229 216.505 53.9323 216.505 59.2396C216.505 61.7083 219.916 66.3958 224.083 69.6562C229.771 74.1042 230.406 75.2813 226.708 74.3177C223.489 73.4792 221.291 74.3125 220.37 76.724C218.359 81.9531 216.734 81.5208 201.198 71.4062C193.573 66.4375 186.182 62.7865 184.797 63.3177C179.943 65.1771 183.026 74.0729 189.828 77.8125L196.677 81.5312L190.411 82.2604C186.989 82.6667 183.646 84.4479 182.974 86.1927C181.666 89.599 187.5 92.9427 190.995 90.7812C192.161 90.0625 193.177 90.5885 193.177 91.9479C193.177 93.3073 195.015 94.4688 197.26 94.5729C200.224 94.7031 200.432 95.0885 198.062 96.026C195.588 97.0052 196.078 98.3281 200.177 101.417L205.646 105.5L195.875 107.177C185.828 108.87 183.536 112.62 189.536 117.594C191.797 119.469 194.177 119.656 196.823 118.177C201.224 115.714 209.505 117.089 209.505 120.286C209.505 121.422 211.604 122.401 214.172 122.401C216.739 122.401 218.838 121.354 218.838 120.068C218.838 118.786 221.198 117.771 224.083 117.812L229.333 117.885L223.573 122.62C219.099 126.339 218.547 127.792 221.026 129.323C224.526 131.484 230.573 129.901 233.562 126.042C234.64 124.646 234.927 126.396 234.146 129.979C232.979 135.318 233.5 136.391 237.422 136.391C240.015 136.391 242.208 135.078 242.307 133.474C242.432 131.484 242.88 131.609 243.765 133.839C244.708 136.224 245.89 135.573 248.068 131.505L251.057 125.896L253.969 132.307C255.573 135.828 256.146 139.458 255.208 140.396C254.271 141.333 245.911 142.474 236.62 142.948C221.078 143.729 218.828 143.26 208.557 136.755C198.338 130.271 190.849 129.188 190.849 134.203C190.849 135.307 193.734 137.88 197.26 139.885L203.677 143.526L195.51 142C187.437 140.521 173.849 133.526 167.885 127.719C166.193 126.068 162.781 124.734 160.307 124.734C155.552 124.734 154.318 129.24 158.047 132.964C159.443 134.365 155.859 135.49 148.276 135.953C141.677 136.354 135.385 137.208 134.354 137.844C126.687 142.583 145.583 151.188 159.286 149.208L168.687 147.901L162.13 151.615C158.156 153.87 155.823 156.885 156.297 159.266C157.432 164.964 167.51 163.052 173.937 155.911C176.927 152.589 180.969 150.411 183.265 150.958C186.484 151.724 186.068 152.5 181.151 154.531C173.208 157.807 170.802 161.646 175.614 163.49C177.693 164.286 178.87 166.281 178.234 167.932C177.604 169.583 178.651 171.526 180.495 172.234C182.338 172.938 183.849 172.594 183.849 171.505C183.849 169.599 191.385 166.333 197.041 165.75C198.531 165.594 201.943 163.438 204.625 161.01C207.307 158.589 209.505 157.385 209.505 158.318C209.505 160.74 204.411 165.495 198.354 168.734C195.495 170.266 193.182 172.557 193.177 173.833C193.177 178.234 200.359 178.917 204.771 174.927C208.979 171.12 209.12 171.156 207.906 175.802C206.125 182.604 210.896 181.927 215.63 174.708C218.588 170.193 220.041 169.484 221.536 171.797C223.156 174.302 223.818 174.281 225.469 171.724C226.578 170.01 229.463 168.865 231.885 169.172C241.297 170.37 253.672 161.958 254.041 154.094C254.245 149.849 254.479 149.974 255.937 155.036C257.328 159.849 256.182 162.188 249.307 168.37C244.724 172.49 234.505 179.266 226.562 183.453L212.13 191.026L200.906 185.417C194.734 182.339 188.37 179.604 186.765 179.297C182.604 178.51 183.166 183.01 187.932 188.625C191.604 192.948 191.583 193.068 188.005 190.302C185.818 188.609 183.135 187.792 182.026 188.479C180.916 189.167 177.083 188.224 173.5 186.365C164.906 181.911 162.229 182.13 163.807 187.094C164.849 190.385 163.755 191.125 158.12 190.953C154.276 190.844 150.588 190.135 149.88 189.427C147.041 186.589 139.531 190.766 139.531 195.182C139.531 198.766 140.666 199.583 144.416 198.604C149.099 197.38 149.13 197.49 145.219 201.812C140.995 206.474 141.687 207.115 150.536 206.401C154.609 206.073 155.453 206.859 154.255 209.969C152.995 213.255 153.802 213.807 158.63 212.885C163.458 211.964 164.286 212.51 163.37 216.016C162.12 220.781 163.599 221.292 169.416 218.203C175.135 215.167 182.354 224.812 177.656 229.203C175.021 231.661 174.224 231.562 173.208 228.911C172.51 227.094 168.375 225.589 163.807 225.417C159.323 225.245 156.182 226.036 156.88 227.161C157.578 228.286 156.094 228.635 153.526 227.964C147.635 226.427 147.453 229.964 153.234 233.573C156.297 235.484 157.245 238.052 156.443 242.245C155.031 249.62 154.677 249.682 146.094 242.464C142.281 239.255 137.64 236.635 135.812 236.635C131.906 236.635 131.708 237.776 134.724 243.411C137.172 247.979 135.635 248.089 117.958 244.719C112.198 243.62 109.208 243.927 109.208 245.594C109.208 248.615 121.323 255.286 126.849 255.286C130.036 255.286 130.224 255.87 127.87 258.708C125.552 261.5 125.635 262.464 128.38 263.516C130.255 264.234 132.765 264.604 133.922 264.391C138.791 263.479 141.828 264.802 141.281 267.526C140.922 269.312 143.177 270.37 147.114 270.292C152.047 270.193 153.541 271.266 153.599 274.953C153.677 279.557 153.859 279.51 158.265 274.224C161.906 269.859 162.859 269.531 162.859 272.625C162.859 274.766 163.906 275.896 165.187 275.099C166.474 274.307 168.521 276.375 169.781 279.688C171.041 283.005 173.672 286.302 175.614 287.047C177.557 287.792 179.187 289.849 179.187 291.635C179.182 293.422 180.87 294.917 182.974 294.917C185.078 294.917 188.125 296.698 189.755 298.922C192.547 302.74 193.062 302.708 198.208 298.339L203.677 293.75L199.521 298.63C197.01 301.609 189.234 305.005 179.406 307.375C158.864 312.328 153.901 312.172 145.51 306.646C137.739 301.526 133.948 302.474 136.036 309.047C137.208 312.74 136.312 313.568 130.786 313.568C127.109 313.568 123.036 312.521 121.75 311.234C120.182 309.667 117.911 309.974 114.896 312.182C110.568 315.349 110.672 315.641 117.885 319.76C123.323 322.865 125.047 325.224 124.078 328.281C123.219 331.01 123.89 332.344 125.901 332.073C132.656 331.151 135.276 332.302 133.995 335.641C131.755 341.469 140.271 344.25 146.75 339.792C151 336.87 151.625 336.729 149.521 339.354C145.578 344.26 149.37 349.385 155.495 347.443C164.328 344.641 166.708 349.125 158.047 352.25C146.922 356.271 135.823 356.188 131.661 352.031C127.062 347.432 119.916 347.375 121.677 351.958C122.765 354.797 121.14 355.172 112.562 354C100.015 352.281 98.4425 356.156 110.015 360.339C115.625 362.365 117.609 364.339 116.864 367.188C115.62 371.948 122.984 374.594 128.672 371.411C131.765 369.682 132.536 370.354 132.536 374.979C132.536 379.708 133.39 380.516 137.568 379.422C141.693 378.344 142.291 378.807 140.989 382.193C139.719 385.51 140.37 386.161 144.125 385.177C146.713 384.505 148.864 384.891 148.864 386.052C148.864 390.141 153.797 388.089 160.015 381.464C167.505 373.479 171.943 371.719 177.437 374.542C183.828 377.828 182.229 380.479 174.521 379.349C166.489 378.172 165.307 381.724 171.094 389.99C174.484 394.823 174.469 395.161 170.151 395.161C167.599 395.161 163.911 396.734 161.984 398.656C160.062 400.578 156.927 402.156 154.989 402.156C153.047 402.156 150.849 403.135 150.104 404.339C149.359 405.542 144.666 406.448 139.677 406.38C134.693 406.312 129.255 407.094 127.578 408.13C125.906 409.161 121.135 409.792 117.01 409.51C110.802 409.094 109.396 409.927 108.776 414.318C108.234 418.141 106.411 419.677 102.213 419.859C99.005 419.995 95.3332 420.401 94.0519 420.729C92.7654 421.062 89.88 421.104 87.6352 420.875C85.3904 420.651 83.5519 421.396 83.5519 422.479C83.5519 425.568 96.4634 432.458 102.286 432.458C107.39 432.458 107.484 432.594 103.38 437.125C99.2602 441.672 99.3019 441.786 105.276 441.786C109.844 441.786 111.052 442.656 110.01 445.354C108.88 448.302 109.864 448.688 115.333 447.396C119.026 446.526 122.562 445.854 123.208 445.865C130.479 446.005 132.172 446.807 131.078 449.651C128.64 456 134.682 455.818 138.151 449.432C141.448 443.354 141.63 443.276 141.719 448.198C141.771 451.083 142.651 453.521 143.614 453.661C157.87 455.745 160.208 455.052 163.078 448.125L165.995 441.13L168.036 446.667L170.073 452.276L174.594 446.448C179.068 440.63 179.062 440.62 179.114 445.865C179.182 452.938 183.344 452.536 185.161 445.281C185.969 442.078 187.661 439.453 188.88 439.453C190.099 439.453 190.344 440.583 189.463 442.005C188.349 443.807 190.156 444.109 195.443 442.953C201.052 441.719 202.802 442 202.073 444.188C200.64 448.484 186.031 455.771 178.823 455.771C175.411 455.771 172.146 457.083 171.531 458.688C170.844 460.479 166.286 461.495 159.651 461.38C153.713 461.281 148.864 462.01 148.864 462.984C148.864 467.474 156.958 472.328 163.37 471.656C167.177 471.255 170.469 471.849 170.656 473.042C171.276 476.922 157.604 479.104 124.37 480.396C86.9217 481.854 71.8904 483.49 71.8904 486.005C71.8904 486.974 69.2654 487.276 66.0571 486.661C62.7446 486.031 60.229 486.615 60.229 488.047C60.229 491.312 67.8488 495.406 74.005 495.406C76.6561 495.406 78.8852 496.453 78.8852 497.734C78.8852 499.016 77.7446 500.068 76.4113 500.068C75.0727 500.068 71.6613 502.234 68.8279 504.948L63.7238 509.901L71.3071 508.88C76.3227 508.198 78.8852 508.802 78.8852 510.703C78.8852 512.432 80.7498 513.109 83.5519 512.38C86.1613 511.698 88.2186 512.307 88.2186 513.766C88.2186 517.526 94.1509 516.979 97.5467 512.891C99.1457 510.964 101.474 509.391 102.797 509.391C104.12 509.391 103.536 511.271 101.411 513.62C99.2863 515.964 97.5467 518.583 97.5467 519.448C97.5467 521.917 106.443 521.307 108.047 518.719C110.354 514.984 113.443 516.01 115.041 521.047C116.916 526.948 119.578 526.911 128.015 520.901L134.797 516.094L133.338 523.234C131.583 532.01 135.818 532.719 145.291 525.276C151.515 520.38 151.687 520.385 149.229 524.984C146.328 530.396 147.724 532.964 152.583 531.104C154.396 530.406 157.453 531.12 159.359 532.703C161.771 534.703 162.859 534.812 162.859 532.995C162.859 531.557 164.432 530.375 166.359 530.375C168.281 530.375 169.854 531.818 169.854 533.651C169.854 535.917 171.922 536.766 176.271 536.276C200.552 533.526 169.146 547.641 140.916 552.156C122.463 555.109 120.609 554.995 114.531 550.99C110.937 548.625 106.734 546.703 105.13 546.693C100.307 546.667 101.844 551.333 107.463 553.76C111.318 555.422 109.922 555.599 102.213 554.417C96.4425 553.526 89.0936 552.943 85.8852 553.104C82.6821 553.266 74.8488 551.88 68.5363 550.042C62.229 548.208 56.7134 547.005 56.2915 547.422C53.8592 549.854 68.7915 559.469 77.1404 560.823L87.0519 562.427L78.3071 562.719C72.2134 562.922 69.5571 564.073 69.5571 566.51C69.5571 568.432 71.3956 570.172 73.6404 570.37C75.8852 570.562 78.7706 570.943 80.0571 571.245C81.3384 571.542 83.8904 571.896 85.7394 572.047C88.2134 572.245 87.9061 573.182 84.5727 575.615C78.8123 579.828 81.5467 582.854 87.9998 579.401C92.0154 577.255 92.8852 577.479 92.8852 580.641C92.8852 583.63 94.5519 584.24 100.463 583.411C104.635 582.823 110.146 581.583 112.713 580.641C117.307 578.953 117.245 578.974 112.786 582.609C108.239 586.307 109.213 587.167 116.791 586.396C119.114 586.161 120.875 587.599 120.875 589.677C120.875 594.661 122.765 594.25 128.312 588.073L133.047 582.828L129.255 589.167C127.193 592.646 125.541 596.552 125.541 597.906C125.541 601.51 136.984 598.849 142.453 593.974C147.031 589.885 147.068 589.964 145.291 595.651C142.828 603.552 139.963 605.219 118.469 611.677C100.614 617.036 99.5363 617.104 89.8957 613.427C79.3852 609.411 64.8956 608.271 64.8956 611.458C64.8956 612.484 66.1144 614.646 67.6613 616.193C69.5571 618.089 66.4373 617.792 58.1144 615.318C51.3071 613.297 44.1404 612.224 42.1509 612.99C39.104 614.156 39.38 615.318 43.9009 620.125L49.2238 625.807L41.3488 623.552C31.2029 620.641 18.8748 620.646 17.0779 623.552C15.2238 626.547 30.8227 632.932 40.0363 632.948H47.4009L40.5467 638.411C33.7863 643.823 33.8488 650.917 40.6196 648.323C42.8748 647.458 43.9009 648.865 43.9009 652.839C43.9009 656.969 45.1196 658.594 48.3488 658.594C50.8227 658.594 54.4738 660.198 56.4373 662.161C59.4061 665.13 60.8019 665.208 64.7498 662.745C67.3644 661.115 69.5571 658.984 69.5571 658.01C69.5571 657.036 71.3956 658.099 73.7134 660.344C78.1821 664.667 79.4529 670.25 75.9738 670.25C74.8279 670.25 74.6561 671.38 75.5363 672.797C76.6456 674.594 74.9165 674.932 69.8488 673.818C65.1977 672.797 62.5623 673.089 62.5623 674.693C62.5623 676.12 58.0206 677.245 52.0623 677.245C41.1352 677.245 39.0727 679.266 45.0675 684.24C47.4009 686.177 52.3384 686.688 59.6456 685.766L70.7238 684.385L62.0519 688.974C56.0259 692.167 53.7967 694.693 54.7602 697.203C55.63 699.464 57.5727 700.224 59.9373 699.245C62.0154 698.385 65.3019 697.443 67.2238 697.13C69.1509 696.823 69.4113 697.016 67.8071 697.568C61.9009 699.599 64.9529 703.344 71.3071 701.87C75.9009 700.802 76.7498 701.042 74.2967 702.667C68.1248 706.76 73.604 707.948 81.005 704.125C84.9686 702.073 88.2186 701.385 88.2186 702.594C88.2186 703.802 86.9061 705.302 85.3019 705.875C83.6977 706.448 83.1977 707.781 84.2081 708.859C85.2186 709.943 89.0363 709.677 92.7394 708.276C98.255 706.198 99.3019 706.339 98.2759 709.005C97.3748 711.354 98.2082 711.786 101.338 710.682C104.979 709.396 105.213 709.698 102.651 712.432C100.265 714.974 92.2342 715.589 65.9165 715.198C45.5467 714.901 32.2394 715.594 32.2394 716.948C32.2394 718.182 33.8644 719.208 35.88 719.208C37.8956 719.208 41.005 720.688 42.8071 722.484C45.6144 725.292 45.5571 725.953 42.4425 727.146C40.4477 727.911 35.4998 728.51 31.4373 728.531C22.8644 728.573 16.9842 731.609 19.0415 734.943C21.5883 739.057 33.1665 739.807 42.7342 736.474C55.4894 732.026 56.1821 732.281 49.5831 738.875C41.3592 747.099 41.9581 752.052 50.8227 749.51C54.63 748.422 58.8279 746.833 60.1561 746.016C61.479 745.198 62.6561 746.464 62.8488 748.781C63.0467 751.104 63.3644 754.193 63.505 755.703C63.6509 757.219 64.4738 759.219 65.3279 760.078C67.1665 761.911 81.2186 754.052 81.2186 751.188C81.2186 750.104 82.1717 749.844 83.4061 750.604C84.8436 751.495 84.8436 754.115 83.4061 757.891C82.1717 761.135 81.2186 764.839 81.2186 766.125C81.2186 769.203 92.2446 761.229 103.307 750.167C111.557 741.917 112.739 743.328 105.057 752.281C103.172 754.479 102.328 758.057 103.161 760.219C104.5 763.714 105.271 763.516 110.594 758.547L116.646 753.01L115.844 758.839C115.104 764.188 113.515 764.891 96.38 767.724C84.3384 769.719 76.4581 770.021 74.1509 768.599C68.3019 764.99 55.5623 762.849 55.5623 765.469C55.5623 766.76 57.4009 768.318 59.6456 768.891C61.8904 769.464 58.479 769.453 52.0623 768.891C42.6873 768.068 40.9738 768.422 43.3175 770.786C47.7759 775.286 46.7759 776.958 40.4009 775.74C32.8592 774.297 22.2811 776.99 24.0727 779.891C24.8436 781.135 27.8592 782.151 30.7811 782.151C40.7498 782.151 39.3488 785.359 27.2081 790.234C6.51022 798.552 11.0258 804.734 32.3071 797.229C43.0831 793.432 47.2915 794.089 39.38 798.323C36.7029 799.755 34.5675 802.573 34.5675 804.589C34.5675 807.401 35.9842 807.901 40.7654 806.703C46.2706 805.318 46.6821 805.547 43.9738 808.812C37.6873 816.385 44.354 816.401 54.7602 808.812C59.6196 805.271 59.8123 805.307 58.479 810.49C57.2238 815.349 57.4738 815.589 61.0311 812.677C64.5363 809.797 64.7759 809.932 63.3592 813.839C61.9686 817.698 62.5154 817.578 67.5884 812.969C73.5311 807.568 77.1873 808.021 74.9529 813.839C73.1665 818.479 78.7602 817.865 87.6352 812.458C91.8592 809.88 95.2134 808.995 95.2134 810.417C95.2134 811.995 97.6561 812.406 101.63 811.51C105.969 810.526 106.911 810.734 104.547 812.167C102.62 813.328 95.2707 815.448 88.2186 816.901C73.0259 820.031 68.3071 822.583 70.6509 826.37C72.2602 828.974 75.3956 828.688 89.3852 824.911C92.9582 823.948 92.2759 825.432 86.4686 831.031C82.2967 835.057 78.8852 838.839 78.8852 839.484C78.8852 841.802 91.854 838.922 99.2967 834.969C107.474 830.62 108.729 831.953 103.307 839.12C98.5675 845.38 99.0259 848.141 104.547 846.698C107.578 845.906 109.208 846.677 109.208 848.807C109.208 853.172 111.344 852.932 116.791 848.01C121.094 844.115 121.291 844.141 120.51 848.589C119.26 855.703 132.203 853.557 139.094 845.531L144.489 839.266L142.958 846.844C140.932 856.87 146.786 857.13 155.859 847.427C159.458 843.578 162.703 840.432 163.151 840.432C163.599 840.432 164.125 843.146 164.318 846.479C164.849 855.646 168.646 858.12 173.5 852.453C177.333 847.979 177.88 847.891 180.719 851.578C183.526 855.224 183.838 855.172 185.161 850.484C186.015 847.453 187.864 845.901 189.755 846.625C191.765 847.396 193.495 845.568 194.495 841.599C195.573 837.292 196.661 836.208 197.916 838.245C198.927 839.875 201.932 841.552 204.625 841.964C208.422 842.542 210.656 840.411 214.609 832.271C219.719 821.76 225.114 817.703 222.338 826.443C220.547 832.089 221.896 832.24 229.406 827.318C232.568 825.25 235.234 821.312 235.385 818.578C235.599 814.594 235.911 814.417 236.771 817.703C238.541 824.495 242.161 819.776 242.234 810.562C242.297 803.589 242.713 802.74 244.64 806.047C245.948 808.292 249.203 810.125 251.859 810.125C256.453 810.125 256.635 810.979 255.14 828.193C254.094 840.224 251.646 850.036 247.849 857.552C245.625 861.953 243.76 865.875 242.818 868.042H300.844C303.411 865.984 302.255 862.37 299.604 856.021C295.463 846.13 293.87 825.927 297.125 824.844C298.396 824.417 301.255 827.177 303.536 831.036C307.792 838.229 313.015 840.88 310.609 834.604C307.854 827.427 312.193 831.359 315.349 838.901C317.864 844.922 319.88 846.724 324.094 846.406C327.114 846.182 331.099 847.089 332.911 848.448C335.276 850.214 336.474 850.141 337.14 848.156C337.76 846.318 339.604 846.906 342.609 849.901C348.609 855.906 351.599 855.615 350.187 849.177C349.515 846.109 349.849 844.943 350.989 846.406C353.677 849.854 361.12 852.359 361.12 849.833C361.12 847.479 373.995 848.312 380.729 851.068C384.276 852.521 384.927 852.062 383.792 849.104C383 847.042 383.573 844.932 385.104 844.365C387.229 843.583 387.255 842.573 385.031 840.214C379.734 834.604 381.927 833.88 390.64 838.323C400.276 843.229 402.963 842.51 398.297 836.354C395.802 833.062 395.765 832.797 398.224 834.969C399.922 836.474 402.724 837.177 404.489 836.5C406.26 835.823 407.771 836.198 407.771 837.375C407.771 838.547 409.193 841.49 410.979 843.932C413.776 847.755 414.802 847.922 418.125 845.167C421.469 842.391 422.411 842.729 425.703 847.427L429.495 852.818L431.609 847.208C433.557 841.995 433.917 841.896 436.708 845.677C440.401 850.682 442.052 850.755 446.625 846.188C449.469 843.349 449.625 841.932 447.354 839.193C445.786 837.307 445.198 835.771 446.042 835.771C446.885 835.771 446.364 833.411 444.875 830.526C442.609 826.135 443.458 826.391 450.047 832.349C464.562 845.464 465.521 845.948 469.656 841.818C471.719 839.76 472.578 836.812 471.625 835.188C470.651 833.521 471.849 833.802 474.396 835.844C486.724 845.74 499.208 847.688 490.797 838.396C486.995 834.198 487.125 833.87 493.198 832.349L499.542 830.745L492.693 825.208C483.729 817.885 488.521 817.87 501.364 825.208C506.948 828.396 512.88 831.021 514.484 831.036C519.193 831.078 517.833 827.365 512.151 824.625C507.427 822.349 507.786 822.073 516.307 821.927C521.515 821.844 527.812 820.24 530.302 818.359C534.609 815.104 534.552 814.938 527.896 814.865C517.906 814.75 482.38 808.286 474.979 805.245C465.911 801.521 464.193 795.818 473.156 799.198C481.015 802.167 484.989 799.714 479.203 795.484C475.844 793.026 476.927 792.734 485.838 793.443C497.213 794.349 499.635 791.484 491.156 787.177C486.62 784.87 487.385 784.583 497.281 785.068C510.63 785.719 514.396 781.333 502.896 778.51L495.239 776.615L502.823 775.74C511.698 774.682 512.479 772.281 505.156 768.526C500.864 766.333 502.682 766.031 515.068 767.073C529.026 768.24 529.807 768.057 525.635 764.74C523.146 762.76 519.281 761.172 517.036 761.172C514.792 761.172 512.281 760.01 511.422 758.62C510.443 757.031 511.906 756.219 515.359 756.505C525.104 757.318 531.396 756.552 531.396 754.469C531.396 753.349 524 751.714 514.995 750.823C505.989 749.938 499.12 748.365 499.76 747.328C500.401 746.292 507.125 744.057 514.703 742.375C529 739.203 538.052 734.458 535.187 731.594C533.719 730.125 520.739 732.24 503.406 736.839C498.078 738.25 498.213 737.812 505.521 731.521C517.536 721.167 510.755 720.099 493.417 729.625C476.01 739.188 466.042 739.969 446.765 733.339C424.896 725.818 389.417 707.818 386.776 702.891C383.51 696.781 385.364 696.964 391.297 703.328C393.911 706.13 396.109 707.573 396.109 706.531C396.109 705.49 397.682 705.953 399.604 707.552C402.5 709.948 403.104 709.724 403.104 706.24C403.104 702.729 404.297 703.161 410.396 708.865L417.682 715.714L416.297 708.208C414.901 700.807 414.995 700.734 421.255 703.401C424.739 704.885 429.172 707.307 431.094 708.792C440.14 715.75 441.187 715.594 439.552 707.406C438.312 701.219 438.557 700.146 440.792 702.38C444.849 706.438 454.422 705.974 454.422 701.724C454.422 697.38 458.187 697.161 460.687 701.359C461.713 703.083 465.474 706.297 469 708.573C474.292 711.979 475.411 712.109 475.411 709.302C475.411 707.427 473.312 704.047 470.75 701.724C468.182 699.401 466.083 696.391 466.083 695.094C466.083 693.797 466.677 693.427 467.469 694.219C468.26 695.016 470.568 694.036 472.573 692.036C475.094 689.51 478.885 688.745 484.963 689.557C491.005 690.37 494.12 689.75 494.948 687.589C495.864 685.208 497.984 684.964 503.844 686.646C524.411 692.542 528.198 685.818 508.359 678.63C494.948 673.771 493.25 671.312 505.807 674.911C521.765 679.49 542.526 676.026 533.729 670.25C531.802 668.99 525.505 667.802 519.734 667.63C510.818 667.365 510.234 667.13 516.015 665.88C519.755 665.068 523.286 662.943 523.885 661.146C524.797 658.411 521.114 658.104 501.292 659.469C477.948 661.078 477.573 661.078 480.443 656.484C484.713 649.646 481.781 648.464 470.167 652.401C463.885 654.531 455.828 655.427 449.536 654.661C436.052 653.016 391.437 638.073 386.198 633.464C380.719 628.641 381.026 625.297 386.781 627.125C389.396 627.953 391.443 627.531 391.443 626.177C391.443 623.646 394.937 624.375 406.604 629.453C410.453 631.13 418.901 632.552 425.411 632.589C431.922 632.62 438.219 632.87 439.406 633.099C444.864 634.141 445.443 632.547 441.375 627.703C438.448 624.224 439.364 624.615 444.073 628.87C452.14 636.167 454.422 636.776 454.422 631.714C454.422 628.635 455.172 628.656 460.401 632.078C463.917 634.38 467.073 635.104 467.979 633.823C468.833 632.62 472.672 630.271 476.505 628.578C483.203 625.63 483.312 625.401 478.984 622.24C473.703 618.38 475.047 618.062 483.359 621.224C487.875 622.938 489.411 622.776 489.411 620.495C489.411 618.651 495.328 616.229 504.573 614.302C512.911 612.562 519.734 610.188 519.734 609.057C519.734 607.927 520.719 607.688 521.989 608.474C523.265 609.26 526.167 608.849 528.406 607.599C531.963 605.609 531.641 605.078 526 603.667C521.135 602.443 519.89 601.016 520.901 597.839C521.89 594.719 520.849 593.464 516.89 592.88C513.114 592.328 515.797 590.688 526.073 587.417C542.005 582.349 545.937 577.76 531.979 580.495C519.088 583.026 487.078 583.599 487.078 581.297C487.078 580.208 488.125 579.333 489.411 579.333C490.693 579.333 491.739 578.271 491.739 577C491.739 575.729 486.755 574.766 480.661 574.885C465.359 575.198 440.89 570.083 439.406 566.219C438.568 564.042 440.078 563.01 443.995 563.01C447.167 563.01 449.755 561.995 449.755 560.755C449.755 559.51 451.328 559.068 453.255 559.807C455.177 560.547 456.755 559.917 456.755 558.422C456.755 556.635 458.51 556.979 461.927 559.37C464.781 561.365 469.765 562.984 473.01 562.938L478.911 562.865L473.521 558.349L468.198 553.906L479.349 553.177L490.573 552.375L482.411 548.443L474.245 544.51L481.39 544.438C485.943 544.375 490.599 542.234 494.073 538.536C497.088 535.328 500.625 532.708 502.021 532.708C503.411 532.708 505.937 530.562 507.557 527.969C511.823 521.146 506.39 519.776 492.979 524.328C478.515 529.234 475.521 529.099 477.015 523.38C478.489 517.75 478.104 517.719 463.458 522.505C452.318 526.151 451.156 526.042 433.354 520.979C409.349 514.146 403.193 507.745 421.693 508.812C423.599 508.922 425.89 507.865 426.797 506.406C427.943 504.552 429.875 504.984 433.135 507.938C436.792 511.245 439.849 511.812 447.276 510.557C457.88 508.771 458.536 507.885 452.672 503.057C448.479 499.599 450.026 499.708 460.031 503.714C463.62 505.146 464.219 504.714 463.021 501.599C461.917 498.724 462.807 497.74 466.375 497.74C469.625 497.74 470.807 496.63 469.948 494.385C469.239 492.547 469.875 490.51 471.406 489.87C473.359 489.047 473.094 487.714 470.385 485.5C466.844 482.604 466.984 481.927 472.135 476.974C480.536 468.891 478.974 467.203 466.667 471.146C436.057 480.958 424.833 481.542 417.318 473.552C413.062 469.021 412.812 467.786 415.64 466.703C417.542 465.974 422.245 466.547 426.14 468.016C436.109 471.776 438.239 468.026 429.932 461.312C424.104 456.604 423.713 455.729 427.599 456.068C435.755 456.771 440.427 455.844 440.427 453.443C440.427 452.161 438.588 451.047 436.344 450.964C433.036 450.849 433.156 450.391 437.146 448.781C439.854 447.688 442.698 445.156 443.489 443.099C444.734 439.854 444.271 439.708 439.771 442.224C431.635 446.776 383.021 446.078 372.781 441.276C365.625 437.917 365.245 437.438 370.083 437.271C374.505 437.12 375.406 436.146 374.385 432.245C373.239 427.87 373.495 427.703 377.01 430.714C382.12 435.089 389.109 437.536 389.109 434.938C389.109 433.818 391.208 433.396 393.776 434.062C396.385 434.745 398.443 434.135 398.443 432.682C398.443 431.25 401.062 430.13 404.271 430.13C412.026 430.13 411.64 427.812 402.667 420.443L395.161 414.323L407.625 416.286C420.479 418.318 425.156 417.474 422.713 413.521C420.323 409.656 426.594 404.484 433.646 404.484C441.594 404.484 442.693 400.635 435.177 399.021C432.198 398.38 433.458 397.974 438.094 398.146C443.401 398.349 446.052 397.516 445.672 395.672C445.354 394.109 446.203 392.828 447.64 392.828C449.401 392.828 449.312 391.641 447.276 389.188C445.349 386.859 442.068 385.932 438.239 386.708C434.937 387.385 433.573 387.406 435.177 386.708C440.562 384.37 438.177 380.635 432.26 382.12C427.531 383.307 426.802 382.849 428.036 379.646C429.135 376.776 428.656 376.255 426.359 377.677C424.635 378.74 420.552 379.807 417.245 380.078C413.943 380.354 408.646 381.302 405.437 382.193L399.609 383.797L406.021 378.333C413.432 371.974 414.51 368.25 407.917 371.776C401.411 375.255 396.635 374.964 400.265 371.339C405.5 366.104 403.432 361.979 398.078 366.969C395.338 369.516 389.838 373.151 385.828 375.052C371.578 381.812 333.13 372.609 333.13 362.448C333.13 360.417 331.828 357.505 330.286 355.969C328.417 354.094 328.364 353.198 330.068 353.198C331.469 353.198 333.193 354.771 333.932 356.693C334.786 358.917 338.114 360.078 342.969 359.901C347.177 359.745 352.984 360.417 355.87 361.359C360.182 362.766 361.12 362.141 361.12 358.151V353.344L369.062 358.005C374.776 361.375 377.489 361.984 378.687 360.047C379.604 358.562 378.922 356.354 377.156 355.167C374.385 353.302 388 353.552 397.276 355.531C398.557 355.802 401.989 355.234 404.927 354.292C409.854 352.708 409.943 352.234 406.531 348.464C403.104 344.682 403.292 344.302 408.792 342.927C415.531 341.234 416.87 336.87 410.687 336.734C408.114 336.677 409.193 335.479 413.599 333.453C417.448 331.688 423.682 327.693 427.448 324.568L434.229 318.885L425.703 317.281C420.974 316.396 417.099 314.672 417.099 313.422C417.099 312.109 414.385 311.771 410.687 312.693C405.083 314.089 404.588 313.88 407.187 310.724C411.693 305.26 404.979 303.589 398.073 308.469C394.844 310.75 387.828 312.448 381.094 312.547C371.906 312.682 370.594 312.224 374.604 310.432C379.14 308.411 379.588 306.51 377.594 297.615C377.5 297.188 373.896 299.021 369.573 301.693C365.255 304.359 358.167 306.516 353.828 306.5C339.286 306.453 314.255 296.771 298.359 285.01C292.239 280.479 293.536 279.542 300.62 283.333C304.292 285.297 305.156 284.974 305.213 281.583C305.281 277.609 305.396 277.568 307.693 281.51C309.015 283.781 311.042 285.073 312.208 284.354C313.38 283.63 316.984 284.781 320.229 286.901C326.062 290.724 326.099 290.667 326.13 284.062C326.151 280.385 326.937 278.573 327.88 279.984C329.922 283.036 338.734 287.922 342.239 287.922C343.609 287.922 344.885 285.562 345.01 282.677C345.229 277.698 345.292 277.729 346.833 283.26C347.724 286.464 348.948 288.604 349.531 288.068C350.114 287.531 352.776 288.25 355.432 289.672C359.375 291.781 360.864 291.438 363.453 287.849C365.198 285.432 367.526 284.036 368.63 284.719C369.729 285.396 369.901 283.245 369.062 279.906C367.609 274.104 367.807 273.932 373.948 276.266C381.531 279.146 383.89 277.719 379.781 272.771C377.323 269.812 377.568 269.271 381.021 269.271C384.948 269.271 384.89 269.026 381.094 264.828C378.885 262.391 378.073 259.812 379.271 259.073C380.463 258.333 383.276 259.776 385.536 262.276C389.094 266.203 391.38 266.557 400.406 264.755C400.885 264.661 400.161 263.198 398.734 261.479C395.698 257.823 397.495 255.286 403.177 255.286C405.385 255.286 409.698 253.219 412.729 250.693L418.265 246.104L411.271 245.667C407.422 245.427 401.698 245.458 398.588 245.74C393.656 246.188 393.281 245.76 395.963 242.536C401.062 236.391 397.474 236.411 388.453 242.536C378.677 249.177 372.786 250.333 377.448 244.719C379.911 241.75 379.776 241.38 376.573 242.609C372.12 244.318 371.474 241.146 375.479 237.146C381.453 231.172 375.114 232.068 367.755 238.24C353.255 250.38 351.474 250.766 335.099 245.812C317.927 240.62 306.411 234.135 302.953 227.672C300.833 223.719 301.318 223.156 306.38 223.448C309.573 223.63 312.677 225.411 313.302 227.38C313.932 229.354 316.656 231.115 319.354 231.318C323.292 231.615 323.979 230.682 322.927 226.656C321.755 222.182 322.25 222.344 327.078 227.964C330.068 231.438 334.823 234.302 337.724 234.302C342.297 234.302 342.838 233.417 341.656 227.526C339.89 218.703 345.37 216.271 351.062 223.375C354.953 228.229 368.073 231.641 368.12 227.818C368.13 226.87 364.719 223.297 360.536 219.807C354.739 214.964 353.943 213.443 357.109 213.396C359.396 213.359 361.844 214.828 362.578 216.745C363.312 218.661 364.797 219.734 365.859 219.078C366.917 218.422 368.406 218.938 369.213 220.245C370.015 221.547 373.489 222.646 376.864 222.646C382.739 222.646 382.802 222.474 378.469 219.297C374.099 216.089 374.177 215.885 380.51 213.469C384.12 212.089 388.318 210.964 389.838 210.917C391.359 210.87 389.984 209.344 386.776 207.568C381.094 204.417 381.151 204.349 389.984 205.161C395.708 205.693 400.271 204.792 402.375 202.688C407.505 197.562 403.87 194.672 392.318 194.672C385.864 194.672 382.385 193.708 383.281 192.266C386.219 187.516 377.604 187.432 367.901 192.12C356 197.865 353.792 198.156 355.578 193.505C356.422 191.307 355.557 190.01 353.25 190.01C350.937 190.01 350.073 188.708 350.917 186.51C352.484 182.422 351.677 182.281 343.989 185.203C338.995 187.099 338.443 186.807 339.469 182.87C340.698 178.188 336.781 176.547 334.224 180.682C333.417 181.984 328.479 185.286 323.219 187.969C314.755 192.281 312.568 192.495 304.265 190.01C296.521 187.693 295.531 186.807 298.797 184.984C300.974 183.766 302.807 181.182 302.807 179.229C302.807 176.469 300.417 175.812 292.239 176.312C284.281 176.802 280.62 175.812 277.224 172.38C272.104 167.203 267.151 148.719 270.37 146.734C272.359 145.505 273.474 150.474 272.63 156.859C272.411 158.5 274.469 162.974 277.224 166.844C281.219 172.453 282.922 173.307 285.531 171.141C287.333 169.646 288.88 165.693 289.031 162.328C289.245 157.484 289.588 157.182 290.489 160.87C292.255 168.115 298.307 173.693 304.411 173.693C309.177 173.693 309.62 173.047 307.547 169.172C304.5 163.484 304.479 161.349 307.474 163.198C308.755 163.995 309.807 163.536 309.807 162.182C309.807 160.823 310.854 159.703 312.135 159.703C313.422 159.703 314.469 161.172 314.469 162.979C314.469 167.161 328.099 178.797 330.943 177.042C332.12 176.318 333.13 173.703 333.13 171.214C333.13 168.724 334.177 166.698 335.536 166.698C336.896 166.698 337.385 165.385 336.557 163.781C335.729 162.182 336.995 163.245 339.401 166.188C341.802 169.13 344.573 170.776 345.521 169.828C346.469 168.885 349.521 167.75 352.375 167.354C358.693 166.474 368.12 161.828 368.12 159.557C368.12 158.646 364.995 156.615 361.193 155.042C357.39 153.464 354.505 150.969 354.776 149.505C355.057 148.016 352.094 146.719 348.146 146.589C339.984 146.323 328.109 140.781 332.547 139.302C334.146 138.771 335.463 136.823 335.463 135.005C335.463 131.307 323.797 130.365 320.156 133.766C316.63 137.057 307.474 139.214 307.474 136.755C307.474 135.526 310.13 133.87 313.448 133.036C318.422 131.792 318.984 130.885 316.656 128.083C314.354 125.312 314.698 124.719 318.26 124.661C323.458 124.573 332.229 118.37 330.14 116.281C329.338 115.479 323.88 114.318 318.042 113.661C306.37 112.344 306.427 112.38 309.875 105.938C312.114 101.755 312.682 101.693 317.823 105.062C323.015 108.464 323.458 108.349 324.89 103.823C325.734 101.167 327.422 99.5938 328.609 100.328C329.802 101.062 330.797 100.594 330.797 99.2344C330.797 97.875 332.896 96.7552 335.463 96.7552C338.026 96.7552 340.125 95.2656 340.125 93.4792C340.125 89.9167 335.198 87.4323 328.245 87.4323C322.948 87.4323 322.239 83.151 327.224 81.2396C329.14 80.5052 330.219 79.1354 329.63 78.1823C329.042 77.224 331.177 75.0781 334.37 73.3698C342.229 69.1667 340.286 65.2865 330.286 65.2865H322.052L327.953 57.5625C332.557 51.5365 333.172 49.276 330.943 47.0729C328.724 44.8802 326.458 46.0729 320.448 52.6094C313.312 60.3542 312.573 60.6562 310.094 56.6875C308.625 54.3333 306.38 52.4635 305.14 52.4635C302.364 52.4635 295 65.5104 293.401 73.2969C292.224 79.0573 270.755 97.4427 267.526 95.4479C266.604 94.8802 266.151 88.6563 266.432 81.6042C266.713 74.5521 266.021 68.7812 264.901 68.7812C263.786 68.7812 263.193 64.9115 263.588 60.1875C264.193 53.0208 265.37 51.2812 270.807 49.8385C276.443 48.3438 277.161 48.6771 275.984 52.3906C273.854 59.0885 279.542 60.7969 284.073 54.7969C286.469 51.6198 288.719 50.4323 289.614 51.8802C291.203 54.4531 300.474 53.0938 300.474 50.276C300.474 48.1094 288.864 37.2552 286.844 37.526C285.984 37.6458 283.463 37.2396 281.229 36.6562C274.651 34.9323 278.927 31.6562 285.896 33.0833C297.588 35.4792 308.125 35.0312 309.146 32.0625C309.698 30.4635 308.614 29.151 306.745 29.151C304.87 29.151 302.057 27.5625 300.474 25.6562C298.89 23.7448 296.656 22.7656 295.515 23.4688C294.38 24.1719 293.474 23.9219 293.474 22.8854C293.479 21.849 296.635 18.8906 300.474 16.3281C307.536 11.6146 309.474 8.16667 305.068 8.16667C300.818 8.16667 285.542 15.2292 283.489 18.151C282.276 19.8802 282.042 18.9792 282.906 15.8906C283.687 13.1146 283.312 10.2292 282.104 9.47917C279.568 7.91146 270.151 22.9063 270.151 28.4948C270.151 30.5573 269.458 31.5885 268.62 30.7552C267.786 29.9167 265.635 31.0052 263.885 33.2292C261.109 36.7552 260.875 35.8021 261.916 25.8698C262.88 16.6458 265.073 12.1458 273.578 2.19792C279.354 -4.5625 284.146 -11.6042 284.146 -13.4688C284.146 -19.0677 272.427 -15.3854 270.005 -9.02604C266.156 1.09896 261.916 -2.41146 262.791 -15C263.427 -24.1823 262.599 -27.651 258.708 -31.8281L253.823 -37ZM238.005 44.8125C239.073 44.875 241.609 46.901 244.495 50.1302C249.291 55.5 251.489 60.3438 251.489 65.6458C251.489 69.9063 251.047 73.4427 250.547 73.4427C249.291 73.4427 246.286 66.2188 245.224 60.6927C244.745 58.1979 242.818 54.4792 240.922 52.3906C239.031 50.2969 237.495 47.1302 237.495 45.3958C237.495 44.9635 237.651 44.7917 238.005 44.8125ZM232.323 79.0521C236.76 79.3802 247.526 86.8021 249.234 91.2917C252.271 99.2812 250.547 100.771 245.297 94.6458C242.995 91.9583 239.818 89.7656 238.224 89.7656C235.526 89.7656 229.156 80.75 230.864 79.3438C231.193 79.0729 231.687 79.0052 232.323 79.0521ZM296.026 98.0677C296.588 98.0729 297.271 98.1719 297.995 98.3594C301.844 99.3646 300.943 100.75 291.948 107.615C286.114 112.057 279.297 115.88 276.859 116.062C274.417 116.245 272.484 117.167 272.484 118.177C272.484 119.188 271.302 120.068 269.932 120.068C268.562 120.068 267.771 117.708 268.182 114.823C268.828 110.286 270.161 109.651 277.729 110.307C284.463 110.896 286.479 110.224 286.479 107.396C286.479 105.37 288.052 103.75 289.979 103.75C291.901 103.75 293.474 102.276 293.474 100.474C293.474 98.901 294.344 98.0573 296.026 98.0677ZM268.984 131.432L274.453 134.13C277.458 135.594 282.443 136.141 285.531 135.37C288.708 134.568 291.146 134.969 291.146 136.312C291.146 137.62 290.135 138.719 288.958 138.719C287.781 138.719 285.307 139.26 283.489 139.958C281.672 140.656 277.693 139.005 274.599 136.312L268.984 131.432ZM294.568 137.188C295.099 137.266 295.88 137.812 296.974 138.719C299.583 140.88 300.474 140.917 300.474 138.865C300.474 137.349 301.62 136.859 303.099 137.771C304.958 138.922 304.474 140.406 301.495 142.578C295.484 146.969 293.474 146.495 293.474 140.76C293.474 138.177 293.687 137.057 294.568 137.188ZM329.703 145.714C331.703 145.714 332.755 146.76 331.963 148.042C330.099 151.062 326.13 151.062 326.13 148.042C326.13 146.76 327.703 145.714 329.703 145.714ZM274.818 183.016C276.099 183.016 277.146 188.26 277.146 194.672C277.146 206.49 276.797 207.505 274.015 204.724C271.531 202.24 272.245 183.016 274.818 183.016ZM257.031 214.12C257.864 213.979 258.489 214.49 258.489 215.505C258.489 216.865 257.437 217.984 256.156 217.984C253.166 217.984 253.166 216.333 256.156 214.484C256.474 214.286 256.75 214.167 257.031 214.12ZM275.838 219.078C275.969 219.062 276.187 219.266 276.349 219.656C276.984 221.234 277.01 224.385 276.422 226.651C275.828 228.922 275.302 227.656 275.255 223.812C275.219 220.927 275.432 219.115 275.838 219.078ZM246.823 220.312C248.109 220.312 249.156 220.771 249.156 221.333C249.156 221.901 248.109 223.021 246.823 223.812C245.541 224.604 244.489 224.151 244.489 222.792C244.489 221.432 245.541 220.312 246.823 220.312ZM235.161 224.979C236.443 224.979 237.495 225.432 237.495 225.995C237.495 226.562 236.443 227.682 235.161 228.474C233.88 229.266 232.828 228.812 232.828 227.453C232.828 226.094 233.88 224.979 235.161 224.979ZM186.62 225.052C188.213 225.208 190.193 226.26 191.719 228.182C196.448 234.135 204.286 234.927 208.63 229.859C212.474 225.37 217.958 225.312 215.193 229.786C214.453 230.979 215.453 231.969 217.375 231.969C219.302 231.969 221.541 230.922 222.333 229.641C224.219 226.594 228.166 226.578 228.166 229.641C228.166 230.953 225.281 233.167 221.75 234.521C218.224 235.875 209.338 237.505 202.068 238.161C190.495 239.214 188.547 238.812 186.328 234.667C184.932 232.062 183.849 228.823 183.849 227.453C183.849 225.682 185.021 224.891 186.62 225.052ZM400.625 348.536C401.984 348.536 403.104 349.583 403.104 350.865C403.104 353.854 401.453 353.854 399.604 350.865C398.812 349.583 399.265 348.536 400.625 348.536ZM205.64 376.51C207.068 376.51 204.307 378.609 199.521 381.172C191.047 385.708 186.177 386.974 186.177 384.672C186.177 383.224 202.198 376.51 205.64 376.51ZM407.042 476.099C409.609 476.083 412.167 476.354 413.745 476.974C416.932 478.219 415.364 478.75 408.354 478.87C402.901 478.958 398.437 478.63 398.437 478.141C398.437 476.901 402.755 476.125 407.042 476.099ZM459.229 488.703C460.042 488.672 461.01 488.802 461.854 489.141C463.713 489.885 463.114 490.411 460.396 490.526C457.937 490.625 456.562 490.062 457.333 489.286C457.724 488.901 458.422 488.734 459.229 488.703ZM459.812 546.766C459.917 546.734 460.088 546.766 460.25 546.766C461.536 546.766 464.156 547.781 466.083 549.026C468.005 550.266 468.531 551.281 467.25 551.281C465.963 551.281 463.344 550.266 461.417 549.026C459.734 547.938 459.083 546.979 459.812 546.766ZM53.5102 640.964C54.6144 640.797 54.9269 641.281 54.3123 642.276C53.5311 643.542 51.9477 644.604 50.7446 644.604C47.3852 644.604 48.0884 642.875 52.1248 641.328C52.6456 641.13 53.1456 641.016 53.5102 640.964ZM91.1977 661L96.5154 666.682L101.765 672.365L105.776 666.245C109.422 660.677 109.927 660.568 112.041 664.349C113.781 667.453 114.844 667.703 116.198 665.516C117.479 663.438 118.427 664.021 119.552 667.552C121.146 672.573 125.526 674.562 125.526 670.25C125.526 668.969 128.416 667.911 131.943 667.917H138.354L131.359 671.635C126.849 674.01 120.812 674.88 114.448 674.182C109.021 673.589 105.151 674.083 105.849 675.203C107.687 678.177 104.208 677.635 97.0259 673.891C93.3644 671.984 90.4686 671.557 90.0311 672.875C89.6144 674.115 87.3644 674.406 85.0727 673.526C81.2029 672.042 81.3071 671.557 86.0936 666.464L91.1977 661ZM145.427 663.547C145.916 663.542 146.39 663.552 146.812 663.693C148.557 664.276 147.489 665.344 144.333 666.172C140.453 667.182 139.541 666.88 141.271 665.151C142.291 664.135 143.953 663.557 145.427 663.547ZM121.739 759.641C122.573 759.5 123.198 760.005 123.198 761.026C123.198 762.38 122.146 763.5 120.864 763.5C117.875 763.5 117.875 761.849 120.864 760.005C121.182 759.807 121.458 759.688 121.739 759.641Z" fill="#001223"/>
</g>
</svg>
